<?xml version="1.0" encoding="UTF-8" standalone="no"?>
<svg
   xmlns:dc="http://purl.org/dc/elements/1.1/"
   xmlns:cc="http://creativecommons.org/ns#"
   xmlns:rdf="http://www.w3.org/1999/02/22-rdf-syntax-ns#"
   xmlns:svg="http://www.w3.org/2000/svg"
   xmlns="http://www.w3.org/2000/svg"
   viewBox="0 0 640.22668 133.58667"
   height="133.58667"
   width="640.22668"
   xml:space="preserve"
   id="svg2"
   version="1.1"><metadata
     id="metadata8"><rdf:RDF><cc:Work
         rdf:about=""><dc:format>image/svg+xml</dc:format><dc:type
           rdf:resource="http://purl.org/dc/dcmitype/StillImage" /></cc:Work></rdf:RDF></metadata><defs
     id="defs6" /><g
     transform="matrix(1.3333333,0,0,-1.3333333,0,133.58667)"
     id="g10"><g
       transform="scale(0.1)"
       id="g12"><path
         id="path14"
         style="fill:#231f20;fill-opacity:1;fill-rule:nonzero;stroke:none"
         d="M 126.316,877.504 H 229.82 c 94.575,0 136.371,-29.848 136.371,-90.566 0,-52.762 -41.796,-88.598 -125.414,-88.598 H 126.316 Z M 0.882813,280.289 H 254.711 c 133.371,0 266.758,47.758 266.758,201.078 0,90.543 -63.699,160.266 -152.297,170.18 v 2.027 c 72.652,21.871 122.43,74.606 122.43,154.262 C 491.602,936.234 382.105,985 275.605,985 H 0.882813 Z M 126.316,590.828 h 120.438 c 101.512,0 149.305,-25.832 149.305,-99.512 0,-92.582 -89.59,-103.527 -154.297,-103.527 H 126.316 v 203.039" /><path
         id="path16"
         style="fill:#231f20;fill-opacity:1;fill-rule:nonzero;stroke:none"
         d="M 603.352,280.289 H 722.79 V 1001.68 H 603.352 Z" /><path
         id="path18"
         style="fill:#231f20;fill-opacity:1;fill-rule:nonzero;stroke:none"
         d="m 922.094,519.184 c 0,74.656 52.75,143.328 140.366,143.328 87.58,0 140.33,-68.672 140.33,-143.328 0,-74.668 -52.75,-143.344 -140.33,-143.344 -87.616,0 -140.366,68.676 -140.366,143.344 z m -119.438,0 c 0,-150.329 115.453,-250.848 259.804,-250.848 144.31,0 259.77,100.519 259.77,250.848 0,150.296 -115.46,250.836 -259.77,250.836 -144.351,0 -259.804,-100.54 -259.804,-250.836" /><path
         id="path20"
         style="fill:#231f20;fill-opacity:1;fill-rule:nonzero;stroke:none"
         d="m 1495.66,519.184 c 0,74.656 52.78,143.328 140.36,143.328 87.59,0 140.34,-68.672 140.34,-143.328 0,-74.668 -52.75,-143.344 -140.34,-143.344 -87.58,0 -140.36,68.676 -140.36,143.344 z m -119.43,0 c 0,-150.329 115.47,-250.848 259.79,-250.848 144.31,0 259.78,100.519 259.78,250.848 0,150.296 -115.47,250.836 -259.78,250.836 -144.32,0 -259.79,-100.54 -259.79,-250.836" /><path
         id="path22"
         style="fill:#231f20;fill-opacity:1;fill-rule:nonzero;stroke:none"
         d="m 1968.71,758.082 h 113.46 V 683.43 h 1.97 c 20.93,44.75 66.72,86.59 146.34,86.59 73.67,0 124.43,-28.872 149.31,-88.614 34.84,60.75 85.57,88.614 157.25,88.614 127.42,0 172.19,-90.582 172.19,-205.024 V 280.289 H 2589.8 v 270.727 c 0,59.738 -17.91,111.496 -88.57,111.496 -74.66,0 -102.55,-61.715 -102.55,-123.395 V 280.289 h -119.41 v 284.707 c 0,58.695 -23.92,97.516 -81.64,97.516 -78.62,0 -109.46,-57.746 -109.46,-121.457 V 280.289 h -119.46 v 477.793" /><path
         id="path24"
         style="fill:#231f20;fill-opacity:1;fill-rule:nonzero;stroke:none"
         d="m 3202.21,519.184 c 0,-74.668 -52.76,-143.344 -140.35,-143.344 -87.57,0 -140.34,68.676 -140.34,143.344 0,74.656 52.77,143.328 140.34,143.328 87.59,0 140.35,-68.672 140.35,-143.328 z M 2806.05,280.289 h 113.47 v 71.664 h 2 c 34.85,-57.711 97.54,-83.617 164.25,-83.617 147.29,0 235.87,109.496 235.87,250.848 0,141.3 -94.56,250.836 -230.91,250.836 -89.58,0 -137.37,-41.84 -162.23,-72.668 h -3 V 1001.68 H 2806.05 V 280.289" /><path
         id="path26"
         style="fill:#231f20;fill-opacity:1;fill-rule:nonzero;stroke:none"
         d="m 3495.08,566.93 c 8.98,68.707 52.76,113.492 123.44,113.492 74.64,0 120.43,-43.781 121.41,-113.492 z m 364.31,-89.532 v 32.801 c 0,166.196 -90.57,259.821 -223.97,259.821 -144.31,0 -259.78,-100.54 -259.78,-250.836 0,-150.329 115.47,-250.848 259.78,-250.848 75.65,0 146.31,26.918 202.06,95.574 l -85.59,64.664 c -29.83,-36.82 -68.68,-64.664 -128.39,-64.664 -66.69,0 -120.45,42.754 -128.42,113.488 h 364.31" /><path
         id="path28"
         style="fill:#231f20;fill-opacity:1;fill-rule:nonzero;stroke:none"
         d="m 3937.27,758.082 h 119.42 v -75.66 h 2.03 c 25.87,54.73 78.62,87.598 141.33,87.598 14.94,0 28.88,-3.012 42.78,-6.977 V 647.566 c -19.91,4.997 -38.81,8.961 -57.71,8.961 -112.48,0 -128.43,-94.574 -128.43,-120.449 V 280.289 h -119.42 v 477.793" /><path
         id="path30"
         style="fill:#231f20;fill-opacity:1;fill-rule:nonzero;stroke:none"
         d="m 4510.02,662.512 c 86.61,0 141.35,-57.746 141.35,-140.328 0,-79.688 -53.74,-140.383 -142.34,-140.383 -80.63,0 -140.34,62.715 -140.34,138.359 0,84.606 57.73,142.352 141.33,142.352 z m 141.35,95.57 v -71.699 h -1.99 c -34.83,57.75 -97.54,83.637 -164.24,83.637 -147.33,0 -235.89,-109.536 -235.89,-250.836 0,-135.36 94.56,-244.883 237.87,-244.883 59.72,0 121.44,22.89 156.29,69.668 h 1.97 v -34.848 c 0,-94.558 -35.84,-160.211 -151.26,-160.211 -66.72,0 -116.48,24.863 -164.26,68.688 l -71.68,-97.571 c 67.7,-59.7379 148.32,-78.6129 236.93,-78.6129 186.12,0 269.73,109.4689 269.73,281.6559 v 435.012 h -113.47" /></g></g></svg>