<?xml version="1.0" encoding="UTF-8"?>
<svg width="51px" height="51px" viewBox="0 0 51 51" version="1.1" xmlns="http://www.w3.org/2000/svg" xmlns:xlink="http://www.w3.org/1999/xlink">
    <!-- Generator: Sketch 57.1 (83088) - https://sketch.com -->
    <title>Rbust - Black</title>
    <desc>Created with Sketch.</desc>
    <defs>
        <polygon id="path-1" points="0 0.0586985322 15.2608673 0.0586985322 15.2608673 10.8822991 0 10.8822991"></polygon>
        <polygon id="path-3" points="0 0.0184384615 22.9142019 0.0184384615 22.9142019 19.6117067 0 19.6117067"></polygon>
        <polygon id="path-5" points="0.0895167374 0.0184384615 27.9024604 0.0184384615 27.9024604 24.6114231 0.0895167374 24.6114231"></polygon>
        <polygon id="path-7" points="0.0822865385 0.0424673077 10.4825917 0.0424673077 10.4825917 16.0787308 0.0822865385 16.0787308"></polygon>
        <polygon id="path-9" points="0.0165455902 0.0614942308 7.73081538 0.0614942308 7.73081538 15.3145154 0.0165455902 15.3145154"></polygon>
        <polygon id="path-11" points="0.061623055 0.0614942308 19.7693451 0.0614942308 19.7693451 17.1357058 0.061623055 17.1357058"></polygon>
    </defs>
    <g id="Rbust---Black" stroke="none" stroke-width="1" fill="none" fill-rule="evenodd">
        <g id="Rburst">
            <path d="M24.6212308,20.7350308 C24.2439288,20.7350308 24.0680769,20.9126481 24.0680769,21.2674904 L24.0680769,24.6991038 L25.0868019,24.6991038 C25.5284423,24.6991038 26.4127038,24.2548154 26.4127038,22.7280519 C26.4127038,21.9533423 26.1266135,20.7350308 24.6212308,20.7350308 M30.0450808,29.7234865 L28.0965865,29.6560096 L26.4588,29.7002423 C26.1715327,29.7002423 26.0152962,29.6331577 26.0152962,29.5229192 C26.0152962,29.3899269 26.0838519,29.323725 26.2138038,29.323725 L26.3036423,29.323725 C26.4127038,29.323725 26.9455558,29.1246288 26.9455558,28.5054692 L26.9455558,27.4204442 C26.9455558,25.4949 26.43585,25.095825 24.7530462,25.095825 L24.3336692,25.095825 C24.1566404,25.095825 24.0680769,25.2063577 24.0680769,25.4289923 L24.0680769,28.8593308 C24.0680769,28.9248462 23.9581327,29.3471654 24.66615,29.3471654 C24.8206212,29.3471654 24.9078115,29.4117 24.9078115,29.5229192 C24.9078115,29.6793519 24.7316654,29.7665423 24.3776077,29.7665423 L22.5166962,29.7234865 L20.6140038,29.7665423 C20.373225,29.7665423 20.2607308,29.6793519 20.2607308,29.5229192 C20.2607308,29.3899269 20.5049423,29.3678596 20.9676692,29.323725 L21.5444596,29.2567385 C21.6981462,29.2361423 21.8538923,29.2128981 21.8538923,28.1496462 L21.8538923,21.2459135 C21.8538923,20.9126481 21.5216077,20.7350308 20.8798904,20.7350308 L20.6140038,20.7350308 C20.373225,20.7350308 20.2607308,20.6692212 20.2607308,20.5588846 C20.2607308,20.4030404 20.4602192,20.3122212 20.8375212,20.3122212 L25.751175,20.3122212 C27.8081423,20.3122212 28.8501115,21.0244558 28.8501115,22.4182269 C28.8501115,23.193525 28.3165731,24.1683115 25.7727519,24.8086558 C26.2599,24.8086558 29.1589558,24.8086558 29.1589558,27.8173615 L29.1589558,28.6603327 C29.1589558,29.0588192 29.2711558,29.2567385 29.4911423,29.3017558 L30.0450808,29.3899269 C30.1788577,29.4117 30.2450596,29.4793731 30.2450596,29.5906904 C30.2450596,29.6793519 30.1788577,29.7234865 30.0450808,29.7234865" id="Fill-1" fill="#110A27"></path>
            <path d="M24.9855865,34.3337885 C19.8625385,34.3337885 15.6932885,30.1661077 15.6932885,25.0408038 C15.6932885,19.9157942 19.8625385,15.7477212 24.9855865,15.7477212 C30.1084385,15.7477212 34.2766096,19.9157942 34.2766096,25.0408038 C34.2766096,30.1661077 30.1084385,34.3337885 24.9855865,34.3337885 M24.9855865,16.5025212 C20.2780904,16.5025212 16.4465192,20.3331115 16.4465192,25.0408038 C16.4465192,29.7492808 20.2780904,33.5784981 24.9855865,33.5784981 C29.6945538,33.5784981 33.5246538,29.7492808 33.5246538,25.0408038 C33.5246538,20.3331115 29.6945538,16.5025212 24.9855865,16.5025212" id="Fill-2" fill="#110A27"></path>
            <path d="M41.4287712,34.3754712 L41.6678827,34.3234904 C41.8355942,34.2831808 41.8455,34.1968731 41.6948538,34.1291019 L34.2109962,30.0308596 C34.1335154,30.1731692 34.0528962,30.3135173 33.9692365,30.4518058 L42.0575423,35.7810115 C42.2003423,35.8651615 42.2266269,35.8358365 42.1252154,35.7100038 L41.3140212,34.6800981 C41.2094712,34.5460269 41.2592942,34.4163692 41.4287712,34.3754712" id="Fill-3" fill="#110A27"></path>
            <path d="M7.84831154,35.7100038 C7.73836731,35.8358365 7.77691154,35.8651615 7.92451731,35.7810115 L16.0015442,30.4527865 C15.918375,30.3149885 15.8374615,30.175425 15.7606673,30.0339 L8.27151346,34.1291019 C8.130675,34.1968731 8.15215385,34.2831808 8.30319231,34.3234904 L8.55387692,34.3754712 C8.71138846,34.4163692 8.76003462,34.5460269 8.66284038,34.6800981 L7.84831154,35.7100038" id="Fill-4" fill="#110A27"></path>
            <path d="M6.42756923,29.6777827 C6.33263077,29.8078327 6.39206538,29.8720731 6.54869423,29.8206808 L14.7831346,27.4769365 C14.7464538,27.3222692 14.7127154,27.1665231 14.6828019,27.0093058 L5.14070192,28.9058192 C4.9725,28.9468154 4.9725,28.9818288 5.15168654,29.0012481 L6.44610577,29.1730788 C6.60763846,29.1871038 6.66707308,29.3181346 6.57497885,29.4552462 L6.42756923,29.6777827" id="Fill-5" fill="#110A27"></path>
            <g id="Group-9" transform="translate(5.001923, 20.203846)" fill="#110A27">
                <path d="M1.44418269,0.710861538 L0.149763462,0.869648077 C-0.0294230769,0.898188462 -0.0294230769,0.935751923 0.138778846,0.972923077 L9.68087885,2.86737692 C9.71079231,2.71241538 9.74374615,2.55863077 9.78013269,2.405925 L1.54677115,0.0605134615 C1.39014231,0.00225576923 1.33070769,0.0765 1.42564615,0.207628846 L1.57305577,0.418592308 C1.66515,0.558940385 1.60571538,0.689971154 1.44418269,0.710861538" id="Fill-6"></path>
                <path d="M30.4639673,4.45416346 L44.827725,3.82607885 C45.0069115,3.81117115 45.0119135,3.75987692 44.8560692,3.69357692 L44.1700212,3.38247692 C44.0263385,3.31490192 43.8389135,3.14218846 43.7454462,3.00595962 L43.3865827,2.34570577 C43.3064538,2.19378462 43.1102019,2.10237692 42.9411173,2.12061923 L30.4337596,3.95240192 C30.4476865,4.11864231 30.4581808,4.28605962 30.4639673,4.45416346" id="Fill-8"></path>
            </g>
            <path d="M43.532325,29.1730788 L44.8291962,29.0012481 C44.9981827,28.9818288 44.9981827,28.9468154 44.8361596,28.9058192 L35.288175,27.0073442 C35.2579673,27.1648558 35.2239346,27.3207981 35.1873519,27.4755635 L43.4231654,29.8206808 C43.5744981,29.8720731 43.6354038,29.8078327 43.547625,29.6777827 L43.4021769,29.4552462 C43.3088077,29.3181346 43.3684385,29.1871038 43.532325,29.1730788" id="Fill-10" fill="#110A27"></path>
            <path d="M43.547625,20.411475 C43.6354038,20.2803462 43.5744981,20.2061019 43.4231654,20.2643596 L35.1889212,22.6116346 C35.2249154,22.7642423 35.2579673,22.9182231 35.2877827,23.0731846 L44.8361596,21.1767692 C44.9981827,21.1395981 44.9981827,21.1020346 44.8291962,21.0734942 L43.532325,20.9147077 C43.3684385,20.8938173 43.3088077,20.7627865 43.4021769,20.6224385 L43.547625,20.411475" id="Fill-11" fill="#110A27"></path>
            <path d="M8.54730577,15.7104519 L8.30319231,15.7600788 C8.15215385,15.7997019 8.130675,15.88395 8.27151346,15.9501519 L15.7606673,20.0477077 C15.8364808,19.90785 15.9166096,19.7702481 15.9982096,19.6340192 L7.92451731,14.3096192 C7.77691154,14.2129154 7.73836731,14.2427308 7.84831154,14.3855308 L8.66284038,15.4122 C8.76003462,15.5391115 8.71138846,15.6700442 8.54730577,15.7104519" id="Fill-12" fill="#110A27"></path>
            <path d="M42.1252154,14.3855308 C42.2266269,14.2427308 42.2003423,14.2129154 42.0575423,14.3096192 L33.9724731,19.635 C34.0543673,19.7718173 34.1347904,19.9098115 34.2109962,20.0505519 L41.6948538,15.9501519 C41.8455,15.88395 41.8355942,15.7997019 41.6678827,15.7600788 L41.4287712,15.7104519 C41.2592942,15.6700442 41.2094712,15.5391115 41.3140212,15.4122 L42.1252154,14.3855308" id="Fill-13" fill="#110A27"></path>
            <path d="M31.8759808,17.139825 L41.9071904,6.97052308 C42.0276288,6.86283462 41.9760404,6.80398846 41.8355942,6.86283462 L41.1283615,7.10233846 C40.9615327,7.14559038 40.7040808,7.14559038 40.5474519,7.10449615 L39.8254096,6.865875 C39.6677019,6.81938654 39.4674288,6.88637308 39.3533654,7.00906731 L31.4743558,16.8063635 C31.6114673,16.9142481 31.7447538,17.0256635 31.8759808,17.139825" id="Fill-14" fill="#110A27"></path>
            <path d="M7.04290385,8.90548269 C7.08674423,9.07427308 7.08674423,9.32005385 7.04290385,9.48855 L6.81987692,10.2034327 C6.76005,10.356825 6.82576154,10.5740654 6.95071154,10.6822442 L16.7503615,18.5523288 C16.8577558,18.4164923 16.9679942,18.2836962 17.0812731,18.1536462 L6.92442692,8.13499038 C6.78662885,8.01523846 6.74357308,8.04485769 6.79771154,8.19815192 L7.04290385,8.90548269" id="Fill-15" fill="#110A27"></path>
            <path d="M19.5048519,33.9821827 L14.1502442,42.1206058 C14.0417712,42.2578154 14.082375,42.2739981 14.2159558,42.1822962 L15.2377212,41.3641385 C15.3740481,41.270475 15.5040981,41.3077442 15.5563731,41.48085 L15.5974673,41.7259442 C15.6247327,41.8846327 15.7151596,41.9108192 15.7864615,41.7471288 L19.9120673,34.2199212 C19.7742692,34.1433231 19.6380404,34.0645673 19.5048519,33.9821827" id="Fill-16" fill="#110A27"></path>
            <path d="M16.7529115,31.5324173 L6.95071154,39.4112308 C6.82576154,39.5091115 6.76005,39.7228212 6.81987692,39.8887673 L7.04290385,40.594725 C7.08674423,40.7582192 7.08674423,41.0092962 7.04290385,41.1693577 L6.79771154,41.882475 C6.74357308,42.0351808 6.78662885,42.0677423 6.92442692,41.9474019 L17.083725,31.9302173 C16.9700538,31.8003635 16.8601096,31.6677635 16.7529115,31.5324173" id="Fill-17" fill="#110A27"></path>
            <g id="Group-21" transform="translate(0.000000, 22.263462)">
                <mask id="mask-2" fill="white">
                    <use xlink:href="#path-1"></use>
                </mask>
                <g id="Clip-19"></g>
                <path d="M15.0989423,6.28261154 L4.46799231,10.1557673 C4.31361923,10.2112788 4.31361923,10.2583558 4.47740769,10.2507058 L5.78820577,10.2112788 C5.96091923,10.2112788 6.03830192,10.3321096 5.97288462,10.4764788 L5.86323462,10.7080385 C5.78820577,10.8542712 5.85764423,10.9303788 6.01113462,10.8491712 L15.2608673,6.70689231 C15.204375,6.56683846 15.14955,6.42550962 15.0989423,6.28261154" id="Fill-18" fill="#110A27" mask="url(#mask-2)"></path>
                <path d="M0.130148077,1.76646346 L14.5044981,2.39454808 C14.5100885,2.22673846 14.5208769,2.05961538 14.5344115,1.89366923 L2.03754808,0.0610038462 C1.85453654,0.0427615385 1.66397308,0.134169231 1.58129423,0.286090385 L1.22203846,0.946344231 C1.13975192,1.08257308 0.940655769,1.25528654 0.788440385,1.32286154 L0.108963462,1.63396154 C-0.0397211538,1.70026154 -0.0397211538,1.75155577 0.130148077,1.76646346" id="Fill-20" fill="#110A27" mask="url(#mask-2)"></path>
            </g>
            <path d="M4.46799231,17.670225 L15.0984519,21.5367115 C15.1486673,21.3945981 15.2028058,21.2545442 15.2592,21.1151769 L6.00505385,16.9748596 C5.85764423,16.8955154 5.78820577,16.9637769 5.86323462,17.1243288 L5.97288462,17.3482385 C6.03830192,17.4922154 5.96091923,17.6134385 5.78820577,17.6134385 L4.47740769,17.5736192 C4.31361923,17.5736192 4.31361923,17.6134385 4.46799231,17.670225" id="Fill-22" fill="#110A27"></path>
            <g id="Group-26" transform="translate(0.000000, 25.401923)">
                <mask id="mask-4" fill="white">
                    <use xlink:href="#path-3"></use>
                </mask>
                <g id="Clip-24"></g>
                <path d="M22.4493173,9.818775 L20.0983154,18.0692019 C20.0370173,18.2257327 20.1247962,18.2853635 20.2484712,18.1931712 L20.4767942,18.0571385 C20.6026269,17.95965 20.7258115,18.0234 20.7597462,18.1879731 L20.916375,19.4806269 C20.9401096,19.6554 20.9676692,19.6554 21.0156288,19.4806269 L22.9142019,9.92420769 C22.7576712,9.89262692 22.6032,9.857025 22.4493173,9.818775" id="Fill-23" fill="#110A27" mask="url(#mask-4)"></path>
                <path d="M14.5044981,0.0184384615 L0.130148077,0.653192308 C-0.0397211538,0.660842308 -0.0397211538,0.720767308 0.108963462,0.780692308 L0.788440385,1.09855962 C0.940655769,1.16760577 1.13975192,1.33502308 1.22203846,1.48615962 L1.58129423,2.13435 C1.66397308,2.28656538 1.85453654,2.38003269 2.03754808,2.35992692 L14.5346077,0.524319231 C14.5208769,0.356705769 14.5100885,0.188013462 14.5044981,0.0184384615" id="Fill-25" fill="#110A27" mask="url(#mask-4)"></path>
            </g>
            <path d="M18.0409558,32.8952942 L7.97424231,43.1102019 C7.85772692,43.2378981 7.88116731,43.2916442 8.04319038,43.2378981 L8.74983462,42.9864288 C8.90734615,42.9448442 9.168525,42.9448442 9.32623269,42.9864288 L10.0394481,43.2094558 C10.1898,43.2628096 10.4232231,43.2043558 10.5315981,43.0734231 L18.4313019,33.2244404 C18.2986038,33.1177327 18.1685538,33.0080827 18.0409558,32.8952942" id="Fill-27" fill="#110A27"></path>
            <path d="M45.5114192,32.4192288 L34.8726231,28.5425423 C34.8210346,28.6874019 34.7663077,28.8303 34.7088346,28.9719231 L43.9705327,33.1126327 C44.1191192,33.1938404 44.1839481,33.1177327 44.1191192,32.9715 L44.0030942,32.7399404 C43.9320865,32.5955712 44.0087827,32.4747404 44.1839481,32.4747404 L45.4874885,32.5141673 C45.6434308,32.5218173 45.6676558,32.4747404 45.5114192,32.4192288" id="Fill-28" fill="#110A27"></path>
            <path d="M31.9265885,32.8978442 C31.799775,33.0096519 31.6706077,33.1183212 31.5388904,33.2244404 L39.4674288,43.0734231 C39.5709,43.2043558 39.7762731,43.2628096 39.9433962,43.2094558 L40.64955,42.9864288 C40.8082385,42.9448442 41.0688288,42.9448442 41.2268308,42.9864288 L41.9329846,43.2378981 C42.0923596,43.2916442 42.1192327,43.2378981 42.0032077,43.1102019 L31.9265885,32.8978442" id="Fill-29" fill="#110A27"></path>
            <g id="Group-34" transform="translate(22.067308, 25.401923)">
                <mask id="mask-6" fill="white">
                    <use xlink:href="#path-5"></use>
                </mask>
                <g id="Clip-31"></g>
                <path d="M20.8655712,15.7674346 C20.8231038,15.6073731 20.8231038,15.3562962 20.8655712,15.1928019 L21.0933058,14.4868442 C21.1375385,14.3208981 21.0835962,14.1071885 20.946975,14.0093077 L11.1523269,6.12804231 C11.0467962,6.26113269 10.9383231,6.39167308 10.8273981,6.51985962 L21.0024865,16.5454788 C21.1202769,16.6658192 21.1642154,16.6332577 21.1202769,16.4805519 L20.8655712,15.7674346" id="Fill-30" fill="#110A27" mask="url(#mask-6)"></path>
                <path d="M1.92122885,10.0817192 L0.0907211538,22.5952558 C0.077775,22.7577692 0.170359615,22.9552962 0.312375,23.0467038 L0.970863462,23.4022327 C1.11533077,23.4935423 1.28980962,23.6765538 1.35944423,23.8286712 L1.65995192,24.5136404 C1.737825,24.6663462 1.7901,24.6442788 1.80559615,24.4873558 L2.43426923,10.1180077 C2.26185,10.1101615 2.09090192,10.0981962 1.92122885,10.0817192" id="Fill-32" fill="#110A27" mask="url(#mask-6)"></path>
                <path d="M27.7623404,0.653192308 L13.3985827,0.0184384615 C13.3927962,0.188307692 13.3823019,0.357294231 13.368375,0.525103846 L25.8757327,2.35992692 C26.0448173,2.38003269 26.2410692,2.28656538 26.3211981,2.13435 L26.6800615,1.48615962 C26.7735288,1.33502308 26.9609538,1.16760577 27.1046365,1.09855962 L27.7906846,0.780692308 C27.9465288,0.720767308 27.9415269,0.660842308 27.7623404,0.653192308" id="Fill-33" fill="#110A27" mask="url(#mask-6)"></path>
            </g>
            <path d="M27.520875,35.2206981 C27.3665019,35.2591442 27.2109519,35.2949423 27.0532442,35.3266212 L28.9561327,44.88255 C28.9939904,45.0573231 29.0302788,45.0573231 29.0525423,44.88255 L29.2111327,43.5898962 C29.2379077,43.4253231 29.3800212,43.3615731 29.5154654,43.4590615 L29.7204462,43.5950942 C29.8575577,43.6872865 29.9350385,43.6276558 29.8733481,43.471125 L27.520875,35.2206981" id="Fill-35" fill="#110A27"></path>
            <g id="Group-39" transform="translate(25.401923, 33.934615)">
                <mask id="mask-8" fill="white">
                    <use xlink:href="#path-7"></use>
                </mask>
                <g id="Clip-37"></g>
                <path d="M5.07214615,0.0424673077 C4.93532885,0.126519231 4.79674615,0.207236538 4.65688846,0.285305769 L8.78200385,7.81251346 C8.85409038,7.97620385 8.94510577,7.95001731 8.98129615,7.79132885 L9.02758846,7.54623462 C9.06819231,7.37312885 9.19902692,7.33585962 9.32986154,7.42952308 L10.3630038,8.24768077 C10.4824615,8.33938269 10.5268904,8.3232 10.4288135,8.18599038 L5.07214615,0.0424673077" id="Fill-36" fill="#110A27" mask="url(#mask-8)"></path>
                <path d="M0.575221154,1.54951731 C0.412021154,1.56491538 0.248134615,1.577175 0.0822865385,1.58502115 L0.705565385,15.9546635 C0.705565385,16.1115865 0.770688462,16.1336538 0.830319231,15.9809481 L1.14063462,15.2959788 C1.20928846,15.1438615 1.38396346,14.96085 1.53353077,14.8695404 L2.18299615,14.5140115 C2.33050385,14.4226038 2.43966346,14.2250769 2.40680769,14.0625635 L0.575221154,1.54951731" id="Fill-38" fill="#110A27" mask="url(#mask-8)"></path>
            </g>
            <path d="M29.0104673,34.7279596 C28.8686481,34.7872962 28.7254558,34.844475 28.5803019,34.8975346 L32.4591462,45.5576135 C32.5308404,45.7145365 32.5744846,45.7145365 32.5635,45.5465308 L32.536725,44.2378904 C32.5287808,44.0737096 32.6423538,43.9866173 32.7977077,44.0569385 L33.0316212,44.1605077 C33.1725577,44.2378904 33.2421923,44.1730615 33.1725577,44.0296731 L29.0104673,34.7279596" id="Fill-40" fill="#110A27"></path>
            <path d="M20.9643346,34.7296269 L16.8147,44.0296731 C16.7322173,44.1730615 16.8036173,44.2378904 16.9521058,44.1730615 L17.1894519,44.0569385 C17.3250923,43.9866173 17.44455,44.0737096 17.44455,44.2378904 L17.4064962,45.5465308 C17.4064962,45.7145365 17.44455,45.7145365 17.5213442,45.5576135 L21.3921462,34.898025 C21.2482673,34.8454558 21.1056635,34.7884731 20.9643346,34.7296269" id="Fill-41" fill="#110A27"></path>
            <path d="M34.8729173,21.5404385 L45.5114192,17.670225 C45.6676558,17.6134385 45.6434308,17.5736192 45.4874885,17.5736192 L44.1839481,17.6134385 C44.0087827,17.6134385 43.9320865,17.4922154 44.0030942,17.3459827 L44.1191192,17.1243288 C44.1839481,16.9637769 44.1191192,16.8955154 43.9705327,16.9748596 L34.7103058,21.1132154 C34.7671904,21.25425 34.8221135,21.3963635 34.8729173,21.5404385" id="Fill-42" fill="#110A27"></path>
            <path d="M30.3937442,16.0545058 L35.7205962,7.97139808 C35.8307365,7.83458077 35.7822865,7.80064615 35.6565519,7.90362692 L34.6232135,8.71050577 C34.4921827,8.81250577 34.3565423,8.77062692 34.3283942,8.60634808 L34.2768058,8.36007692 C34.2313962,8.19324808 34.1680385,8.18373462 34.0735904,8.33604808 L29.9759365,15.8142173 C30.1174615,15.8911096 30.2565346,15.9713365 30.3937442,16.0545058" id="Fill-43" fill="#110A27"></path>
            <g id="Group-47" transform="translate(16.869231, 0.000000)">
                <mask id="mask-10" fill="white">
                    <use xlink:href="#path-9"></use>
                </mask>
                <g id="Clip-45"></g>
                <path d="M4.18847308,15.3145154 C4.32754615,15.2583173 4.46730577,15.2041788 4.60981154,15.1537673 L0.738813462,4.52330769 C0.689480769,4.36922885 0.652113462,4.37325 0.652113462,4.52517115 L0.689480769,5.84538462 C0.694678846,6.01515577 0.570219231,6.08783077 0.418984615,6.02025577 L0.196153846,5.90952692 C0.0329538462,5.84538462 -0.021675,5.90952692 0.0431538462,6.06360577 L4.18847308,15.3145154" id="Fill-44" fill="#110A27" mask="url(#mask-10)"></path>
                <path d="M7.73081538,14.5585385 L7.10881154,0.200371154 C7.09145192,0.0259903846 7.03152692,0.0183403846 6.97189615,0.1632 L6.65805,0.853073077 C6.59096538,1.00126731 6.42894231,1.20046154 6.27613846,1.27637308 L5.61784615,1.64004231 C5.48426538,1.72134808 5.37942115,1.92485769 5.39599615,2.09158846 L7.23640962,14.5884519 C7.40049231,14.5749173 7.56526154,14.5646192 7.73081538,14.5585385" id="Fill-46" fill="#110A27" mask="url(#mask-10)"></path>
            </g>
            <path d="M22.5468058,14.8378615 C22.7000019,14.8013769 22.8539827,14.7680308 23.0094346,14.7380192 L21.1179231,5.19748846 C21.1077231,5.03654423 21.0473077,5.03654423 21.0215135,5.19748846 L20.8696904,6.49602692 C20.8400712,6.67285962 20.7125712,6.72758654 20.5707519,6.63225577 L20.3633192,6.48808269 C20.2258154,6.39598846 20.1686365,6.44934231 20.2059058,6.60773654 L22.5468058,14.8378615" id="Fill-48" fill="#110A27"></path>
            <path d="M19.5773308,16.0539173 C19.7161096,15.9702577 19.8561635,15.8893442 19.9989635,15.8119615 L15.9020942,8.33604808 C15.836775,8.18373462 15.7443865,8.19324808 15.7013308,8.36007692 L15.6468981,8.60634808 C15.6143365,8.77062692 15.4778135,8.81250577 15.3596308,8.71050577 L14.3274692,7.90362692 C14.1904558,7.80064615 14.1565212,7.83458077 14.2596,7.97139808 L19.5773308,16.0539173" id="Fill-49" fill="#110A27"></path>
            <path d="M28.9094481,15.3134365 L33.0643788,6.06360577 C33.1286192,5.90952692 33.0643788,5.84538462 32.9286404,5.90952692 L32.6947269,6.02025577 C32.536725,6.08783077 32.4268788,6.01515577 32.4268788,5.84538462 L32.4453173,4.52517115 C32.4591462,4.37325 32.4268788,4.36922885 32.3584212,4.52330769 L28.4922288,15.1537673 C28.6330673,15.2038846 28.7717481,15.2576308 28.9094481,15.3134365" id="Fill-50" fill="#110A27"></path>
            <g id="Group-54" transform="translate(7.944231, 0.000000)">
                <mask id="mask-12" fill="white">
                    <use xlink:href="#path-11"></use>
                </mask>
                <g id="Clip-52"></g>
                <path d="M10.1548846,17.1357058 C10.2860135,17.0211519 10.4196923,16.9104231 10.5562154,16.8026365 L2.68505192,7.00906731 C2.58736731,6.88637308 2.35296346,6.81938654 2.20084615,6.865875 L1.490475,7.10449615 C1.32227308,7.14559038 1.07011731,7.14559038 0.908192308,7.10233846 L0.207923077,6.86283462 C0.0440365385,6.80398846 0.0168692308,6.86283462 0.131325,6.97052308 L10.1548846,17.1357058" id="Fill-51" fill="#110A27" mask="url(#mask-12)"></path>
                <path d="M17.9355231,14.5895308 L19.7677962,2.09158846 C19.7826058,1.92485769 19.6902173,1.72134808 19.5334904,1.64004231 L18.8915769,1.27637308 C18.7304365,1.20046154 18.5606654,1.00126731 18.4831846,0.853073077 L18.1909154,0.1632 C18.1300096,0.0183403846 18.0599827,0.0259903846 18.0495865,0.200371154 L17.4276808,14.5585385 C17.5982365,14.5647173 17.767125,14.5754077 17.9355231,14.5895308" id="Fill-53" fill="#110A27" mask="url(#mask-12)"></path>
            </g>
            <path d="M33.2222827,18.555075 L43.0142827,10.6822442 C43.1509038,10.5740654 43.2048462,10.356825 43.1606135,10.2034327 L42.9328788,9.48855 C42.8904115,9.32005385 42.8904115,9.07427308 42.9328788,8.90548269 L43.1875846,8.19815192 C43.2315231,8.04485769 43.1875846,8.01523846 43.0697942,8.13499038 L32.8960788,18.1621788 C33.0082788,18.2903654 33.1166538,18.4212981 33.2222827,18.555075" id="Fill-55" fill="#110A27"></path>
            <path d="M27.4251519,14.8380577 L29.7592846,6.60773654 C29.8248981,6.44934231 29.7538904,6.39598846 29.6075596,6.48808269 L29.4125827,6.62215385 C29.2545808,6.72758654 29.1288462,6.67285962 29.1179596,6.49602692 L28.9434808,5.19748846 C28.9354385,5.03654423 28.8858115,5.03654423 28.8491308,5.19748846 L26.9517346,14.73645 C27.1105212,14.7666577 27.2685231,14.8008865 27.4251519,14.8380577" id="Fill-56" fill="#110A27"></path>
        </g>
    </g>
</svg>