<svg xmlns="http://www.w3.org/2000/svg" viewBox="0 0 1400 256"><defs><style>.cls-1{fill:#c33;}.cls-2{fill:#fff;}.cls-3{fill:#363436;}</style></defs><title>compsoc-horizontal</title><g id="horizontal"><g id="fill"><g id="bottom"><polygon id="bg-red" class="cls-1" points="820 176 820 224 844 224 844 248 988 248 988 224 1012 224 1012 200 1036 200 1036 224 1060 224 1060 248 1180 248 1180 224 1204 224 1204 200 1228 200 1228 224 1252 224 1252 248 1396 248 1396 176 1372 176 1372 152 1324 152 1324 104 1396 104 1396 32 1372 32 1372 8 1252 8 1252 32 1228 32 1228 56 1180 56 1180 32 1156 32 1156 8 1060 8 1060 32 1036 32 1036 56 1012 56 1012 32 988 32 988 8 868 8 868 32 844 32 844 56 820 56 820 128 844 128 844 176 820 176"/><g id="soc"><path id="c" class="cls-2" d="M1252,56V176h-24V56Zm96,0V32h-96V56Zm-96,120v24h96V176Z"/><path id="o" class="cls-2" d="M1132,32V56h-72V32Zm-72,24h-24V176h24Zm0,120v24h72V176Zm72,0h24V56h-24Z"/><path id="s" class="cls-2" d="M964,56H868V32h96ZM844,56v48h24V56Zm96,72V104H868v24Zm0,48h24V128H940Zm-96,0v24h96V176Z"/></g></g><g id="top"><polygon id="bg-dark" class="cls-3" points="652 248 652 224 628 224 628 248 556 248 556 224 532 224 532 176 484 176 484 248 412 248 412 224 364 224 364 248 244 248 244 224 220 224 220 200 196 200 196 248 52 248 52 224 28 224 28 200 4 200 4 56 28 56 28 32 52 32 52 8 172 8 172 32 196 32 196 56 220 56 220 32 244 32 244 8 340 8 340 32 364 32 364 56 388 56 388 32 412 32 412 8 460 8 460 32 484 32 484 56 532 56 532 32 556 32 556 8 604 8 604 32 652 32 652 8 772 8 772 32 796 32 796 56 820 56 820 128 796 128 796 152 772 152 772 176 724 176 724 248 652 248"/><g id="comp"><path id="p" class="cls-2" d="M652,200V32h96V56H676v48h72v24H676v72ZM748,56v48h24V56Z"/><path id="m" class="cls-2" d="M412,200V32h24V56h24V80H436V200ZM460,80v24h24v24h24V104h24V80H508v24H484V80ZM580,200V32H556V56H532V80h24V200Z"/><path id="o-2" data-name="o" class="cls-2" d="M316,32V56H244V32ZM244,56H220V176h24Zm0,120v24h72V176Zm72,0h24V56H316Z"/><polygon id="c-2" data-name="c" class="cls-2" points="148 32 52 32 52 56 28 56 28 176 52 176 52 200 148 200 148 176 52 176 52 56 148 56 148 32"/></g></g></g></g></svg>