<?xml version="1.0" encoding="UTF-8" standalone="no"?>
<!-- Created with Inkscape (http://www.inkscape.org/) -->

<svg
   xmlns:dc="http://purl.org/dc/elements/1.1/"
   xmlns:cc="http://creativecommons.org/ns#"
   xmlns:rdf="http://www.w3.org/1999/02/22-rdf-syntax-ns#"
   xmlns:svg="http://www.w3.org/2000/svg"
   xmlns="http://www.w3.org/2000/svg"
   xmlns:sodipodi="http://sodipodi.sourceforge.net/DTD/sodipodi-0.dtd"
   xmlns:inkscape="http://www.inkscape.org/namespaces/inkscape"
   width="255"
   height="255"
   id="svg2"
   version="1.1"
   inkscape:version="0.91 r13725"
   sodipodi:docname="compsoc-profile.svg"
   inkscape:export-filename="/home/anguspearson/Dropbox/CompSoc/compsoc-profile.png"
   inkscape:export-xdpi="361.41"
   inkscape:export-ydpi="361.41">
  <defs
     id="defs4" />
  <sodipodi:namedview
     id="base"
     pagecolor="#ffffff"
     bordercolor="#666666"
     borderopacity="1.0"
     inkscape:pageopacity="0.0"
     inkscape:pageshadow="2"
     inkscape:zoom="4"
     inkscape:cx="111.67134"
     inkscape:cy="113.0698"
     inkscape:document-units="px"
     inkscape:current-layer="layer1"
     showgrid="false"
     inkscape:window-width="1920"
     inkscape:window-height="951"
     inkscape:window-x="0"
     inkscape:window-y="28"
     inkscape:window-maximized="1" />
  <metadata
     id="metadata7">
    <rdf:RDF>
      <cc:Work
         rdf:about="">
        <dc:format>image/svg+xml</dc:format>
        <dc:type
           rdf:resource="http://purl.org/dc/dcmitype/StillImage" />
        <dc:title />
      </cc:Work>
    </rdf:RDF>
  </metadata>
  <g
     inkscape:label="Layer 1"
     inkscape:groupmode="layer"
     id="layer1">
    <g
       style="font-size:56.10084152px;font-style:normal;font-variant:normal;font-weight:normal;font-stretch:normal;line-height:125%;letter-spacing:0px;word-spacing:0px;fill:#000000;fill-opacity:1;stroke:none;font-family:Fipps;-inkscape-font-specification:Fipps"
       id="text2985"
       transform="translate(-2,6)">
      <path
         d="M 22.810547 46.427734 L 22.810547 53.441406 L 50.861328 53.441406 L 50.861328 60.453125 L 22.810547 60.453125 L 22.810547 95.517578 L 50.861328 95.517578 L 50.861328 102.5293 L 22.810547 102.5293 L 22.810547 95.517578 L 15.798828 95.517578 L 15.798828 60.453125 L 8.7871094 60.453125 L 8.7871094 102.5293 L 15.798828 102.5293 L 15.798828 109.54102 L 22.810547 109.54102 L 22.810547 116.55469 L 64.84375 116.83594 L 64.84375 117.11328 L 69.822266 117.1582 L 70.574219 117.09961 L 77.585938 117.09961 L 78.076172 116.66406 L 78.087891 126.66211 L 87.9375 126.75195 L 87.96875 136.68359 L 98.039062 136.57812 L 98.097656 126.6543 L 108 126.60938 L 108.17188 116.76172 L 113.99805 116.78125 L 113.97461 116.9668 L 120.98828 116.9668 L 128 116.9668 L 128.00781 116.72656 L 147.75391 116.67188 C 147.76871 120.96773 147.67969 126.67187 147.67969 126.67188 L 157.47852 126.66016 L 157.74805 136.70508 L 177.75195 136.58398 L 178.10352 126.63086 L 187.69141 126.61719 C 187.69141 126.61719 187.80322 116.87488 187.76562 116.69922 L 191.13672 116.68945 L 191.13672 116.67383 L 198.19336 116.66211 L 198.16992 116.64453 L 219.16406 116.6543 L 219.16406 95.517578 L 233.18945 95.517578 L 233.18945 88.503906 L 240.20117 88.503906 L 240.20117 81.492188 L 247.21484 81.492188 L 247.21484 60.453125 L 240.20117 60.453125 L 240.20117 53.441406 L 233.18945 53.441406 L 233.18945 46.427734 L 198.12695 46.427734 L 198.12695 53.441406 L 226.17578 53.441406 L 226.17578 60.453125 L 233.18945 60.453125 L 233.18945 74.478516 L 226.17578 74.478516 L 226.17578 81.492188 L 205.13867 81.492188 L 205.13867 102.5293 L 198.12695 102.5293 L 198.12695 53.441406 L 191.11328 53.441406 L 184.10156 53.441406 L 184.10156 46.427734 L 170.07617 46.427734 L 170.07617 53.441406 L 177.08789 53.441406 L 177.08789 102.5293 L 170.07617 102.5293 L 170.07617 67.466797 L 163.0625 67.466797 L 163.0625 74.478516 L 156.05078 74.478516 L 156.05078 81.492188 L 149.03711 81.492188 L 149.03711 74.478516 L 142.02539 74.478516 L 142.02539 67.466797 L 135.01172 67.466797 L 135.01172 102.5293 L 128 102.5293 L 128 53.441406 L 120.98828 53.441406 L 120.98828 60.453125 L 113.97461 60.453125 L 113.97461 53.441406 L 106.96289 53.441406 L 106.96289 46.427734 L 78.912109 46.427734 L 78.912109 53.441406 L 99.949219 53.441406 L 99.949219 60.453125 L 106.96289 60.453125 L 106.96289 95.517578 L 99.949219 95.517578 L 99.949219 102.5293 L 78.912109 102.5293 L 78.912109 95.517578 L 71.900391 95.517578 L 71.900391 60.453125 L 64.892578 60.453125 L 64.886719 53.441406 L 57.875 53.441406 L 57.875 46.427734 L 22.810547 46.427734 z M 71.900391 60.453125 L 78.912109 60.453125 L 78.912109 53.441406 L 71.900391 53.441406 L 71.900391 60.453125 z M 78.912109 60.453125 L 78.912109 95.517578 L 99.949219 95.517578 L 99.949219 60.453125 L 78.912109 60.453125 z M 128 53.441406 L 135.01172 53.441406 L 135.01172 60.453125 L 142.02539 60.453125 L 142.02539 67.466797 L 149.03711 67.466797 L 149.03711 74.478516 L 156.05078 74.478516 L 156.05078 67.466797 L 163.0625 67.466797 L 163.0625 60.453125 L 149.03711 60.453125 L 149.03711 53.441406 L 142.02539 53.441406 L 142.02539 46.427734 L 128 46.427734 L 128 53.441406 z M 163.0625 60.453125 L 170.07617 60.453125 L 170.07617 53.441406 L 163.0625 53.441406 L 163.0625 60.453125 z M 226.17578 74.478516 L 226.17578 60.453125 L 205.13867 60.453125 L 205.13867 74.478516 L 226.17578 74.478516 z M 15.798828 60.453125 L 22.810547 60.453125 L 22.810547 53.441406 L 15.798828 53.441406 L 15.798828 60.453125 z "
         transform="translate(2,-6)"
         id="path3000" />
    </g>
    <g
       style="font-size:79.2142868px;font-style:normal;font-weight:normal;line-height:125%;letter-spacing:0px;word-spacing:0px;fill:#000000;fill-opacity:1;stroke:none;font-family:Sans"
       id="text2989"
       transform="translate(0,-12)">
      <text
         xml:space="preserve"
         style="font-size:40px;font-style:normal;font-weight:normal;line-height:125%;letter-spacing:0px;word-spacing:0px;fill:#000000;fill-opacity:1;stroke:none;font-family:Sans"
         x="14.642857"
         y="187.14285"
         id="text3030"
         sodipodi:linespacing="125%"><tspan
           sodipodi:role="line"
           id="tspan3032"
           x="14.642857"
           y="187.14285" /></text>
      <g
         style="font-size:40px;line-height:125%;fill:#000000;font-family:Sans"
         id="text3034">
        <path
           style="font-variant:normal;font-stretch:normal;font-family:Fipps;-inkscape-font-specification:Fipps;fill:#d3371e"
           d="M 28.285156 116.64258 L 28.285156 126.60742 L 68.142578 126.60742 L 68.142578 136.57227 L 28.285156 136.57227 L 28.285156 156.5 L 58.177734 156.5 L 58.177734 166.46484 L 68.142578 166.46484 L 68.142578 186.39258 L 58.177734 186.39258 L 58.177734 196.35742 L 18.322266 196.35742 L 18.322266 186.39258 L 8.3574219 186.39258 L 8.3574219 206.32227 L 18.322266 206.32227 L 18.322266 216.28516 L 78.107422 216.28516 L 78.107422 206.32227 L 88.072266 206.32227 L 88.072266 196.35742 L 98.035156 196.35742 L 98.035156 206.32227 L 108 206.32227 L 108 216.28516 L 157.82227 216.28516 L 157.82227 206.32227 L 167.78516 206.32227 L 167.78516 196.35742 L 177.75 196.35742 L 177.75 206.32227 L 187.71484 206.32227 L 187.71484 216.28516 L 247.5 216.28516 L 247.5 186.39258 L 237.53516 186.39258 L 237.53516 176.42773 L 217.60742 176.42773 L 217.60742 156.5 L 247.5 156.5 L 247.5 126.60742 L 237.53516 126.60742 L 237.53516 116.64258 L 187.71484 116.64258 L 187.71484 126.60742 L 227.57227 126.60742 L 227.57227 136.57227 L 187.71484 136.57227 L 187.71484 186.39258 L 227.57227 186.39258 L 227.57227 196.35742 L 187.71484 196.35742 L 187.71484 186.39258 L 177.75 186.39258 L 177.75 136.57227 L 167.78516 136.57227 L 157.82227 136.57227 L 157.82227 126.60742 L 147.85742 126.60742 L 147.85742 116.64258 L 108 116.64258 L 108 126.60742 L 137.89258 126.60742 L 137.89258 136.57227 L 147.85742 136.57227 L 147.85742 186.39258 L 137.89258 186.39258 L 137.89258 196.35742 L 108 196.35742 L 108 186.39258 L 98.035156 186.39258 L 98.035156 136.57227 L 88.072266 136.57227 L 88.072266 126.60742 L 78.107422 126.60742 L 78.107422 116.64258 L 28.285156 116.64258 z M 98.035156 136.57227 L 108 136.57227 L 108 126.60742 L 98.035156 126.60742 L 98.035156 136.57227 z M 108 136.57227 L 108 186.39258 L 137.89258 186.39258 L 137.89258 136.57227 L 108 136.57227 z M 177.75 136.57227 L 187.71484 136.57227 L 187.71484 126.60742 L 177.75 126.60742 L 177.75 136.57227 z M 18.322266 186.39258 L 58.177734 186.39258 L 58.177734 166.46484 L 28.285156 166.46484 L 28.285156 156.5 L 18.322266 156.5 L 18.322266 136.57227 L 8.3574219 136.57227 L 8.3574219 166.46484 L 18.322266 166.46484 L 18.322266 186.39258 z M 18.322266 136.57227 L 28.285156 136.57227 L 28.285156 126.60742 L 18.322266 126.60742 L 18.322266 136.57227 z "
           transform="translate(0,12)"
           id="path3043" />
      </g>
    </g>
  </g>
</svg>
