<svg id="himg-back" xmlns="http://www.w3.org/2000/svg" viewBox="0 0 550 550">
  <defs>
    <style>
      .cls-1 {
        fill: red;
        stroke: #000;
        stroke-miterlimit: 10;
        stroke-width: 3px;
      }

      .cls-2, .cls-3 {
        fill: #f2f2f2;
      }

      .cls-3 {
        font-size: 45px;
        font-family: Minecraft;
      }

      .cls-4 {
        fill: none;
      }
    </style>
  </defs>
  <title>hoodies</title>
  <g id="himg-back-fabric">
    <g>
      <path class="cls-1" d="M90.25,499.43a59.7,59.7,0,0,1-14.19,4.34,159.68,159.68,0,0,1-32.31,2.66c-3.56-.06-4.09.3-4.41,3.91-0.33,3.77-.44,7.55-0.64,11.33a99.27,99.27,0,0,0,1.65,18.59c0.5,2.81,1.3,3.52,4.14,3.36,18-1,36-2.3,53.95-3.7,3.56-.28,3.77-0.64,4.18-4.3,1.38-12.44-2.25-23.72-7.81-34.57C93.35,498.2,93.13,498.09,90.25,499.43Z"/>
      <path class="cls-1" d="M132.55,86.54c10.88,14.55,22.31,28.67,34,42.57,2.48,2.95,4.7,6.13,7.7,8.6,5,4.12,11.15,5,17.2,5.93a126.91,126.91,0,0,0,22.72,1.5c10.34,0.08,18.72-.2,27-1.54a36.76,36.76,0,0,0,7.07-1.83c4.62-1.73,8.35-4.79,12-8,20-17.48,39.84-35.12,59-53.55,8-7.67,15.66-15.58,23.34-23.52,0.5-.52,1.63-1,1.1-1.93s-1.49-.32-2.27-0.33c-1.74,0-3.32.68-5,1-8.47,1.85-16.32,5.34-24,9.14-13.26,6.54-25.94,14.27-39.73,19.75a105.17,105.17,0,0,1-18.52,5.36c-10.65,2.1-21.3,1.35-31.91-.16-11.66-1.66-23.34-3.21-34.87-5.68a156.31,156.31,0,0,1-19.68-5.37,102.1,102.1,0,0,1-33-18.83,107.21,107.21,0,0,1-12.33-12.8c-1.17-1.42-2.23-1.48-3.55-.27s-2.63,2.42-4,3.49c-1.77,1.33-1.82,2.89-1,4.71A178.13,178.13,0,0,0,132.55,86.54ZM138,78.41c0.83-1.14,2.06-.62,3,0.08,3.36,2.57,6.84,4.93,10.36,7.27A174.64,174.64,0,0,0,188,104.39a143.44,143.44,0,0,0,23.51,6.46c1.25,0.23,2.15.73,2,2.13s-1.22,1.24-2.55,1.26c-2-.41-4.31-0.82-6.61-1.4a170.53,170.53,0,0,1-20.13-6.2,174.86,174.86,0,0,1-23.44-11.07,204.74,204.74,0,0,1-20.68-13.4c-0.42-.31-0.84-0.61-1.24-0.94C138,80.48,137.17,79.53,138,78.41Z"/>
      <path class="cls-1" d="M112.1,386c-1.8-14.07-3-28.19-4.25-42.3-1.53-16.85-2.45-33.76-3.57-50.65-0.71-10.74-1.2-21.5-2-32.24-1-13.85-2.21-27.68-3.14-41.53-0.31-4.6-.58-9.06-2.45-13.43-3-6.93-5.47-14.05-7.86-21.22-2.06-6.19-3.91-12.43-5.47-18.74-1.78-7.18-3.13-14.46-4.29-21.79A196.69,196.69,0,0,1,77,113c0-5.57,0-11.14,0-16.71,0-.86.41-2.16-0.46-2.45-1.06-.35-1.45,1.06-1.9,1.77a147.16,147.16,0,0,0-10,18.07,204.34,204.34,0,0,0-10.1,27,293.36,293.36,0,0,0-6.75,28.74c-1.73,9-1.93,18.14-2.7,27.23-0.53,6.29-1,12.58-1.57,18.86-1,10.41-2.18,20.81-3.18,31.23s-1.73,20.56-2.81,30.81c-0.51,4.8-.77,9.62-1.33,14.41-1.37,11.58-2.2,23.2-3.14,34.81-0.71,8.8-1.14,17.64-1.75,26.44-1,14-.91,28.05-0.75,42.09a12,12,0,0,0,.39,3.08,84.18,84.18,0,0,1,2.72,18.46A105.86,105.86,0,0,1,29,453.46c-2,6.67-1.68,13.57-.57,20.31C30,483.28,33.76,492,38.74,500.29a5,5,0,0,0,4.87,2.77c6.52-.19,13-0.15,19.56-0.87,8.37-.93,16.6-2.23,24.45-5.31,2.52-1,5.44-1.61,6.56-4.79,2.64-7.53,3.64-15.39,5-23.2a126.17,126.17,0,0,1,3.13-14.77q1.24-4.15,2.68-8.22a1.87,1.87,0,0,0-.09-1.92c-0.66-.75-1.22.1-1.75,0.33-3.11,1.38-6.18,2.86-9.28,4.24a128.39,128.39,0,0,1-20.59,6.89q-6.78,1.73-13.64,3.13c-2.61.53-5.28,0.78-7.94,1.06a1.82,1.82,0,0,1-2.22-1.4c-0.2-1.18.82-1.45,1.68-1.69a20.5,20.5,0,0,1,3-.7,152.32,152.32,0,0,0,22.77-4.91,134.31,134.31,0,0,0,27.69-11.29,6.33,6.33,0,0,0,3.51-3.78,97.74,97.74,0,0,1,3.43-10.54c0.91-2.17.32-3.37-1.2-4.8C104.2,414.73,98.11,408.87,92,403a9.48,9.48,0,0,1-1.55-1.87,1.52,1.52,0,0,1,.33-2,1.29,1.29,0,0,1,1.82.08c0.86,0.7,1.73,1.39,2.53,2.15,5.45,5.15,10.92,10.27,16.3,15.49,1.28,1.24,2,1.12,2.82-.34a10,10,0,0,0,.9-6C114.45,402.25,113.15,394.11,112.1,386Z"/>
      <path class="cls-1" d="M166.71,74.52a151.26,151.26,0,0,0,16.33,5c5.19,1.25,10.4,2.43,15.66,3.2,6.75,1,13.43,2.35,20.23,3s13.49,2.09,20.35,2A71.62,71.62,0,0,0,260.2,85c10.51-2.72,20.28-7.38,29.86-12.4,11.4-6,22.56-12.4,34.65-17a101.73,101.73,0,0,1,22.36-5.51,4.58,4.58,0,0,0,3.09-1.5c4.09-4.69,8.22-9.36,12.29-14.07,1.81-2.1,1.73-2.48-.54-4.19-5.5-4.15-11.19-8-17-11.79a4.08,4.08,0,0,0-4.41-.21A156.05,156.05,0,0,1,313,28.75c-8.6,2.48-17.24,4.81-26,6.67-9.64,2-19.3,4-29,5.4a279.47,279.47,0,0,1-31,2.94c-14.48.4-28.9,0.48-43.22-2.43-9.83-2-19.16-5-27.45-10.81-0.95-.67-1.93-1.39-3.27-1.06-4.4,1.1-9,.82-13.41,1.91-0.75.18-1.84-.13-2,0.93-0.13.85,0.59,1.42,1.29,1.92,1.38,1,2.74,2,4.06,3.1,8.14,6.55,16.21,13.18,25.47,18.17a57.4,57.4,0,0,0,13.84,5.3,43.85,43.85,0,0,0,13,1.39c1.2-.08,2.32.23,2.28,1.76s-1.18,1.49-2.25,1.54c-8,.37-15.59-1.46-22.94-4.39S158.36,53.57,152,48.86c-5.66-4.18-10.92-8.89-16.62-13-1.38-1-2.48-1-3.76.09s-2.54,2-3.83,3c-4.72,3.65-4.69,3.63-.85,8.11A93.87,93.87,0,0,0,166.71,74.52Z"/>
      <path class="cls-1" d="M159.92,29a44.9,44.9,0,0,0,7.41,4c10.48,4.46,21.54,6.43,32.83,7.26a261.47,261.47,0,0,0,31.38,0c9-.42,17.9-1.54,26.77-2.85,7.75-1.14,15.48-2.6,23.16-4.23s15.32-3.4,22.89-5.43a248,248,0,0,0,25.74-8.35c2.41-.94,4.73-2.09,7.05-3.22,0.95-.46,1.48-1.1.15-1.88-6.31-3.71-12.91-7-20.32-7.11C300,6.93,283.14,5.87,266.21,5.87c-9.13-.22-18.26-0.16-27.39-0.59-13.27-.63-26.51-1.16-39.69,1.55-9.22,1.89-18.44,3.75-27.07,7.62-5.27,2.36-9.93,5.57-12.92,10.79C158.2,26.88,158.41,28,159.92,29Z"/>
      <path class="cls-1" d="M515.36,460.17c-2.92-3.72-6.06-7.3-8-11.7-0.6-1.35-1.4-1.8-3-.86-11.29,6.79-22.52,13.69-34.49,19.29a62.1,62.1,0,0,1-7.78,3.24c-1.08.34-2.22,0.42-2.75-.69-0.64-1.33.8-1.68,1.51-2.34a1.83,1.83,0,0,1,.59-0.31,147.71,147.71,0,0,0,20.54-10c7.11-4.11,14.18-8.32,21.28-12.45,1.61-.93,2.31-2.11,1.84-4-0.75-3-1.48-6-2.38-9-2.08-6.87-4.53-13.61-6.87-20.39s-4.57-13.55-5.28-20.61c-1.58-15.8-2.67-31.64-4.79-47.39-0.95-7.05-2-14.09-3-21.14-0.4-2.85-.8-5.73-1.33-8.57-1.09-5.82-2.17-11.65-3.28-17.47-0.93-4.87-1.87-9.75-2.89-14.61-1.42-6.74-2.93-13.45-4.39-20.18-1-4.42-1.87-8.84-2.86-13.25-1-4.62-2.25-9.21-3.15-13.86-1.5-7.72-2.07-15.57-3.47-23.32a284.66,284.66,0,0,0-6.73-28.06c-3.37-11.72-7.34-23.27-11.55-34.73-3.64-9.93-6.75-20-10.33-30a331.45,331.45,0,0,1-10.38-34.41c-2.2-9.12-7.2-16.38-13.82-22.55-7.54-7-16.71-11.7-25.74-16.51-1.38-.73-2-0.48-2.61,1.08-2,5.58-3.39,11.34-5.12,17-2.33,7.6-3.85,15.37-5.53,23.1-1.79,8.26-2.89,16.64-4,25a406.69,406.69,0,0,0-3.42,41.26,641.21,641.21,0,0,0,5.1,101.1q0.62,5,1.4,9.92,1.57,10,3.24,20c0.87,5.19,1.78,10.37,2.78,15.54s2.38,10.11,3.13,15.23c0.82,5.63,3.12,10.83,4.25,16.36a1.75,1.75,0,0,0,.41.32c0.86-1.32.7-2.68,0.76-4,0.5-10.61.76-21.23,1.54-31.82,1.06-14.36,1.72-28.75,3.11-43.09,1.1-11.45,1.7-22.95,2.82-34.39,0.56-5.7.84-11.4,1.31-17.1,0.67-8.21,1.41-16.42,2-24.63,0.65-8.44,1.36-16.87,1.59-25.34,0.12-4.23.56-8.45,0.84-12.67,0.07-1,.33-1.72,1.56-1.69a1.54,1.54,0,0,1,1.77,1.76c0,0.82,0,1.64-.07,2.45-1.16,10.19-1,20.46-2,30.67-1.28,13-1.83,26.06-2.95,39.08-0.5,5.77-.9,11.54-1.4,17.31-1,11.76-2.18,23.5-3.1,35.26-0.86,11-1.65,21.92-2.16,32.89-0.72,15.5-1.85,31-1.71,46.53,0,0.88.19,2.11-.29,2.58-1.2,1.16-1,2.42-.76,3.71,0.87,4.43,1.71,8.88,2.76,13.27,1.74,7.27,3.41,14.55,5.57,21.72a178.36,178.36,0,0,0,6.9,19.19,128.37,128.37,0,0,0,11.66,20.91c1.92,2.84,4,5.5,7.24,7.05,10.75,5.24,22.24,7,34.05,7.23a88.65,88.65,0,0,0,15.12-.71c1.3-.2,2.78,0,3,1.59,0.21,1.76-1.41,1.61-2.53,1.71-3.18.28-6.37,0.46-9.55,0.73-7.08.6-14.12-.21-21.08-1.16a58.11,58.11,0,0,1-18.42-5.53c-2.74-1.39-3.45-1-3.51,2.06-0.08,3.71-.06,7.43.13,11.14,0.46,9,2.2,17.79,6.45,25.87,3.8,7.22,9.11,12.87,16.85,16.06a33.07,33.07,0,0,0,12.11,2.45c2.21,0,2.9.94,2.65,3-0.19,1.55-.2,3.11-0.36,4.66a187.46,187.46,0,0,0,.64,42.44c0.42,3.4,1.13,3.88,4.67,3.88h50.36a11.63,11.63,0,0,0,2.44-.12,2.68,2.68,0,0,0,2.38-2.5c1.7-12.33,1-24.57-.94-36.81-0.35-2.22-1.19-2.94-3.43-2.92-11.73.1-23.47,0.07-35.21,0-1.44,0-3.72.6-3.72-1.62s2.2-1.73,3.71-1.73c12,0,23.92,0,35.88,0,2.1,0,3.12-.64,3.82-2.76,2.08-6.32,4.49-12.53,6.72-18.8a11.41,11.41,0,0,0-.23-8.88C520,465.78,517.6,463,515.36,460.17Z"/>
      <path class="cls-1" d="M416.41,496.48c-3.58.95-7.19,1.78-10.8,2.59-6.21,1.4-12.47,2.6-18.65,4.14a156.7,156.7,0,0,1-29.2,4.39c-1.63.09-3.27,0-4.9,0a1.72,1.72,0,0,1-1.9-1.75,1.6,1.6,0,0,1,1.86-1.51c0.89,0,1.78,0,2.67,0,6,0.09,12-.89,17.93-1.74,6.53-.93,12.92-2.61,19.33-4.13,7.85-1.86,15.73-3.6,23.61-5.35,1.48-.33,2.34-1.12,2-2.63-0.78-3.7-.9-7.5-1.93-11.16-0.45-1.62-1.33-2.07-2.88-2.06-6.68,0-13.37,0-20.05-.05-12.34,0-24.61,1-36.89,2.17-8.87.83-17.71,1.87-26.54,2.93-7.51.9-15,2.16-22.46,3.19s-15.31,1.89-22.95,3q-18.51,2.69-37.12,4.37c-10.86,1-21.77,1.53-32.68,1.94-15.62.59-31.18-.19-46.76-0.87-1.36-.06-3.54,0-3.38-2s2.27-1.37,3.64-1.32c9.13,0.36,18.25,1.08,27.38,1.11a565.35,565.35,0,0,0,68.64-4.11c14.07-1.68,28.1-3.64,42.14-5.45,3.67-.47,7.35-0.95,11-1.48,7.63-1.1,15.27-2.16,22.93-3.09,5.52-.67,11.09-1,16.62-1.63C366,474.9,375,474.34,384,474c9.28-.37,18.57-0.24,27.85-0.1,3.51,0.05,3.8-.31,2.81-3.67a69.14,69.14,0,0,0-7.84-17.34c-4.34-6.89-8.84-13.68-13.19-20.57-1.7-2.68-3.68-5.38-4.18-8.52-1.08-6.81-1.75-13.68-2.54-20.54-1-8.55-1.89-17.11-2.9-25.65a37.08,37.08,0,0,0-4-13.07,103.6,103.6,0,0,0-13.38-19.6c-4.56-5.27-9.39-10.31-14.08-15.47-0.69-.76-1.58-1.74-0.52-2.68s2.06-.48,3,0.46c7.32,7.67,14.69,15.3,20.85,24,1.73,2.44,3.06,5.19,5.42,7.46a3.74,3.74,0,0,0,.25-1c-0.81-7.07-1.41-14.18-2.6-21.2-0.43-2.57-.13-5.22-0.91-7.69a170,170,0,0,1-4.39-19c-1.45-7.49-3.18-14.92-4.3-22.48-1.28-8.65-3-17.23-4.27-25.89-1.38-9.69-2.64-19.41-3.51-29.16-1.13-12.57-2.24-25.16-2.63-37.76-0.81-26.36-.5-52.73,2.54-79,0.77-6.63,2.06-13.19,2.95-19.8,0.66-4.93,1.85-9.75,2.78-14.62,1.15-6,2.53-12,4.2-17.94,1.83-6.47,3.47-13,5.83-19.32,0.73-2-.13-2.86-1.59-3.75q-3-1.84-6-3.78c-2.71-1.76-2.83-1.76-4.85.71-10.89,13.36-22.85,25.75-35.09,37.83-21.8,21.54-44.64,42-67.78,62.06-3.63,3.15-7.42,6.16-12,7.86-6.83,2.53-14,3.18-21.18,3.49-14.56.62-29.1,0.65-43.48-2.31-6-1.23-11.53-3.25-15.66-8.07-10.75-12.57-21.13-25.43-31.4-38.39C127.6,86.13,118,72.19,111,56.63c-0.74-1.64-1.68-1.73-3.07-.39A246.43,246.43,0,0,0,83.56,82.8c-1.48,1.9-2.94,3.75-2.95,6.51,0,7.95-.5,15.89-0.48,23.83A174.4,174.4,0,0,0,81,132.49a249.54,249.54,0,0,0,4.15,25.89c1.27,5.72,2.7,11.39,4.33,17a215.26,215.26,0,0,0,8,23c0.29,0.68.11,1.94,1.28,1.7,1-.2.77-1.32,0.76-2.1-0.24-12.55-.45-25.1-0.77-37.65-0.33-13.15-.23-26.29,1.77-39.33a69.09,69.09,0,0,1,2.25-10.88c0.37-1.13.92-1.91,2.19-1.73s1.14,1.33,1.12,2.27a4.77,4.77,0,0,1-.21,1.32,87,87,0,0,0-3.09,17.72,230.92,230.92,0,0,0-.81,25.15c0.29,16.11.82,32.23,0.82,48.34,0,8.91-.18,17.77.62,26.68,1.5,16.86,2.49,33.76,3.6,50.65,1,15.48,1.83,31,2.91,46.46,0.87,12.59,2.25,25.14,3.31,37.71,0.79,9.32,2.26,18.56,3,27.88a5.86,5.86,0,0,0,1.57,4,5,5,0,0,0,.83-2.6c1.36-6.83,2.58-13.69,4.12-20.48,1.74-7.67,2.92-15.43,4.27-23.16,1.17-6.72,2.07-13.48,3-20.25a343.83,343.83,0,0,0,3.17-34.78,197,197,0,0,0-1.06-31.8c-0.55-4.27-1.37-8.48-2-12.74-0.68-4.93-2-9.72-3-14.57-1-4.56-2-9.1-3-13.67-1.07-5.3-2.09-10.61-3-15.94-1-6.08-1.38-12.24-1.82-18.38a210.51,210.51,0,0,1-.55-21.15c0-1.32.25-2.73,2-2.69s1.4,1.66,1.39,2.73c-0.14,17.11,1,34.09,4.54,50.89,1.37,6.52,2.61,13.09,4.21,19.54a234.62,234.62,0,0,1,4.31,23.15,165.78,165.78,0,0,1,1.47,28.88c-0.15,4.82.06,9.66-.45,14.47-1,9.66-1.78,19.35-3.13,29-0.92,6.53-1.91,13.06-3,19.56-1.3,7.59-2.53,15.2-4.23,22.72-1.55,6.86-2.45,13.88-4.17,20.69a164.23,164.23,0,0,0-4.32,25c-1.47,15.81-2.74,31.65-.31,47.53,1,6.48,2.79,12.65,6.54,18a18.08,18.08,0,0,1,3.24,9.69c0.27,4.45.23,8.91,0.42,13.36,0.31,7.54,0,15.2,3.27,22.29,2.87,6.14,7.17,10.54,14.6,10.27,8.09-.29,16.18-0.44,24.27-0.71q46.21-1.52,92.42-2.81,39.2-1.15,78.4-2.23c21.68-.6,43.36-1.24,65-1.67a10.28,10.28,0,0,0,8.5-4.35,19.3,19.3,0,0,0,3.42-7.18A73.48,73.48,0,0,0,419,498.45C418.86,496.86,418.28,496,416.41,496.48Z"/>
      <path class="cls-1" d="M411.54,427.37A121.38,121.38,0,0,1,397.49,403,180.21,180.21,0,0,1,389.16,379c-0.13-.48-0.11-1.24-0.74-1.21s-0.71.87-.69,1.42c0.08,2,.15,4,0.38,6,1.09,9.35,2.1,18.7,3.41,28,0.67,4.78.56,9.7,3.11,14.18,4.44,7.79,9.64,15.08,14.43,22.64,1.61,2.54,2.56,5.51,5,7.73a1.93,1.93,0,0,0,.31-2.07c-1.42-7.19-1.37-14.47-.93-21.72A9.23,9.23,0,0,0,411.54,427.37Z"/>
    </g>
  </g>
  <g id="himg-atat">
    <g id="layer1">
      <path id="path3052" class="cls-2" d="M254.86,329.14c-1.41-.77-1.76-1.29-0.81-1.17,0.29,0,1.23.09,2.1,0.12,1.5,0.05,1.61,0,2.3-.72a2.7,2.7,0,0,1,1-.77,0.14,0.14,0,0,0,.13-0.24,1.45,1.45,0,0,0-1-.24,1.43,1.43,0,0,1-1-.25c-0.1-.17.35-0.23,1.35-0.18l1.51,0.07v0.79a1.16,1.16,0,0,0,.39,1c0.6,0.34,11.54.17,11.9-.18a1.7,1.7,0,0,0,.29-1c0-.68.05-0.72,0.93-0.72,0.56,0,.87.09,0.78,0.24a0.77,0.77,0,0,1-.59.24c-1,0-.62.45,0.92,1.16a8.28,8.28,0,0,0,2.24.75c1,0,1,.41,0,0.54a20.22,20.22,0,0,0-2.3.51c-1.32.37-1.48,0.37-2.38,0s-1.72-.39-4.78-0.37a31.6,31.6,0,0,0-4.62.27,4.55,4.55,0,0,1-1.67.1,4.77,4.77,0,0,0-1.92.22,13.15,13.15,0,0,1-2.26.48,3.41,3.41,0,0,1-2.57-.63h0Zm-39.35-.38a3.71,3.71,0,0,1-1.31-.43,3.81,3.81,0,0,0-1.66-.25c-1.29,0-1.87-.14-1.87-0.48a2.15,2.15,0,0,1,1.13-.21c1.23-.05,4.14-1,4.28-1.43a0.82,0.82,0,0,0-.76-0.41,0.94,0.94,0,0,1-.84-0.49c0-.26.27-0.3,1.25-0.19,1.63,0.18,2.08.44,2.08,1.16,0,0.88.84,1.08,4.14,1,2.88-.07,2.88-0.07,2.95-0.66,0.14-1.21.3-1.65,0.59-1.54s0.3-.34.3-1.61v-1.73l0.77-.07c0.87-.08,1,0.17.29,0.61s-0.64,2-.15,3.63l0.32,1.07,1.24,0.07c1.09,0.06,1.26,0,1.37-.42,0.18-.68.52-0.61,1.44,0.28,0.78,0.75.86,0.77,2.87,0.78,2.28,0,2.78.31,1.23,0.76a5.34,5.34,0,0,0-1.27.51c-0.32.25-16.91,0.3-18.4,0.06h0Zm84.42-2.86c-0.45-.29.17-0.42,3.68-0.81,2.17-.24,2.77-0.44,3-1a1.75,1.75,0,0,1,.28-0.57l2.08,0.56c2.25,0.62,2.77,1.11,1.18,1.11a2.65,2.65,0,0,0-1.39.33c-0.45.39-8.26,0.75-8.81,0.4h0Zm-43.8-.25a0.31,0.31,0,0,1,.34-0.24,0.63,0.63,0,0,1,.49.24c0.08,0.13-.07.24-0.34,0.24A0.44,0.44,0,0,1,256.12,325.64Zm39.45,0.07c-0.46-.12-0.55-0.44-0.17-0.67,0.55-.34-0.13-0.59-1.61-0.59-1.28,0-1.68.1-2.11,0.5s-0.56.49-2.12,0.1c-1.27-.32-2.7-0.4-7.14-0.38a35.62,35.62,0,0,1-5.69-.21c-0.08-.12-0.41-1.59-0.74-3.27-0.56-2.84-1-3.88-1.61-3.88a19.11,19.11,0,0,1-2.24-.75c-1.79-.68-2-0.8-1.82-1.25a6.32,6.32,0,0,0,.2-1.45c0-1.25.7-1.35,0.82-.12,0.1,1,.38,1.36.86,1,0.29-.24.33-0.67,0.21-2.16a9.49,9.49,0,0,1,.29-3.55l0.44-1.68-0.64-.67c-0.73-.76-0.8-1.45-0.28-2.9a6.26,6.26,0,0,0,.36-1.57,1,1,0,0,1,.51-0.83c0.46-.25.49-0.4,0.35-1.73-0.08-.8-0.27-3-0.4-4.91-0.22-3-.32-3.55-0.84-4.3a5.64,5.64,0,0,1-.7-5.19c0.28-.8.31-1.55,0.13-4-0.49-6.85-.57-7.43-1.08-7.43a0.81,0.81,0,0,1-.58-0.54,79.18,79.18,0,0,1-1.22-8.75,16.85,16.85,0,0,0-.49-2.92c-0.19-.37-0.09-0.42.84-0.42a6.63,6.63,0,0,1,2.17.48,7.36,7.36,0,0,0,3.11.48c1.91,0,2,0,2,.54,0,0.29.15,2.68,0.31,5.3,0.24,3.94.24,4.87,0,5.41s-0.25,1.39.16,5.53,0.55,5,1,5.57c1,1.31,1.08,3.11.32,5.5-0.3.95-.29,1.56,0.11,5.34a40.47,40.47,0,0,1,.34,4.57,1.48,1.48,0,0,0,.84.9,2,2,0,0,1,1.11,1.38c0.2,1,.54,2.18,1.64,5.66,0.47,1.51,1,3.38,1.25,4.16a4.5,4.5,0,0,0,1.1,2.08c0.53,0.5,1,1.44,1.78,3.89,1.14,3.41,1.48,3.89,2.82,4l0.66,0,0.29-2.3a14.36,14.36,0,0,1,.55-2.78,2.47,2.47,0,0,0,.26-1,2.33,2.33,0,0,1,.22-0.91,53.55,53.55,0,0,0,.73-5.65c0.8-8.15.74-7.84,1.44-7.94s1.19-.46,1.07-0.83a18.34,18.34,0,0,1-.22-1.95c-0.07-.92-0.31-3.1-0.54-4.85-0.32-2.54-.51-3.32-0.92-3.81a5.06,5.06,0,0,1-1.3-3.83,8.41,8.41,0,0,1,.32-2.45c0.49-1.19,0-7-.61-7.7-0.36-.4-0.51-1.06-0.67-3-0.29-3.48-.69-6.81-1-8a14.41,14.41,0,0,1-.23-2.55c0-1.2-.09-1.58-0.41-1.76s-0.39-.26,0-0.7c0.57-.63.46-1.86-0.17-1.75a1.23,1.23,0,0,1-.88-0.32c-0.61-.55-0.94-0.25-0.94.84a1.71,1.71,0,0,1-.25,1.08c-0.39.24-.94-0.36-0.95-1a2.36,2.36,0,0,0-.45-1.2c-0.44-.57-0.57-0.6-4-0.81a8.9,8.9,0,0,0-1.49.14c-0.81.14-1,.1-1-0.18,0-.54-0.65-0.77-2.8-1-2.88-.35-3-0.29-2.79,1.41,0.18,1.55.2,1.54-1.44,1.16a23,23,0,0,0-2.91-.34,11.14,11.14,0,0,1-2.19-.26,2.64,2.64,0,0,1-.24-1.39,3.93,3.93,0,0,0-.32-1.71,5.58,5.58,0,0,1-.46-1.9,15.36,15.36,0,0,0-.3-1.95c-0.14-.49-0.09-0.52.91-0.45a4.81,4.81,0,0,1,1.29.21c0.2,0.12,9.3,1.94,12.33,2.47,1.38,0.24,2.26.16,2.26-.21a1.52,1.52,0,0,0-1.52-.89,12.44,12.44,0,0,1-2.35-.5c-0.91-.27-2.16-0.59-2.76-0.7s-2.58-.53-4.4-0.93a12.42,12.42,0,0,0-3.66-.52,0.64,0.64,0,0,1-.79-0.22,3.45,3.45,0,0,0-1.57-.6,4.18,4.18,0,0,1-2-.85,3.17,3.17,0,0,0-1.14-.68c-0.23,0-.27-0.22-0.16-0.81,0.18-.95.06-1-1.62-1.36l-1.86-.36a0.9,0.9,0,0,0-.92.25c-0.5.61,0,1,1.9,1.31s2,0.65.52,1.15c-1.08.36-2.43,1.71-2.43,2.43a2.39,2.39,0,0,0,.55,1.12c1.1,1.35,1.36,2,1.36,3.17,0,0.67.33,3.53,0.73,6.37s0.86,6.12,1,7.29c0.21,1.5.41,2.2,0.69,2.37,0.79,0.5.88-.09,0.51-3.54-0.29-2.75-.79-8.29-0.81-9,0-.49.51-0.08,0.81,0.64a1.32,1.32,0,0,0,1.19,1c1.2,0.22,1.1.68-.1,0.49l-1-.15v0.9a44.45,44.45,0,0,0,.72,6.67,0.82,0.82,0,0,0,.76.54c0.79,0,1.61.26,1.61,0.5a1.26,1.26,0,0,1-1,.21c-0.66,0-1,.1-1,0.33a0.75,0.75,0,0,0,1.17.39,0.65,0.65,0,0,1,.79.06c0.82,0.65.62,2.4-.25,2.26-0.45-.07-0.44-0.15-0.17,3.21,0.11,1.32.09,2.08-.06,2.08a1.22,1.22,0,0,1-.8-1.05c-0.16-.85-0.65-0.68-0.72.24s-0.67,1.41-.68.41a2.25,2.25,0,0,0-.36-1.14c-0.32-.43-0.38-0.43-0.73-0.08s-0.35.6-.14,1.77c0.23,1.35.22,1.41-.45,2.17-1.25,1.42-.77,2.87.86,2.57,0.58-.11.84-0.07,0.84,0.13,0,0.66.37-.15,0.59-1.3a1.6,1.6,0,0,1,.61-1.3c0.32-.06.43,0.43,0.69,3.05,0.33,3.36.64,4,1.82,4,0.76,0,.84.24,0.94,2.69,0,1.2.15,2.65,0.23,3.21,0.13,0.92.09,1-.38,1.17s-0.52.18-.36,3c0.15,2.51.12,2.82-.22,2.82a1.2,1.2,0,0,1-1.31-1.39c0-1.08-.46-1.79-1.09-1.66-0.39.08-.45,0.26-0.39,1.28a7.72,7.72,0,0,0,.34,1.86c0.31,0.79,0,1.1-1.07,1.1a2.71,2.71,0,0,0-2.06,2c-0.16.42-.48,1.21-0.73,1.75a2.13,2.13,0,0,0-.3,1.13,4.81,4.81,0,0,0,1.5.14c1.16,0,1.38.07,1.49,0.48s0.32,0.48.94,0.48c1.06,0,1.76-.7,1.39-1.39a2.47,2.47,0,0,1-.26-1c0-.48,0-0.48.87-0.13s1.51,0.18,1.51-.53c0-.26.14-0.31,0.54-0.18a5.7,5.7,0,0,0,1.25.21c0.64,0,.71,0,0.65-0.62-0.11-1.06.29-.76,1,0.76l0.68,1.42-0.69,1L270,306.73c-0.17.24-.08,0.79,0.28,1.83,0.64,1.86.84,3,.56,3.15a0.27,0.27,0,0,1-.36-0.11,1.63,1.63,0,0,0-1-.24,2.07,2.07,0,0,1-2.19-1.58l-0.28-.86-1.22.15c-0.67.08-1.51,0.15-1.87,0.15-0.52,0-.75.2-1.14,1-0.49,1-1.1,1.16-1,.32l0.21-2,0.16-1.58-1,0a1.44,1.44,0,0,0-1.19.39,19.73,19.73,0,0,0-.95,4.21,19.78,19.78,0,0,1-.57,2.93c-0.44,1.74-.68,2.3-1.07,2.47-0.69.31-.85,0.07-0.41-0.6a7.91,7.91,0,0,0,.63-2.22c0.15-.92.36-2.09,0.47-2.62l0.61-2.86a11.53,11.53,0,0,1,.73-2.43,1.77,1.77,0,0,0,.27-1,22.17,22.17,0,0,1,.56-4.88,0.85,0.85,0,0,1,.66-0.42c1,0,1.06-.49.64-4.47-0.22-2.06-.45-4.5-0.51-5.41s-0.14-2-.18-2.43a2.77,2.77,0,0,0-.81-1.55,6.65,6.65,0,0,1-1.39-4.59c0-.65.09-1.23,0.1-1.28a0.5,0.5,0,0,1,.37.2c0.42,0.35.74,0.18,0.92-.49,0.11-.43.05-0.48-0.45-0.36s-0.65.14-.36-1.11-0.4-7.32-.94-7.84-0.57-1-.83-3.27a4.55,4.55,0,0,0-.48-1.6,5.55,5.55,0,0,1-.35-2.59c0-2.76-.1-2.9-2.15-3.1-2.23-.22-2.38-0.6-0.2-0.52,1.47,0.05,1.75,0,1.81-.34a1.31,1.31,0,0,0-1.33-1.25,4.07,4.07,0,0,1-1,.22,10.63,10.63,0,0,0-2.47.55c-0.12.07,0,.32,0.36,0.56l0.57,0.44H251.6a21.52,21.52,0,0,1-4-.6c-0.07-.07,0-0.22.19-0.32,0.38-.23.14-0.73-0.34-0.73a0.85,0.85,0,0,0-.59.47c-0.21.39-.33,0.42-0.69,0.2-0.58-.36-2.5.11-3.48,0.86a23.21,23.21,0,0,0-2.95,4.56c-2.6,4.68-3.43,6-4,6.14a5.18,5.18,0,0,0-1.28,1.86c-0.47.95-1.48,3-2.25,4.46-1.36,2.66-1.4,2.79-1.41,4.64a6,6,0,0,1-1.22,4.23c-0.55.67-.55,0.68-0.44,7,0.09,5.62.15,6.38,0.51,6.64s1,1.4,1.77,3.82L232,304.7l-0.78.77c-0.65.65-.81,0.71-1,0.42a3.38,3.38,0,0,1-.25-1.31,10.51,10.51,0,0,0-.3-2c-0.3-1.15-.87-1.6-0.88-0.69,0,0.72,1.37,9.55,1.67,10.79,0.37,1.5.46,3,.19,3.12a29.24,29.24,0,0,1-5.93,0c-0.15-.09,0-0.4.35-0.79s0.54-.73.39-1a0.62,0.62,0,0,1-.08-0.55,0.65,0.65,0,0,0-.39-0.57l-0.52-.36,0.5-.35c0.61-.43.43-0.79-0.39-0.79-0.55,0-.6.07-0.47,0.69s0,0.73-.2.82a1.93,1.93,0,0,0-.41,1.5l-0.07,1.37-1.78.41c-2.33.54-2.42,0.54-2.34-.1,0.06-.43-0.07-0.56-0.64-0.66a0.77,0.77,0,0,1-.79-0.69,1.11,1.11,0,0,1,.18-0.82,1.32,1.32,0,0,0,.26-0.81,0.47,0.47,0,0,1,.34-0.55c0.35,0,.45-0.23.74-1.65a15,15,0,0,1,.85-2.34c0.79-1.76.78-1.72,0.39-1.73a1.85,1.85,0,0,1-.83-0.78,1.52,1.52,0,0,1-.33-1.49c0.16-.57.31-0.7,0.79-0.64,0.86,0.09,1.11-.35,1.29-2.28,0.14-1.49.11-1.71-.23-1.71a0.35,0.35,0,0,1-.39-0.24c0-.34.26-0.29,0.75,0.15s0.41,0.65.28,2.32a7.78,7.78,0,0,1-.38,2.24c-0.36.45,0,.68,0.44,0.26a9.44,9.44,0,0,0,.79-2.8c0.39-2.22.39-2.45,0-2.56-1.07-.32-1-0.17-1-6.24,0-3.18.11-5.94,0.18-6.13a2.6,2.6,0,0,0-.63-1.42,4,4,0,0,1-.55-4.35c0.69-1.37.88-1.52,0.7-.57-0.27,1.44.85,1.2,1.16-.25a5.26,5.26,0,0,1,1.37-2.59,1.45,1.45,0,0,0,.49-1.07,1.19,1.19,0,0,1,.35-0.92,3.15,3.15,0,0,0,.63-1.25,1.69,1.69,0,0,1,.65-1,24.23,24.23,0,0,0,2.81-5.4,4.14,4.14,0,0,0-.83,1.06c-0.75,1.11-1.31,1.72-1.31,1.41,0-.06.38-0.95,0.85-2,0.69-1.5.81-1.95,0.61-2.38s-0.16-.57.85-1a2.37,2.37,0,0,0,1.67-1.73,4.38,4.38,0,0,0,.48-2c-0.13-.87.31-2,1.42-3.62s1-2.12-.6-2.05-2,.3-2.31,1.77l-0.24,1.27-1.21.07a2.25,2.25,0,0,1-1.9-.48,7.76,7.76,0,0,0-1.4-.87l-1.12-.53a11.81,11.81,0,0,0-2.44-.36,6.21,6.21,0,0,1-2-.33,7.29,7.29,0,0,1,.47-1.21,7.66,7.66,0,0,0,.26-4.37c-0.35-.87.11-1.25,1.71-1.43a15.23,15.23,0,0,0,2.53-.5,9.2,9.2,0,0,1,2.22-.37c1.31,0,1.38-.11,1.47-1.66a4.53,4.53,0,0,1,.21-1.3,86.12,86.12,0,0,0,1.13-8.54c0.11-1.18.36-3,.56-4.15a8.6,8.6,0,0,0,.23-2.23,12.71,12.71,0,0,0-3.39-1.6,14,14,0,0,1-2.87-.83c-2.43-.86-4.74-1.07-5.24-0.47a1.81,1.81,0,0,1-1.22.36,7.4,7.4,0,0,0-2.13.46,4.2,4.2,0,0,1-2,.32c-0.81-.13-0.82-0.12-0.55.47a1.27,1.27,0,0,1-.05,1.28c-0.43.89-1.14,1-3.41,0.34a14.78,14.78,0,0,0-2.21-.48,2.17,2.17,0,0,0-1,.93c-1.23,1.78-4.93,2.5-6.57,1.28a5.47,5.47,0,0,1-1.19-1.46l-0.55-1-1,.49-1,.49-3.79-.87c-4.75-1.08-4.86-1.13-4.86-2s-0.51-1.39-2.17-1.71a2.64,2.64,0,0,1-1.94-1,3.74,3.74,0,0,0-1.47-1,63.53,63.53,0,0,0-9.29-1.88c-1.5-.08-2-0.44-1.71-1.22,0.15-.39.19-0.4,0.6,0a0.92,0.92,0,0,0,.81.25,1.64,1.64,0,0,1,1,.21,36.9,36.9,0,0,0,7.85,1.59c1.5,0,2.06-.47,1.23-1a3,3,0,0,0-1.46-.38c-0.75,0-.9-0.07-0.78-0.38a2.3,2.3,0,0,0,.14-0.67,2.2,2.2,0,0,1,1.07-.81,2.55,2.55,0,0,0,1.07-.74,3.33,3.33,0,0,0-1.61-.39c-1.68-.18-2-0.35-2-1.24,0-.67.31-0.69,0.75,0,0.3,0.45.4,0.47,0.85,0.19a0.61,0.61,0,0,1,1,.09,1.88,1.88,0,0,0,1.09.41,4.9,4.9,0,0,1,1.52.36,17,17,0,0,0,2.55.69c2,0.39,7,.66,7.14.39s-0.89-.73-1.49-0.74a1.83,1.83,0,0,1-.87-0.36c-0.62-.47-2.66-0.47-2.93,0-0.17.31-.4,0.32-1.56,0.09a2.72,2.72,0,0,1-1.36-.49,1.66,1.66,0,0,1,.86-0.58c0.8-.33.85-0.41,0.71-1.15a3.06,3.06,0,0,1,.08-1.38,1.33,1.33,0,0,0-.23-1.34,1.54,1.54,0,0,0-.78-0.75,1.55,1.55,0,0,0-1.11,1.48c0,0.75-.34,1-1.5,1.24-0.76.14-.9,0.25-0.83,0.69a1,1,0,0,0,.85.75c1.19,0.35,1,.88-0.24.7-1.47-.21-2.15-1.16-1.7-2.34,0.11-.29.22-0.32,0.47-0.12a1.4,1.4,0,0,0,1.07.1c0.76-.17.83-0.46,0.36-1.58-0.13-.31.16-0.57,1.29-1.17,1.3-.69,1.44-0.84,1.32-1.35a1.17,1.17,0,0,1,.13-0.91c0.37-.45.24-0.43-1.59,0.26a14.6,14.6,0,0,1-1.79.59c-0.25,0-.27-1,0-1.31s7-3.69,7.3-3.69a2.15,2.15,0,0,1,0,1.58,7,7,0,0,1-1.5,1c-2,1.08-2,1-1.43,1.42a1.11,1.11,0,0,1,.49.67c0,0.24.33,0.16,1.24-.28l1.24-.6,0.33,0.5a1.71,1.71,0,0,0,2.3.12c1.15-.76,1.29.19,0.46,3.1-0.43,1.51-.42,1.65.08,1.44a2.55,2.55,0,0,1,2.22.26,2.56,2.56,0,0,0,1.73.3,2.09,2.09,0,0,1,1.92.49c0.47,0.45.67,0.5,1.07,0.29,0.72-.39.91-0.32,1.22,0.43s0,3.33-.56,5.3a2.71,2.71,0,0,0-.2,1.25,2.91,2.91,0,0,0,1.12.14h1l0.29-1.82c0.34-2.14.59-2.52,1.58-2.42,0.82,0.08.79-.11,0.48,3.11-0.22,2.24.23,2.07,0.62-.24a9.72,9.72,0,0,1,.51-2.1,2,2,0,0,1,2,.31,0.9,0.9,0,0,1,.06.94c-0.28.74-.29,3.1,0,3.27a4.33,4.33,0,0,0,.54-1.95c0.31-2,.36-2.08,1-2.15a1.37,1.37,0,0,1,1.11.4c0.43,0.43.44,0.55,0.14,1.38-0.44,1.24-.45,2.7,0,2.7,0.24,0,.38-0.45.49-1.61,0.18-2,.35-2.3,1.18-2.4,1-.12,1.37.34,1.19,1.54s0.14,1.35,1.15.56a2.27,2.27,0,0,1,.87-0.48c0.33,0,.33-0.31,0-0.64s0.19-.66,1.23-0.58a0.87,0.87,0,0,0,1-.31c0.12-.31.25-0.33,0.81-0.09a5.24,5.24,0,0,1,1.07.63,5.28,5.28,0,0,0,1.67.63c1,0.22,1.27.39,1.33,0.8,0.09,0.59.25,0.63,1.1,0.24a0.85,0.85,0,0,0,0-1.63l-0.61-.23,0.55-.59a6.56,6.56,0,0,0,1-2.51,7.1,7.1,0,0,1,.77-2.18,2,2,0,0,1,1.24-.14,2,2,0,0,0,1.14-.09A2.6,2.6,0,0,0,228,215l-0.13-1.13-1.88-.48c-1.35-.34-2-0.63-2.23-1-0.46-.69-2-0.73-3.45-0.08a10.18,10.18,0,0,1-3.27.77,1.85,1.85,0,0,1-.74-0.14c-0.62-.27-1.76.9-2.57,2.62-0.5,1.07-.67,1.69-0.53,2a1,1,0,0,1,.09.7,2.87,2.87,0,0,1-2,.87,0.52,0.52,0,0,1,.08-0.89c0.22-.08.23-0.18,0-0.39s-0.6-.22-1.55-0.06a15.7,15.7,0,0,1-3.11.11c-1.72-.12-1.89-0.18-2.86-1.06a10.88,10.88,0,0,0-1.68-1.28,14.69,14.69,0,0,1-2.56-1.74,2.14,2.14,0,0,0-.58-0.44c-0.47-.26-1.55-3.42-1.56-4.59a2.79,2.79,0,0,0-1.52-2,0.4,0.4,0,0,1-.3-0.54,3.27,3.27,0,0,0,.14-1c0-.5.08-0.56,0.6-0.43a1.22,1.22,0,0,0,.89-0.08,3.31,3.31,0,0,1,1.1-.38c0.71-.14.79-0.1,0.68,0.31s0.17,0.84,1,1l2.45,0.53c1.46,0.32,1.93.34,2.2,0.12a0.87,0.87,0,0,1,1,0,1.21,1.21,0,0,0,1.13,0c0.34-.19.57-0.12,1.08,0.38s0.87,0.62,2.25.64l1.6,0,0.35-.91c0.4-1,.15-1.4-0.92-1.29-0.48.05-.59,0.19-0.59,0.75a0.89,0.89,0,0,1-.34.81c-0.8.27-1.33-1.74-.62-2.33,0.37-.31,1.78-0.18,3.16.3a0.91,0.91,0,0,0,1.06,0,1,1,0,0,1,.44-0.29A1.82,1.82,0,0,1,215,206c-0.09.23,0,.36,0.26,0.36a4.36,4.36,0,0,1,1.4.59,4.44,4.44,0,0,0,2.88.56c1.8,0,1.91,0,2.43.66s0.72,1.28.43,1.28a2.16,2.16,0,0,1-.59-0.48,1.68,1.68,0,0,0-1-.48,1.15,1.15,0,0,1-.82-0.42c-0.27-.36-0.38-0.37-0.83-0.1a3.72,3.72,0,0,1-1.33.39,3.62,3.62,0,0,0-1.39.46c-0.72.47-1.07,0.48-1.07,0s-1-1.08-1.82-1.08-1.51.72-1.51,2.19c0,1,0,1.14.58,1.14a1,1,0,0,1,.73.24,1.67,1.67,0,0,0,1.65,0c0.21-.34-0.49-0.77-1.3-0.79s-1.2-.49-0.89-0.8a6.22,6.22,0,0,1,2.8.75c0.52,0.44,2.05.68,2.25,0.35s0.25-.2.5,0a7.94,7.94,0,0,0,2.48.4c1.84,0.11,2.14.07,2.14-.25a0.67,0.67,0,0,0-.24-0.52,0.55,0.55,0,0,1-.24-0.42c0-.39.41,0.06,0.93,1,0.67,1.25,1.37,1.62,4.8,2.51a27.66,27.66,0,0,1,3.36,1,7.63,7.63,0,0,1-.19,2.27c-0.54,3.14-.06,3.82.75,1.07,0.24-.82.46-1.53,0.49-1.57a30.12,30.12,0,0,1,3.85.58c0.95,0.23.62-.57-1.26-3.16-1.31-1.8-2-2.51-2.44-2.61-1.24-.28-1.47-0.37-1.47-0.61s0.28-.18.69-0.09a0.9,0.9,0,0,0,.85-0.1c0.09-.14.84-5,1.67-10.9,2.54-17.84,2.38-17,3.25-17.72s1.13-.69,1,0.15a0.75,0.75,0,0,1-.62.66,0.68,0.68,0,0,0-.59.64c-0.07.47,0,.55,0.42,0.44s0.5,0,.5.27-0.74,6-1.65,12.77-1.69,12.69-1.73,13.08c-0.06.62-.16,0.71-0.73,0.65a0.57,0.57,0,0,0-.65.19,9.3,9.3,0,0,0,1.26,1.85c0.69,0.88,1.84,2.42,2.54,3.44a6.42,6.42,0,0,0,1.62,1.84c0.23,0,.28-0.13.16-0.42s-0.39-1-.64-1.73a4.27,4.27,0,0,0-2.14-2.77,2.27,2.27,0,0,1-.89-0.81c0-.63.84-0.4,2.58,0.72,1.4,0.9,2,1.42,2.18,2a32.29,32.29,0,0,1,.54,4.64c0.23,3.48.22,4-.16,5.2-0.64,2-1.87,3.19-4.4,4.16a5.28,5.28,0,0,0-1.51,1,3.41,3.41,0,0,1-1.39.82c-0.94.19-1.09,0.45-1.24,2.1-0.07.79-.47,4.41-0.89,8.06a51.31,51.31,0,0,0-.55,6.84,26.16,26.16,0,0,0,5-.76c5.86-1.19,7.35-1.24,11.12-.31,0.51,0.13.65,0.08,0.65-.23a1.65,1.65,0,0,1,1.44-.85c0.43,0,.22.68-0.25,0.83a0.64,0.64,0,0,0-.48.37c0,0.24.27,0.32,2.94,0.82l1.87,0.35,0.81-.65c1-.76,1-1,0.28-1.12l-7.2-1.56a16.82,16.82,0,0,1-4-1.15c-0.53-.53,0-0.93,1.07-0.81,1.92,0.22,2.15-1.16.28-1.63a3.45,3.45,0,0,1-1.15-.43,39.71,39.71,0,0,1,.57-6.5,9,9,0,0,1,2.65.56c2.19,0.65,11.1,3.21,24,6.88,2.29,0.65,5.77,1.63,7.73,2.16s4.21,1.17,5,1.42c1.32,0.4,3.62,1,13,3.59l4.82,1.33a3.78,3.78,0,0,0,1.52.24c0.3-.3-0.15-0.87-0.79-1s-7-2.08-8.28-2.51c-0.39-.14-1.57-0.5-2.62-0.8l-3.57-1.06c-0.92-.28-2.25-0.66-3-0.86s-1.63-.47-2-0.61-2.11-.67-3.81-1.19l-6.07-1.87c-1.64-.51-3.46-1.05-4-1.2s-2-.57-3.21-0.94c-3.27-1-7.94-2.48-12-3.72l-5.47-1.66c-3.2-1-3.69-1.17-3.69-1.54s0.18-.33.48-0.29a7.51,7.51,0,0,1,2.65.57,24,24,0,0,0,5,1.52,0.52,0.52,0,0,1,.51.2,17.51,17.51,0,0,0,4.42,1.34c0.46,0,.46-0.81,0-1.19-0.26-.22-0.29-0.38-0.11-0.6A3.77,3.77,0,0,0,257,231c-0.08-1.53,0-1.4-2.63-2.56-0.92-.4-1.37-0.73-1.38-1s-0.07-.3-0.24.13a10.83,10.83,0,0,0-.28,2.42c0,1.2-.14,1.79-0.29,1.66a23.1,23.1,0,0,0-5-1.58,0.83,0.83,0,0,1-.71-0.34c-0.33-.37-0.36-0.52-0.12-0.81s0.39-.31.93,0a22.48,22.48,0,0,0,2.36.87c2,0.64,2.31.51,2.31-.95,0-1.14-.44-1.69-1.34-1.69a5,5,0,0,1-1.8-.59c-1.22-.65-1.73-0.51-1.73.5a0.53,0.53,0,0,1-.24.57,0.91,0.91,0,0,1-.24-0.82,1.48,1.48,0,0,0-.24-1,0.73,0.73,0,0,1-.24-0.57,2.45,2.45,0,0,0-.83-1.16c-0.85-.75-1-1.12-0.61-1.36a17.84,17.84,0,0,1,3.51,1.08c4.78,1.77,14.55,5.35,17.45,6.39,1.37,0.49,5,1.83,8.09,3,4.61,1.71,14.75,5.43,27.25,10l2.14,0.78,0.36,3.42a25.1,25.1,0,0,0,.57,3.75,66,66,0,0,1,.92,8.65,9.36,9.36,0,0,1-2.46.18c-2,0-2.39.06-2.59,0.44s-0.37.41-1.43,0.19-1.23-.35-1.43-0.93-0.35-.65-0.66-0.56a13,13,0,0,1-2,.18c-1.45.05-1.55,0-1.63-.49a1.53,1.53,0,0,1,.48-1.14,1.43,1.43,0,0,1,1.45-.51c0.69,0.07.88,0,.83-0.26-0.1-.5-1.31-0.77-2.68-0.6-2,.25-3,1-3,2.22,0,0.4.15,0.49,0.84,0.49a1.06,1.06,0,0,1,1.23.81,1.87,1.87,0,0,0,.83.93,0.63,0.63,0,0,1,.44.58,0.9,0.9,0,0,0,1.08.91c0.3-.12.34-0.36,0.21-1.22a1.17,1.17,0,0,1,.07-1.07,1.15,1.15,0,0,1,.37.85c0.17,1,.54,1.53,1.14,1.53a0.41,0.41,0,0,1,.45.37c0,0.56-1.15,1.6-1.58,1.44a4.52,4.52,0,0,1-1.87-1.63c-0.32-.9-0.65-0.09-0.5,1.23,0.08,0.73.37,3.46,0.64,6.06,0.49,4.74.72,5.87,1.17,5.87s0.31-1.11,0-4.3c-0.45-5-.47-6.41-0.11-6.41a0.4,0.4,0,0,1,.33.44,1.56,1.56,0,0,0,1.15,1.23,0.25,0.25,0,0,1,.28.2c0,0.11-.26.16-0.57,0.1a0.78,0.78,0,0,0-.68.09,31,31,0,0,0,.59,6.45,1.38,1.38,0,0,0,.93.3,0.69,0.69,0,0,1,.68.24,0.57,0.57,0,0,1-.59.24,0.57,0.57,0,0,0-.59.24,0.53,0.53,0,0,0,.57.24c0.8,0,1.21.55,0.87,1.18a2.35,2.35,0,0,0-.11,1.32c0.1,0.54.06,0.83-.11,0.83s-0.26.6-.26,1.67c0,1.32-.07,1.67-0.36,1.67a0.33,0.33,0,0,1-.36-0.27c0-.16-0.21-0.09-0.48.16-0.6.55-.74,0.4-0.89-0.94a1.77,1.77,0,0,0-.32-1.08c-0.33,0-.52,1.14-0.38,2.33a1.85,1.85,0,0,1-.46,1.8,1.85,1.85,0,0,0-.51,1.32c0.07,0.56.18,0.63,1.17,0.66l1.1,0,0.15-.93c0.22-1.39.76-1.21,0.94,0.31,0.08,0.69.15,1.73,0.15,2.32,0,1.25.75,2.67,1.35,2.57s0.67,0.54,1.05,3.88c0.24,2.13.24,2.67,0,2.82s-0.28.68-.23,1.83c0.07,1.64-.1,2.36-0.52,2.1a1.31,1.31,0,0,1-.22-0.87,1.75,1.75,0,0,0-.61-1.3,1,1,0,0,1-.46-1,1.29,1.29,0,0,0-.6-1.43c-0.29,0-.29,1.57,0,3.67,0.22,1.51.2,1.69-.24,2.16a1.73,1.73,0,0,0-.48.82,6.56,6.56,0,0,1-.61,1.51c-0.73,1.45-.63,1.93.38,1.79a0.77,0.77,0,0,1,1,.33c0.22,0.4.28,0.41,0.8,0.07s0.54-.46.33-1.21c-0.3-1.07-.17-1.19.75-0.64,0.74,0.44.75,0.44,1.17-.12s0.49-.53,1-0.27,0.6,0.23.88-.15,0.34-.43.68,0A1.83,1.83,0,0,1,302,306l-0.53.85,0.49,1.28c0.46,1.21.47,1.31,0.09,1.76a2,2,0,0,1-1.18.54,1,1,0,0,1-1.19-.76,1,1,0,0,0-.89-0.76c-1.94.27-2.26,0.38-2.39,0.81-0.2.63,0,.74,1.13,0.77s1.42,0.38.62,0.74-0.53.7,0.87,0.83,1.76,0.31,1.35.82a1.69,1.69,0,0,0-.14,1.29,1.5,1.5,0,0,1-.07,1.08,10.32,10.32,0,0,1-1.83.37,6.38,6.38,0,0,0-2.53.84c-0.87.58-1,.6-2.86,0.45-1.6-.13-1.91-0.1-1.82.17s0.82,0.42,2.35.6c1.23,0.15,2.28.28,2.33,0.3a0.53,0.53,0,0,1-.21.38c-0.41.5-.14,1.06,0.44,0.91,0.41-.11.49,0,0.55,0.79s0.13,0.91.71,0.85c0.85-.09,1.06.32,0.38,0.76-0.47.31-.54,0.55-0.52,1.74a9,9,0,0,0,.21,1.92c0.16,0.49.11,0.53-.62,0.51a7.26,7.26,0,0,1-1.22-.14h0Zm-6.37-1.5a0.52,0.52,0,0,0-.56-0.24,1.56,1.56,0,0,1-1-.48c-0.37-.41-0.73-0.48-2.54-0.48a4.43,4.43,0,0,0-2.11.24,0.83,0.83,0,0,0,.77.24,15.07,15.07,0,0,1,2.56.46C288.39,324.48,289.2,324.55,289.2,324.21Zm4-8.85a3.39,3.39,0,0,0,.13-2,5.69,5.69,0,0,1,.16-2.47c0.37-.89.83-0.81,0.83,0.14s1.21,2.29,1.44,1.69a1.26,1.26,0,0,0-.13-0.88,3.49,3.49,0,0,1-.11-1.8c0.14-1.09.1-1.3-.21-1.3a0.78,0.78,0,0,0-.59.39c-0.29.51-.76,0.21-0.76-0.49s-0.63-1.27-1-.93a5.49,5.49,0,0,0-.35,1.88c-0.07.91-.23,2.38-0.37,3.27-0.37,2.31,0,3.4.93,2.51h0Zm-10.4-3.09c-0.17-.55-0.42-1.28-0.56-1.61-0.23-.56-0.27-0.49-0.44.82s-0.13,1.47.32,1.85C282.86,314,283.16,313.51,282.79,312.28Zm-53.84-2c0.27-.25.25-0.43-0.09-1.1a3.76,3.76,0,0,0-.68-1,27.12,27.12,0,0,0-5.68.22,2.57,2.57,0,0,0-1.13,2c0,0.44.16,0.46,3.63,0.34,2.45-.08,3.73-0.22,3.95-0.42h0Zm49.76-.74c0.27-.26-0.4-1.41-0.86-1.47-0.9-.13-2.41.41-2.57,0.91-0.27.85,0.07,1,1.76,0.83a9.31,9.31,0,0,0,1.68-.27h0Zm2.5-2.41c-0.18-1-.45-1.41-0.7-1a3.27,3.27,0,0,0,.78,1.9,2.69,2.69,0,0,0-.08-0.89h0ZM226,299.42c-0.41-.66-1.47.42-1.16,1.19,0.13,0.34.24,0.29,0.72-.3A1.46,1.46,0,0,0,226,299.42Zm1.27-15a4.72,4.72,0,0,0,.78-1.49,11.79,11.79,0,0,1,.76-1.8,1.18,1.18,0,0,0,0-1.7c-0.57-1-1.11-1.27-1.58-.88a15.24,15.24,0,0,0-1.42,2.28c-1.25,2.3-1.26,2.91,0,3.65,1,0.58.94,0.58,1.53-.07h0Zm-0.36-2.13a0.9,0.9,0,0,1,0-1.28c0.39-.24,1.21.69,1,1.16s-0.6.52-1,.12h0Zm20.66-26.49a6.66,6.66,0,0,1,.12-1.78,2.25,2.25,0,0,1,.59.29c1.1,0.69,1.06-.89-0.06-2a1.51,1.51,0,0,1-.42-0.9c0-.65-0.42-0.6-0.52.06a0.8,0.8,0,0,1-.79.67l-0.71.14,0.65,0.32c0.65,0.31.65,0.34,0.65,2.66a5.33,5.33,0,0,0,.24,2.34,3.34,3.34,0,0,0,.24-1.78h0Zm4.39,1.34c0.18-.3-0.5-0.82-0.82-0.62s-0.18.26,0,.5,0.61,0.43.8,0.12h0Zm-2.13-.26c0.08-.13,0-0.24-0.1-0.24a0.25,0.25,0,0,0-.25.24,0.22,0.22,0,0,0,.1.24A0.49,0.49,0,0,0,249.81,256.86Zm-26-1.41a13.35,13.35,0,0,0,.51-4.52,3.07,3.07,0,0,0-2.42-.19,16.77,16.77,0,0,0-.66,4.92,4.29,4.29,0,0,0,2.57-.21h0Zm3.39-.36c0.58,0,.73-0.12.79-0.6,0.14-1.17.22-1.24,1-.85a1.74,1.74,0,0,1,.82.87c0.09,0.34.26,0.47,0.5,0.38a15.74,15.74,0,0,1,2.22-.3,10,10,0,0,0,2.33-.41,14.55,14.55,0,0,1,4.08-.4c0.71,0,.75-0.06.87-1.13,0.16-1.39,0-1.64-.58-1.09-0.45.4-.48,0.4-0.7,0s-0.43-.38-1.23-0.26a3.45,3.45,0,0,0-1.41.51c-0.31.27-.49,0.29-0.73,0.09a1.21,1.21,0,0,0-1.13,0,6.06,6.06,0,0,1-1.41.23H232l0.66-.49a0.94,0.94,0,0,0,.52-0.71,1.45,1.45,0,0,0-1.66.11c-0.36.27-.4,0.4-0.16,0.68s0.21,0.5-.09,1.1c-0.41.82-.69,1-0.47,0.31,0.12-.39,0-0.44-1.44-0.46s-1.64,0-2.12.56-0.58.48-.64,0.3c-0.15-.46-0.61,0-0.78.74s0,1.28.43,1a2.54,2.54,0,0,1,1-.18h0Zm25.19-1c0-1-.42-1.43-1-1.07a1.51,1.51,0,0,0-.43,1.67,0.69,0.69,0,0,0,.79.28c0.58-.07.65-0.17,0.62-0.87h0ZM290,254.48a0.51,0.51,0,0,0-.37-0.24,0.23,0.23,0,0,0-.22.24,0.33,0.33,0,0,0,.37.24C290,254.72,290.11,254.61,290,254.48Zm-1.67-.44c0-.21-0.34-0.35-1-0.4a11.1,11.1,0,0,1-3.27-.84c-0.62-.32-1.13-0.26-1.29.17s0.32,0.8,1.47.82a6.26,6.26,0,0,1,1.78.35C287.14,254.53,288.37,254.48,288.37,254Zm-44.67-.9c-0.12-.6-0.67-0.68-0.67-0.1a0.43,0.43,0,0,0,.37.5A0.3,0.3,0,0,0,243.7,253.13Zm30.74-4.21c0-.46-0.41-0.73-1.77-1.19a1.69,1.69,0,0,0-1.42-.15c-0.42.42,0.19,1.07,1,1.07a1.73,1.73,0,0,1,1,.3C273.69,249.35,274.45,249.33,274.45,248.92ZM248,247.82a0.24,0.24,0,1,0-.24.24A0.24,0.24,0,0,0,248,247.82Zm22.55-.18c0.16-.48-3.15-1.47-3.56-1.06s0.08,1,.73,1a2.16,2.16,0,0,1,1,.24c0.47,0.31,1.72.19,1.84-.18h0Zm31.18,0.12c-0.11-.34-1.13-0.56-1.13-0.23s0.28,0.53.77,0.53C301.66,248.06,301.81,247.93,301.76,247.76ZM266.27,247c0.21-.54-0.48-1.11-1.39-1.16a5.21,5.21,0,0,1-1.46-.32c-0.78-.33-1.11-0.2-1.11.44s0.67,0.94,1.59.95a2.32,2.32,0,0,1,1,.23,0.9,0.9,0,0,0,1.35-.14h0Zm33.4,0.14a0.24,0.24,0,1,0-.24.24A0.24,0.24,0,0,0,299.67,247.11ZM299,247a0.49,0.49,0,0,0-.24-0.25c-0.13-.08-0.24,0-0.24.1a0.25,0.25,0,0,0,.24.25A0.22,0.22,0,0,0,299,247Zm-3.73-1c0.3-.3-0.38-0.8-1.08-0.8-1.16,0-.58.7,0.78,0.93A0.42,0.42,0,0,0,295.23,246Zm-2.35-.77a0.38,0.38,0,0,0-.16-0.44,2,2,0,0,0-1.71-.33c-0.21.35,0.49,0.77,1.58,1a0.35,0.35,0,0,0,.29-0.18h0Zm-36.08-.68c-0.07-.61-0.22-0.69-2.22-1.19a9.93,9.93,0,0,0-2.47-.42,0.74,0.74,0,0,1-.64-0.14,19.68,19.68,0,0,0-4.62-1.27c-0.48,0-.61.1-0.67,0.61-0.09.82,0.24,1,2.93,1.5,1.18,0.22,2.68.55,3.33,0.73l2,0.55a8.51,8.51,0,0,0,1.62.25c0.72,0,.78,0,0.71-0.62h0Zm33.6-.27c0-.38-0.66-0.76-1.55-0.91s-0.87-.09-0.79.3C288.16,244.26,290.39,244.84,290.39,244.28Zm-3-1c0-.38-1.93-1.12-2.21-0.84s0.31,0.94.92,1.12C286.95,243.8,287.42,243.7,287.42,243.29Zm-2.74-.71c0-.35-1-0.93-1.88-1.11-0.68-.14-0.77-0.1-0.7.29a1.34,1.34,0,0,0,.68.75c0.71,0.36,1.9.4,1.9,0.07h0Zm-3.33-1c0-.57-0.74-0.93-2.38-1.17-0.69-.1-0.35.66,0.48,1.06C280.46,241.94,281.35,242,281.35,241.54Zm-3.57-1.05a0.66,0.66,0,0,0-1-.49c-0.38.2-.41,0.29-0.14,0.46s1.16,0.28,1.16,0h0Zm-3.44-1c0.24-.39-0.49-1-1.62-1.33-1.37-.41-1.61-0.39-1.61.15s0.27,0.74,1.43,1.12S274.15,239.78,274.34,239.47Zm-4-1.23c-0.12-.36-1.37-0.55-1.37-0.21a1.2,1.2,0,0,0,1.15.48,0.19,0.19,0,0,0,.22-0.27h0Zm7.08-.77c0-.66-0.07-0.72-0.92-0.79-1.27-.1-1.58.27-0.85,1s1.78,0.74,1.78-.25h0ZM266.51,237c0.21-.55-0.32-0.93-2.15-1.53-1.35-.44-1.67-0.48-1.84-0.21-0.43.69-.09,1,1.83,1.61S266.34,237.43,266.51,237Zm-5.87-1.65a4.45,4.45,0,0,0-1.83-.74c-0.75-.19-0.56.3,0.25,0.63a2.1,2.1,0,0,0,1.58.11h0Zm7-.57a0.73,0.73,0,0,0-.56-0.26,6.83,6.83,0,0,1-1.45-.37,1.6,1.6,0,0,0-1.28-.14c-0.4.4,0,.7,1.21,0.86a5.55,5.55,0,0,1,1.49.37c0.4,0.25.83-.08,0.6-0.46h0Zm2.49-.36a2.28,2.28,0,0,0-1.32-.83c-1.6-.6-1.83-0.61-1.73-0.09a2.11,2.11,0,0,0,1.27.82C269.84,234.81,270.16,234.83,270.16,234.39Zm-10.85-1.71c0.63-.24.42-0.78-0.4-1-1-.27-1.64.18-1.14,0.78a1.31,1.31,0,0,0,1.54.22h0Zm2.76-1.14a1.15,1.15,0,0,0-.77-0.62c-0.43-.16-1.27-0.51-1.89-0.78-1.12-.49-2-0.44-1.8.11a13.22,13.22,0,0,0,4,1.58A0.35,0.35,0,0,0,262.07,231.55Zm-12.14-5.62c-0.47-.3-0.78-0.3-0.59,0a0.7,0.7,0,0,0,.55.23C250.23,226.16,250.24,226.12,249.93,225.92ZM230.77,224c0-.56-0.13-0.62-2-1a7.26,7.26,0,0,0-2.17-.24,2.25,2.25,0,0,0-.31.68c-0.14.47,0,.54,1.1,0.76l1.74,0.35a4.57,4.57,0,0,0,1.07.07A0.51,0.51,0,0,0,230.77,224Zm5.35-2.38a0.24,0.24,0,1,0-.24.24A0.24,0.24,0,0,0,236.13,221.64Zm1.78-1.9a1.27,1.27,0,0,0,.52-0.88,3.1,3.1,0,0,0-1.59,1.39C236.84,220.63,237.24,220.44,237.91,219.74Zm-49.16-3.49c0.52-.66.66-1.51,0.25-1.51a3.47,3.47,0,0,0-1.19,1.84C187.82,217.07,188.22,216.92,188.75,216.25Zm21.36-.37a1.06,1.06,0,0,1,.12-0.83c0.2-.24-0.17-0.72-1.56-2-1.71-1.63-1.83-1.81-2-3a1.74,1.74,0,0,0-1.24-1.85c-0.95-.53-1.44-0.63-3.63-0.7-2.49-.08-2.53-0.08-2.8.51-0.4.87-.34,1.22,0.45,2.59s2.56,3.13,3.38,3.32c2.08,0.47,2.71.55,3,.38a1.44,1.44,0,0,1,1.14.19c0.86,0.43,1.08.88,0.33,0.68-0.6-.16-1.09.38-0.67,0.72a3.27,3.27,0,0,0,2.29.52c1.2,0,1.27,0,1.14-.5h0Zm-4-3.49a1.81,1.81,0,0,1,.24-1.1c0.14-.09.24,0.23,0.24,0.8a1.81,1.81,0,0,1-.24,1.1C206.24,213.28,206.14,213,206.14,212.39Zm-15.28,3.3a3.58,3.58,0,0,0,1.38-3.48c-0.14-.36-0.19-0.35-0.51.1a2.15,2.15,0,0,1-1.24.67c-1.23.22-1.33,0.32-.87,0.83a1.46,1.46,0,0,1,.25,1.4C189.69,216.3,189.78,216.35,190.86,215.69Zm14.69-.47a0.51,0.51,0,0,0-.37-0.24,0.23,0.23,0,0,0-.22.24,0.33,0.33,0,0,0,.37.24C205.53,215.45,205.63,215.35,205.55,215.21Zm-8.21-9.52a0.25,0.25,0,0,0-.25-0.24c-0.14,0-.19.11-0.1,0.24a0.49,0.49,0,0,0,.25.24A0.22,0.22,0,0,0,197.34,205.7ZM237,325.48a0.61,0.61,0,0,1,.29-1,3.37,3.37,0,0,1,1.93.48,3.4,3.4,0,0,1-1.78.71A0.71,0.71,0,0,1,237,325.48Zm20.48-1.18a2.93,2.93,0,0,1-.17-1.21c0-1.13.49-1.59,1.07-1S258.17,325,257.48,324.3Zm-41.76-.37c-0.73-.73.13-3.29,1.12-3.29,0.49,0,.49.26,0,2.62C216.7,324.14,216.21,324.43,215.72,323.94Zm58.67-1.1a0.48,0.48,0,0,1-.42-0.37c0-.37.89-0.92,1.06-0.65a0.75,0.75,0,0,1-.64,1h0Zm-15.1-.82c-0.33-.43-0.25-2.85.1-3s0.46,0.4.62,2.14c0.11,1.14-.21,1.5-0.72.83h0Zm-27.91-.43c0-.61.79-0.54,0.91,0.08,0.06,0.29-.07.41-0.41,0.41A0.43,0.43,0,0,1,231.37,321.58Zm4.2-.38a1.5,1.5,0,0,1-.16-0.77,5.37,5.37,0,0,0-.67-1.82c-0.68-1.24-.73-1.77-0.15-1.77a1.14,1.14,0,0,1,.54.89c0.68,2.86.8,3.43,0.7,3.52a0.2,0.2,0,0,1-.26-0.05h0Zm71.38-1a0.3,0.3,0,0,1,.11-0.4c0.37-.23.6,0.08,0.3,0.39S307.05,320.37,307,320.21Zm-33.11-.53a0.35,0.35,0,0,1,0-.38c0.17-.17.63,0.13,0.63,0.41s-0.41.28-.6,0h0Zm-44.78-.87c-0.28-.89-0.23-1,0.52-1.35,0.14-.06.1-0.2-0.09-0.34s-0.17-.31.42-0.62c0.89-.46.93-0.41,1,1.68,0.06,1.33,0,1.43-.34,1.2a0.48,0.48,0,0,0-.7,0C229.46,319.84,229.37,319.77,229.07,318.8Zm-4.15-.17a35.66,35.66,0,0,0-3.85-.14,18.71,18.71,0,0,1-3.87-.25c-0.08-.13,2-0.22,5-0.22,3.64,0,5.1.08,5,.26a0.59,0.59,0,0,1-.61.14,0.58,0.58,0,0,0-.58.1,1,1,0,0,1-1.09.1h0Zm-8.77-.62c0-.14.11-0.19,0.24-0.1a0.49,0.49,0,0,1,.24.25,0.22,0.22,0,0,1-.24.1A0.25,0.25,0,0,1,216.14,318Zm43.52-.88a1.41,1.41,0,0,1,0-.4,2.63,2.63,0,0,0-.36-1c-0.41-.76-0.32-2.49.13-2.49,0.11,0,.16.19,0.11,0.42a1.14,1.14,0,0,0,.13.77c0.2,0.31.31,0.28,0.77-.17a9.16,9.16,0,0,0,1.16-1.67c0.59-1.07.69-1.14,1.69-1.21,1.64-.11,2,0.4,1.76,2.68-0.17,1.8-.28,2-0.77,1.53-0.19-.19-0.3-0.14-0.4.19a1.81,1.81,0,0,1-1.27.76l-1.82.53c-0.84.26-1.09,0.27-1.12,0h0Zm42.39-2.41a1,1,0,0,1,1.05-.33,0.29,0.29,0,0,1,0,.33c-0.17.27-1.05,0.27-1.05,0h0Zm-70.63-.31a3.34,3.34,0,0,1-.3-1.61,29.82,29.82,0,0,0-.44-3.77,9.21,9.21,0,0,1-.25-2.56c0.39-.24,1.63,2.19,1.89,3.7,0.36,2.09.24,4.38-.24,4.47a0.83,0.83,0,0,1-.65-0.22h0Zm67-27.81c-0.36-2.3-.4-3.09-0.17-3.09,0.71,0,1.22,2.7.66,3.45C298.54,287.42,298.52,287.4,298.4,286.61Zm-31.17-3.33a15.65,15.65,0,0,1-.26-1.9c-0.08-.85-0.21-1.86-0.29-2.23s-0.07-.66.18-0.58c1,0.31,1.56,3.61.82,4.61-0.28.38-.36,0.4-0.46,0.1h0Zm-1.58-1.43a0.24,0.24,0,1,1,.24.24A0.24,0.24,0,0,1,265.64,281.85Zm34.21-19.41a1.44,1.44,0,0,1-.18-0.78c0-.43.07-0.53,0.26-0.34a1,1,0,0,1,.18.78C300.07,262.38,299.95,262.54,299.85,262.44Zm-4.18-1.55a0.32,0.32,0,0,1,.62,0c0,0.14-.09.26-0.31,0.26S295.63,261,295.67,260.89Zm-29.19-1.39a0.27,0.27,0,0,1,.1-0.37c0.13-.08.24,0,0.24,0.22C266.83,259.77,266.69,259.83,266.48,259.5Zm13.32,0c-0.26-.42.12-0.77,0.5-0.46a0.9,0.9,0,0,1,.34.49C280.63,259.8,280,259.77,279.8,259.48Zm-3.85-.85c-0.22-.56.29-1,0.74-0.59a1,1,0,0,1,.37.63C277.06,259.13,276.13,259.09,276,258.63Zm-14.11-2.88a4.91,4.91,0,0,1-1.91-2.31c0-.43,0-0.43.45,0a1.43,1.43,0,0,0,1,.33c0.51-.07.55-0.17,0.47-1.33-0.1-1.53.32-1.67,0.54-.18a1.77,1.77,0,0,0,1.73,1.79c0.79,0,.69.78-0.19,1.53S262.63,256.3,261.84,255.75Zm1.53-3.41c-0.18-.29.47-0.58,0.82-0.36a0.53,0.53,0,0,1,.25.38c0,0.3-.88.29-1.07,0h0Zm-3.93-1.2c0-2.18,1-3.57,2.49-3.55a2.28,2.28,0,0,1,1.15.33c0.5,0.38,1.41,2.06,1.22,2.26a10.46,10.46,0,0,1-2.2.14H260l-0.07,1c-0.1,1.42-.52,1.27-0.52-0.19h0Zm-38.79-3.56a0.33,0.33,0,0,1,.37-0.24c0.2,0,.3.11,0.22,0.24a0.51,0.51,0,0,1-.37.24A0.23,0.23,0,0,1,220.66,247.58Zm2-.48a0.52,0.52,0,0,1,.39-0.24c0.13,0,.17.11,0.09,0.24a0.52,0.52,0,0,1-.39.24C222.64,247.34,222.6,247.24,222.68,247.11ZM232,245a0.48,0.48,0,0,1,.46,0c0.08,0.08-.06.14-0.31,0.12s-0.33-.07-0.14-0.14h0Zm4.69-1a0.52,0.52,0,0,1,.39-0.24c0.13,0,.17.11,0.09,0.24a0.52,0.52,0,0,1-.39.24C236.68,244.25,236.64,244.14,236.72,244Zm63.09-2.42c-1.56-.63-4.93-1.95-7.5-2.92l-7.16-2.75-4.28-1.66-4.64-1.79c-7-2.7-8.54-3.31-12-4.63l-8.45-3.22c-2.62-1-5.46-2.07-6.31-2.38-3.1-1.13-4.4-1.74-4.48-2.11s-0.07-.47,1,0a3.29,3.29,0,0,0,1,.31,2.34,2.34,0,0,1,.9.33c0.74,0.39,4.82,2,8.57,3.39,3,1.11,13.72,5.28,15.68,6.11a11.76,11.76,0,0,0,1.93.69,10.73,10.73,0,0,1,1.88.72,5,5,0,0,0,1.81.58,1.25,1.25,0,0,1,.88.33c0.72,0.51,2.21.9,2.21,0.58a6.56,6.56,0,0,0-2.17-1.27,11.24,11.24,0,0,1-1.53-.83,6.25,6.25,0,0,0-1.83-.83,9.63,9.63,0,0,1-2.18-.83,12.09,12.09,0,0,0-2-.83,2.23,2.23,0,0,1-1.45-1c0-.17-0.51-0.28-1.32-0.3a2.84,2.84,0,0,1-1.77-.44,10.44,10.44,0,0,0-2.31-1.08q-3.7-1.33-8-3.24a15.89,15.89,0,0,0-2.83-1,2.7,2.7,0,0,1-1.19-.54,13.53,13.53,0,0,0-4.33-1.56c-0.4.12-2.29-1.32-2.51-1.92s0-5,.26-5.14a22.16,22.16,0,0,1,3.36,1.33c1.76,0.79,4.32,1.92,5.7,2.51,2.48,1.07,5.12,2.25,14,6.27l14.64,6.55L296.94,235c2,0.89,4,1.77,4.43,2a3.22,3.22,0,0,1,1,.56,20.8,20.8,0,0,1,.49,5.07,12,12,0,0,1-3-1h0Zm2.47-.14a3.71,3.71,0,0,0-1.25-.74c-0.69-.31-1.65-0.77-2.14-1a1.91,1.91,0,0,0-1.15-.31,0.71,0.71,0,0,1-.68-0.24,11.73,11.73,0,0,0-3.7-1.5,1.85,1.85,0,0,1-.83-0.3c-0.31-.44-1.73-1-2-0.74s0.19,0.92,1.09,1.1a9.67,9.67,0,0,1,1.71.58,16.68,16.68,0,0,0,3.56,1.44,3.63,3.63,0,0,1,1.18.49,1.65,1.65,0,0,0,1.11.33,0.33,0.33,0,0,1,.45.12c0.31,0.5,2.63,1.2,2.62.79h0Zm-12.44-5c0.11-.34-1.13-1-1.84-1a2.46,2.46,0,0,1-1.15-.48,4.3,4.3,0,0,0-1.57-.63,2.92,2.92,0,0,1-1.35-.58c-0.45-.45-2-0.86-2.3-0.59s0.4,1,1.51,1.3a20.34,20.34,0,0,1,2.42.93,3.51,3.51,0,0,0,1.38.46,2.36,2.36,0,0,1,1.12.44C289.12,236.9,289.69,237,289.85,236.47Zm-7.55-5.31a0.24,0.24,0,1,0-.24.24A0.24,0.24,0,0,0,282.3,231.16Zm-6.9-3a0.34,0.34,0,0,0-.59-0.14c-0.08.13,0,.24,0.22,0.24A0.42,0.42,0,0,0,275.4,228.2Zm-1.67-.73a0.43,0.43,0,0,0-.48-0.36c-0.47,0-.62.25-0.32,0.56A0.45,0.45,0,0,0,273.73,227.47Zm-3.81-1.4a0.83,0.83,0,0,0-.94-0.75,0.8,0.8,0,0,0-.25.62c0,0.33.16,0.46,0.59,0.46A0.5,0.5,0,0,0,269.92,226.07Zm28.43,8.32c-2-.93-4.27-2-5.12-2.39-2.92-1.33-5.59-2.57-7.85-3.64-2.52-1.2-3.8-1.8-10.35-4.82l-8.21-3.8c-5.16-2.4-5.12-2.38-9.76-4.49-11.78-5.35-11.38-5.16-11.11-5.42s1.12,0.17,4.33,1.71c5.19,2.49,15.67,7.25,16,7.25a3.53,3.53,0,0,1,1.16.58,10.34,10.34,0,0,0,2,1,11.86,11.86,0,0,1,1.48.61,10.74,10.74,0,0,0,3.07,1.41,0.81,0.81,0,0,1,.62.24,7.78,7.78,0,0,0,3,1.42,0.82,0.82,0,0,1,.63.26,27.47,27.47,0,0,0,5.59,2.59,0.76,0.76,0,0,1,.59.25,91.53,91.53,0,0,0,8.47,4.17c0.84,0.37,2.91,1.34,4.61,2.15,3.16,1.51,4.4,2,4.4,1.61s-1-.86-2.91-1.78a4.21,4.21,0,0,1-1.37-.86,2.15,2.15,0,0,1,.37-0.72,0.93,0.93,0,0,0,.21-0.78c-0.24-.39-1.11.52-1,1s-0.2.54-1.18-.07a1.6,1.6,0,0,0-1-.34,0.93,0.93,0,0,1-.77-0.35,3.06,3.06,0,0,0-1.13-.64,4.33,4.33,0,0,1-1.19-.56,25,25,0,0,0-4.63-2.14,0.63,0.63,0,0,1-.49-0.24,4.87,4.87,0,0,0-2.19-1.09,2.77,2.77,0,0,1-1.15-.71,2.36,2.36,0,0,1-1.1-1.6c-0.09-1-.82-1.18-1-0.3-0.18.73-.58,0.58-0.58-0.22s-0.39-1-.72-0.35c-0.22.41-.41,0.47-1,0.34a1.8,1.8,0,0,1-1.64-1.8c0-.94-0.32-1.41-0.91-1.41a1.07,1.07,0,0,1-.71-0.36c-0.39-.47-0.65-0.45-0.93.08a1.06,1.06,0,0,0,.09,1.05c0.27,0.51.27,0.64,0,.74s-1.07-.8-1.07-1.34-1.33-.89-2.13-0.66a1,1,0,0,1-1.21-.36,1.39,1.39,0,0,1-.36-1.5c0.14-.85.1-1-0.39-1.12a3.38,3.38,0,0,1-1.07-.64c-0.82-.75-1.37-0.48-1.51.73-0.11,1-.14,1-0.51.59a2.29,2.29,0,0,1-.48-0.89c-0.13-.68-0.87-1.07-1.18-0.62-0.19.27-.28,0.28-0.37,0.06a0.65,0.65,0,0,0-.58-0.3,0.42,0.42,0,0,1-.46-0.48c0-.62-0.4-0.62-0.59,0s-0.55.58-.92-0.3c-0.28-.66-0.28-0.83,0-1.18s0.27-.49-0.45-1.22a7.59,7.59,0,0,0-1.59-1.22c-1-.52-1.39-0.23-1.6,1.19-0.14.94-.2,1-0.61,0.8a0.61,0.61,0,0,1-.31-0.83c0.15-.62-0.1-0.77-0.55-0.32s-0.8,0-.73-0.67a1,1,0,0,0-.72-1c-0.45-.25-0.68-0.5-0.53-0.59,0.37-.23.06-0.6-0.51-0.6-0.41,0-.47.11-0.35,0.68a1.55,1.55,0,0,1-.17,1.1c-0.29.39-.34,0.38-0.82-0.13s-0.64-1-.24-1.36c0.21-.21.17-0.31-0.18-0.42a6.24,6.24,0,0,1-.89-0.38,0.61,0.61,0,0,0-.74,0c-0.49.41-1-.37-0.65-1s0.35-.89-0.46-1.31c-0.62-.32-0.78-0.33-0.95-0.07a3.86,3.86,0,0,0-.25,1.94c0,0.3-.09.41-0.38,0.35s-0.4-.29-0.36-1a2.62,2.62,0,0,0-.3-1.41,1.94,1.94,0,0,1-.35-0.87,1,1,0,0,0-.48-0.66c-0.61-.38-0.7-2.44-0.11-2.44a56.5,56.5,0,0,1,5.3,2.59c2.71,1.42,10,5.19,16.11,8.36s13.27,6.87,15.83,8.22L295,227.59c3.53,1.86,6.55,3.5,6.69,3.65,0.31,0.32.65,4.61,0.38,4.75a27.42,27.42,0,0,1-3.75-1.59h0Zm-26.29-15.28c0-.34-0.12-0.58-0.26-0.53a0.31,0.31,0,0,0-.24.26c0,0.09,0,.33,0,0.53a0.32,0.32,0,0,0,.24.36A0.59,0.59,0,0,0,272.07,219.12Zm28,8.57c-0.72-.49-0.85-0.68-0.63-0.94s0.17-.47-0.16-0.93c-0.56-.77-1-0.78-1,0s-0.13.72-1.21,0.26a1.54,1.54,0,0,1-1-1.37c-0.21-.89-0.35-1-0.92-1.11a1.56,1.56,0,0,0-1,.19c-0.47.39-2.45-.55-2.74-1.3-0.19-.5-0.33-0.55-1.07-0.43a1.38,1.38,0,0,1-1.38-.34,8.22,8.22,0,0,0-1.52-1,1.66,1.66,0,0,1-1.15-1.28c-0.35-1.72-.65-2.09-0.95-1.16a1.26,1.26,0,0,1-1.82.35,11,11,0,0,0-1.67-1c-1-.51-1.28-0.77-1.3-1.24,0-1.49-.1-1.66-0.56-1.66-0.62,0-.8.35-0.37,0.72s0.48,0.95.12,0.95a4.31,4.31,0,0,1-1.91-1,0.38,0.38,0,0,1,.42-0.2c0.34,0,.36,0,0.07-0.22a3.23,3.23,0,0,1-.73-1.2,4.86,4.86,0,0,0-1.54-1.9c-1.4-1.11-1.9-1-1.7.25a1.6,1.6,0,0,1,0,1c-0.38.21-2.68-1.05-2.68-1.47,0-.58-0.26-0.78-0.62-0.48-0.52.43-.86,0-0.45-0.57,0.59-.84.43-1.31-0.58-1.83a5,5,0,0,0-1.19-.48c-0.35,0-.3.72,0.1,1.49s0.19,0.82-1,.19c-0.81-.43-0.87-0.55-0.89-1.6s-0.11-1.18-.65-1.44a7,7,0,0,1-1.64-1.61,10.66,10.66,0,0,0-1.1-1.31,2.21,2.21,0,0,0-.52.26c-0.35.22-.7,0.09-1.94-0.71-2-1.28-2.34-1.27-2.44,0s-0.39,1.34-1.29.62a11,11,0,0,0-2-1.13,10.66,10.66,0,0,1-1.68-.88,21.2,21.2,0,0,0-4.12-2,4.82,4.82,0,0,1-1.45-1l-1.13-1,0.1-2.1a7.59,7.59,0,0,1,.34-2.34q0.24-.24,3.2,1.51c1.63,1,6.07,3.55,9.86,5.75,6.88,4,7.95,4.62,16.3,9.57l7.82,4.61c1.88,1.1,6.38,3.77,10,5.93l6.58,3.93,0.07,1.61a3.46,3.46,0,0,1-.12,1.61,4.62,4.62,0,0,1-1.1-.61h0Zm-6.82-2.36c-0.17-.2-0.19-0.36-0.06-0.36a1,1,0,0,1,.53.36c0.17,0.2.19,0.36,0.06,0.36A1,1,0,0,1,293.25,225.33Zm-1.46-.85c-0.53-.46-0.53-0.48,0-0.24a2,2,0,0,1,.67.49C292.65,225.11,292.39,225,291.79,224.48Zm-1.63-.82c-0.17-.2-0.19-0.36-0.06-0.36a1,1,0,0,1,.53.36c0.17,0.2.19,0.36,0.06,0.36A1,1,0,0,1,290.15,223.66Zm-1.43-.83a0.39,0.39,0,1,1,.36.24A0.32,0.32,0,0,1,288.72,222.83ZM287,222a3.87,3.87,0,0,1-.89-0.72,5.48,5.48,0,0,1,2,1.08c0.26,0.41-.21.27-1.13-0.36h0Zm13.19-.05a1.06,1.06,0,0,1-.11-0.7c0.13-.36-1.59-2-2.12-2a0.91,0.91,0,0,1-.66-0.48,2.77,2.77,0,0,0-1-.87,9.42,9.42,0,0,1-1.44-1,2.38,2.38,0,0,0-1.16-.56,1.08,1.08,0,0,1-.77-0.39,1.2,1.2,0,0,0-.87-0.39,1.13,1.13,0,0,1-1-.69,3.46,3.46,0,0,0-1.15-1.1,11.21,11.21,0,0,1-1.41-.94,2.35,2.35,0,0,0-1-.54,0.73,0.73,0,0,1-.56-0.31,3.93,3.93,0,0,0-1.38-.75,4.09,4.09,0,0,1-1.5-.88c-0.39-.54-0.76-0.35-0.76.38v0.55l-1-.47a2.6,2.6,0,0,1-1.66-1.82,2.79,2.79,0,0,0-1.79-1.93,1,1,0,0,1-.79-0.39c-0.31-.56-0.71-0.21-0.58.5s0,0.75-1.54-.12c-1.26-.72-1.88-1.47-1.6-1.92s-0.39-1.53-1.33-2.07-0.95-.48-0.95-0.16-0.17.36-.54,0.31a1.51,1.51,0,0,0-.83.11,2.09,2.09,0,0,1-1.78-.83A1.73,1.73,0,0,0,268,202c-0.75-.25-0.84-0.39-1.09-1.65a3.54,3.54,0,0,0-2.42-2.89c-1-.45-1.31-0.25-1.19.76,0.08,0.72,0,.79-0.39.65a5.31,5.31,0,0,1-1.2-.69,5.21,5.21,0,0,0-1.25-.7,1.67,1.67,0,0,1-1.25-1.92c0-1-.44-1.78-1-1.78a1.92,1.92,0,0,1-.87-0.6,3.81,3.81,0,0,0-1.57-.86,2.42,2.42,0,0,1-1.56-1.06,2.41,2.41,0,0,0-1.2-.95,1.56,1.56,0,0,1-.79-0.36c-0.27-.44-1.17-0.21-1.69.43l-0.53.65-0.39-.55a0.81,0.81,0,0,0-.7-0.43,0.87,0.87,0,0,1-.74-0.35,0.63,0.63,0,0,1-.18-0.88,4.64,4.64,0,0,0,.14-1.86,2.65,2.65,0,0,1,.15-1.62,23.37,23.37,0,0,1,4.25,2.43c2.2,1.42,5.07,3.27,6.37,4.1,5.64,3.58,21.5,13.92,31.2,20.35l10.5,7,0.15,1.13c0.21,1.55.19,2-.07,2a0.72,0.72,0,0,1-.44-0.42h0Zm-15.54-1.24c-0.31-.26-0.44-0.47-0.29-0.48a1.93,1.93,0,0,1,.83.46c0.31,0.26.44,0.47,0.29,0.48A1.93,1.93,0,0,1,284.65,220.7Zm12.65-1c0-.14.11-0.19,0.24-0.1a0.49,0.49,0,0,1,.24.25,0.22,0.22,0,0,1-.24.1A0.25,0.25,0,0,1,297.29,219.72ZM281.35,219c-1.08-.67-1.05-0.64-0.9-0.8a5.24,5.24,0,0,1,2.09,1.21C282.54,219.61,282.17,219.48,281.35,219Zm-2.89-1.61c-0.31-.26-0.44-0.47-0.29-0.48a1.93,1.93,0,0,1,.83.46c0.31,0.26.44,0.47,0.29,0.48A1.93,1.93,0,0,1,278.46,217.36Zm-3.82-1.92c-0.81-.43-1.37-0.94-1-0.94a7.41,7.41,0,0,1,2.14,1.19C276,216,275.63,216,274.64,215.44Zm24.2-1.18a3.58,3.58,0,0,0-1.25-1,2.82,2.82,0,0,1-1.11-.77,19.6,19.6,0,0,0-2.16-1.73,15.61,15.61,0,0,1-2-1.61,2,2,0,0,0-1.13-.65,2.58,2.58,0,0,1-1.28-.71,2.59,2.59,0,0,0-1.33-.71,1,1,0,0,1-.8-0.45c-0.25-.47-1.44-1.38-4.77-3.64-1.79-1.22-2-1.32-2.1-.9-0.11.68-.52,0.58-0.52-0.12s-1.5-2.5-2-2.5a5.42,5.42,0,0,1-1.48-1.16,4.52,4.52,0,0,0-2-1.31,3,3,0,0,1-1.39-.75,1.86,1.86,0,0,0-.86-0.59,1.77,1.77,0,0,1-.84-0.71,1.79,1.79,0,0,0-.83-0.71,1,1,0,0,1-.61-0.43,4.08,4.08,0,0,0-2.43-1.48c-0.54,0-1.32-.55-3-2.08a1.36,1.36,0,0,0-.81-0.3,3.47,3.47,0,0,1-1.49-1,9.66,9.66,0,0,0-3.1-2.12c-1.3-.65-2.17-1.37-1.95-1.59a0.63,0.63,0,0,1,.65.1c0.79,0.49.86,0.31,0.11-.3s-1.36-.78-1.17-0.27a0.42,0.42,0,0,1-.13.49,1.21,1.21,0,0,0-.25.86c0,0.8-.68,1-0.88.25a3.46,3.46,0,0,0-1.43-1.13c-1.54-.8-1.61-0.88-1.27-1.51s0.07-1.74-.32-1.61a1.12,1.12,0,0,0-.39.77,0.76,0.76,0,0,1-.3.63,2.66,2.66,0,0,0-.51,0,5.75,5.75,0,0,1-1.63-1.05c-1.22-1-1.29-1.11-1.29-2.14a1.6,1.6,0,0,1,.21-1.09,4.35,4.35,0,0,1,1.95,1.17,1.53,1.53,0,0,0,.69.5,6.87,6.87,0,0,1,1.52,1,4.15,4.15,0,0,0,1.4.86c0.14-.14-0.73-0.86-2.52-2.09-2.4-1.64-3.32-2.41-3.32-2.75a0.33,0.33,0,0,1,.31-0.35c0.33,0,.58.17,9.17,6.19l7.5,5.24c3.27,2.27,8.25,5.83,17.26,12.31,4.4,3.17,9.61,6.91,11.58,8.3,5.2,3.69,5.59,4,5.59,4.86a0.8,0.8,0,0,1-.19.7,4.77,4.77,0,0,1-1.12-1h0ZM256,183.56a0.52,0.52,0,0,0-.39-0.24c-0.13,0-.17.11-0.09,0.24a0.52,0.52,0,0,0,.39.24C256,183.8,256.08,183.69,256,183.56Zm-4.4-1.9a0.22,0.22,0,0,0-.1-0.24,0.49,0.49,0,0,0-.25.24c-0.08.13,0,.24,0.1,0.24A0.25,0.25,0,0,0,251.6,181.66Zm-66.4,33a0.38,0.38,0,0,1,.38-0.38c0.42,0,.35.51-0.09,0.66C185.33,215,185.2,214.85,185.2,214.64ZM268.29,212c-3.41-1.86-4.44-2.51-4-2.51s7.38,3.81,7.75,4.18c0.68,0.67-.16.3-3.77-1.67h0Zm-80.47-1.65a0.38,0.38,0,0,1,.38-0.38c0.42,0,.35.51-0.09,0.66C187.94,210.69,187.82,210.56,187.82,210.36Zm41.41-.27c0-.2.11-0.3,0.24-0.22a0.51,0.51,0,0,1,.24.37,0.23,0.23,0,0,1-.24.22A0.33,0.33,0,0,1,229.23,210.08ZM260,207.61c-3.2-1.74-4.21-2.39-3.75-2.39a84.56,84.56,0,0,1,7.64,4.06C264.18,209.78,263.21,209.37,260,207.61Zm18.29,0.83a0.52,0.52,0,0,1-.18-0.5c0.24-.24,1.87.19,1.78,0.47A1.16,1.16,0,0,1,278.26,208.44Zm-92.82-.72a0.36,0.36,0,1,1,.36.36A0.36,0.36,0,0,1,185.44,207.72Zm9.17-2.08c0.18-.84.47-1.29,0.65-1a2.22,2.22,0,0,1-.56,1.75C194.54,206.41,194.5,206.12,194.61,205.64Zm28.2,0.3a0.31,0.31,0,0,1,.34-0.24,0.63,0.63,0,0,1,.49.24c0.08,0.13-.07.24-0.34,0.24A0.44,0.44,0,0,1,222.8,205.93Zm-5.71-.69c0-.31-3.06-1.45-3.48-1.29a1,1,0,0,1-.81-0.28,3.33,3.33,0,0,0-1.72-.51c-2.47-.18-4-0.45-3.94-0.69s0.65-.27,1.78,0c0.68,0.16.8,0.11,1-.45,0.32-.7,1-0.79,1.87-0.27a3,3,0,0,0,1.19.36,1.45,1.45,0,0,1,1.46,1.08,0.75,0.75,0,0,0,.56.55,10.23,10.23,0,0,1,3.21,1.5,0.6,0.6,0,0,1-.59.21,0.59,0.59,0,0,1-.59-0.21h0Zm37-.77c-1.54-.79-2.09-1.17-1.93-1.33a14.68,14.68,0,0,1,3.6,1.83C256,205.37,255.61,205.25,254.1,204.48Zm-61.76-.21a0.42,0.42,0,0,1,.44-0.48c0.6,0,.8.25,0.48,0.63S192.34,204.81,192.34,204.27Zm51.64-.46a3.72,3.72,0,0,1,.23-1.07,25.16,25.16,0,0,0,.48-3.63c0.36-4.46.75-4.33,0.63,0.2-0.08,3-.17,3.83-0.51,4.34C244.33,204.38,244,204.45,244,203.81Zm-25.23-.25a0.24,0.24,0,1,1,.24.24A0.24,0.24,0,0,1,218.76,203.55Zm48.43-.24c-0.39-.26-0.59-0.47-0.44-0.47s1.52,0.93,1.28.94A3.89,3.89,0,0,1,267.19,203.32Zm22,0.11c-0.46-.55-0.13-0.66.36-0.11,0.24,0.26.32,0.48,0.19,0.48A1,1,0,0,1,289.2,203.43Zm-90.61-.14c-1.32-.38-0.86-0.69,1-0.69s2.21,0.23,1.32.71a3.1,3.1,0,0,1-2.34,0h0Zm52.27-.68c-0.31-.26-0.44-0.47-0.29-0.48a1.93,1.93,0,0,1,.83.46c0.31,0.26.44,0.47,0.29,0.48A1.93,1.93,0,0,1,250.85,202.61Zm-23.4-1c0.11-.82,1.4-8.94,1.9-12,0.15-.9.58-1.28,0.58-0.51,0,0.54-.56,4-1.43,8.89-0.26,1.44-.54,3.07-0.62,3.63a1.59,1.59,0,0,1-.36,1,1.31,1.31,0,0,1-.07-1h0Zm-13.16.37c-0.58-.11-0.75-0.78-0.2-0.78a1,1,0,0,1,1.09.62c0,0.18-.08.32-0.18,0.3l-0.71-.14h0Zm34.57-.31c-0.33-.36-0.35-0.47-0.1-0.47a1.72,1.72,0,0,1,1.17.79C249.93,202.3,249.27,202.1,248.86,201.65Zm14.37-.73c-0.53-.46-0.53-0.48,0-0.24a2,2,0,0,1,.67.49C264.09,201.55,263.83,201.45,263.23,200.92Zm-15.95-.22c-0.31-.26-0.44-0.47-0.29-0.48a1.93,1.93,0,0,1,.83.46c0.31,0.26.44,0.47,0.29,0.48A1.93,1.93,0,0,1,247.28,200.71Zm-2.11-6.29a1.52,1.52,0,0,1,.24-1c0.14-.09.24,0.19,0.24,0.69a1.52,1.52,0,0,1-.24,1C245.27,195.19,245.17,194.91,245.17,194.42Zm4.64-1.45c-0.39-.32-0.61-0.59-0.48-0.59a2.72,2.72,0,0,1,1,.58c0.39,0.32.61,0.59,0.48,0.59A2.72,2.72,0,0,1,249.81,193Zm-4.4-.46a30.1,30.1,0,0,1,.77-5.5c0.16-.16.19,0.16,0.09,1s-0.22,2-.3,2.92a5.51,5.51,0,0,1-.36,1.86C245.5,192.82,245.41,192.71,245.41,192.51Zm28.68-.38c-0.08-.13,0-0.24.09-0.24a0.52,0.52,0,0,1,.39.24c0.08,0.13,0,.24-0.09.24A0.52,0.52,0,0,1,274.09,192.13Zm-3-2.21a7.39,7.39,0,0,1-1.5-1.32,7,7,0,0,1,1.6,1c1.88,1.42,2,1.54,1.73,1.52A11.48,11.48,0,0,1,271.06,189.92Zm-4.11-3c-0.08-.13,0-0.24.09-0.24a0.52,0.52,0,0,1,.39.24c0.08,0.13,0,.24-0.09.24A0.52,0.52,0,0,1,266.95,186.89Zm-1-.71c-0.08-.13,0-0.24.09-0.24a0.52,0.52,0,0,1,.39.24c0.08,0.13,0,.24-0.09.24A0.52,0.52,0,0,1,266,186.18Zm-19.87-.69a0.82,0.82,0,0,1,.24-0.62c0.13-.08.24,0.07,0.24,0.33a0.82,0.82,0,0,1-.24.62C246.23,185.9,246.12,185.76,246.12,185.49Zm18.92,0c-0.08-.13,0-0.24.09-0.24a0.52,0.52,0,0,1,.39.24c0.08,0.13,0,.24-0.09.24A0.52,0.52,0,0,1,265,185.47Zm-1.67-.24c-0.08-.13,0-0.24.1-0.24a0.25,0.25,0,0,1,.25.24,0.22,0.22,0,0,1-.1.24A0.49,0.49,0,0,1,263.38,185.23Zm0.71-.48c-0.08-.13,0-0.24.09-0.24a0.52,0.52,0,0,1,.39.24c0.08,0.13,0,.24-0.09.24A0.52,0.52,0,0,1,264.09,184.75Zm-2.18-1.51c-4.12-3.06-6.29-4.65-7.55-5.51-2.11-1.44-2.32-1.59-3.76-2.69-1.19-.91-1.88-1.71-1.46-1.71a57.7,57.7,0,0,1,5.6,4.06A24.66,24.66,0,0,0,257,179.1c2.23,1.53,6.78,4.93,6.78,5.06,0,0.31-.54,0-1.82-0.92h0Zm-15.55.35a0.82,0.82,0,0,1,.24-0.62c0.13-.08.24,0.07,0.24,0.33a0.82,0.82,0,0,1-.24.62C246.47,184,246.36,183.85,246.36,183.59Zm0.24-2.5a1,1,0,0,1,.24-0.74c0.13-.08.24,0.11,0.24,0.45a1,1,0,0,1-.24.74C246.7,181.62,246.6,181.43,246.6,181.09Zm0.24-2.26a0.52,0.52,0,0,1,.24-0.39c0.13-.08.24,0,0.24,0.09a0.52,0.52,0,0,1-.24.39C246.95,179,246.84,179,246.84,178.83Zm6.31-1c-0.08-.13,0-0.24.09-0.24a0.52,0.52,0,0,1,.39.24c0.08,0.13,0,.24-0.09.24A0.52,0.52,0,0,1,253.15,177.85Zm-1.43-1c-0.08-.13,0-0.24.1-0.24a0.25,0.25,0,0,1,.25.24,0.22,0.22,0,0,1-.1.24A0.49,0.49,0,0,1,251.72,176.9Zm-4.64-.21a0.52,0.52,0,0,1,.24-0.39c0.13-.08.24,0,0.24,0.09a0.52,0.52,0,0,1-.24.39C247.18,176.86,247.08,176.82,247.08,176.69Z"/>
    </g>
  </g>
  <g id="himg-text-container">
    <text class="cls-3" transform="translate(205.08 385.56)">your<tspan x="4.22" y="54">text</tspan></text>
    <rect id="himg-text-rect" class="cls-4" x="137.32" y="350.28" width="233.97" height="120.71"/>
  </g>
</svg>
