<svg id="himg-college" xmlns="http://www.w3.org/2000/svg" viewBox="0 0 550 550">
  <defs>
    <style>
      .cls-1 {
        fill: red;
        stroke: #000;
        stroke-miterlimit: 10;
        stroke-width: 3px;
      }
    </style>
  </defs>
  <title>hoodies</title>
  <g id="MmpPg0.tif">
    <g>
      <path class="cls-1" d="M495.77,336.82l-0.57,1.66c-3.74,8.12-7.82,16.06-12.06,23.93-4.77,8.86-10.27,17.27-15.55,25.81-4.29,6.94-9.24,13.44-14,20.09-2.48,3.5-5.12,6.89-7.69,10.33a6.85,6.85,0,0,0-1.09,3.93c-0.15,2.1.15,4.23-.41,6.31-0.3,3.07-.06,6.14-0.13,9.2-0.18,8.1-.83,16.18-1.08,24.28-0.09,2.77-.21,5.56-0.18,8.32,0,4-.54,7.87-0.56,11.81A7.48,7.48,0,0,1,441,487a10,10,0,0,0-1.37,4.57,45.14,45.14,0,0,1-14.15,26.71,67.87,67.87,0,0,1-18.75,12.27,94.88,94.88,0,0,1-10.34,4.11,77.15,77.15,0,0,1-9.6,2.83,243.33,243.33,0,0,1-27.53,4.92c-0.88.1-1.75,0.07-2.63,0.09-9.43.19-18.87-.41-28.3,0.42-2.26.2-4.52-.25-6.79-0.22-24,.4-48,0.11-72,0.3-6.8.05-13.6,0.07-20.41,0.15C223,543.22,217,542,211,540.77c-7.85-1.65-15.53-4-23.34-5.76-5-1.15-9.86-2.63-14.93-3.29-0.25,0-.51,0-0.77,0a29.88,29.88,0,0,0-7.57-1.11c-4.8-.88-9.67-1.33-14.42-2.43-3.75-.87-7.51-1.73-10.4-4.7A10.92,10.92,0,0,1,137,519c-0.73-2.41-1.5-5-1.12-7.5,0.56-3.73.69-7.57,2.07-11.15a2.45,2.45,0,0,0-1-3.18,31,31,0,0,1-9.4-11.63,18,18,0,0,1-1.92-7.77c0.08-19.11,0-38.21.05-57.32,0-8.71-3-15.78-10-21.29-4.76-3.74-9.41-7.64-14.39-11.08-6.36-4.39-12.64-8.87-18.64-13.73-8.44-6.85-16.09-14.47-21-24.32a29.59,29.59,0,0,1-3.41-11.25c-0.93-6-1.55-12-.57-18.08a70.47,70.47,0,0,0,.89-8.25c0.12-3.08-1.64-5.54-3.09-8a60.48,60.48,0,0,1-5.25-11,29.38,29.38,0,0,1-.79-16.17c1.15-4.9,1-9.79.86-14.78-0.13-5.54-.25-11.1-0.17-16.65,0.07-4.61.12-9.22,0-13.83a8.61,8.61,0,0,1,1.69-5.27,30.76,30.76,0,0,1,7.44-8,27.38,27.38,0,0,0,2.77-2.5,10.52,10.52,0,0,0,3.61-8.51c-0.25-7.16-.08-14.34-0.07-21.51,0-3.8-.11-7.6-0.43-11.39a25.55,25.55,0,0,1,.66-7.38c2.1-5.67,5.58-10.52,9.12-15.33a40.11,40.11,0,0,0,7.89-18.88A200.6,200.6,0,0,1,86.15,112a121.29,121.29,0,0,1,5.58-17.67,59.65,59.65,0,0,1,11.81-18.72c5.25-5.57,11.77-9.26,18.59-12.51s14.35-5.72,21.12-9.5a62.28,62.28,0,0,0,11-7.46c1.06-.93,1.48-1.82.82-3.24a18.14,18.14,0,0,1-1.75-10,16.35,16.35,0,0,1,5.71-10.25c5.08-4.61,11.37-6.73,17.72-8.7a108.09,108.09,0,0,1,17.08-3.6,241.2,241.2,0,0,1,24.83-2.32c10.59-.38,21.18-0.77,31.78-1,5.11-.12,10.24-0.51,15.34-0.28,9.34,0.42,18.68,1,28,1.07,5.48,0.16,10.91.94,16.37,1.24,8.67,0.48,17.3,1.54,26,2.05a85,85,0,0,1,12.33,1.68,69.74,69.74,0,0,1,16.23,5.57,50.24,50.24,0,0,1,13.71,10.35,43.62,43.62,0,0,1,9.15,14.53,53.65,53.65,0,0,1,3.73,15c0.15,1.45,1.24,1.92,2.31,2.34a98.76,98.76,0,0,1,20.3,11,118.32,118.32,0,0,1,19.16,16.3,84.86,84.86,0,0,1,13.15,17.69c1.39,2.61,1.92,5.64,2.84,8.47,1.92,5.89,3.75,11.81,5.58,17.73,1.76,5.7,3.49,11.42,5.33,17.1s3.53,11.1,5.3,16.65c1.47,4.58,2.83,9.19,4.33,13.76,1.93,5.88,3.74,11.8,5.63,17.7,1.68,5.27,3.39,10.54,5,15.83,1.32,4.32,2.76,8.61,4.08,12.93q3.45,11.28,7,22.52c1.15,3.6,2.8,7,3.9,10.67a154.59,154.59,0,0,1,4.49,20.47c1.25,7.83,1.35,15.67,1.37,23.54a100.55,100.55,0,0,1-1.64,19.82A83.46,83.46,0,0,1,495.77,336.82Z"/>
      <path class="cls-1" d="M495.77,336.82c-0.45-2.24,1-4.07,1.49-6.08,1.3-5.18,2.08-10.41,2.91-15.66a64.93,64.93,0,0,0,.46-10.07c0-6.59.21-13.2-.27-19.76a77.75,77.75,0,0,0-1.42-9.2c-1-4.85-1.95-9.7-3.23-14.47a70.75,70.75,0,0,0-3.84-11c-1.39-3-2.1-6.3-3.16-9.45-1.57-4.67-2.91-9.43-4.38-14.14q-2-6.53-4.14-13c-1.47-4.54-3-9-4.45-13.59-1.36-4.28-2.59-8.61-3.94-12.89-1.87-5.93-3.85-11.84-5.71-17.77-1.35-4.29-2.54-8.62-3.89-12.91-1.41-4.49-3-8.93-4.4-13.41-1-3-1.89-6.1-2.83-9.15-1.33-4.36-2.62-8.74-4-13.08s-3-8.63-4.24-13c-1.1-3.81-3.48-6.82-5.7-9.94-8.59-12.05-19.57-21.52-32-29.35a88.85,88.85,0,0,0-15.86-8,2.72,2.72,0,0,1-2-2.34,55.67,55.67,0,0,0-2.55-11.49,44.78,44.78,0,0,0-5.78-12.14,48.18,48.18,0,0,0-16.38-15.14,62.49,62.49,0,0,0-10.32-4.44c-8.19-2.76-16.69-3.26-25.16-4.17-3.79-.41-7.6-0.27-11.37-0.81C311.25,9,302.83,9.13,294.48,8.32a2.46,2.46,0,0,1-.61-0.23A37.59,37.59,0,0,1,306,8.46a24.49,24.49,0,0,1,3.46.39c5.74-.5,11.37.7,17.05,1.07S338.21,10.7,344,11.57a69.36,69.36,0,0,1,21.25,6.62,47.16,47.16,0,0,1,19.95,18.94,44.1,44.1,0,0,1,5.36,14.35c0.39,2.21,1.37,4.31,1.13,6.64-0.13,1.33,1.17,1.69,2,2a101.13,101.13,0,0,1,20.56,11.12A113.5,113.5,0,0,1,442.93,99.2a45.68,45.68,0,0,1,6.37,13.93c1,3.55,2.3,7,3.39,10.55,1.36,4.42,2.59,8.88,4,13.29s2.89,8.64,4.27,13,2.7,8.85,4.08,13.26c1,3.18,2.08,6.33,3.08,9.5s2,6.51,3,9.75,2,6.2,2.95,9.31c1.41,4.48,2.78,9,4.21,13.46s2.93,8.78,4.23,13.22c1,3.33,2.3,6.55,3.15,9.93,0.82,3.21,2.1,6.3,3,9.48,0.83,2.77,1.85,5.49,2.56,8.27,0.76,3,2.25,5.64,3.09,8.56,1.07,3.75,2.36,7.42,3.34,11.21,1.43,5.52,2.11,11.14,3.06,16.72,0.57,3.36.39,6.85,0.73,10.26,1.05,10.57,0,21-1.86,31.39C498.8,328.53,498.41,333.07,495.77,336.82Z"/>
      <path class="cls-1" d="M309.49,8.85c-4.22.24-8.33-1.22-12.56-.84-1,.09-2,0.05-3.06.08-9.37.08-18.72-.32-28.07-0.79-8.56-.43-17.11.35-25.66,0.55-4.68.11-9.37,0.08-14.05,0.25-9.57.35-19.1,1.18-28.61,2.27a124.86,124.86,0,0,0-20.18,3.89c-6.75,1.94-13.46,4.24-18.67,9.39-5.41,5.35-6.24,11.8-3.38,18.47,0.88,2.06.65,3.26-1.07,4.69-6.28,5.21-13.44,8.77-20.92,11.9s-15.34,6.23-22.17,11A51.24,51.24,0,0,0,94.72,88.71a100.24,100.24,0,0,0-7.46,20.79c-2.33,8.92-3,18.1-4.74,27.11-1.13,5.87-4,11-7.48,15.82-3.24,4.47-6.64,8.82-8.52,14.11a2.13,2.13,0,0,1-.61.61q-0.26.34-.49,0c1-3.55,3-6.59,5-9.6,3.49-5.22,7.69-10,9.85-16a30.07,30.07,0,0,0,1.82-6.65c0.72-6.37,1.59-12.74,2.86-19a119.82,119.82,0,0,1,6.65-22.18c4.35-10.47,10.78-19.06,20.2-25.34,5.81-3.87,12.21-6.61,18.66-9.22,7.88-3.19,15.52-6.82,22.3-12,2.56-2,2.62-3,1.13-6.7a14.68,14.68,0,0,1-.06-10.64C156,23.38,161,20,166.57,17.37a84.37,84.37,0,0,1,15.77-5.2,136.8,136.8,0,0,1,17.32-3c5.78-.66,11.59-1.48,17.45-1.57,16.16-.23,32.3-1.56,48.48-1.27,12.35,0.22,24.66,1.57,37,1.38A22.63,22.63,0,0,1,309.49,8.85Z"/>
      <path class="cls-1" d="M58.41,339a46.37,46.37,0,0,0,10,20.82c6.36,7.85,14,14.2,22.1,20.14,8.93,6.56,18.17,12.7,26.61,19.92a23.84,23.84,0,0,1,8.79,18.79c0,19.11.1,38.23,0,57.34,0,6.73,2.77,12.1,7.06,16.9a52.58,52.58,0,0,0,4.67,4.31,2.45,2.45,0,0,1,.82,3,35.25,35.25,0,0,0-1.74,16.61c0.77,4.95,4.46,8.52,9.53,10,5.93,1.68,12.08,2.06,18.06,3.39a42.7,42.7,0,0,1,7.49,1.28l0.42,0a0.22,0.22,0,0,1,.15.27,0.19,0.19,0,0,1-.13.15c-2.68.51-5.17-.56-7.75-0.93-3.87-.56-7.8-0.84-11.59-1.74-4.78-1.13-10-1.52-13.59-5.54-1.79-2-3.19-4.15-3.15-6.93,0-1.5-1.32-2.67-.9-4.21,0.91-3.35.49-6.91,1.73-10.21,1.14-3,.81-3.73-1.69-5.89a32.17,32.17,0,0,1-9.85-15.08,10.47,10.47,0,0,1-.24-3c0-19.85.07-39.7-.06-59.55a23,23,0,0,0-8.55-18.26c-4.93-4.08-9.89-8.12-15.18-11.76-6.45-4.43-12.8-9-18.88-14a104.33,104.33,0,0,1-16.18-16.26c-3.86-4.87-6.23-10.37-8.2-16.13A9.38,9.38,0,0,1,58,339Q58.21,338.69,58.41,339Z"/>
      <path class="cls-1" d="M172.25,531.93q0-.21,0-0.42c3.5-.38,6.68,1,10,1.8,2.25,0.53,4.52,1,6.76,1.6,4.3,1.21,8.67,2.14,13,3.38s8.8,1.81,13.17,2.86c8.86,2.13,17.86,1.26,26.8,1.3q32,0.14,63.91-.06c5.92,0,11.84-.27,17.76-0.26,11.4,0,22.8.09,34.2-.07,4.5-.06,8.93-1.16,13.38-1.81,3.31-.49,6.48-1.69,9.87-1.73,2.09,0,4-1.37,6.14-1.27a0.26,0.26,0,0,1,.15.32,0.21,0.21,0,0,1-.14.16c-12.35,3-24.76,5.29-37.59,5.38-33.23.25-66.46,0.22-99.69,0.45-7.1,0-14.2.16-21.29,0.16-4.76,0-9.39-1-14.07-1.85-4.47-.78-8.82-2-13.22-2.93-3.9-.86-7.72-2.1-11.6-3.07-4.16-1-8.35-2-12.54-2.91C175.54,532.57,173.9,532.26,172.25,531.93Z"/>
      <path class="cls-1" d="M58.41,339H58.2L58,339l-0.52-.82a81.82,81.82,0,0,1,.09-21.46,3.41,3.41,0,0,1,.35-1c1.11-5-1.53-8.87-3.82-12.78-4.54-7.76-7.32-16-5.31-24.95,1.88-8.32.48-16.59,0.82-24.87a164.19,164.19,0,0,0-.09-18.66c-0.36-5,1.74-8.5,4.78-11.88a39,39,0,0,1,5.35-4.85c3.59-2.75,5.73-6,5.49-10.94C64.77,199,65,191.21,64.9,183.45c0-2.33-.28-4.67-0.32-7-0.06-3.13-.33-6.29.83-9.31l0.49,0c-0.8,6.21,0,12.43-.12,18.65-0.12,7.76-.09,15.53.07,23.29a7.72,7.72,0,0,1-2.49,6q-3.94,3.81-8,7.52a23.51,23.51,0,0,0-3.66,4.62,7.58,7.58,0,0,0-1.37,4.5c0.3,7.75.17,15.51,0.39,23.27,0.15,5.23.39,10.49,0.17,15.74a34.47,34.47,0,0,1-1.12,6.67c-1.89,7.72-.1,14.83,3.27,21.76,1.87,3.84,4.45,7.32,5.68,11.47a3.47,3.47,0,0,1,.31,1.92c-1,3.85-.61,7.85-1.4,11.75-0.64,3.16,0,6.43.4,9.61C58.29,335.64,58.32,337.31,58.41,339Z"/>
      <path class="cls-1" d="M444.28,428.62c-1.36-6.92,2.35-11.83,6.25-16.91a411.53,411.53,0,0,0,23.39-34.19c5.16-8.33,9.85-16.93,14.5-25.54,2.23-4.13,4-8.49,6.07-12.74a3.58,3.58,0,0,1,.7-0.77c-0.21,2.61-1.66,4.77-2.77,7-3.82,7.62-7.67,15.24-11.85,22.68-3.45,6.13-7.33,12-11.12,18-6,9.38-12.52,18.36-19.06,27.34a17.55,17.55,0,0,1-2.16,2.71c-3,2.73-2.6,6.43-3,9.9-0.67,5.61-.36,11.25-0.56,16.88-0.21,6.06-.19,12.13-0.82,18.17a4.52,4.52,0,0,1-.36,1,27.81,27.81,0,0,1-.21-7.8c0.53-8.28,1-16.56.83-24.86A1.63,1.63,0,0,1,444.28,428.62Z"/>
      <path class="cls-1" d="M444.28,428.62a237.25,237.25,0,0,1-.78,25.61c-0.24,2.61,0,5.26,0,7.9-0.15,6.87-.32,13.74-0.44,20.61a6.62,6.62,0,0,1-1,3.54c-1.49,2.27-1.83,4.83-2.29,7.4A44.06,44.06,0,0,1,430.88,513c-5,6.5-11.47,11.3-18.62,15.22a89.76,89.76,0,0,1-22,8.59c-1,.25-1.93,1.1-3.11.86v-0.48c4.86-1.61,9.82-3,14.57-4.89a82.67,82.67,0,0,0,16-8.29,55.83,55.83,0,0,0,13.56-12.88,44.92,44.92,0,0,0,7-14.82c1-3.64.64-7.7,3.22-10.95,0.66-.83.47-2.39,0.54-3.63,0.54-9.19.9-18.39,1-27.6,0.09-8.18,1.21-16.32.93-24.52A3.4,3.4,0,0,1,444.28,428.62Z"/>
      <path class="cls-1" d="M57.92,315.66a114.9,114.9,0,0,0-.86,15.73c0.09,2.26.74,4.48,0.42,6.76-0.9-1.36-.63-3-0.71-4.43a118.51,118.51,0,0,1,.31-16.61A1.79,1.79,0,0,1,57.92,315.66Z"/>
      <path class="cls-1" d="M202.55,172.4c0-8.42,1.59-62.69,1.59-71.47,0-3.36.31-6.71,0.45-10.07,0.09-2.25.75-2.65,2.7-1.64a127.45,127.45,0,0,0,16,7,128.6,128.6,0,0,0,21.1,5.58,137.86,137.86,0,0,0,18.27,1.77c6.85,0.27,13.69-.59,20.5-1.46,3-.38,5.89-1,8.79-1.7a105,105,0,0,0,10.95-2.92c4.59-1.59,9.33-2.68,14-4a1.16,1.16,0,0,1,1.64,1.19,34.8,34.8,0,0,1-.14,3.72,68.8,68.8,0,0,0,.45,11.38c0.34,2.82.18,5.69,0.58,8.52,0.92,6.49,1.72,13,3,19.42,1.32,6.64,2.86,13.24,4.13,19.89,0.35,1.84.93,3.66,1.32,5.51,0.31,1.5,1.85,9.49,2.39,11.33,1.47,5,3.12,17.8,3.22,18.7a108.91,108.91,0,0,1,.66,12.68,4.87,4.87,0,0,1-2.26,4.42c-4.36,3-4.33,7.88.09,10.78a4.31,4.31,0,0,1,2.14,4.19c-0.08,2.78,0,5.56,0,8.35a6,6,0,0,0,.13,1.75,1.21,1.21,0,0,0,1.12.91,1,1,0,0,0,1-1,28.07,28.07,0,0,0,.52-3.91q0-3.62,0-7.25a3.38,3.38,0,0,1,1.52-3c4.71-3.29,4.1-8.59.06-11.06-1.41-.86-1.45-2.31-1.39-3.7,0.18-4.48-4.67-38.24-5.62-41.83-1.62-6.13-2.69-12.41-4.11-18.6-1.76-7.7-3.13-15.46-4.27-23.27a155.48,155.48,0,0,1-1.35-26.5c0.11-4.43.21-4.57,4.76-5.32,3.12-.52,6-1.89,8.93-2.88,4.77-1.59,9.46-3.4,14.09-5.36,4.22-1.78,8.31-3.85,12.49-5.73,6.19-2.78,12.13-6,18.21-9a56.46,56.46,0,0,0,7.31-4,5.55,5.55,0,0,1,6-.23,126.41,126.41,0,0,1,15.25,8.08,119,119,0,0,1,17.92,14,5.88,5.88,0,0,1,1.83,4.46c0.15,13.32.49,26.63,0.54,39.95,0,8.34.08,16.7-.66,25-0.5,5.66-.94,11.33-1.92,17-0.78,4.45-1.5,8.91-2.58,13.3a72.89,72.89,0,0,1-4.22,12.4,55.68,55.68,0,0,1-6.61,11c-0.58.77-1.29,1.87-.2,2.74s2,0,2.69-.9a59.16,59.16,0,0,0,8.32-14.83,99.62,99.62,0,0,0,4.35-15.1c1.13-4.75,1.56-9.63,2.26-14.47,0.93-6.45,1.07-12.95,1.47-19.43,0.54-8.84.43-17.72,0.21-26.57-0.19-8.12,0-16.24-.55-24.35-0.07-1.2-.79-3,0.69-3.54,1.23-.43,2,1.25,2.69,2.18a72.46,72.46,0,0,1,8.4,12.25c1.52,3,2.24,6.3,3.21,9.49,1.75,5.72,3.69,11.38,5.43,17.11s3.64,11.69,5.49,17.52c1.38,4.38,2.72,8.77,4.13,13.13,1.91,5.88,3.67,11.81,5.55,17.7,1.35,4.23,2.66,8.48,4,12.7,1.48,4.5,2.86,9,4.28,13.55,1.32,4.23,2.49,8.52,4,12.67,1.95,5.3,2.09,10.73,1.79,16.21-0.18,3.21-.4,6.42-0.55,9.63a71.3,71.3,0,0,1-3,18.52c-2.44,7.58-6.55,14.16-13.19,18.9-1,.7-2.68,1.48-1.49,3,1.05,1.38,2.24.18,3.21-.54a38,38,0,0,0,13.07-17.13c3.62-9.21,4.65-18.77,4.73-28.52a7.18,7.18,0,0,1,.08-1.75,0.71,0.71,0,0,1,.36-0.34c2,1.69,1.94,4.32,2.73,6.51,1.16,3.22,2.36,6.42,3.55,9.63a101.29,101.29,0,0,1,3.72,12.56c1,4.47,1.6,9,2.54,13.51a4.59,4.59,0,0,1-2,5.11,56.36,56.36,0,0,1-17.73,8.86c-0.92.29-1.72,0.76-2.6,1.08a20.89,20.89,0,0,0-4.41,1.23,1.47,1.47,0,0,0-1.1,1.67c0.19,0.86,1,1,1.76.94a21.4,21.4,0,0,0,5.49-1.43,73.61,73.61,0,0,0,18.76-8.69c1.82-1.22,2.08-1,2.73,1.13a14.24,14.24,0,0,1,.34,4.12c0,2.12-.1,4.25,0,6.37,0.4,6.24-.45,12.41-1.36,18.52a82.28,82.28,0,0,1-7.73,24.42c-3.67,7.46-7.64,14.75-11.62,22-2.92,5.35-6.43,10.39-9.6,15.61-5.12,8.42-11.11,16.25-16.6,24.42a6.47,6.47,0,0,1-.83,1,0.88,0.88,0,0,1-1.71-.41c-0.43-5.31-1.61-10.51-2.21-15.79a43.66,43.66,0,0,0-1.52-5.69,81.85,81.85,0,0,0-6.05-16.34A94.06,94.06,0,0,0,426,349.35c-3.52-4.09-7.09-8.15-11-11.92-1.08-1.38-2.47-2.47-3.61-3.8s-1.24-2.3,0-3.56a28.25,28.25,0,0,1,13.11-7.57,29.57,29.57,0,0,1,7.83-.56,44.89,44.89,0,0,1,8.29.5c0.69,0.15,1.61.38,1.89-.54,0.35-1.11-.68-1.36-1.42-1.53a35.43,35.43,0,0,0-14.34-.65,28.59,28.59,0,0,0-14.43,6.39,3.46,3.46,0,0,1-2.21.86,2.23,2.23,0,0,1-2-1.06,1.76,1.76,0,0,1,.18-2.24,37.76,37.76,0,0,1,9.74-8.06,26.93,26.93,0,0,1,6.38-2.74,72.82,72.82,0,0,1,11.18-1.65c1.25,0,2.48.13,3.72,0.09,1,0,2.37.21,2.43-1.18s-1.32-1.29-2.3-1.49c-2.7-.55-5.42-0.12-8.08.13a35.42,35.42,0,0,0-15.85,5.15,50.93,50.93,0,0,0-8.68,7.33c-1.79,1.78-2.21,1.74-3.69-.32a23.74,23.74,0,0,0-1.64-2.06c-1.63-1.81-1.64-2.76,0-4.53,3.58-3.77,7.69-7,11.23-10.81,2.29-2.47,4.87-4.64,7.37-6.89,2.38-1.59,4-4,6.18-5.82,5.2-4.44,10.18-9.12,15.22-13.74a3.88,3.88,0,0,1,.33-0.28c1-.72,1.31-1.7.5-2.61-1.06-1.2-1.56.24-2.26,0.7-4.53,4.26-9.25,8.3-13.82,12.5-0.64.59-1.3,1.44-2.23,1s-0.65-1.61-.76-2.54c-0.58-5,1.49-9.24,3.2-13.66q3.1-8,5.53-16.33c1.68-5.67,3-11.42,4.38-17.14,1.21-4.94,2-10,2.83-15,0.64-3.81,1.37-7.63,1.76-11.46,0.51-5.08,1.39-10.11,1.91-15.19,0.54-5.29.87-10.61,1.65-15.89,0.65-4.4.5-8.9,1.29-13.29,0.73-4.06.12-8.18,0.73-12.25,0.23-1.51-.3-1.8-1.84-1.22a43.82,43.82,0,0,0-1.17,9.75,96.6,96.6,0,0,1-1,12.22c-0.45,4.13-.72,8.28-1.17,12.42q-1.11,10.11-2.36,20.21c-0.49,3.91-1.13,7.8-1.75,11.68-0.54,3.45-1.15,6.9-1.76,10.34-0.85,4.88-2.16,9.66-3.08,14.52-0.62,3.27-1.82,6.44-2.65,9.68-1.48,5.8-3.74,11.35-5.77,17a12.46,12.46,0,0,1-3.63,5.36c-2.42,2.1-4.84,4.25-7.12,6.52a30.59,30.59,0,0,1-5.41,4.47,5.71,5.71,0,0,1-7.11-.51,11.07,11.07,0,0,1-1.53-1.57c-2.81-3.4-4.35-7.44-5.77-11.52-0.85-2.47-.18-5,0.36-7.37,0.78-3.46.6-7,1-10.44,0.88-6.82.88-13.7,1.06-20.56a4.45,4.45,0,0,0,.25-1.51c-0.27-6,.73-12,0.44-18-0.13-2.72.4-5.39,0.49-8.09a3.24,3.24,0,0,1,1.56-2.51A54.8,54.8,0,0,0,410.65,194a86.59,86.59,0,0,0,5.05-7.67,5.8,5.8,0,0,0,.49-1c0.28-.87,1-2,0-2.57-1.22-.7-1.54.64-2,1.39-4,6.52-8.3,12.73-14.08,17.82-0.66.58-1.32,1.44-2.23,1s-0.68-1.51-.71-2.37c-0.27-8.78.52-17.53,0.77-26.29,0.19-6.72.12-13.5,0.72-20.15,0.78-8.65.11-17.4,1.92-26a2.63,2.63,0,0,0,0-.66c0-1,.31-2.28-1.19-2.39s-1.42,1.14-1.49,2.17c-0.57,8.08-1,16.18-1.55,24.26-0.7,10.81-.6,21.62-1.25,32.4-0.62,10.24-.36,20.47-0.85,30.68-0.28,5.85.13,11.72-.38,17.53-0.92,10.47-.81,21-1.9,31.46-0.66,6.34-3.31,11.73-5.5,17.4A32,32,0,0,0,384.56,294c0.21,7,3.42,12.52,7.69,17.65,1.6,2.07,3.32,4,4.88,6.15,1.63,2.69,4,4.81,5.64,7.52,1,1.56,1.7,3.21,2.57,4.8,0.54,1,.17,1.74-0.68,2.47a53.6,53.6,0,0,0-8.12,8.27,32.21,32.21,0,0,0-4,6.22c-0.7,1.19-1.85,1.31-3.05,1.31-7.24,0-14.45.71-21.69,0.87-1.63,0-2.09.59-1.5,2.16,2.25,6,5,11.71,7.63,17.49a331.64,331.64,0,0,0,16.59,30.44c5.05,8.48,10.42,16.78,15.73,25.1,1,1.63,1.51,1.67,3.11.34,3.38-2.8,6.71-5.66,10-8.52,2.19-1.48,4.07-3.34,6.09-5a3.57,3.57,0,0,1,3-.94c5,0.82,10.11,1.38,15.15,2.16,2.16,0.34,2.49,1,1,2.64-2.27,2.42-2.8,5.15-2.83,8.39-0.09,9.79-1,19.55-1.2,29.33-0.09,5-.35,10.08-0.47,15.12s-0.73,10.2-.69,15.32a2.66,2.66,0,0,1-2.08,2.75c-2.94.9-5.91,1.66-8.91,2.29-5.13,1.09-10.25,2.22-15.39,3.27-5.35,1.1-10.73,2-16.12,2.91-3.88.66-7.75,1.36-11.62,2.08-2.43.45-4.93,0.26-7.37,0.82-0.84.19-1.74,0.19-2.59,0.43-4.77.66-9.57,1.11-14.34,1.7-7.24.9-14.53,1.28-21.78,2-4.41.44-8.89,0.55-13.35,0.74-8.62.38-17.26,0.4-25.88,0.77-15.36.65-30.71-.3-46.06-0.16-12.05.1-24.12-.66-36.15-1.37-9.1-.54-18.23-0.88-27.31-1.84-5.89-.62-11.82-0.51-17.72-1.09-6.54-.64-13.11-0.74-19.65-1.39a62.37,62.37,0,0,0-7.66-.36,11.86,11.86,0,0,1-8.62-3.63,28,28,0,0,1-7-9.93,17.78,17.78,0,0,1-1.33-6.84q0-24.94,0-49.88c0-1.25-.48-3,1.09-3.45,1.25-.33,1.72,1.37,2.3,2.31a163.47,163.47,0,0,0,9.74,14.09,129.48,129.48,0,0,0,30.91,28.4A182,182,0,0,0,194.24,480c0.71,0.35,1.52.93,2.25,0.33s0.18-1.5.09-2.28a63.86,63.86,0,0,0-5.35-18.93c-0.9-2-2-3-4.4-3.09-5.43-.17-10.43-2.11-15.17-4.67-8.87-4.81-16.75-11-24.38-17.55-4.56-3.9-8.93-8-13.49-11.93-1.63-1.4-2.3-2.92-1.64-5a9.6,9.6,0,0,0,.34-3.7c-0.45-5,.83-9.93,1.63-14.79a94.43,94.43,0,0,1,5-17.71,98.28,98.28,0,0,1,20.38-32.55,81.89,81.89,0,0,1,11.08-9.66,6.29,6.29,0,0,0,2.82-5.6c-0.09-3,0-6,0-9-0.09-2.73-.75-3.21-3.2-2.11-8.48,3.82-16.92,7.72-25.28,11.8-0.59.29-1.16,0.63-1.76,0.91-2.26,1.06-2.93.66-3.17-1.88-0.86-8.78-.16-17.48,1-26.2,1.21-9,2.71-17.9,4.18-26.82,0.88-5.34,1.61-10.7,2.06-16,0.65-7.68.8-15.4-.73-23.13-1.88-9.45-6.1-17.23-13.85-23a23.44,23.44,0,0,0-6.62-3.81c-2.84-.92-3.82-2.81-3.81-5.4,0-8.42-.91-16.79-1.49-25.16-0.62-8.88-.85-17.8-1.92-26.65a53.23,53.23,0,0,1-.36-7.44c-0.09-4.75-.74-9.47-0.92-14.21-0.24-6.5-1.08-13-1.29-19.45-0.12-3.58-.38-7.15-0.7-10.71,0-.29-0.14-0.57-0.18-0.86a1.47,1.47,0,0,0-1.75-1.49c-1.19.12-1.07,1-1.1,1.78-0.15,4.76.8,9.46,0.91,14.19,0.19,7.82,1.23,15.58,1.53,23.4,0.26,7,1.11,14,1.42,21,0.24,5.47.81,10.93,1,16.41,0.22,5.31,1,10.6,1.12,15.93,0.11,5.77,1.25,11.48,1.21,17.26a2.53,2.53,0,0,0,1.82,2.62c3.47,1.51,7,3,10,5.37a33.81,33.81,0,0,1,8.36,9.78c1.26,2.21.56,4.35,0,6.37-1.49,5.41-2.86,10.89-5.57,15.89a26.8,26.8,0,0,1-1.73,2.78c-2.35,3.3-4.85,3.51-8.1.74-3-2.55-5-5.88-7-9.2-4-6.83-7.61-13.92-11.18-21q-6.29-12.52-13-24.83c-1-1.79-2.23-3.42-3.32-5.15-0.54-.85-1.24-1.39-2.16-0.75A1.66,1.66,0,0,0,87.5,197c1.21,2.17,2.56,4.26,3.76,6.44,4.35,7.94,8.59,15.95,12.6,24.07,2.58,5.23,5.42,10.33,8.13,15.49a70.14,70.14,0,0,0,9,13.41c2.26,2.61,4.94,4.52,8.77,3.93a7.29,7.29,0,0,0,4.51-2.84c3.72-4.4,5.4-9.78,7-15.19,0.06-.21,0-0.45.06-0.65,0.28-.91.55-2.12,1.67-2s0.57,1.31.71,2c0.1,0.5.2,1,.29,1.51,0.46,1.89.45,3.83,0.75,5.74,0.08,1.08,0,2.16,0,3.24,0,10-1.48,19.92-3,29.8-1,6.41-2.13,12.79-3,19.22-0.79,5.86-1.59,11.71-2.16,17.59a0.91,0.91,0,0,1-.94.86c-2.65-7.93-7.2-14.31-15.89-16.84,2.81-1.21,5.55-1.84,8.19-2.82,4.93-1.82,5.25-2.44,2.77-7-2.32-4.24-5.75-7.44-9.61-10.33-4.39-3.28-9.32-5.38-14.29-7.49a23,23,0,0,0-3.59-.93,1.17,1.17,0,0,0-1.67.9,1.43,1.43,0,0,0,.89,1.78c2.14,0.92,4.38,1.58,6.53,2.52,5.86,2.57,11.38,5.62,15.72,10.45a7.38,7.38,0,0,1,.88,1,1.14,1.14,0,0,1,.13,1.42,1,1,0,0,1-1.21.08c-1.52-.48-3-1-4.55-1.47a42.56,42.56,0,0,0-24.62-.73,44,44,0,0,0-23.35,15.39,11.77,11.77,0,0,1-1.63,1.77c0.06,0.78-.65,1.11-1,1.67a53.09,53.09,0,0,0-6.11,10.58A18.74,18.74,0,0,1,62.05,322c-0.27.43-.1,1.42-1,1.09-0.6-.23-0.41-1-0.37-1.58,0.17-2.76.12-5.53,1.1-8.21a3.68,3.68,0,0,0-.29-3.19,2.51,2.51,0,0,1,.2-3A91.89,91.89,0,0,1,71.83,295.3a131.19,131.19,0,0,1,11-10.31c0.89-.71,2.73-1.59,1.51-3.1s-2.37-.11-3.44.79A136.7,136.7,0,0,0,64.14,299l-1,1.23a26.15,26.15,0,0,1-2.53,3.3c-0.71.94-1.6,1.35-2.39,0-3.67-6.52-7.17-13.08-6.61-21,0.16-2.26.7-4.46,0.85-6.72A2,2,0,0,1,54.4,274c7.86-1.25,15-4.61,22.28-7.56,2.7-1.09,5.34-2.29,8-3.38,1-.41,1.76-1.08,1.21-2.15s-1.66-.73-2.53-0.34c-6.84,3.06-13.78,5.87-20.77,8.53A49.73,49.73,0,0,1,55.9,271c-2,.45-2.53-0.09-2.55-2.08,0-1.83-.07-3.67,0-5.49,0.29-6.35,3.68-11.08,8.16-15.16a91.16,91.16,0,0,1,11.6-8.6A25.08,25.08,0,0,0,77,236.12a1.69,1.69,0,0,0,.24-2.37c-0.71-.91-1.48-0.2-2,0.35-3.9,3.9-8.69,6.65-13,10-1.49,1.17-2.78,2.55-4.32,3.65a30.1,30.1,0,0,0-2.64,2.93c-0.34.35-.57,1-1.19,0.81s-0.66-.86-0.72-1.44c0-.43-0.19-0.86-0.19-1.3,0-5.86-.08-11.72,0-17.57,0-2.6,2-4.28,3.54-6.12,2.64-3.24,6.62-5.21,8.9-8.72,2.14-3.3,5.27-3.89,8.61-4.13,3.64-.26,7.25-0.94,10.91-1,0.29,0,.57-0.14.86-0.16a1.27,1.27,0,0,0,1.38-1.37c0-1.07-.78-1.25-1.67-1.29a68.81,68.81,0,0,0-11.58.81c-6.65.82-5.37,1.08-5.64-4.57-0.5-10.53-.24-21.06-0.48-31.59-0.09-3.9,1.33-7.16,3.13-10.28a86.59,86.59,0,0,1,5.9-8.67,44.66,44.66,0,0,0,9.13-24,122.2,122.2,0,0,1,2.09-12.72,99.18,99.18,0,0,1,9.27-28.35,46.6,46.6,0,0,1,14.26-16.64,47.94,47.94,0,0,1,12.39-6.87,7.67,7.67,0,0,0,1.53-.84c2.09-1,3.94-.56,6,0.47a95.76,95.76,0,0,0,16.65,6.46c6.4,1.82,12.92,2.94,19.4,4.29,5.85,1.22,11.69,2.41,17.48,3.92A130.86,130.86,0,0,1,199.66,85a2.74,2.74,0,0,1,1.83,2.9c-0.29,11.32-.42,22.65-0.89,34-0.09,2.19-.21,4.39-0.2,6.57,0.06,8.34-.41,16.67-0.26,25,0.07,3.95-1.11,49.83-1.1,54.27,0,2.56-.09,5.12,0,7.68a3.94,3.94,0,0,1-2.3,4.09c-2.4,1.25-3.28,3.26-3.28,6a5.63,5.63,0,0,0,3,5,3.86,3.86,0,0,1,1.86,3.67c0,4.75,0,9.51,0,14.26a6.93,6.93,0,0,0,.12,2,1,1,0,0,0,.74.73,0.92,0.92,0,0,0,1-.63,4.57,4.57,0,0,0,.38-2.35c0-4.39.06-8.78,0-13.16a4.83,4.83,0,0,1,2.32-4.39c3.95-2.71,4.19-7.41.56-10.57a5,5,0,0,1-1.84-4.19C201.71,208.66,202.54,179.27,202.55,172.4Z"/>
      <path class="cls-1" d="M212.71,33.4c0-5.82,1.23-10.85,5.7-14.65,1.9-1.62,2.59-4.39,5.27-5.37a25.45,25.45,0,0,1,6.65-1.91,432.21,432.21,0,0,1,48.93-1c10.52,0.29,21.06.78,31.54,1.81,3.64,0.36,4,.66,4.63,4.29,1.3,7.6,1.08,15.11-1.82,22.42-0.65,1.65-1.53,1.85-3,1.62-4.12-.63-8.29-1-12.36-1.85-4.83-1-9.75-.91-14.6-1.65a132.82,132.82,0,0,0-28.2-1c-9.68.61-19.4,1-29,2.68-3.67.63-7.38,1-11.06,1.64-1.27.2-1.92-.09-2.07-1.46C213.09,37,212.45,35.1,212.71,33.4Z"/>
      <path class="cls-1" d="M265.73,59.55c3.81,0,7.62-.07,11.43,0,1.76,0,2.45-.45,2.4-2.34-0.13-5,0-10-.08-14.94,0-1.9.66-2.38,2.45-2.27a164.07,164.07,0,0,1,20.49,2.35c2.37,0.45,4.83.22,7.13,1.17,1,0.41,1.57.78,0.77,1.88-8.9,12.16-18.11,24.07-29.7,33.86-4.54,3.84-9.54,7-15.31,8.62a23.3,23.3,0,0,1-13.19-.14c-9.93-3.08-16.54-10.4-22.76-18.1a131,131,0,0,1-12.72-19,30.58,30.58,0,0,1-1.45-3.42c-1.17-2.91-.68-3.85,2.41-4.3a300.8,300.8,0,0,1,30.76-3.29c3.37-.14,3.38-0.14,3.38,3.32,0,4.83.06,9.67,0,14.5,0,1.64.51,2.18,2.14,2.14C257.82,59.49,261.77,59.55,265.73,59.55Z"/>
      <path class="cls-1" d="M156.29,36.78c0.21-8,3.64-11.65,8.17-14.42,6.42-3.92,13.59-5.77,20.87-7.36s14.57-2.32,21.89-3.18c3.63-.42,7.3-0.47,10.95-0.68,0.59,0,1.25-.07,1.46.64s-0.5.77-.86,1.09a28.08,28.08,0,0,0-5.7,6.57c-2.29,3.74-6.13,6-9.31,8.87-5.62,5.09-11.42,10-15.92,16.21a30.42,30.42,0,0,0-5.82,21c0.06,0.76.56,1.78-.31,2.21-0.71.35-1.28-.59-1.78-1-7.09-6.13-14.06-12.47-19.72-19.91C157.68,43.52,156.22,39.08,156.29,36.78Z"/>
      <path class="cls-1" d="M118.62,148.67c0.81,11.08,1.67,22.16,2.43,33.25,0.55,8,1,15.91,1.47,23.86q0,0.33,0,.66c0.12,3.24.76,5.56,4.49,7.16,8.41,3.62,14.31,10.22,17.66,18.75a47,47,0,0,1,3,13.83,124.83,124.83,0,0,1-.52,21.46c-0.57,5.73-1.25,11.48-2.35,17.13q-2.84,14.62-4.43,29.41c-0.69,6.26-.34,12.59-0.17,18.88,0,1.51.76,1.85,2,1.17,6.83-3.83,14.14-6.67,21.11-10.23,2.64-1.35,5.38-2.5,8.09-3.69,1.17-.51,2.11-0.12,2.26,1.2a57.36,57.36,0,0,1,0,14.44c-0.16,1.14-1.16,1.82-2,2.48a91.54,91.54,0,0,0-25.54,29,99.63,99.63,0,0,0-9,21.35,134.16,134.16,0,0,0-3,13.38c-1,5.57-.33,11.25-1.76,16.73-0.22.85,0.51,1.2,0.95,1.59,10.27,9.21,20.36,18.62,31.88,26.31A72.6,72.6,0,0,0,180,454.33a24.35,24.35,0,0,0,6.89,1.11c3.69,0.24,3.74.25,5.06,3.5a106.4,106.4,0,0,1,4.39,13.16c0.67,2.55.56,5.22,1.27,7.78,0.4,1.43-1.08,2-2.75,1.2-3.81-1.95-7.63-3.86-11.39-5.89a143.3,143.3,0,0,1-23.61-16,128.62,128.62,0,0,1-22.36-24.24c-2.74-3.83-5-8-7.74-11.84-0.91.89-.58,1.9-0.58,2.81,0,16.77.09,33.55-.07,50.32-0.06,5.82,2.58,10.22,5.9,14.58,3.95,5.19,9.47,5.61,15.29,5.89,10.37,0.49,20.71,1.47,31.07,2q13,0.69,26.06,1.65c13.94,1,27.91,1.21,41.86,2,9.35,0.53,18.75.11,28.12,0.26,12.23,0.2,24.46.3,36.68-.27,13.14-.61,26.3-1.23,39.4-2.5,7.27-.7,14.53-1.48,21.8-2.23,1.74-.45,3.48-1,5.3-0.42-2.14,1.52-4.7.66-7,1.21-5.27,1.25-10.72,1.13-16.06,1.85-6.35.85-12.78,1.21-19.18,1.68-12.69.93-25.41,1-38.13,1.48-16.17.56-32.32-.14-48.47-0.4-4.17-.07-8.36.09-12.52-0.16-9.48-.58-19-0.54-28.45-1.46-6.42-.62-12.84-0.5-19.24-1.1-11.71-1.09-23.46-1.6-35.19-2.39-4.14-.28-8.28-0.71-12.45-0.81a8.67,8.67,0,0,1-5.2-2c-7-5.55-10.95-12.49-10.82-21.76,0.23-16.4,0-32.81.14-49.22,0-1-1.51-3.75,1.86-2.88,0.14-.92,1.13-1.27,1.41-1.92,0-.45-0.22-0.53-0.45-0.5-2.79.38-2.84,0.38-3.1-2.46-0.3-3.19-1.42-6.29-1.19-9.54,0.09-1.23-1-1.24-1.6-1.78a16.47,16.47,0,0,1-1.56-1.82c1.09-2.39-.19-4.7-0.77-6.78-0.75-2.71-.86-5.62-2.2-8.16-1.37-4.77-2-9.69-3-14.55a66.62,66.62,0,0,1-1-8.67c-0.51-8.55,2.29-15.8,9.16-21.19a56.44,56.44,0,0,1,9-6.22c1.27-.65,1.52-1.61,1.59-3,0.21-3.92-2-5.64-5.31-6.66-0.92-.28-2-0.47-2.27-1.75,2-.88,3.6.46,5.27,1.16,0.51,0.21.86,0.78,1.39,1,2.85,1.39,2.06,4.23,2.57,6.54a14.32,14.32,0,0,1,.13,2.38c1.69-.38,2.19-1,1.83-2.89a60.76,60.76,0,0,1-.41-18.51c0.55-4.84,1.18-9.69,1.68-14.54,0.38-3.68,1.27-7.3,1.9-11,0.19-1.08.2-2.19,0.42-3.26A211.56,211.56,0,0,0,146.85,263c0.65-7.14.81-14.39-.65-21.63a43,43,0,0,0-6-15.62,33.54,33.54,0,0,0-12.25-10.91,21.57,21.57,0,0,0-3.35-1.58A4.08,4.08,0,0,1,121.8,209c0.19-8-.94-15.9-1.5-23.83-0.63-8.95-.7-17.94-1.95-26.86-0.44-3.16-.13-6.43-0.16-9.65C118.34,148.48,118.48,148.48,118.62,148.67Z"/>
      <path class="cls-1" d="M343.18,539.46c2-.68,3.71-1.35,5.44-1.79A112.14,112.14,0,0,0,366.74,531a100.33,100.33,0,0,0,21-12.78,72.16,72.16,0,0,0,10.28-9.5c0.48-.56,1.36-1.24.54-2s-1.57,0-2.15.66a95.16,95.16,0,0,1-17.29,14.37,114.53,114.53,0,0,1-17.29,9.07,104.1,104.1,0,0,1-16,5.57c-8,2-15.87,4.14-24.28,4.08-27.76-.18-55.51,0-83.27.07-5.19,0-10.37.4-15.56-.14A139.24,139.24,0,0,1,205.85,537c-3.76-.87-7.45-2-11.22-2.84-4-.89-7.89-1.94-11.85-2.85a97.32,97.32,0,0,0-9.62-2c-3.39-.43-6.74-1.22-10.11-1.79-3.59-.6-7.2-1.13-10.81-1.68a29.39,29.39,0,0,1-9.07-2.93c-2.69-1.39-3.73-4.09-4.16-6.63-0.95-5.57.09-11,2-16.34,0.42-1.14,1.36-.9,2.21-0.92,4.4-.11,8.74.66,13.12,0.93,8.68,0.55,17.37.94,26,1.67,9.83,0.83,19.71.92,29.52,2,4.28,0.49,8.62.21,12.94,0.5,10.15,0.68,20.32.81,30.49,1.14,9.74,0.31,19.47.08,29.2,0.33,14.41,0.38,28.8-.46,43.19-1,10.07-.37,20.14-1.16,30.16-2.26,8.41-.93,16.82-1.88,25.2-3.11,6.06-.88,12.1-1.88,18.14-2.83,7.18-1.13,14.29-2.67,21.39-4.28,3.9-.89,7.81-1.75,11.72-2.64,2.82-.65,3.47,0,2.79,3A47,47,0,0,1,432,506.3c-5.23,8.8-12.79,15-21.73,19.71a104,104,0,0,1-17.86,7.29,201.39,201.39,0,0,1-21.24,4.88A107,107,0,0,1,347,540.3,7.06,7.06,0,0,1,343.18,539.46Z"/>
      <path class="cls-1" d="M474.54,295.85c1.2-1.7,3.29-1.48,4.92-2a54.8,54.8,0,0,0,16-8.58,3.29,3.29,0,0,0,1.28-3.64c-0.87-4.41-1.35-8.92-2.44-13.27-0.85-3.41-1.83-6.81-2.92-10.18-1.73-5.35-4.35-10.39-5.43-16a16.24,16.24,0,0,0-1.67-3.38c0,2.64-.16,4.73,0,6.8,0.44,4.75-.71,9.36-1.53,13.91a44.43,44.43,0,0,1-8.7,20.09,36.81,36.81,0,0,1-8.57,8,2.13,2.13,0,0,1-2.83-.06c-0.95-1-.49-2.09.41-2.88,2.07-1.84,4.24-3.55,6.17-5.55a34.39,34.39,0,0,0,7.25-12.22c3-7.9,3.72-16.09,3.86-24.42,0.06-3.71,1-7.38.76-11.13a48,48,0,0,0-3-13.54c-1.15-3.17-2-6.47-3-9.69s-2.23-6.1-3-9.24-2.09-6.3-2.91-9.53c-0.78-3.08-1.89-6.07-2.84-9.1-1.08-3.43-2.13-6.86-3.2-10.29q-1.36-4.34-2.75-8.67-1.66-5.15-3.34-10.29c-1-3.07-2-6.13-3-9.21s-1.84-6.24-2.83-9.34c-1.44-4.54-2.94-9.05-4.4-13.58-0.95-3-2.06-5.87-2.73-8.89-0.56-2.51-1.94-4.52-3.21-6.6a85.81,85.81,0,0,0-6.85-9.3c-0.47-.57-0.84-1.69-1.74-1.33-0.72.29-.34,1.33-0.3,2,0.84,15.66.26,31.33,0.48,47,0.11,8.14-.8,16.21-1.53,24.27a118.22,118.22,0,0,1-3.43,19.72c-2.44,9.13-5.83,17.85-11.82,25.35-0.9,1.13-1.87,1.77-3.15.94-1.49-1-.76-2.13,0-3.17a58.4,58.4,0,0,0,9.47-18.41c1.26-4,2.1-8.25,3-12.44,1.8-8.65,2.11-17.45,3.2-26.16a56.23,56.23,0,0,0,.17-7q0-23.4-.08-46.81c0-3-.27-6-0.35-9a4.17,4.17,0,0,0-1.59-3,119.43,119.43,0,0,0-22.11-16.54c-3.8-2.27-7.9-3.94-11.84-5.92-2.24-1.12-4.32.38-6.31,1.43-7.68,4-15.37,8-23.22,11.77-5.67,2.69-11.37,5.31-17.13,7.78-3.49,1.5-7.13,2.63-10.7,3.93L329,90.74a2.76,2.76,0,0,1-2.52.08c3.16-1.66,6.63-2.48,10-3.67,6.77-2.43,13.44-5.1,20-8.12,6.12-2.84,12.21-5.73,18.19-8.85,4.18-2.18,8.48-4.18,12.51-6.61a6.37,6.37,0,0,1,6.5-.39,135.68,135.68,0,0,1,29.77,18.88c4.2,3.49,5.79,7.17,5.62,12.56-0.28,8.84,0,17.72.47,26.56,0.68,13.48-.31,26.91-1.13,40.33A125.49,125.49,0,0,1,425,183.12c-2,8.3-4.83,16.3-9.65,23.46-0.65,1-1.49,1.8-2.12,2.78a1.35,1.35,0,0,0,.12,2c0.77,0.56,1.23-.23,1.63-0.65,2.73-2.9,4.52-6.41,6.3-9.9,3.55-7,5.49-14.56,7-22.19,0.78-4,1.23-8.08,1.71-12.15a334.18,334.18,0,0,0,1.9-46.87c-0.22-8.78-.75-17.54-0.76-26.33,0-.82-0.49-2,0.5-2.37,0.75-.27,1.31.78,1.83,1.34a65.6,65.6,0,0,1,10.52,14.7c1.37,2.69,2,5.75,2.93,8.66,1.38,4.36,2.71,8.73,4.07,13.1q2.2,7.06,4.41,14.11c1.35,4.29,2.73,8.57,4.09,12.87,1.44,4.56,2.84,9.14,4.3,13.7s3,9.1,4.47,13.67c1.31,4.09,2.52,8.2,3.82,12.29,1.51,4.77,2.94,9.57,4.57,14.31,1.82,5.28,3.34,10.67,4.93,16a10.51,10.51,0,0,1,.16,2.62,144,144,0,0,1-1.42,27.8c-1.89,11.39-5.93,21.79-16.09,28.66-0.51.34-1.63,0.78-.87,1.85s1.35,0.46,2.06,0a34,34,0,0,0,11-11.89,47.17,47.17,0,0,0,5.19-14.05,108.6,108.6,0,0,0,2.26-21.73,3.22,3.22,0,0,1,.89-2.7c1,3.14,2.08,6.11,3,9.12s1.9,5.77,3.07,8.59a69.58,69.58,0,0,1,2.79,8.24c1.49,5.41,2.33,11,3.56,16.45,1,4.58-.51,7.35-4.45,9.68a65.79,65.79,0,0,1-16.22,7.29C475.85,295.61,475.31,296.55,474.54,295.85Z"/>
      <path class="cls-1" d="M419.29,416.87c-3.22,3.29-7,5.95-10.37,9.07-1.41,1.3-2.24.22-2.92-.8-1.65-2.48-3.23-5-4.8-7.54-4.27-6.92-8.65-13.77-12.75-20.79-5-8.63-10.1-17.26-14.31-26.36-3-6.49-6-12.95-8.67-19.61-0.71-1.81-.11-2.14,1.32-2.17,2.63-.05,5.26-0.24,7.88-0.38,5-.27,10.09-0.35,15.14-0.47a3.07,3.07,0,0,0,2.57-1,0.27,0.27,0,0,1,.48,0c0.08,0.75-.45,1.17-1.29,1.73a2.81,2.81,0,0,1,2.8,1.56,15.29,15.29,0,0,1,5.06-8.61,0.86,0.86,0,0,1,.3.57c-0.42,2.1-2.15,3.44-3.06,5.26a3.24,3.24,0,0,0,0,3.46c7.9,13.86,15.76,27.75,23.79,41.53,2.21,3.79,4.42,7.59,6.54,11.43,1.26,2.27,3,3.07,5.53,3.22,2.8,0.17,5.74-.06,8.27,1.64a0.47,0.47,0,0,1,0,.61,60.51,60.51,0,0,1-13.94-2.22c0,1.18-.38,3,2.15,3.06-2.34-.09-3.75,1.61-5.26,2.93S420.68,415.49,419.29,416.87Z"/>
      <path class="cls-1" d="M265.42,39.15c3,0,6,0,9,0,1.49,0,2.1.54,2.07,2.07-0.06,4.32,0,8.64,0,13,0,1.83-.76,2.64-2.64,2.62-5.49-.06-11,0-16.47,0-2.55,0-2.88-.39-2.89-3,0-4.1.09-8.2,0-12.3-0.06-1.9.67-2.42,2.42-2.36C259.7,39.21,262.56,39.15,265.42,39.15Z"/>
      <path class="cls-1" d="M118.62,148.67H118.2c-1.27-12.8-1.9-25.65-2.7-38.49a45.84,45.84,0,0,0-.54-5.23c-0.15-.86.27-2.44-1.31-2.29-1.41.13-.81,1.51-0.8,2.34,0.05,4.9.77,9.76,1.09,14.64,0.59,9.18.9,18.39,2,27.54,0.19,1.67.11,3.37,0.21,5,0.53,8.54.86,17.09,1.68,25.6,0.85,8.88.85,17.81,2,26.66a17.37,17.37,0,0,1,.09,4.82c-0.53,3.38,1.13,5,4.05,6.1,7.12,2.64,12.27,7.57,16.21,14,1.78,2.89.53,5.63-.21,8.22a74.53,74.53,0,0,1-3.21,10.16c-1.16,2.58-2.14,5.27-4,7.45-3,3.62-4.92,3.82-8.63.55-4.09-3.61-6.8-8.36-9.34-13.12-4.8-9-9.46-18.09-14.15-27.16-3.23-6.25-6.29-12.6-10.13-18.51-0.56-.86-1-2.71-2.39-1.95-1.69.9,0,2.06,0.49,2.88,6.5,10.85,11.95,22.25,17.76,33.47,4.11,7.93,7.95,16,13.5,23.11a17.09,17.09,0,0,0,5,4.55,7,7,0,0,0,9.29-1.88c2.86-3.78,4.49-8.07,6-12.47,0.84-2.38.71-5.23,3-7.21,1,1.87.81,3.8,1,5.65l-0.13.2a0.33,0.33,0,0,1-.4-0.15L143.05,240a2.53,2.53,0,0,0-1.46,2.13A40.52,40.52,0,0,1,135.86,256c-4,6.12-9.49,6.7-14.52,1.42a58.81,58.81,0,0,1-9.09-13q-3.94-7.37-7.76-14.81c-3.09-6-6.07-12-9.23-18C92.82,207,90.19,202.53,87.6,198a3.52,3.52,0,0,1-.7-1.79c0-.86-0.16-1.86,1-2.2a1.9,1.9,0,0,1,2.36,1.07c1.81,3.06,3.8,6,5.49,9.14,3.06,5.68,5.95,11.46,8.92,17.19,3.49,6.73,6.91,13.5,10.5,20.18,2.47,4.6,5.09,9.12,8.73,13a12.07,12.07,0,0,0,3.57,2.44c1.42,0.7,3.84-.53,5-2.56a48.11,48.11,0,0,0,5.19-12.35c0.65-2.57,1.52-5.1,2.17-7.69a7.07,7.07,0,0,0-1.21-5.77,28.86,28.86,0,0,0-13-11.54c-1.64-.73-3.24-1.59-4.91-2.26-1.11-.45-1.22-1.27-1.29-2.28-0.48-7.36-.9-14.74-1.51-22.07-0.76-9-1.12-18.06-1.92-27.07-1-11.2-1.26-22.45-2.51-33.63a16.63,16.63,0,0,1-.07-2.41c0.27-7.84-1.59-15.56-1.35-23.4,0-1.25,0-2.4,1.77-2.37,1.55,0,2,1.07,2.13,2.3a36.43,36.43,0,0,1,.37,4.8c-0.13,9,1.34,17.91,1.6,26.91C118,139.92,118.77,144.28,118.62,148.67Z"/>
      <path class="cls-1" d="M420.59,296.83c-6.16,5.92-12.28,11.89-18.51,17.73-1.63,1.53-1.57,2.65-.17,4.22,3.21,3.61,3.25,3.73,6.59.3a35.47,35.47,0,0,1,15.91-9.53,44.9,44.9,0,0,1,15.85-1.35,1.8,1.8,0,0,1,1.85,2c-0.06,1.36-1,1.62-2.16,1.6-3.29-.05-6.58.06-9.87,0.21-1.94.09-3.6,1.3-5.56,1.08q-0.23-.15-0.16-0.3a0.22,0.22,0,0,1,.16-0.15c2.18-1.2,4.69-.72,7-1.38a40.18,40.18,0,0,1,6.92-.25c1.09,0.11,2.36.46,3.18-.77-1.49-1.62-3.45-1.65-5.4-1.5a67,67,0,0,0-8.9,1,33,33,0,0,0-15,7c-2,1.76-4,3.6-5.92,5.54-1.14,1.17-2.13,1.06-2.84-.16-1.2-2.07-3.44-3.39-4.1-5.81-0.31-1.15-1.75-.1-2.11-1.12a6.76,6.76,0,0,0,3.95-3c4.72-4.8,9.67-9.36,14.45-14.09,0.51-.51,1.37-0.86,1.4-1.62,0.08-2.2,1.39-3.61,2.85-5a3,3,0,0,0,.86-2.19c0.1-2.55.65-5.07,0.32-7.64a1,1,0,0,1,.44-0.53,2.32,2.32,0,0,0,1.31-1.38c2.35-7.54,5.7-14.73,7.8-22.37,1.55-5.64,3.18-11.25,4.36-17,0.59-2.85,1.3-5.7,1.89-8.55,0.72-3.49,1.11-7.07,1.82-10.57,0.83-4.09,1.36-8.24,1.81-12.35,0.54-5,1.45-10,1.84-15a155,155,0,0,1,1.78-17c0.66-3.47.07-7,.64-10.51,0.3-1.79.44-3.63,0.73-5.44a18,18,0,0,0,.09-5.31c-0.83.37-.1,2.07-1.57,1.74a9.78,9.78,0,0,1,.12-3.48c0.44-1,1.28-.9,2-0.61a1.74,1.74,0,0,1,1,2c-0.57,6-.81,12.09-1.35,18.13-0.53,5.89-1.35,11.75-1.68,17.67-0.26,4.58-1.06,9.12-1.65,13.68-0.56,4.34-1.11,8.69-1.77,13-0.57,3.74-1.45,7.44-1.91,11.19-0.62,5-2.06,9.82-3,14.75-0.66,3.48-1.67,6.91-2.64,10.32s-2,7-3.23,10.37c-1.74,4.75-3.2,9.61-5.5,14.13-0.68,1.34-.48,2.72-0.47,4.08,0,1.86-.5,3.74.09,5.94,3-2.73,5.83-5.27,8.65-7.78,2.45-2.17,4.94-4.31,7.41-6.46,0.72-.61,1.44-1.24,2.37-0.32-1.54,1.69-3.55,2.83-5.2,4.42-3.78,3.65-7.71,7.17-11.76,10.52a46,46,0,0,0-5.32,5.11c-0.8.91-.92,1.63,0.29,2.23A0.43,0.43,0,0,1,420.59,296.83Z"/>
      <path class="cls-1" d="M125.67,65.17c-3.89,2.05-7.86,3.88-11.6,6.27A44.84,44.84,0,0,0,99.54,86.31,80.73,80.73,0,0,0,90.83,108c-2.31,8.9-3.57,17.94-4.81,27a38,38,0,0,1-6.25,15.82c-2.57,3.87-5.38,7.57-7.85,11.5-2.13,3.39-3.69,7-3.53,11.24,0.27,7.24,0,14.5.25,21.75,0.14,4.17.31,8.33,0.3,12.5,0,1.28.52,1.67,1.72,1.59,2.83-.21,5.55-1.09,8.43-1.14,2.19,0,4.38-.1,6.58-0.16,1.05,0,1.94.27,2.14,1.43a1.73,1.73,0,0,1-1.71,2.11,62.16,62.16,0,0,1-8.27.7c-3.06,0-5.91.88-8.86,1.33a2.13,2.13,0,0,0-1.56,1.1c-1.67,2.83-4.14,4.89-6.62,6.94a31.61,31.61,0,0,0-6.66,7.46,3,3,0,0,0-.51,1.65q0,9.89.09,19.77a3,3,0,0,0,.26.75c1.69-.95,2.18-3.08,4-3.79a0.34,0.34,0,0,1,.09.57c-1,1.25-2,2.48-3,3.75-0.36.47-.61,1.11-1.32,0.91s-0.58-.92-0.64-1.48c-0.58-5,.12-10-0.49-14.9C51.75,230,54.89,225.8,59.2,222c2.83-2.5,5.75-4.87,7.88-8.12,1-1.51,3.19-1.8,5-1.83,4.55-.09,9-1.51,13.52-1.31,0.67,0,1.38,0,1.35-1s-0.77-.87-1.42-0.93c-5-.45-9.87,1-14.83,1.27-2.41.12-2.7,0.1-2.72-2.33-0.1-11.79-.09-23.58-0.33-35.36-0.08-3.81,1.41-7,3.28-10,2.6-4.19,5.51-8.19,8.26-12.29a41.35,41.35,0,0,0,6.52-19.65c0.39-4.22,1.35-8.33,2-12.51a115.06,115.06,0,0,1,3-12.93,77.34,77.34,0,0,1,6.23-15.76,46.69,46.69,0,0,1,14.63-17.11c4.08-2.83,8.19-5.79,13.16-7A0.72,0.72,0,0,1,125.67,65.17Z"/>
      <path class="cls-1" d="M474.54,295.85l2-.28c-1.61,1.29-3.75,1-5.51,1.9-0.59.3-1.34,0.34-1.19,1.25s1,0.81,1.56.69a43.84,43.84,0,0,0,4.4-1.19c7-2.28,13.89-5,19.92-9.45,2.12-1.56,2.58-1.33,2.76,1.28a137.57,137.57,0,0,1-.14,23.46,97.18,97.18,0,0,1-3.52,18.63c-1.65,5.37-4.27,10.38-6.74,15.45q-5,10.37-10.86,20.29a470,470,0,0,1-26.52,40.19c-0.33.44-.44,1.24-1.22,1s-0.69-1-.77-1.65c-0.66-5.5-1.62-11-2.4-16.44-0.51-3.61-2.22-7-3.14-10.59a63.22,63.22,0,0,0-6.46-15.09,96.66,96.66,0,0,0-14-19.15c-2.51-2.64-4.93-5.36-7.39-8.05a0.64,0.64,0,0,1,0-.92A163.4,163.4,0,0,1,430.25,354a80.34,80.34,0,0,1,8.54,13.6,86.63,86.63,0,0,1,6,15.11,123.62,123.62,0,0,1,3.65,17.69,48.14,48.14,0,0,0,1.43,7.45c2.1-3,4.13-6,6.3-9,7-9.41,13.05-19.39,19.08-29.4,5.35-8.88,10.15-18.07,14.63-27.43a83.88,83.88,0,0,0,5.71-16.36,104.53,104.53,0,0,0,2-14.28,97.87,97.87,0,0,0,0-20.56c-0.17-1.61-.55-1.89-2-0.91a69.25,69.25,0,0,1-20.3,9.18,35.75,35.75,0,0,1-4.21,1,2,2,0,0,1-2.38-1.1c-0.37-1.12.59-1.69,1.42-2.19A9.64,9.64,0,0,1,474.54,295.85Z"/>
      <path class="cls-1" d="M70.31,307.41c3.37-5.57,8.37-9.37,13.75-12.79a41.88,41.88,0,0,1,14.24-5.53,44.53,44.53,0,0,1,11.8-.48,48.89,48.89,0,0,1,14.47,3.5,7.47,7.47,0,0,0,1.17.19c-1.49-3-3.83-4.7-6.12-6.37a49.51,49.51,0,0,0-15.47-7.67c-0.34-.1-0.61-0.43-0.94-0.53-1.46-.46-2.73-1.17-2.07-2.94s2-1,3.31-.58c10.27,3.22,19.46,8,25.7,17.22a28.19,28.19,0,0,1,2.66,5c0.46,1.1-.48,2-1.34,2.44a50,50,0,0,1-11.16,3.94c8.25,2.59,13,8.52,15.72,16.44-0.21-4.74,1.16-9.24,1.64-13.84a69.24,69.24,0,0,1,1.8-11.4,47.83,47.83,0,0,0,1.24-7.72c0.41-3.85,1.3-7.61,1.76-11.44,0.65-5.35.85-10.76,1.79-16.07,0.38-2.11.12-4.24,0.33-6.35q0.21-.29.41,0c0.41,5.87-.44,11.66-1.07,17.48-0.77,7.12-2.23,14.12-3.28,21.19-1.16,7.79-2.67,15.54-3.12,23.43-0.09,1.6-.33,3.19-0.5,4.79a1.45,1.45,0,0,1-1,1.51c-0.8.09-.63-0.81-0.84-1.31-1.85-4.36-3.57-8.79-7.45-11.89a24.81,24.81,0,0,0-7.87-4.1,2.11,2.11,0,0,1-1.5-.87c1.79-.58,3.44-1.24,5.16-1.66a45.36,45.36,0,0,0,7.14-2.56c1.82-.78,1.22-2.22.68-3.34a27.64,27.64,0,0,0-5.77-8.15,51.8,51.8,0,0,0-18.79-11.14c-1-.36-1.9-1.16-3.08-1-0.66.08-1.57-.37-1.77,0.73s0.64,1.11,1.34,1.35a68.32,68.32,0,0,1,13.05,5.87,38.39,38.39,0,0,1,10,8.44c0.54,0.65,1.17,1.42.77,2.1-0.6,1-1.34,0-2-.22-7.47-2.73-15.16-4.61-23.13-3.63A43.23,43.23,0,0,0,76,301.82c-1.45,1.44-2.8,3-4.17,4.51A2.12,2.12,0,0,1,70.31,307.41Z"/>
      <path class="cls-1" d="M58,248.08l-0.09-.57c3.73-4.19,8.62-6.91,13-10.28A36.47,36.47,0,0,0,74.76,234c0.69-.7,1.43-1.91,2.51-0.92a2.29,2.29,0,0,1-.06,3.36,31,31,0,0,1-5.65,4.82c-5.11,3.5-10.36,6.86-14.06,12a20.15,20.15,0,0,0-3.87,13.09c0.23,4.94,0,4.74,4.69,3.5,7.62-2,14.69-5.37,21.91-8.38,1.36-.57,2.65-1.56,4.25-1.58,0.82,0,1.68-.07,2,1a1.61,1.61,0,0,1-.79,2.07c-2.42,1.15-4.82,2.34-7.3,3.36-4.42,1.81-8.89,3.51-13.34,5.24a59.9,59.9,0,0,1-10,2.88c-1.64.33-2.34,1-2.46,2.71a59.51,59.51,0,0,0-.11,11.61c0.52,4,2.45,7.56,4.26,11.11,0.56,1.1,1.27,2.13,1.75,3.26,0.59,1.41,1.26.9,1.88,0.16a14.18,14.18,0,0,1,2.84-3c-0.37,1.89-1.77,3.11-3,4.38-0.73.75-1.53,0.67-2.21-.57a66.92,66.92,0,0,1-5.38-11.31c-1.3-4-2.34-8.15-1.28-12.47a25.7,25.7,0,0,0,.78-4.3,2.5,2.5,0,0,1,2.49-2.52C60,272.66,65,270.7,70,268.68c4.42-1.77,8.76-3.76,13.26-5.33a1.28,1.28,0,0,0,.59-0.27c0.52-.67,2.29-0.52,1.63-1.85-0.56-1.13-1.56-.3-2.43.07-6.85,2.87-13.65,5.92-20.64,8.39a21.37,21.37,0,0,1-7.18,1.71c-1.46,0-2.2-.38-2.16-2,0.07-2.93-.31-5.91.16-8.77,0.64-3.93,2.81-7.27,5.5-10.21,4.12-4.5,9.25-7.75,14.19-11.22a22.32,22.32,0,0,0,3.7-3.37c0.49-.55.92-1.12,0.35-1.68s-1.19-.23-1.72.3C70.06,239.71,63.41,243.1,58,248.08Z"/>
      <path class="cls-1" d="M93.54,293.7a40.22,40.22,0,0,1,12.14-2.19,51.57,51.57,0,0,1,20.49,4.56,0.85,0.85,0,0,1,.72.71,1,1,0,0,1-.85.86,20.65,20.65,0,0,1-6.62,2.1A84.7,84.7,0,0,1,102,300.82a9.54,9.54,0,0,0-2.19.06,1.35,1.35,0,0,0-1.42,1.36c0,1.09.77,1.14,1.51,1.11a73.84,73.84,0,0,1,12.65,1c5.47,0.76,10.69,2.09,14.82,6.1,0.82,0.79,1.87,1.44,1.57,2.86a0.66,0.66,0,0,0,.18.56c2.3,0.63,2.57,2.81,3.37,4.52s1.34,3.5,2,5.26a8.2,8.2,0,0,1,.95,1.71c0.38,1.45-.23,2.11-1.65,1.73-2.87-.76-5.47-2.23-8.36-3a25.86,25.86,0,0,1-6.35-2.18l-0.52-.21c-0.17-1.36.88-.9,1.45-0.87a24.38,24.38,0,0,1,6.1,1.57,55,55,0,0,1,7.3,2.8,32.41,32.41,0,0,0-3.28-8.53c-0.53-1.07-1.42-.46-2,0a38,38,0,0,1-6.32,3.47,5.26,5.26,0,0,1-2.94.63,0.55,0.55,0,0,1-.35-0.42c0.46-.72-0.89-1.28-0.19-2,1.35-1.48,3.4-1.65,5-2.66,1.34-.84,3.45-1.31,3.49-3s-2-2.53-3.43-3.37c-4.72-2.82-10-3.66-15.35-3.92-2.7-.13-5.42.17-8.09-0.54-1.47-.39-2.93-0.78-2.83-2.74a3.11,3.11,0,0,1,3.41-2.74c4.62,0,9.21-.39,13.82-0.46,3.28-.05,6.27-1.21,9.43-2a34.4,34.4,0,0,0-11.63-3.38c-3.79-.28-7.61,0-11.42,0a10.62,10.62,0,0,0-3.85.74,3.56,3.56,0,0,1-3.18.15A0.46,0.46,0,0,1,93.54,293.7Z"/>
      <path class="cls-1" d="M419.29,416.87c2-2.56,4.77-4.31,7.2-6.41,0.54-.46,1.66-0.24,2.51-0.33a147.59,147.59,0,0,1,15.8,2.14c1.73,0.32,2,1.21.79,2.3-3.49,3.13-3.55,7.16-3.54,11.41,0,14.55-1.49,29-1.4,43.61,0,4.52-.54,9-0.8,13.55a3.17,3.17,0,0,1-2.59,3.26c-4.82,1.43-9.69,2.52-14.62,3.48-4.7.91-9.34,2.16-14,3.15-2.49.53-5,.93-7.54,1.23-3.77.45-7.41,1.77-11.24,1.67-3,.9-6.16,1-9.26,1.3h0c-1.8-.31-3.5.75-5.3,0.42,2-1.5,4.36-.83,6.55-1.22,3.93-.7,8-0.85,11.84-1.9a58.48,58.48,0,0,1,7.3-1.13c5.33-.74,10.57-1.9,15.8-3,4.51-1,9.09-1.7,13.54-3.07a54.35,54.35,0,0,1,6.32-1.52,2.61,2.61,0,0,0,2.47-2.79c0.11-4.46,0-8.94.41-13.37,1.1-12,.61-24.11,1.35-36.14,0.28-4.59.82-9.17,0.76-13.78,0-2.17,1.87-3.19,2.71-4.85,0.25-.5,1-0.85.77-1.47-0.29-.8-1.15-0.37-1.74-0.55-4.14-1.22-8.55-.7-12.7-2a5.07,5.07,0,0,0-5.41,1.25C423.43,413.88,421.66,415.78,419.29,416.87Z"/>
      <path class="cls-1" d="M125.67,65.17l-1,0a5.15,5.15,0,0,1,6.38-.73,87.54,87.54,0,0,0,18.35,7.11c7.46,2,15.07,3.2,22.6,4.79a164.86,164.86,0,0,1,17.1,4.3c3.59,1.17,7,2.68,10.56,4a2.91,2.91,0,0,1,2,3.21c-0.2,12.59-.75,2.84-0.52.44a2.61,2.61,0,0,0-1.76-2.93c-5.16-1.87-10.26-3.88-15.6-5.31-4.21-1.13-8.48-1.94-12.69-3-2.73-.67-5.56-1.13-8.35-1.64-4.77-.87-9.47-2-14.18-3.19-5.17-1.29-9.93-3.53-14.89-5.32a8.46,8.46,0,0,1-2.5-1.33C129.41,64,127.57,64.39,125.67,65.17Z"/>
      <path class="cls-1" d="M323.36,12.43c7.51,1.08,15.13,1.08,22.62,2.41A68.19,68.19,0,0,1,363,20.37a48.94,48.94,0,0,1,14.56,10.9c2.11,2.19,2.29,3.27.44,6.17a116.09,116.09,0,0,1-13.87,18.47c-2.26,2.36-2.61,2.41-4.86,0Q345.14,41,331,26c-3.56-3.77-7.18-7.5-10.74-11.27-0.42-.44-1.26-0.78-1-1.56s1.2-.65,1.9-0.68S322.63,12.43,323.36,12.43Z"/>
      <path class="cls-1" d="M213.55,50.66c3.1,4.8,6.09,9.68,9.34,14.39,5.2,7.53,10.89,14.68,18.41,20a32,32,0,0,0,13.45,5.73c9.23,1.55,16.73-2,23.87-7,11.44-8,19.85-19,28.42-29.81,3.48-4.39,6.81-8.84,8.92-14.12,1.53-3.83,2-7.86,2.64-11.85a3.53,3.53,0,0,1,.38-1.68c1.08,1.2.66,2.61,0.47,4a25.17,25.17,0,0,0-.68,3.64,25.54,25.54,0,0,1-5,13.14,230.37,230.37,0,0,1-22.41,27.53c-5.81,6-12,11.45-19.58,15-7.37,3.45-15.06,4.29-22.91,1.05-6.28-2.59-11.43-6.63-16.16-11.42-6.42-6.5-11.4-14.06-16.47-21.57a10.46,10.46,0,0,0-1.9-3.65,3.31,3.31,0,0,1-.31-0.53C213.81,52.57,212.68,51.78,213.55,50.66Z"/>
      <path class="cls-1" d="M323.92,85.84a149.79,149.79,0,0,1-15.69,6.81,125.43,125.43,0,0,1-17,5.26,111,111,0,0,1-18.59,2.67,110.38,110.38,0,0,1-27.33-1.29A125.85,125.85,0,0,1,228,94.92c-6.25-2.12-12.5-4.28-18.19-7.58-6.81-4-14.1-7.16-20.09-12.44a1.05,1.05,0,0,1,1-.4A16.33,16.33,0,0,1,195,77.1c3.44,2.39,7.22,4.16,10.8,6.28a103.75,103.75,0,0,0,16.12,7.9,125.91,125.91,0,0,0,21.47,6,115.93,115.93,0,0,0,25.93,1.95A109.72,109.72,0,0,0,285,97.51a115.44,115.44,0,0,0,15.95-3.8c6-2,12.09-3.92,17.79-6.8a13.25,13.25,0,0,1,3.83-1.59A1.58,1.58,0,0,1,323.92,85.84Z"/>
      <path class="cls-1" d="M93.54,293.7v0.44c-0.81,1.4-2.37,1.68-3.65,2.28a45.13,45.13,0,0,0-20,18.74,67.82,67.82,0,0,0-7.62,19.74,10.85,10.85,0,0,0,0,4.13c1.08,6.77,4.25,12.53,8.39,17.85a94.16,94.16,0,0,0,20,18.62c3,2.13,5.87,4.36,8.85,6.48,0.55,0.39,1,.77.77-0.4a1.06,1.06,0,0,1,.36-0.86c1.42,1.11,1.92,2.88,3,4.22,0.3,0.36.56,0.74,0.12,1.14s-0.77-.11-1.12-0.31c-4-2.27-7.5-5.28-11.24-7.93A121,121,0,0,1,74.48,363.3C70,358.65,66,353.62,63.36,347.75c-1.65-3.7-3.36-7.7-2.7-11.94a56.54,56.54,0,0,1,2.51-9.4A61,61,0,0,1,73.65,307.5a47.21,47.21,0,0,1,18.59-13.71A4.08,4.08,0,0,1,93.54,293.7Z"/>
      <path class="cls-1" d="M415.3,337.22l0,0.92c-1.93-2-4.29-3.71-5.56-6.33a2.8,2.8,0,0,0-1.18-.88c-2.21-1.71-3.35-4.1-.57-7.43a36.54,36.54,0,0,1,15-10.7,5.5,5.5,0,0,1,1.51-.14v0.45a36.36,36.36,0,0,0-15,9.9c-0.75.83-2.07,1.61-.89,2.9s2.38,0.59,3.47-.29A30.26,30.26,0,0,1,420,321c5.45-2.22,11.06-2.41,16.78-2a32.3,32.3,0,0,1,5,.87c1.18,0.27,1.92.78,1.72,2.06s-1.24,1.38-2.2,1.19a45.64,45.64,0,0,0-6.56-.45c-4.23-.21-8.41-0.24-12.52,1.23a25.12,25.12,0,0,0-7.89,4.48l-0.16.15c-3.76,3.53-3.76,3.53-.13,7.21C414.46,336.21,414.87,336.73,415.3,337.22Z"/>
      <path class="cls-1" d="M323.92,85.84l-1.36,0c0-1.14.93-1.35,1.68-1.71a128.19,128.19,0,0,0,22.89-14.58,81.28,81.28,0,0,0,9.47-8.14c1.25-1.32,1.19-2.18,0-3.46-11.07-11.58-21.88-23.4-33.11-34.82-1.07-1.09-1.81-2.49-3.43-3.68,0,3.05-.05,5.84,0,8.63a14.11,14.11,0,0,1-.88,5.38,1.23,1.23,0,0,1-.93,1.09c-0.22-2.76,1.38-5.35.75-8.15a34.46,34.46,0,0,0-.74-7.61c-0.16-.7-0.56-1.82.34-2.15,0.71-.26,1.41.63,1.94,1.18,4.34,4.55,8.62,9.14,12.94,13.71q7.67,8.12,15.36,16.22c3.16,3.34,6.22,6.78,9.46,10,1.59,1.6,1.38,2.71-.16,4.16a146.29,146.29,0,0,1-23.87,18.27A112.25,112.25,0,0,1,323.92,85.84Z"/>
      <path class="cls-1" d="M350.71,71.34c2.63-2.51,5.41-4.85,8.08-7.3a110,110,0,0,0,17.86-20.85c1.23-1.87,2.42-3.77,3.66-5.63,0.57-.86,1.1-1,1.73.07a39.39,39.39,0,0,1,4.8,11.32c0.49,2.34,1.09,4.67,1.74,7,0.92,3.24.53,4.45-2.34,5.91-9.61,4.89-19.11,10-28.94,14.47-2,.91-3.87,2.24-6.13,2.56a0.56,0.56,0,0,1-.17-0.58c0.95-1.47,2.63-1.84,4-2.46,10.32-4.55,20.19-10,30.25-15.05a3.11,3.11,0,0,0,1.92-3.66A54.86,54.86,0,0,0,382,40.21c-0.55-1.17-1.1-1.24-1.81-.11q-1.68,2.7-3.45,5.35c-6.68,10-15.07,18.42-24.38,26a2.21,2.21,0,0,1-1,.48A0.7,0.7,0,0,1,350.71,71.34Z"/>
      <path class="cls-1" d="M64.14,299c0.56-2.1,2.4-3.24,3.72-4.72a140.31,140.31,0,0,1,13.59-12.7c0.9-.77,2-1.69,3.16-0.19,1,1.34.44,2.29-.65,3.16A145.33,145.33,0,0,0,69.5,298.25a79,79,0,0,0-7.46,9.1,1.74,1.74,0,0,0-.39,2,6.47,6.47,0,0,1,.23,5.54c-0.91,2.57-.83,5.17-0.8,8.47a93.63,93.63,0,0,1,6.55-12.78,2.41,2.41,0,0,1,1.71-1.51c-1.32,2.4-2.71,4.76-4,7.2S62.6,321.21,62,324c-0.27,1.21-1.55,1.71-1.78,2.95-0.9-1.69-.12-3.32.09-4.87,0.44-3.17-.15-6.47,1.17-9.54a1.57,1.57,0,0,0,0-1.29c-2.14-3.09.22-5.11,1.85-7.08A146.54,146.54,0,0,1,82.2,285a8.13,8.13,0,0,0,1-.91c0.49-.57,1.64-1.11,1-1.91s-1.72-.34-2.51.33a182.2,182.2,0,0,0-16,15.34A2.25,2.25,0,0,1,64.14,299Z"/>
      <path class="cls-1" d="M120.78,388.23c1.51,3,1.82,6.4,2.61,9.63,0.19,0.78.51,1.51,0.69,2.27,0.26,1.1,1,2.43-.74,3.11-2.18-3.15-5.1-5.62-7.86-8.2A78,78,0,0,1,97,369.3c-3.77-8.61-5.87-17.67-4.32-27.21a27.18,27.18,0,0,1,4.79-11.49c0.31-.27.56-0.83,1.07-0.24,0.26,1-.47,1.66-0.9,2.38-3.4,5.69-4,11.85-3.68,18.36,0.6,11.33,5.29,21,11.48,30.11A70.28,70.28,0,0,0,117.57,395a53.74,53.74,0,0,1,5.24,5.31c-0.54-3.22-1.57-6.26-2.26-9.39C120.34,390,120,389.08,120.78,388.23Z"/>
      <path class="cls-1" d="M399.51,342.14l-0.07-.57c1.89-2.9,4.55-5,7.2-7.19,1.29-1,2.11.07,2.95,0.86,4.24,4,8,8.54,11.95,12.81a92.24,92.24,0,0,1,15.37,22.1,84.63,84.63,0,0,1,6.63,19,99.13,99.13,0,0,1,2.15,13.05c0.18,2.17,1,4.29.55,6.52a0.61,0.61,0,0,1-.62.22,5.73,5.73,0,0,1-.91-3.33,85.45,85.45,0,0,0-2.51-16.41,83.41,83.41,0,0,0-10.55-25.61,128.65,128.65,0,0,0-14.08-17.9c-2.79-3-5.75-5.83-8.44-8.92-1.16-1.34-2.1-1.31-3.25-.09-1.4,1.49-3,2.76-4.41,4.28C400.94,341.54,400.47,342.27,399.51,342.14Z"/>
      <path class="cls-1" d="M118.6,320.51c3.22-.5,5.83-2.33,8.56-3.9,0.31-.18.53-0.51,0.84-0.69,1.19-.7,2.2-1,2.86.74a81.18,81.18,0,0,1,3,7.83c0.1,0.37.51,0.84,0.05,1.18a1.15,1.15,0,0,1-1.23-.13c-3.63-2-7.67-2.84-11.55-4.11-0.78-.26-1.89-1.23-2.63.23l-0.68-.4a0.43,0.43,0,0,1-.13-0.67A0.59,0.59,0,0,1,118.6,320.51Z"/>
      <path class="cls-1" d="M190.71,74.81l-1,.1c-4.18-2-4.86-5.91-5.16-9.92-0.73-9.46,3.1-17.24,9.46-23.83a141,141,0,0,1,14-12.93c0.55-.43,1-1.26,1.86-0.78s0.17,1.21.12,1.8c-0.57,7.43,1,14.51,3.49,21.43-0.36,1.21,1.17,1.86.91,3-2.2-.53-2.33-2.71-2.89-4.22-0.65-1.74-1.07-3.64-1.67-5.42-1.33-3.94-.72-8-0.89-12,0-.71.33-1.69-0.37-2s-1.18.61-1.72,1c-3.69,2.9-6.88,6.36-10.29,9.55a33.56,33.56,0,0,0-10.25,17.73c-0.92,4.2.22,7.93,0.67,11.85,0.13,1.16,1.22,1.76,2.08,2.45C189.83,73.23,190.86,73.59,190.71,74.81Z"/>
      <path class="cls-1" d="M118.6,320.51a0.7,0.7,0,0,0-.75.75c-1.78-.3-3.5-1.16-5.38-0.68a33.7,33.7,0,0,1-5.33,1.22c-4.62,1.53-8.77,3.81-11.7,7.8a28.51,28.51,0,0,0-4.88,12.25c-1.1,6.21-.15,12.17,1.15,18.19,1.62,7.49,5.17,14.11,8.89,20.67l0,1c-1.24-.08-1.62-1.13-2.14-2a65.4,65.4,0,0,1-9.19-24c-1.44-9-.82-17.83,4.37-25.74a23,23,0,0,1,12.78-9.44c3.59-1.14,7.41-.72,10.92-2,0.83,0.21.61,1.28,1.3,1.61Q118.6,320.31,118.6,320.51Z"/>
      <path class="cls-1" d="M183.23,76.57c-2.73,0-5.32-1-7.89-1.58s-5.42-1.22-8.07-1.66c-4.89-.81-9.73-1.87-14.54-3a71.61,71.61,0,0,1-15.37-5.18c-1.3-.63-2.67-1.1-4-1.72-1.83-.87-1-2.05-0.13-2.4,4.77-1.9,9.25-4.37,13.91-6.49a0.56,0.56,0,0,1,.13.63c-1.66,2-4,2.84-6.21,4-1.63.82-3.38,1.38-5,2.2a1,1,0,0,0-.9.82,1.09,1.09,0,0,0,.91.84c3.45,1.39,6.78,3,10.36,4.15a190.59,190.59,0,0,0,19.15,4.49c4.49,0.89,9,1.82,13.5,2.63,1.5,0.27,3.08.33,4.18,1.63A0.58,0.58,0,0,1,183.23,76.57Z"/>
      <path class="cls-1" d="M98.41,330.22l-0.93.38c2.23-3.77,5.85-5.65,9.79-7a30.59,30.59,0,0,1,6-1.21c1.77-.21,3.59-0.54,5.3.58a2.59,2.59,0,0,0,2.38.38c-0.29-1-1.72-.51-1.89-1.53a50.22,50.22,0,0,1,12.58,3.9c1.05,0.52,2.46,1.38,3.3.8,1.09-.75-0.59-1.88-0.47-3,1.51,0.81,1.58,2.1,1,3.48a1.33,1.33,0,0,0-.16,1.36c-1.53-.57-3.09-1.06-4.56-1.75a3.37,3.37,0,0,0-2.08-.4c-0.93.78-1.77,0.14-2.66-.13-6.4-1.94-12.84-2.92-19.39-.69a17.91,17.91,0,0,0-6,3.58C100,329.6,99.46,330.41,98.41,330.22Z"/>
      <path class="cls-1" d="M396.84,317.9a44.27,44.27,0,0,1-4.44-5.64,53.74,53.74,0,0,1-6.11-9.53c-2.45-5.09-2.23-10.26-1.83-15.46,0.15-1.95.17-4.39,2-6,0.65,0.18.55,1.18,1.34,1.21a48.21,48.21,0,0,0-1.72,8.86,23.34,23.34,0,0,0,3.82,14.22,31.8,31.8,0,0,0,5.47,6.75c0.32,0.3,1,.56.47,1.21l-1.54-.18c1.07,1.7,2.67,2.82,3.34,4.6A0.56,0.56,0,0,1,396.84,317.9Z"/>
      <path class="cls-1" d="M147.19,55.07l0-.49a77.52,77.52,0,0,0,8.23-5.75,1.88,1.88,0,0,1,2.77.07c5.48,6.1,11.33,11.82,17.19,17.54a0.41,0.41,0,0,1,0,.55,2.19,2.19,0,0,1-2-.78,82.25,82.25,0,0,1-6.56-6.08c-2.82-3.25-6.08-6.09-8.74-9.48-0.77-1-1.47-.88-2.4-0.21a71,71,0,0,1-6.3,4.32C148.67,55.15,148,55.75,147.19,55.07Z"/>
      <path class="cls-1" d="M396.84,317.9l0.79,0.08a55.84,55.84,0,0,1,7.92,11.34c0.67,1.37.75,2.45-.5,3.46a53.69,53.69,0,0,0-12.18,14.12l-0.48,0c1.11-3.14,3.35-5.52,5.32-8.1a51.29,51.29,0,0,1,6.41-6.26c0.93-.86,1.22-1.35.65-2.7-1.56-3.69-4-6.72-6.47-9.77A5.67,5.67,0,0,1,396.84,317.9Z"/>
      <path class="cls-1" d="M175.26,67l0.07-.55c2.36,1.33,4.17,3.35,6.3,5s4,3.16,6,4.73c0.4,0.31,1,.53.68,1.17a1.17,1.17,0,0,1-1.34.48c-1.35-.06-2.44-0.92-3.72-1.22q0-.22,0-0.44a1.6,1.6,0,0,1,1.73-.36,115.09,115.09,0,0,1-9.25-7.62A1.19,1.19,0,0,1,175.26,67Z"/>
      <path class="cls-1" d="M395.83,313.55c-2.2-2.36-4.71-4.47-6.12-7.47a0.47,0.47,0,0,1,.09-0.56c1.27,0,1.69,1.09,2.2,1.88a26.41,26.41,0,0,0,4.55,5c1.19,1.12,2.3,1.8,3.73.37a1,1,0,0,1,1.38-.16c-1.05,1.47-2.08,3-4.26,2.6Z"/>
      <path class="cls-1" d="M445.67,408.93c0.74-1.45.37-2.89,0.07-4.37a13.23,13.23,0,0,1-.07-2.35,20.87,20.87,0,0,1,1.09,5.77c0.16,1.42-.51,2.47-2.24,2.06-0.7-.16-1.38-0.43-2.07-0.66C443.41,408.36,444.59,409,445.67,408.93Z"/>
      <path class="cls-1" d="M441.61,310.26c-0.26,1.19-1.22,1-2.07,1l-8,0a17,17,0,0,1,6.76-.58A4.72,4.72,0,0,0,441.61,310.26Z"/>
      <path class="cls-1" d="M171.81,531.48c-2.6.15-5-.82-7.49-1.28C166.91,530.09,169.49,530.05,171.81,531.48Z"/>
      <path class="cls-1" d="M380.57,497.23l9.26-1.3C386.9,497.47,383.7,497.1,380.57,497.23Z"/>
      <path class="cls-1" d="M145,252.41h-0.41l-0.1-3.4c0-1.93-.73-3.82-0.44-5.78l0.1-.09c1.35,1.71.69,3.73,0.85,5.62C145.11,250,145,251.19,145,252.41Z"/>
      <path class="cls-1" d="M107.15,321.8c1.77-.42,3.41-1.42,5.33-1.22A7.89,7.89,0,0,1,107.15,321.8Z"/>
      <path class="cls-1" d="M94,337.23l-1.27,4.86C92.73,340.37,92.38,338.54,94,337.23Z"/>
      <path class="cls-1" d="M445.67,408.93c-0.93,1.18-2.2-.07-3.22.45l-1.66-.09q0-.22,0-0.44a4.61,4.61,0,0,1,4.73-.08Z"/>
      <path class="cls-1" d="M362.16,415.41a4.54,4.54,0,0,0,2.12,1c1.59,1.25,3.79,1,5.4,2.17,0.47,0.35,1.49.06,1.39,1.05a1.72,1.72,0,0,1-1.66,1.5c-1.74.24-3.42,0.73-5.14,1.08-5.77,1.18-11.52,2.43-17.34,3.37-5.61.91-11.19,2-16.8,2.87-4.71.51-9.4,1.17-14.09,1.77-6.94.89-13.93,1.36-20.89,2-12.69,1.24-25.39,1.14-38.1,1.19a243.68,243.68,0,0,1-25.17-.88c-8.63-.86-17.27-1.6-25.87-2.73-3-.39-5.82-1.37-8.83-1.39-8.62-1.53-17.27-2.94-25.81-4.93-0.62-.14-1.36-0.14-1.58-1a1.91,1.91,0,0,1,1-2,103.85,103.85,0,0,0,13.76-13.18c7.18-8.25,12.75-17.39,15.85-28s3.42-21.09,2.48-31.88a231.35,231.35,0,0,0-3.35-22.92c-0.09-.5-0.19-1-0.25-1.52-0.1-1,.26-1.44,1.37-1.35,4.44,0.36,8.87.85,13.34,0.9,5.4,0.06,10.79.67,16.2,0.82,9.73,0.27,19.47.28,29.18-.3,8.46-.5,16.95-0.52,25.38-1.46,1.84-.46,3.74,0,5.6-0.35a10.51,10.51,0,0,1,1.1-.16c8.42-.81,16.86-1.54,25.27-2.42,5.58-.58,11.18-1.06,16.73-2a10,10,0,0,1,1.75-.15c2.09,0,2.22.22,1.47,2.13a87.09,87.09,0,0,0-5.61,36.7A94.42,94.42,0,0,0,334,375a77.06,77.06,0,0,0,11.22,24.76A51.14,51.14,0,0,0,362.16,415.41Z"/>
      <path class="cls-1" d="M296,486.62c1.69-1.91,4.15-2.23,6.34-3,5.66-2,11.3-4,17-5.91,6.16-2.05,12.25-4.31,18.35-6.51s12.07-4.32,18.06-6.63c4.78-1.84,9.67-3.43,14.48-5.2,3.8-1.39,7.57-2.9,11.35-4.35,3.5-1.34,7-2.75,10.51-4,2.11-.75,2.86-0.16,2.89,2.07,0,3,0,6,0,9,0,4.07-.5,4.73-4.29,6-4.36,1.5-8.63,3.39-13.08,4.51-5,1.27-10,3-15,4.12-4.22.94-8.47,1.9-12.66,3-2,.56-4.16.76-6.23,1.14-3.22.59-6.42,1.31-9.64,1.88-4.09.71-8.26,0.85-12.32,1.78-3.19.73-6.5,0.81-9.75,1.29-4.6.67-9.3,0.59-13.93,1.23A1.89,1.89,0,0,1,296,486.62Z"/>
      <path class="cls-1" d="M386.7,281.39c-1.8,1.87-1.77,4.47-2.06,6.69a25.93,25.93,0,0,0,.89,12.29,35.71,35.71,0,0,0,5.47,9.71c0.53,0.68.94,1.45,1.4,2.18-2.29-1.37-3.35-3.78-4.7-5.87-3.93-6.08-4.64-12.94-3.51-19.87A42.15,42.15,0,0,1,388.9,274a21.5,21.5,0,0,0,2.17-7.94c2.39-24.05,2.1-48.2,2.89-72.32,0.39-11.83.21-23.71,1.2-35.51,0.89-10.49.78-21,2-31.48,0.17-1.37.61-2.28,2.11-2.19s2,1.12,1.84,2.44c-0.28,2.91-.77,5.8-0.88,8.71-0.5,12.64-1.59,25.24-1.75,37.9-0.11,8.77-1.07,17.52-.87,26.3,0,0.95,0,1.9,0,3.33a48,48,0,0,0,7.5-7.29A74.33,74.33,0,0,0,414,183a1.82,1.82,0,0,1,2.33-1.09,1.77,1.77,0,0,1,1,2.37,14.55,14.55,0,0,1-2,4.09c-4.68,7.18-9.8,14-16.82,19.08a1.92,1.92,0,0,0-.82,1.66c-0.1,1.9-.23,3.79-0.29,5.69-0.21,6.8-.39,13.6-0.6,20.4a8.79,8.79,0,0,1-.3,1.48c-0.9-.8-0.63-1.88-0.67-2.88-0.3-8.17.39-16.33,0.45-24.49,0-1.64,1.12-2.6,2.27-3.56A72.53,72.53,0,0,0,415,185.93a2.91,2.91,0,0,0,.61-2.07,5.23,5.23,0,0,0-1.87,2.32,75.79,75.79,0,0,1-12.11,15.53,19.8,19.8,0,0,1-2.29,2.05c-1.5,1.08-2.7.61-3-1.22a17.18,17.18,0,0,1,0-5,77.74,77.74,0,0,0,.35-11.83c-0.08-9.88,1-19.71,1.18-29.56,0.13-6.88,1.14-13.7,1-20.58,0-2.13.55-4.21,0.46-6.34a4.58,4.58,0,0,0-.3-2.31,3,3,0,0,0-.65,2.49c0,5.86-.67,11.67-1.21,17.49-0.25,2.63-.05,5.27-0.12,7.9-0.14,5.7-.79,11.37-1.1,17.06-0.49,3.42-.14,6.85-0.21,10.27-0.06,3,0,6,0,9a4.82,4.82,0,0,1-.14,1.22,5.06,5.06,0,0,0-.24,1.06c0.27,4.36-.75,8.67-0.43,13-0.07,4.48.23,9-.17,13.44a9.54,9.54,0,0,0-.34,3c0,5.32,0,10.63,0,15.95,0,4.08-1,8.07-.86,12.15a30.94,30.94,0,0,1-.15,5.24c-0.65,2.72-.05,5.58-0.89,8.29-0.06,5.88-2.81,10.91-5.16,16.06A1.93,1.93,0,0,1,386.7,281.39Z"/>
      <path class="cls-1" d="M396.81,208.85c0.08,8.4-.72,16.79-0.43,25.19,0,0.88.05,1.75,0.08,2.63,0.39,9.54-1,19-1.46,28.48-0.08,1.72-.81,3.38-1,5.15-0.58,6.87,2.79,12.19,6.92,17,2.28,2.67,5.38,2,7.84-.1,4.39-3.74,8.67-7.62,12.8-11.65,1.89-1.85,2.21-4.67,3.21-7.07,3-7.18,4.88-14.72,6.91-22.19,1.17-4.32,2.07-8.78,2.86-13.22,1-5.88,2.13-11.75,3.08-17.64,0.68-4.25,1.24-8.53,1.7-12.81,1.17-10.74,2.32-21.49,3.36-32.24,0.47-4.87.27-9.8,1.14-14.64a3.24,3.24,0,0,1,.44-1.88l0.07,3.67a4.21,4.21,0,0,1,.52,3.58c-0.95,5.06-.56,10.21-1.23,15.28-1,7.53-1.4,15.12-2.36,22.65-0.53,4.18-1,8.4-1.67,12.58-0.57,3.81-1.24,7.62-1.8,11.44-0.72,4.91-1.66,9.79-2.74,14.64-1.28,5.77-2.69,11.51-4.27,17.21a130.38,130.38,0,0,1-5.34,15.76,26.06,26.06,0,0,1-3.17,6.23c-1,1.28-.37,3-0.85,4.46l0,0.52c-2.25-1.21-3.46.54-4.91,1.69-2.18,1.73-3.92,3.92-6.19,5.56-4.7,3.39-9.53,2.61-12.93-2.13a33,33,0,0,1-4.34-8.08,5.13,5.13,0,0,0-1.4-2.3c-1.78,3.41-3.67,6.65-4.31,10.4a26.61,26.61,0,0,0,2.17,16.84,2.43,2.43,0,0,1,.27,1.7l-0.08.47a10.1,10.1,0,0,1-2.91-5.62c-0.94-3.94-2.33-7.87-.73-12.15,0.69-1.86.59-4.11,1.47-6-0.64-2.76.9-5,2.48-6.67,2.3-2.36,2.67-5.1,3-8a352.66,352.66,0,0,0,2.28-46.79c-0.07-3.36.59-6.7,0.48-10.07C395.76,210,395.71,209.08,396.81,208.85Z"/>
      <path class="cls-1" d="M284.76,321.89a15.88,15.88,0,0,1-5.4.75c-15.94.38-31.85,2-47.81,1.31-10.22-.46-20.44-0.85-30.63-1.86-1.47-.15-1.44.42-1.21,1.46a240,240,0,0,1,3.8,25.72,79,79,0,0,1-.85,22.47,68.64,68.64,0,0,1-10.18,25.7,105.54,105.54,0,0,1-20.82,22.88c-0.63.54-1.75,1-1.5,2s1.52,0.87,2.42,1c5.14,1,10.3,1.93,15.4,3.07,3,0.66,6.15.34,9,1.73-2.27.93-4.23-.67-6.38-0.76-4.06.06-7.88-1.27-11.82-2-2.65-.47-5.24-1.22-7.9-1.62-0.76-.11-1.72.16-2.05-0.85s0.34-1.64,1.06-2.2a108.8,108.8,0,0,0,12.47-11.64,76.17,76.17,0,0,0,15.54-24A71,71,0,0,0,202.71,362a159.88,159.88,0,0,0-.58-18.81c-0.29-4.12-1.39-8.18-1.87-12.3-0.29-2.54-1.11-5-1.33-7.51-0.12-1.45.28-2.22,1.91-2.09,7.28,0.57,14.56,1.24,21.88,1.2,3,0,6,.1,9,0.23,9,0.39,18,.12,27-0.13,8.4-.23,16.79-0.84,25.18-1.28,0.29,0,.58,0,0.88,0A0.28,0.28,0,0,1,284.76,321.89Z"/>
      <path class="cls-1" d="M362.16,415.41c-3.26-.88-5.69-3.11-8.14-5.2-6.7-5.73-11.52-12.94-15.3-20.79a84.27,84.27,0,0,1-4.2-11.35,95.77,95.77,0,0,1-4-30.62,85.79,85.79,0,0,1,3.15-21.57c0.81-2.91,2-5.72,3.06-8.75a8.56,8.56,0,0,0-3.4-.06c-11.35,1.6-22.72,2.89-34.16,3.56-2.61.15-5.16,1.06-7.82,0.82a0.28,0.28,0,0,1,0-.53,9.36,9.36,0,0,1,3.81-.79c8.68-.44,17.29-1.59,25.94-2.37,4.58-.41,9.09-1.34,13.69-1.55,2.91-.13,3.11.36,2.08,3.08a92.55,92.55,0,0,0-4.32,16.14c-1.23,6.63-1.13,13.24-1.08,19.89,0,5.42,1.14,10.69,2.22,16a77.8,77.8,0,0,0,6.24,18.45c4.77,9.85,11,18.48,20.69,24.16A3.47,3.47,0,0,1,362.16,415.41Z"/>
      <path class="cls-1" d="M190.58,427.4c2.21-.43,4.16,1.33,6.38.76,4.61,0.12,9.08,1.33,13.64,1.85,5.22,0.6,10.45,1.1,15.67,1.6A419,419,0,0,0,276.44,433c10.65-.26,21.27-1.3,31.88-2.25,7.4-.66,14.7-2.29,22.15-2.5q0.23,0.14.15,0.28a0.21,0.21,0,0,1-.15.14l-2.05.1c-1.33.48-2.76,0.45-4.11,0.85l-13.63,1.66c-14,1.7-28.05,2.07-42.13,2.51-11.13.34-22.2-.36-33.29-0.47-7.25-.07-14.47-1.6-21.73-2.14a80.89,80.89,0,0,1-12.28-1.69C197.69,428.63,193.89,429.21,190.58,427.4Z"/>
      <path class="cls-1" d="M330.46,428.62q0-.21,0-0.41c4.34-1.32,8.88-1.62,13.3-2.51,5.34-1.08,10.76-1.75,16.07-3.07,3-.73,6-1.22,9-1.78,0.82-.15,1.78-0.32,1.88-1.21s-1.1-.42-1.49-0.85c-1.33-1.48-3.86-.44-4.93-2.41,2.74,0.25,5.07,1.85,7.74,2.38a1.06,1.06,0,0,1,.64,1.27,1.19,1.19,0,0,1-1.11,1.15c-4.6.89-9.27,1.57-13.8,2.75-5.39,1.41-10.9,2.1-16.34,3C337.79,427.58,334.23,428.91,330.46,428.62Z"/>
      <path class="cls-1" d="M420.59,296.83l-0.14-.58c1.23-2.68,3.59-4.35,5.68-6.22,5-4.44,9.84-8.94,14.86-13.3a6.47,6.47,0,0,0,1.55-2.36c-0.75-1-1.54-.16-2.31-0.05,0.52-1.39,1.59-1.63,2.56-.74a2.1,2.1,0,0,1-.06,3.28c-4.39,4-8.76,8.1-13.27,12a100.14,100.14,0,0,0-7.63,7.16A2,2,0,0,1,420.59,296.83Z"/>
      <path class="cls-1" d="M144.06,243.22a20.58,20.58,0,0,1,.44,5.78,17.3,17.3,0,0,1-.87-5.81A2.19,2.19,0,0,1,144.06,243.22Z"/>
      <path class="cls-1" d="M291.33,320.93l0,0.53h-0.77a14.42,14.42,0,0,1-5.48-.09C287.14,320.77,289.26,321.12,291.33,320.93Z"/>
      <path class="cls-1" d="M285.1,321.37l5.48,0.09c-1.91.59-3.89,0.26-5.83,0.43v-0.51A0.49,0.49,0,0,1,285.1,321.37Z"/>
      <path class="cls-1" d="M324.3,429.58a8.07,8.07,0,0,1,4.11-.85C327.19,429.73,325.73,429.58,324.3,429.58Z"/>
      <path class="cls-1" d="M172.28,328.83c0,1,0,2.05,0,3.08a6.56,6.56,0,0,1-2.84,5.78A90.12,90.12,0,0,0,145,365.31,103.39,103.39,0,0,0,137.28,382c-1.76,4.87-2.9,9.87-4.24,14.82a72.6,72.6,0,0,0-1.57,10.81c-0.31,2.76-.41,5.54-0.64,8.3a9.11,9.11,0,0,1-.41,1.7,1.1,1.1,0,0,1-1.36.81,0.88,0.88,0,0,1-.76-1.13c0.33-3.85-.57-7.58-1.32-11.29-0.84-4.18-2.06-8.28-3.16-12.41-0.51-1.9-.81-3.84-1.21-5.75-1.65-7.83-3.38-15.7-3.79-23.7a21.27,21.27,0,0,1,8.47-18.53c6.3-5,13.33-8.71,20.56-12.13q9.6-4.55,19.15-9.21c4.95-2.42,5.29-2.22,5.29,3.42q0,0.55,0,1.1h0Z"/>
      <path class="cls-1" d="M98.41,330.22c7.06-7.41,15.69-7.53,24.87-5.49,1.85,0.41,3.5,1.37,5.39,1.55,1.69,1.29,3.85,1.52,5.65,2.57a4.71,4.71,0,0,1,2.31,3.36c1,3.83-.62,5.57-3.88,7.34A34.41,34.41,0,0,0,121.47,349c-3.62,4.85-4.72,10.32-4.42,16.22,0.4,7.8,2.25,15.37,3.73,23-0.08,2.51.81,4.88,1.48,7.18,0.59,2,.53,4.14,1.65,6.22-1.54-.45-2-1.63-2.82-2.41C116.68,395,112,391,108.26,386.09a81,81,0,0,1-11.35-19.44,49.68,49.68,0,0,1-3.71-17.31c-0.19-6.56.8-12.88,5-18.31A2.49,2.49,0,0,0,98.41,330.22Z"/>
      <path class="cls-1" d="M139.67,428.68a215.43,215.43,0,0,0,24.53,19.73,61.72,61.72,0,0,0,14.44,7.38c2.67,0.92,5.56,1.81,8.54,1.5a2.07,2.07,0,0,1,2.38,1.35,50.76,50.76,0,0,1,4.61,13.49c0.3,1.64,1.13,3.13,1.05,4.89-0.06,1.46-.49,2-1.79,1.26-5.29-2.86-10.67-5.53-15.8-8.7a136.9,136.9,0,0,1-24.41-19A128.3,128.3,0,0,1,138,432.32c-1.23-1.77-2.39-3.58-3.59-5.37-0.2-.67-0.59-1.45.24-1.89s1.11,0.41,1.59.78a6.1,6.1,0,0,0,.87.61h0C137.62,427.58,138.89,427.85,139.67,428.68Z"/>
      <path class="cls-1" d="M137.09,426.44a2.42,2.42,0,0,1-1-.33c-1.46-1.51-1.75-.67-1.74.83a42.14,42.14,0,0,1-3.49-5.82A26.71,26.71,0,0,1,137.09,426.44Z"/>
      <path class="cls-1" d="M139.67,428.68c-1.13-.44-2.33-0.79-2.58-2.24A7.17,7.17,0,0,1,139.67,428.68Z"/>
      <path class="cls-1" d="M347.06,539.76c2.15-2.1,4.64-2,6.77-2.78a146.47,146.47,0,0,0,16-6.56,99.21,99.21,0,0,0,18.52-11.7A94.64,94.64,0,0,0,399,508.93c1-1,1.47-2.08.3-3.24s-2.17-.25-3,0.59a101,101,0,0,1-18,14.84,93.76,93.76,0,0,1-14.51,7.82,94.87,94.87,0,0,1-11.24,4.5c-3.54,1-7.06,2.12-10.65,3-4.65,1.14-9.39,1.84-14,3a11.38,11.38,0,0,1-2.82.31q-49.44,0-98.88.07c-5.08,0-9.9-1.47-14.82-2.38-4.56-.85-9-2.24-13.5-3.29-3.87-.9-7.7-2-11.57-2.87-4.65-1.09-9.3-2.27-14-3.08-3.29-.56-6.6-1.15-9.91-1.66-5.86-.91-11.88-1.24-17.43-3.64-2.63-1.14-4-3.18-4.92-6-1.87-5.76.51-11,1.45-16.39,0.15-.87.67-1,1.44-0.86,9.43,1.2,18.93,1.43,28.39,2.1,6,0.43,12.09.94,18.14,1.24q15.76,0.76,31.49,2c8.17,0.66,16.41.09,24.58,0.67,20.19,1.45,40.4.91,60.58,0.56,9.7-.16,19.44-0.46,29.13-1.18,9-.67,18.08-1.17,27.05-2.29,7.8-1,15.63-1.84,23.41-3,3.81-.58,7.65-1.15,11.44-1.79,5.29-.9,10.64-1.56,15.85-3,2.86-.77,5.85-1,8.74-1.73,4.22-1,8.53-1.65,12.67-3,0.65-.21,1.43-0.79,2-0.08s-0.11,1.24-.24,1.86a45.49,45.49,0,0,1-5.07,13.79C427,513.12,421,518.56,414,523a78.34,78.34,0,0,1-13.75,6.88c-4.16,1.58-8.47,2.81-12.77,4-6.31,1.76-12.77,2.67-19.17,3.93C361.42,539.15,354.47,539.41,347.06,539.76Z"/>
      <path class="cls-1" d="M407.73,424.22c-6.59-10.37-13.15-20.48-19.17-30.91-4.48-7.76-8.87-15.57-12.75-23.67-2.72-5.67-5.19-11.44-7.76-17.17-0.6-1.33-.4-2,1.28-2.05,7.31-.1,14.63-0.23,21.94-0.46a3.15,3.15,0,0,1,3.13,1.86c3.77,6.69,7.51,13.41,11.31,20.08,4.13,7.24,8.33,14.44,12.5,21.66,2.53,4.38,5.08,8.75,7.6,13.14,0.4,0.71.71,1.55,0,2.22C419.9,414.13,414,419.31,407.73,424.22Z"/>
      <path class="cls-1" d="M445.52,408.78l-4.73.08a30.1,30.1,0,0,0-8.41-1.25,6.61,6.61,0,0,1-6.07-3.74c-6.06-10.86-12.39-21.56-18.59-32.33-4.08-7.08-8.1-14.2-12.16-21.29a2.16,2.16,0,0,1,.24-2.44l3.7-5.66c2.19-2.13,4.39-4.25,6.57-6.4,0.91-.9,1.82-1.27,2.8-0.18,5.48,6.06,11.4,11.74,16.46,18.18a87.23,87.23,0,0,1,12.9,21.62,98.77,98.77,0,0,1,6.18,23.22C444.88,402,445.24,405.37,445.52,408.78Z"/>
      <path class="cls-1" d="M389.79,305.6c-6.41-11.37-3-23.32,2.29-30.2,2,4,3.25,8.21,6,11.72,3.19,4,7.85,4.83,11.84,1.6,2.66-2.16,5.16-4.53,7.68-6.85,1.07-1,2-2.45,3.18-.12a1.22,1.22,0,0,0,.61.17c0.94,1.52.29,3.11,0.28,4.69,0,2.88-.56,5.48-3.18,7.21a1.2,1.2,0,0,0-.54.9c0.48,2.37-1.39,3.34-2.7,4.62q-6.81,6.64-13.64,13.26c-1.44,0-2,2.5-3.51,1.63a18.85,18.85,0,0,1-5.16-4.57C391.89,308.32,391.12,306.74,389.79,305.6Z"/>
      <path class="cls-1" d="M421.45,281.4c-0.86-1.74-.91-3.53.42-5,1.91-2.07,2.44-4.73,3.47-7.17,1.15-2.73,2.11-5.53,3.15-8.31a42.27,42.27,0,0,0,1.45-5.2c1.26-5.42,2.9-10.74,4-16.2,1-5,2.15-9.93,3-14.91,0.6-3.64,1.31-7.3,1.8-11,0.58-4.39.83-8.83,1.8-13.18a44,44,0,0,0,.48-5.67c0.82-9.07,2.22-18.09,2.48-27.22,0.1-3.34,1.11-6.63.85-10a4,4,0,0,0,.33-2.13c0.06-.56-0.08-1.32.74-1.35s1,0.67,1,1.38a46.41,46.41,0,0,1-.48,7.65,59.54,59.54,0,0,0-.72,6.51c-0.26,7.44-1.55,14.79-2.06,22.18-0.35,5-1.11,10-1.68,15a96.45,96.45,0,0,1-1.91,12.68,50.65,50.65,0,0,0-1.27,7.72c-0.47,5.26-2.26,10.21-2.95,15.41a72.44,72.44,0,0,1-2.57,10.06c-1,3.47-1.94,7-3.18,10.34-1.8,5-3.32,10-5.67,14.76a3.45,3.45,0,0,0-.39,1.9C423.79,281.43,423,281.92,421.45,281.4Z"/>
      <path class="cls-1" d="M442.55,274.38c0.78,1.18-.22,1.74-0.88,2.34-4.9,4.46-9.85,8.88-14.75,13.35-2.2,2-4.32,4.12-6.47,6.18-0.41.21-.81,0.8-1.25,0a1.62,1.62,0,0,1,.27-2.18c1.93-1.88,3.7-3.89,5.83-5.62,5-4,9.61-8.48,14.35-12.79A4.1,4.1,0,0,1,442.55,274.38Z"/>
      <path class="cls-1" d="M117.8,319c-6.28,1.42-13,1.33-18.43,5.62a25,25,0,0,0-7.51,9.73c-3,6.74-3.29,13.94-2.11,21a64.08,64.08,0,0,0,8.53,22.88,17,17,0,0,0,2.29,3.42l0.49,0.72c0.24,0.36.61,0.78,0.16,1.15s-0.76-.16-1.1-0.4c-4.11-3-8.27-6-12.33-9A89.72,89.72,0,0,1,67.72,353.8a36.25,36.25,0,0,1-6.21-15.62c-0.35-2.38.43-4.67,1-6.89a64.65,64.65,0,0,1,8.19-18.61,45.15,45.15,0,0,1,15.59-15c2.33-1.3,4.8-2.35,7.2-3.52,2.76,0.3,5.08-1.6,7.91-1.37,3.84,0.31,7.77-.22,11.59.21a39.64,39.64,0,0,1,12.68,3.93,41.56,41.56,0,0,1-12.3,2.62c-4.3.13-8.6,0.4-12.91,0.29-1.6,0-2.71.6-2.92,2.28-0.24,1.83,1.27,1.92,2.42,2.16,4.1,0.86,8.31.16,12.43,0.83,5.19,0.84,10.17,2.17,14.23,5.8,1.61,1.43,1.44,2-.22,3.45-2.48,2.14-5.78,2.65-8.34,4.58A0.25,0.25,0,0,1,117.8,319Z"/>
      <path class="cls-1" d="M117.8,319a0.56,0.56,0,0,1,.31-0.12c0.51,0.19,1.32.26,1.46,0.6s-0.55.49-1,.6C117.83,320.14,117.27,320,117.8,319Z"/>
      <path class="cls-1" d="M320.78,13c7.48,1.31,15.08,1.09,22.59,2.24A67.64,67.64,0,0,1,364.63,22a46.28,46.28,0,0,1,12.72,10.15,3.14,3.14,0,0,1,.35,4,115.87,115.87,0,0,1-14.72,20c-1,1.15-1.71.59-2.5-.24q-6.39-6.77-12.81-13.51L321.33,14.53a12.43,12.43,0,0,1-.77-1Z"/>
      <path class="cls-1" d="M190.71,74.81c-3.51-2.14-4.8-5.32-5.15-9.35-0.13-1.56-.53-3.07-0.15-4.64,0.8-3.29,1.18-6.64,2.74-9.78a39.32,39.32,0,0,1,8.1-10.91c3.68-3.54,7.49-7,11.26-10.41,0.46-.43.86-1.21,1.61-0.87s0.37,1.18.39,1.79c0,2,.06,4,0,5.93a30.2,30.2,0,0,0,2,10.36c0.79,2.39,1.34,4.79,3,6.78h0c0.9,1.07,1.17,2.53,2.18,3.53,2.82,4.28,5.6,8.6,8.74,12.67,4.87,6.32,10.12,12.27,16.84,16.72,5.92,3.93,12.32,6.2,19.52,5.34a34.39,34.39,0,0,0,14-5.18c8.25-5.07,14.94-11.86,21.22-19.09A237.7,237.7,0,0,0,313,47.26a29.21,29.21,0,0,0,5.22-12.74c2.18-5.16.9-10.64,1.34-16.15,1.78,1.06,2.71,2.66,3.94,4q17,17.86,34,35.7c1.29,1.34,1.22,2.12-.06,3.36a143,143,0,0,1-24.29,18.47c-3.45,2.16-7.21,3.7-10.58,6-4,1.76-7.9,3.92-12.13,5.24-4.55,1.42-8.94,3.28-13.58,4.52a121.3,121.3,0,0,1-14,3A112.51,112.51,0,0,1,265.61,100a146.44,146.44,0,0,1-21.76-2,115.61,115.61,0,0,1-20.16-5.33,106.56,106.56,0,0,1-18-8.59C200.62,81.13,195.44,78.35,190.71,74.81Z"/>
      <path class="cls-1" d="M216.64,57.25c-1.41-.75-1.62-2.25-2.18-3.53C215.8,54.51,216,56,216.64,57.25Z"/>
      <path class="cls-1" d="M410.43,328.91c0-.4-0.57-0.79,0-1.18,3.91-2.86,7.76-6,12.58-7.06a36.7,36.7,0,0,1,15.85-.45,28.91,28.91,0,0,0,3,.34,1,1,0,0,1,1,1c0,0.73-.54.78-1.07,0.77a25.84,25.84,0,0,1-4.15-.27c-9.26-1.67-17.62,0-24.65,6.68-0.75.7-1.57,1.87-2.54,0.19h0Z"/>
      <path class="cls-1" d="M410.43,328.91a1.59,1.59,0,0,1-1.32,1c-0.87.1-1.21-.69-1.62-1.26a0.65,0.65,0,0,1,.11-1c0.65-.4,1.08.11,1.51,0.5a2.12,2.12,0,0,0,1.32.7h0Z"/>
      <path class="cls-1" d="M351.14,78.38c-3,.34-5.46,2.19-8.25,3.14-3,1-5.9,2.11-8.85,3.17l-0.28-.58,9.57-6.18a49.61,49.61,0,0,0,7.79-6.22,118.25,118.25,0,0,0,30-34.17,45.12,45.12,0,0,1,5.07,12c0.59,2.6,1.53,5.14,1.63,7.9,0.07,1.71-.19,2.61-1.79,3.44-9.39,4.87-18.67,9.94-28.36,14.21C355.47,76.08,353.32,77.28,351.14,78.38Z"/>
      <path class="cls-1" d="M396.81,208.85c-0.59.51-.39,1.21-0.42,1.85-0.47,9.28-.33,18.57-0.46,27.85-0.12,8-1.19,16-1.46,24-0.12,3.61-1,7.31-1.63,11a1.05,1.05,0,0,1-.4.7c-3.25,1.69-3.79,5-4.89,8-1.22.62-.64-0.5-0.84-0.87-0.3-1.28.58-2.24,1.06-3.23,2.09-4.3,3.93-8.65,4.15-13.51,1-1.89.72-3.94,0.76-5.95a6.31,6.31,0,0,1,.16-2.38l0.1-5.23c1.29-8.56,1.06-17.18,1.07-25.8a30.35,30.35,0,0,1,.14-5.47l0.13-13.56c0.65-2.56.4-5.2,0.6-7.8,0.16-2.1-.25-4.21.21-6.3v-0.87c0.49-2.3.14-4.63,0.22-6.94,0.14-4.28-.22-8.58.19-12.86,0.46-9.71.8-19.43,1.44-29.13,0.3-4.59.71-9.18,0.82-13.78,0-.51,0-1,0.07-1.54a1.18,1.18,0,0,1,1.46-1.23c0.85,0.11.86,0.7,0.82,1.47-0.69,11.38-1.45,22.76-2,34.15-0.51,11-.94,22.07-1,33.12,0,2.48-.23,5-0.32,7.45,0,0.71-.17,1.55.72,1.89s1.12-.41,1.61-0.84a74.29,74.29,0,0,0,15.08-18.91,6.85,6.85,0,0,1,.56-0.94,1.15,1.15,0,0,1,1.29-.61c0.64,0.24.46,0.85,0.44,1.34-0.06,1.31-.93,2.33-1.56,3.33-4.59,7.34-9.9,14.08-16.76,19.48A3.15,3.15,0,0,0,396.81,208.85Z"/>
      <path class="cls-1" d="M264,430.78c-12.32.55-24.61-.41-36.84-1.42-8.49-.7-17-1.33-25.45-3-5.57-1.14-11.25-1.74-16.87-2.68A79.06,79.06,0,0,1,177,422c-2-.56-2.11-1.22-0.59-2.6,7.49-6.82,14.35-14.2,19.51-23a73.75,73.75,0,0,0,6.84-15.5,79.15,79.15,0,0,0,3.24-29,151.56,151.56,0,0,0-3.21-24.09c-0.58-2.55-.22-3,2.37-2.9,14.91,0.74,29.82,1.62,44.77,1.26,11.49-.28,23-0.94,34.42-1.72,12.1-.82,24.17-2.19,36.24-3.42,3.27-.33,6.51-0.9,9.81-1.05,2.25-.1,2.76.32,2.16,2.56s-1.56,4.42-2,6.69a110.11,110.11,0,0,0-2.25,18.45,100.92,100.92,0,0,0,2.21,24,80.28,80.28,0,0,0,13.47,31c4.51,6.13,9.91,11.52,16.86,15,0.72,0.36,1.64.92,1.58,1.67-0.09,1.08-1.3.61-2,.8-7.63,2-15.47,3-23.21,4.41-6.88,1.28-13.86,2.07-20.83,2.91-5.59.68-11.2,1.13-16.78,1.86-2.85.37-5.71,0.13-8.55,0.44A200.6,200.6,0,0,1,264,430.78Z"/>
      <path class="cls-1" d="M310.08,483.15l8-2.83c5.24-1.85,10.52-3.58,15.68-5.68,3.74-1.52,7.63-2.68,11.43-4.06,5.08-1.84,10.14-3.76,15.22-5.61,3.66-1.33,7.36-2.57,11-3.92s7.42-2.84,11.14-4.24c2.83-1.07,5.68-2.09,8.52-3.16,1.07-.4,1.47-0.05,1.46,1.05,0,3.08,0,6.15,0,9.23,0,2-1.81,2-2.9,2.42a140.77,140.77,0,0,1-13.72,4.75c-5,1.37-10,2.82-15.1,4.1-6.4,1.62-12.88,2.89-19.32,4.28a151.4,151.4,0,0,1-18.34,2.78c-3.49.31-6.88,1.35-10.41,1.33A3.86,3.86,0,0,1,310.08,483.15Z"/>
      <path class="cls-1" d="M308.23,485.61c-2.9.41-5.68-.12-8.39,0.49a0.56,0.56,0,0,1-.7-0.36c-0.15-.48.23-0.64,0.58-0.71C302.53,484.52,305.35,483.57,308.23,485.61Z"/>
      <path class="cls-1" d="M394.13,219.84c0,7.5.19,15,0,22.5a29.7,29.7,0,0,1-1.16,8.76c0.61-8.75,1.06-17.5.92-26.27C393.82,223.17,393.51,221.47,394.13,219.84Z"/>
      <path class="cls-1" d="M395.49,171.51q0,9.19,0,18.39a1.61,1.61,0,0,1-.41,1.41q0-9.18.07-18.36A1.93,1.93,0,0,1,395.49,171.51Z"/>
      <path class="cls-1" d="M395.07,192.18q0,6,0,12c0,0.81,0,1.63-.81,2.1A131.66,131.66,0,0,1,395.07,192.18Z"/>
      <path class="cls-1" d="M392.83,256.33c0,2.08.07,4.17,0,6.25a2.33,2.33,0,0,1-.9,2.07Z"/>
      <path class="cls-1" d="M360.88,419.31c-5.67.7-11.18,2.14-16.83,3-5,.72-10,1.74-15,2.51-5.81.89-11.72,1.22-17.45,2.31-5.92,1.12-12,.32-17.8,1.91a4.68,4.68,0,0,1-1.09.08c-6.29.16-12.58,0.28-18.86,0.51-4.37.16-8.74,0.52-13.11,0.72a42.12,42.12,0,0,1-7-.25,137.09,137.09,0,0,0-16.4-.9,151.84,151.84,0,0,1-22-2.1,3.86,3.86,0,0,0-.65-0.08c-6.08.16-11.94-1.38-17.88-2.34-3.64-.59-7.36-0.86-10.94-1.7-3.14-.74-6.51-0.65-8.73-1.89,1.54-1.87,3.05-4,4.87-5.89a95.4,95.4,0,0,0,15.69-20.33,73.89,73.89,0,0,0,5.41-12.69,65.2,65.2,0,0,0,3.41-22.27c-0.12-5,.31-10.11-0.25-15.09a72.53,72.53,0,0,0-1.82-11.36c-0.65-2.35,0-5-1.24-7.26-0.33-.59.28-0.7,0.72-0.72a14.05,14.05,0,0,1,2.2,0c19,2.41,38.16,1.29,57.22,1a196.78,196.78,0,0,0,29.87-2.21,16.77,16.77,0,0,1,2.63-.14,182.68,182.68,0,0,0,18.29-1.58c5.32-.58,10.75-0.61,16-1.92,1.57-.39,2.1,0,1.39,2a50.75,50.75,0,0,0-2.12,7.49c-0.54,2.85-.84,5.72-1.29,8.58a77.68,77.68,0,0,0,.06,24.62c0.48,3,.61,6.07,1.46,9,0.7,2.41,1.46,4.85,2.05,7.25a78.61,78.61,0,0,0,4.14,11.12,53.53,53.53,0,0,0,6,10.52,67.76,67.76,0,0,0,8,9.54A60.49,60.49,0,0,0,359.7,418,1.82,1.82,0,0,1,360.88,419.31Z"/>
    </g>
  </g>
</svg>
