<svg id="Preview" xmlns="http://www.w3.org/2000/svg" viewBox="0 0 479.44 83.06">
  <title>hoodies</title>
  <g id="Inverse">
    <g id="text2985">
      <path id="path3017" d="M16.61,0V8.31H49.84v8.31H16.61V58.15H49.84v8.31H16.61V58.15H8.31V16.61H0V66.45H8.31v8.31h8.31v8.31H66.45V66.45H74.6v8.31h8.31v8.31h41.53V74.76H140.9v8.31h24.92V58.15h16.61V74.76h8.31v8.31h24.92V74.76h7.79v8.31h24.92V58.15H265V49.84h8.31V41.53h8.31V16.61h-8.31V8.31H265V0H223.44V8.31h33.23v8.31H265V33.23h-8.31v8.31H231.75V66.45h-8.31V8.31H207.35V0H190.74V8.31H199V66.45h-8.31V24.92h-8.31v8.31h-8.31v8.31h-8.31V33.23h-8.31V24.92H149.2V66.45H140.9V8.31h-8.31v8.31h-8.15V8.31h-8.31V0H82.91V8.31h24.92v8.31h8.31V58.15h-8.31v8.31H82.91V58.15H74.6V16.61H66.45V8.31H58.15V0H16.61Zm58,16.61h8.31V8.31H74.6v8.31Zm8.31,0V58.15h24.92V16.61H82.91Zm58-8.31h8.31v8.31h8.31v8.31h8.31v8.31h8.31V24.92h8.31V16.61H165.82V8.31h-8.31V0H140.9V8.31Zm41.53,8.31h8.31V8.31h-8.31v8.31Zm74.24,16.61V16.61H231.75V33.23h24.92ZM8.31,16.61h8.31V8.31H8.31v8.31Z" style="fill: #fff"/>
    </g>
    <g id="text2995">
      <path id="path3008" d="M297.89,0V8.31h33.23v8.31H297.89V33.23h24.92v8.31h8.31V58.15h-8.31v8.31H289.58V58.15h-8.31V74.76h8.31v8.31h49.84V74.76h8.31V66.45h7.94v8.31H364v8.31h41.53V74.76h8.31V66.45h7.48v8.31h8.31v8.31h49.84V58.15h-8.31V49.84H454.52V33.23h24.92V8.31h-8.31V0H429.6V8.31h33.23v8.31H429.6V58.15h33.23v8.31H429.6V58.15h-8.31V16.61H405.51V8.31H397.2V0H364V8.31H388.9v8.31h8.31V58.15H388.9v8.31H364V58.15h-8.31V16.61h-7.94V8.31h-8.31V0H297.89Zm57.78,16.61H364V8.31h-8.31v8.31Zm8.31,0V58.15H388.9V16.61H364Zm57.31,0h8.31V8.31h-8.31v8.31ZM289.58,58.15h33.23V41.53H297.89V33.23h-8.31V16.61h-8.31V41.53h8.31V58.15Zm0-41.53h8.31V8.31h-8.31v8.31Z" style="fill: #ce0e00"/>
    </g>
  </g>
  <g id="Mono">
    <g>
      <rect x="289.58" y="16.61" width="8.31" height="16.61" style="fill: #fff"/>
      <rect x="256.67" y="16.61" width="8.31" height="16.61" style="fill: #fff"/>
      <rect x="297.89" y="33.23" width="24.92" height="8.31" style="fill: #fff"/>
      <polygon points="231.75 66.45 231.75 41.53 256.67 41.53 256.67 33.23 231.75 33.23 231.75 16.61 256.67 16.61 256.67 8.31 223.44 8.31 223.44 66.45 231.75 66.45" style="fill: #fff"/>
      <rect x="157.51" y="24.92" width="8.31" height="8.31" style="fill: #fff"/>
      <rect x="165.82" y="33.23" width="8.31" height="8.31" style="fill: #fff"/>
      <polygon points="190.74 24.92 190.74 66.45 199.04 66.45 199.04 8.31 190.74 8.31 190.74 16.61 182.43 16.61 182.43 24.92 190.74 24.92" style="fill: #fff"/>
      <rect x="322.81" y="41.53" width="8.31" height="16.61" style="fill: #fff"/>
      <rect x="429.6" y="58.15" width="33.23" height="8.31" style="fill: #fff"/>
      <rect x="421.29" y="16.61" width="8.31" height="41.53" style="fill: #fff"/>
      <rect x="429.6" y="8.31" width="33.23" height="8.31" style="fill: #fff"/>
      <rect x="297.89" y="8.31" width="33.23" height="8.31" style="fill: #fff"/>
      <rect x="388.9" y="16.61" width="8.31" height="41.53" style="fill: #fff"/>
      <rect x="355.67" y="16.61" width="8.31" height="41.53" style="fill: #fff"/>
      <rect x="363.98" y="58.15" width="24.92" height="8.31" style="fill: #fff"/>
      <rect x="363.98" y="8.31" width="24.92" height="8.31" style="fill: #fff"/>
      <rect x="174.12" y="24.92" width="8.31" height="8.31" style="fill: #fff"/>
      <rect x="74.6" y="16.61" width="8.31" height="41.53" style="fill: #fff"/>
      <rect x="16.61" y="8.31" width="33.23" height="8.31" style="fill: #fff"/>
      <rect x="82.91" y="8.31" width="24.92" height="8.31" style="fill: #fff"/>
      <rect x="16.61" y="58.15" width="33.23" height="8.31" style="fill: #fff"/>
      <rect x="8.31" y="16.61" width="8.31" height="41.53" style="fill: #fff"/>
      <rect x="82.91" y="58.15" width="24.92" height="8.31" style="fill: #fff"/>
      <polygon points="149.21 66.45 149.21 24.92 157.51 24.92 157.51 16.61 149.21 16.61 149.21 8.31 140.9 8.31 140.9 66.45 149.21 66.45" style="fill: #fff"/>
      <rect x="107.83" y="16.61" width="8.31" height="41.53" style="fill: #fff"/>
      <rect x="289.58" y="58.15" width="33.23" height="8.31" style="fill: #fff"/>
    </g>
    <g id="layer1">
      <g id="text2985-2" data-name="text2985">
        <path id="path3017-2" data-name="path3017" d="M16.61,0V8.31H49.84v8.31H16.61V58.15H49.84v8.31H16.61V58.15H8.31V16.61H0V66.45H8.31v8.31h8.31v8.31H66.45V66.45H74.6v8.31h8.31v8.31h41.53V74.76H140.9v8.31h24.92V58.15h16.61V74.76h8.31v8.31h24.92V74.76h7.79v8.31h24.92V58.15H265V49.84h8.31V41.53h8.31V16.61h-8.31V8.31H265V0H223.44V8.31h33.23v8.31H265V33.23h-8.31v8.31H231.75V66.45h-8.31V8.31H207.35V0H190.74V8.31H199V66.45h-8.31V24.92h-8.31v8.31h-8.31v8.31h-8.31V33.23h-8.31V24.92H149.2V66.45H140.9V8.31h-8.31v8.31h-8.15V8.31h-8.31V0H82.91V8.31h24.92v8.31h8.31V58.15h-8.31v8.31H82.91V58.15H74.6V16.61H66.45V8.31H58.15V0H16.61Zm58,16.61h8.31V8.31H74.6v8.31Zm8.31,0V58.15h24.92V16.61H82.91Zm58-8.31h8.31v8.31h8.31v8.31h8.31v8.31h8.31V24.92h8.31V16.61H165.82V8.31h-8.31V0H140.9V8.31Zm41.53,8.31h8.31V8.31h-8.31v8.31Zm74.24,16.61V16.61H231.75V33.23h24.92ZM8.31,16.61h8.31V8.31H8.31v8.31Z"/>
      </g>
      <g id="text2995-2" data-name="text2995">
        <path id="path3008-2" data-name="path3008" d="M297.89,0V8.31h33.23v8.31H297.89V33.23h24.92v8.31h8.31V58.15h-8.31v8.31H289.58V58.15h-8.31V74.76h8.31v8.31h49.84V74.76h8.31V66.45h7.94v8.31H364v8.31h41.53V74.76h8.31V66.45h7.48v8.31h8.31v8.31h49.84V58.15h-8.31V49.84H454.52V33.23h24.92V8.31h-8.31V0H429.6V8.31h33.23v8.31H429.6V58.15h33.23v8.31H429.6V58.15h-8.31V16.61H405.51V8.31H397.2V0H364V8.31H388.9v8.31h8.31V58.15H388.9v8.31H364V58.15h-8.31V16.61h-7.94V8.31h-8.31V0H297.89Zm57.78,16.61H364V8.31h-8.31v8.31Zm8.31,0V58.15H388.9V16.61H364Zm57.31,0h8.31V8.31h-8.31v8.31ZM289.58,58.15h33.23V41.53H297.89V33.23h-8.31V16.61h-8.31V41.53h8.31V58.15Zm0-41.53h8.31V8.31h-8.31v8.31Z"/>
      </g>
    </g>
  </g>
  <g id="Regular">
    <g id="text2985-3" data-name="text2985">
      <path id="path3017-3" data-name="path3017" d="M16.61,0V8.31H49.84v8.31H16.61V58.15H49.84v8.31H16.61V58.15H8.31V16.61H0V66.45H8.31v8.31h8.31v8.31H66.45V66.45H74.6v8.31h8.31v8.31h41.53V74.76H140.9v8.31h24.92V58.15h16.61V74.76h8.31v8.31h24.92V74.76h7.79v8.31h24.92V58.15H265V49.84h8.31V41.53h8.31V16.61h-8.31V8.31H265V0H223.44V8.31h33.23v8.31H265V33.23h-8.31v8.31H231.75V66.45h-8.31V8.31H207.35V0H190.74V8.31H199V66.45h-8.31V24.92h-8.31v8.31h-8.31v8.31h-8.31V33.23h-8.31V24.92H149.2V66.45H140.9V8.31h-8.31v8.31h-8.15V8.31h-8.31V0H82.91V8.31h24.92v8.31h8.31V58.15h-8.31v8.31H82.91V58.15H74.6V16.61H66.45V8.31H58.15V0H16.61Zm58,16.61h8.31V8.31H74.6v8.31Zm8.31,0V58.15h24.92V16.61H82.91Zm58-8.31h8.31v8.31h8.31v8.31h8.31v8.31h8.31V24.92h8.31V16.61H165.82V8.31h-8.31V0H140.9V8.31Zm41.53,8.31h8.31V8.31h-8.31v8.31Zm74.24,16.61V16.61H231.75V33.23h24.92ZM8.31,16.61h8.31V8.31H8.31v8.31Z"/>
    </g>
    <g id="text2995-3" data-name="text2995">
      <path id="path3008-3" data-name="path3008" d="M297.89,0V8.31h33.23v8.31H297.89V33.23h24.92v8.31h8.31V58.15h-8.31v8.31H289.58V58.15h-8.31V74.76h8.31v8.31h49.84V74.76h8.31V66.45h7.94v8.31H364v8.31h41.53V74.76h8.31V66.45h7.48v8.31h8.31v8.31h49.84V58.15h-8.31V49.84H454.52V33.23h24.92V8.31h-8.31V0H429.6V8.31h33.23v8.31H429.6V58.15h33.23v8.31H429.6V58.15h-8.31V16.61H405.51V8.31H397.2V0H364V8.31H388.9v8.31h8.31V58.15H388.9v8.31H364V58.15h-8.31V16.61h-7.94V8.31h-8.31V0H297.89Zm57.78,16.61H364V8.31h-8.31v8.31Zm8.31,0V58.15H388.9V16.61H364Zm57.31,0h8.31V8.31h-8.31v8.31ZM289.58,58.15h33.23V41.53H297.89V33.23h-8.31V16.61h-8.31V41.53h8.31V58.15Zm0-41.53h8.31V8.31h-8.31v8.31Z" style="fill: #ce0e00"/>
    </g>
  </g>
</svg>
