<svg id="himg-zoodie" xmlns="http://www.w3.org/2000/svg" viewBox="0 0 550 550">
  <defs>
    <style>
      .cls-1 {
        fill: red;
        stroke: #000;
        stroke-miterlimit: 10;
        stroke-width: 3px;
      }
    </style>
  </defs>
  <title>hoodies</title>
  <g id="LBUi6e.tif">
    <g>
      <path class="cls-1" d="M122.44,409.06a1.87,1.87,0,0,0-.56-1.22c-1.63-3.84-4.67-6.46-7.85-8.93a6.56,6.56,0,0,1-1.47-1.28c-7-6.16-14.92-11.17-22.43-16.68-7.07-5.19-14-10.56-19.8-17.13-5.29-6-10.23-12.32-12.15-20.38-1-4.05-2-8.05-1.91-12.31,0.16-5.65-.2-11.34,1.18-16.89,0.68-2.72-.62-4.83-1.66-7.06-1.79-3.85-4-7.47-5.73-11.39A26.08,26.08,0,0,1,47.84,281c1.7-10.08,1.53-20.19,1.34-30.3-0.12-6.11.12-12.22-.23-18.31-0.2-3.42,1.19-6,3.2-8.37a54,54,0,0,1,6.8-6.59c2-1.68,4-3.42,5-6a7.42,7.42,0,0,0,.51-2.79q-0.15-14.9-.22-29.8c0-3.3-.51-6.62,0-9.9,0.66-4.65,3.28-8.44,5.77-12.25,1.93-2.94,4.13-5.7,6-8.66a37,37,0,0,0,5.77-15.94,178.57,178.57,0,0,1,3.81-22.52c1.14-4.65,2.08-9.45,4.27-13.81a12.77,12.77,0,0,1,1.92-5.29c2.15-3.82,4.1-7.75,6.81-11.27a53.62,53.62,0,0,1,15.67-13.66c6.74-3.95,14.07-6.55,21.18-9.65a77.33,77.33,0,0,0,18.19-11c1.13-.92,1.63-1.87.9-3.42a19.27,19.27,0,0,1-1.71-7C152.3,26.8,156.47,22,162.4,18.31,171.14,12.94,181,11,191,9.32c5.49-.92,11-1.43,16.59-1.93,15.53-1.39,31.1-1.45,46.67-1.93,10.82-.34,21.59.33,32.38,0.87,2.35,0.12,4.71,0,7.07,0,8.87,0.34,17.72,1.08,26.57,1.8,7.39,0.6,14.77,1.19,22.14,2a63.88,63.88,0,0,1,24.47,7.46,45.74,45.74,0,0,1,19.76,20.9,62.27,62.27,0,0,1,5.11,17.19c0.32,2.09,1.34,3,3.3,3.8a104.45,104.45,0,0,1,13.9,7.07,118.22,118.22,0,0,1,22.2,17.29,89.57,89.57,0,0,1,15.55,19.9c1.8,3.24,2.59,6.87,3.66,10.36,1.36,4.41,2.82,8.79,4.11,13.22,1.82,6.26,3.92,12.44,5.83,18.68,1.58,5.18,3.34,10.31,5,15.49,1.89,6.08,3.83,12.14,5.71,18.22q2,6.5,4.12,13c1.89,5.78,3.6,11.62,5.5,17.4,1.48,4.52,2.92,9.06,4.37,13.58,1.39,4.31,2.77,8.63,4,13,0.36,1.28,1,2.44,1.27,3.74,1.27,3.82,2.34,7.71,3.85,11.45a105.54,105.54,0,0,1,4.44,13.78A156.71,156.71,0,0,1,501.79,284c0.68,5.29.55,10.69,0.67,16.05A116.26,116.26,0,0,1,500.93,322a80.2,80.2,0,0,1-7.36,22.93q-4.79,9.52-9.89,18.88c-3.84,7-8.25,13.69-12.38,20.53-3.49,5.78-7.33,11.33-11.33,16.77-3.18,4.4-5.86,9.2-9.52,13.19-3.8,4.14-5,8.58-5,14.16,0.14,11.75-1.1,23.48-1.26,35.24-0.1,7.11-.35,14.24-1,21.34a2.15,2.15,0,0,1-.14,1.08c-2.89,3.83-2.41,8.65-3.81,12.92a48.19,48.19,0,0,1-10.87,18.43c-6.55,6.89-14.5,11.65-23.14,15.39A139.84,139.84,0,0,1,386.67,539c-8.36,2.3-16.92,3.45-25.43,4.86a52.08,52.08,0,0,1-8.81.28c-6.18,0-12.38-.2-18.55,0-4.4.17-8.79-.14-13.18,0-31.2.63-62.41,0.39-93.61,0.43a63.24,63.24,0,0,1-13.28-1.7c-2.21-.47-4.47-0.8-6.68-1.33a24.37,24.37,0,0,1-5.24-1.34c-9.47-2.6-18.94-5.19-28.59-7-5.61-1.06-11.26-1.94-16.91-2.79-4.77-.72-9.56-1.46-14.05-3.48-3.48-1.56-5.21-4.4-6.23-7.79-1.62-5.41-.55-10.73.88-16,0.63-2.33.61-4.24-1.67-6A28.23,28.23,0,0,1,125.24,482a26.77,26.77,0,0,1-.23-4q0-28.2,0-56.4A30.28,30.28,0,0,0,122.44,409.06Z"/>
      <path class="cls-1" d="M490,240.36c-1.48-1.6-1.51-3.79-2.11-5.69-2.39-7.49-4.71-15-7.16-22.47-1.9-5.81-3.5-11.73-5.35-17.56-2.2-6.93-4.56-13.82-6.79-20.74-1.34-4.16-2.54-8.36-3.85-12.53-1.48-4.72-3-9.43-4.52-14.15-1.34-4.16-2.56-8.36-3.9-12.53-2-6.1-3.81-12.24-5.8-18.33-1.15-3.53-2-7.21-3.41-10.61-2.33-5.5-6.06-10.16-9.88-14.71A114,114,0,0,0,411,68.37a88.08,88.08,0,0,0-17.48-9c-1.9-.69-2.24-2.6-2.48-4.38-1.54-11.35-5.9-21.29-14.23-29.4-6-5.86-13.13-9.54-21.05-12.12-7.42-2.41-15-3.06-22.7-3.83-13.08-1.31-26.19-2-39.28-3.12a0.25,0.25,0,0,1-.14-0.31,0.21,0.21,0,0,1,.15-0.15c4.62,0,9.23-.18,13.84.73,3.3,0.65,6.74.2,10.12,0.54,8.69,0.89,17.42,1.34,26.08,2.45a74,74,0,0,1,12.76,3,54.09,54.09,0,0,1,17,8.76,46.73,46.73,0,0,1,13.15,16.23A49.72,49.72,0,0,1,392,54.44c0.47,4.05,3,4.56,5.53,5.68a113.48,113.48,0,0,1,32.47,22.12c6.79,6.54,12.9,13.6,17.39,21.94,1.63,3,2.25,6.46,3.31,9.71s2.09,6.34,3.1,9.53,1.9,6.25,2.89,9.37c1.08,3.4,2.23,6.78,3.3,10.18,1.37,4.37,2.66,8.76,4,13.13,0.94,3.05,1.93,6.1,2.89,9.15,1.09,3.47,2.15,6.94,3.27,10.4,1,3.11,2.09,6.19,3.07,9.31,1.39,4.44,2.69,8.91,4.07,13.36s2.75,8.74,4.13,13.11c1,3.19,2,6.37,3.05,9.55,1.5,4.62,3,9.22,4.52,13.85a30.32,30.32,0,0,1,.67,3.23C489.94,238.8,490.61,239.47,490,240.36Z"/>
      <path class="cls-1" d="M90.13,95.83c-1.5,3.63-2.28,7.48-3.44,11.21-1.63,5.25-2,10.74-3.35,16a54.27,54.27,0,0,0-1,8c-0.81,8.42-4.47,15.41-9.42,22a52.28,52.28,0,0,0-7.58,12.76c-1.17,3.12-1.09,6.54-.74,9.82,0.29,2.8.25,5.58,0.27,8.37,0.06,8-.07,15.91.11,23.86,0.1,4.59-2.73,7.24-5.75,9.82-3.52,3-6.93,6.06-9.22,10.2a5.64,5.64,0,0,0-.6,2.95q0,18.89.11,37.78a56.18,56.18,0,0,1-1,8.71,33.37,33.37,0,0,0,.32,13.27c1.38,5.54,4,10.48,6.84,15.26,2.55,4.3,2.34,8.56,1.52,13.08a52.57,52.57,0,0,0-.11,18.23,48.54,48.54,0,0,0,11,23.33c6.43,7.7,14.12,13.82,22,19.81,7.63,5.8,15.9,10.74,23,17.29a0.54,0.54,0,0,1-.82,0c-10.94-8.75-23-16-33.58-25.22-7.44-6.42-14-13.63-18.57-22.4a43.43,43.43,0,0,1-2.82-8.47c-2.07-7.48-1-15-1.07-22.56a6.46,6.46,0,0,1,.31-2.61c1.92-4.32-.28-7.82-2.23-11.3-2.51-4.47-4.92-9-6.25-13.94a21.42,21.42,0,0,1-.71-9.2c2.91-16.3,1.18-32.69,1.21-49a14.49,14.49,0,0,1,4.08-10c2.63-3,5.82-5.39,8.67-8.17A8.68,8.68,0,0,0,64,207.77c-0.43-11.84-.3-23.7-0.5-35.54-0.09-5.63,2.49-10.13,5.33-14.6,2.67-4.2,5.93-8,8.32-12.39a34.49,34.49,0,0,0,4.2-12.81,224.54,224.54,0,0,1,4-23.88c0.9-4.12,2.4-8.11,3.65-12.15a2.13,2.13,0,0,1,.58-0.63A0.31,0.31,0,0,1,90.13,95.83Z"/>
      <path class="cls-1" d="M206.79,541.21c2.63-.3,5.1.71,7.56,1.27a77.85,77.85,0,0,0,17.53,1.45c22.9-.05,45.81,0,68.71-0.16,7.43-.06,14.86-0.2,22.3-0.21,9.56,0,19.12-.11,28.67,0a102.47,102.47,0,0,0,20.55-2.13c5-1,10.17-1.56,15.09-3a126,126,0,0,0,19-6.59,85.22,85.22,0,0,0,13.9-7.84c7.52-5.39,13.44-12.1,17-20.79a54.12,54.12,0,0,0,3.42-13.07,2.46,2.46,0,0,1,.4-1.23c2-2.28,2.1-5.07,2.13-7.87,0.12-11.33,1.15-22.62,1.17-34,0-8.59,1.08-17.17,1.12-25.78a2.77,2.77,0,0,1,.52-1.86c4.73-5.88,9.21-11.94,13.4-18.23a3.17,3.17,0,0,1,.67-0.57,0.64,0.64,0,0,1,0,.93c-3.78,5.37-7.25,11-11.61,15.93a10,10,0,0,0-2.55,7,218.75,218.75,0,0,1-.49,22.26c-0.82,9.17-.67,18.35-0.91,27.53-0.1,3.66-.54,7.31-0.83,11a2,2,0,0,1-.14.86c-3.63,5.89-2.95,13.14-6.16,19.2A56.36,56.36,0,0,1,424.14,522a74.55,74.55,0,0,1-20.52,12A105.8,105.8,0,0,1,387,539.27c-1.59.37-3,1.52-4.78,1.13a35.12,35.12,0,0,1-6.66,1.27l-0.84.07c-2.12,1-4.42,1-6.66,1.28h0c-1.63,1.08-3.58.3-5.3,0.89h-0.43a49,49,0,0,1-6.54.56c-9.33.13-18.67,0.51-28,.42-14.34-.14-28.69-0.24-43-0.06-19.13.24-38.26,0-57.38,0.19-3.42,0-6.68-.78-10-1.11l-0.42,0c-1.15-.4-2.43-0.27-3.52-0.9h0c-2.1-.29-4.24-0.37-6.21-1.28l-0.4-.05Q206.39,541.44,206.79,541.21Z"/>
      <path class="cls-1" d="M90.13,95.83l-0.56,0c0.83-4.64,3.36-8.53,5.7-12.46,6.22-10.47,15.41-17.42,26.55-22,6.12-2.54,12.19-5.2,18.17-8a69.05,69.05,0,0,0,13.57-8.82c1.67-1.34.56-2.88,0.1-4.23-3-8.89-.69-15.48,6.24-20.77,4.84-3.7,10.51-5.75,16.29-7.37,10.2-2.86,20.64-4.22,31.19-5.16a175.78,175.78,0,0,1,17.83-.83c4.54-.3,9.09-0.33,13.63-0.56C248,5.06,257.08,4.83,266.19,5c6.75,0.16,13.49.46,20.22,1l7.41,0V6.56c-10.08.12-20.13-.48-30.2-0.73-8.36-.21-16.74.4-25.12,0.6-4.34.1-8.69,0-13,.16-8.5.36-17,1-25.45,2-4,.44-8,0.93-12,1.67a111.41,111.41,0,0,0-13,3.11,76.19,76.19,0,0,0-12.25,5.13,17.27,17.27,0,0,0-9.46,18.43,12.61,12.61,0,0,0,1.58,4.51c0.88,1.44.46,2.31-.56,3.24a56,56,0,0,1-13.08,8.82c-7.36,3.65-15.18,6.36-22.54,10-8.4,4.1-15.81,9.75-21.11,17.74a82.06,82.06,0,0,0-7.31,13.37A5.39,5.39,0,0,0,90.13,95.83Z"/>
      <path class="cls-1" d="M460,401.62l0-.93c7.51-10.73,14.49-21.8,21.08-33.12a239.89,239.89,0,0,0,14.82-29c3-7.31,4.48-15,5.39-23a154.78,154.78,0,0,0,.82-18.47,144.1,144.1,0,0,0-3.17-27.49c-1.57-7.93-4.42-15.4-7.14-23-0.73-2-1.75-4.06-1.75-6.32l-0.39-2.3c1.51,1.21,1.39,3.22,1.85,4.75,1.78,5.91,4.4,11.52,6.08,17.44,1.15,4,1.89,8.23,2.86,12.32,0.86,3.63.75,7.37,1.86,11,0.78,2.52.48,5.39,0.49,8.11,0,7.65.66,15.35-.48,22.92-0.54,3.57-.32,7.28-1.79,10.77a27.55,27.55,0,0,0-1.16,5.32c-1,5.22-3.29,9.95-5.57,14.63q-5.67,11.65-12,23c-2.94,5.29-6.34,10.33-9.59,15.44A189.67,189.67,0,0,1,460,401.62Z"/>
      <path class="cls-1" d="M125.49,482.44c1.36,0.88,1,2.52,1.65,3.73a35.51,35.51,0,0,0,8.32,10.63c2.86,2.41,2.61,3.9,1.64,7.53-1.62,6-2.26,12.22.8,18.13,1.59,3.06,4.56,4.28,7.57,5.18a96.56,96.56,0,0,0,14,2.66c5.87,0.84,11.69,2,17.5,3.19,4.3,0.86,8.62,1.72,12.81,3,4,1.19,8.32,1.56,12.14,3.51-2.08.81-3.77-1-5.74-.88l-11.44-2.89c-5-1.28-10.13-2.33-15.24-3.3-8.35-1.57-16.9-2.07-25-4.68-4.82-1.55-7.62-4.75-8.93-9.83-1.44-5.6-.1-10.69,1.28-15.93,0.46-1.76.45-3.27-1.36-4.64a32.93,32.93,0,0,1-9-11,3.33,3.33,0,0,1-.57-2.09C125.52,484,124.86,483.33,125.49,482.44Z"/>
      <path class="cls-1" d="M217.35,543.93c12.08,1.5,24.21.68,36.32,0.82,8,0.09,16,.23,24.06,0,14.92-.52,29.85-0.24,44.77-0.34,10.49-.07,21,0,31.47,0,2.79,0,5.54-.75,8.35-0.41a26.4,26.4,0,0,1-6.68.85c-43.23.78-86.47,0.31-129.7,0.49A31.84,31.84,0,0,1,217.35,543.93Z"/>
      <path class="cls-1" d="M125.49,482.44c-0.25.82,0.45,1.49,0.39,2.28-1.6-1.83-1.28-4.13-1.3-6.23-0.1-12.26-.06-24.53-0.06-36.79,0-6.1-.06-12.19,0-18.29a34.46,34.46,0,0,0-1.91-12.86,6.4,6.4,0,0,1-.19-1.5c2.45,3,2.82,6.71,2.85,10.31,0.11,19.12,0,38.23.06,57.35C125.34,478.62,125.44,480.53,125.49,482.44Z"/>
      <path class="cls-1" d="M286.41,6.06c-6.17.11-12.3-.52-18.45-0.71-5.79-.18-11.61-0.5-17.4.23a4.22,4.22,0,0,1-.66.07c-8.23-.28-16.45.83-24.68,0.42,3.16-.75,6.41-0.53,9.6-0.72,12.6-.75,25.23-0.73,37.85-0.39C277.24,5.07,281.91,4.8,286.41,6.06Z"/>
      <path class="cls-1" d="M112.21,397.64l0.82,0a35.21,35.21,0,0,1,8.12,7.8,2.8,2.8,0,0,1,.73,2.38A55.69,55.69,0,0,0,112.21,397.64Z"/>
      <path class="cls-1" d="M196.16,539.06c2-.54,3.73,1.25,5.74.88,1.75,0,3.27.82,4.9,1.27q0,0.23,0,.45c-2.87.38-5.29-1.36-8-1.73A4.16,4.16,0,0,1,196.16,539.06Z"/>
      <path class="cls-1" d="M375.56,541.67c2.23-.39,4.35-1.31,6.66-1.27A11.57,11.57,0,0,1,375.56,541.67Z"/>
      <path class="cls-1" d="M368.06,543l6.66-1.28C372.7,543.23,370.35,543,368.06,543Z"/>
      <path class="cls-1" d="M207.19,541.72L213.4,543C211.24,543,209.05,543.16,207.19,541.72Z"/>
      <path class="cls-1" d="M362.76,543.92a25.66,25.66,0,0,1,5.3-.89C366.53,544.73,364.53,543.63,362.76,543.92Z"/>
      <path class="cls-1" d="M213.41,543a7.27,7.27,0,0,1,3.52.9C215.68,543.92,214.36,544.18,213.41,543Z"/>
      <path class="cls-1" d="M277.19,133.61c2.19-4.27,5.21-8,8.14-11.7A157.18,157.18,0,0,1,315,93.07c1.1-.82,2.36-2.37,3.46-1.9,1.36,0.58.56,2.51,0.49,3.81-0.64,11.46.72,22.81,2.46,34.06,1.33,8.61,3.17,17.17,5.32,25.65,1,4,1.47,8.05,2.08,12.1,0.43,2.82,1.87,5.29,2.32,8.16,1.18,7.62,2.74,15.19,3.13,22.92,0.14,2.72.08,5.45,0.21,8.17a2.86,2.86,0,0,1-2,3.05,6.47,6.47,0,0,0-3.94,6.13,6.15,6.15,0,0,0,4,5.87c1.68,0.68,1.83,1.65,1.82,3,0,2.72-.07,5.45-0.11,8.17,0,0.59,0,1.18,0,1.77,0,1,.07,2.11,1.35,2.14s1.42-1.07,1.44-2.06c0.05-2.58.16-5.16,0.07-7.73s0.28-4.43,2.62-6.18c4.36-3.26,3.31-8.51-.73-11a2.56,2.56,0,0,1-1.43-2.49,126.38,126.38,0,0,0-.92-15.64c-0.56-6.2-2-12.32-2.9-18.48-0.37-2.43-.29-5-1-7.36-0.15-.49-0.28-1-0.43-1.48-1.43-3.55-2.05-7.3-2.92-11-1-4.13-1.91-8.27-2.73-12.44-1.29-6.54-2.4-13.11-3.3-19.73a150.32,150.32,0,0,1-1.24-19.31c0-4.11,0-8.22.25-12.33,0.1-1.63,1.5-2.17,2.56-2.79A209.94,209.94,0,0,1,346.6,74.54a188.62,188.62,0,0,1,18-6.95c6.36-2.07,12.84-3.66,19.27-5.44a15.68,15.68,0,0,1,12.12,1c4.54,2.39,9.23,4.51,13.53,7.31a121.66,121.66,0,0,1,18.19,14.26,4.48,4.48,0,0,1,1.3,3.16c0.33,5.65.57,11.31,0.6,17,0.06,9.27.46,18.54,0.26,27.82-0.17,7.86-.16,15.73-0.86,23.57-0.81,9.13-1.8,18.24-4,27.15s-5.39,17.66-11.34,25c-0.67.82-1.11,1.66-.19,2.51s1.75,0.22,2.42-.53a45.32,45.32,0,0,0,6.65-10.56,78.05,78.05,0,0,0,5.8-17c1.24-5.42,2-10.94,2.78-16.47,1-6.93,1.21-13.89,1.55-20.85,0.38-7.71.58-15.45,0.26-23.17-0.16-3.82-.11-7.64-0.26-11.47-0.25-6.46-.46-12.94-0.3-19.42a1.32,1.32,0,0,1,.22-0.87c0.8-.28,1.17.43,1.55,0.87,4,4.62,7.9,9.31,10.41,14.94,1.43,3.22,2.18,6.68,3.3,10,1.55,4.58,3,9.18,4.45,13.8q1.95,6.29,3.93,12.57c1.94,6.15,3.82,12.31,5.82,18.44,1.38,4.24,2.56,8.56,4,12.79,1.95,5.76,3.64,11.6,5.53,17.38,1.46,4.44,2.77,8.94,4.17,13.4s2.71,9,4.25,13.41a34.7,34.7,0,0,1,2.29,11.34c0,7-.07,14-0.69,20.93a60.55,60.55,0,0,1-4.89,19.73,35.52,35.52,0,0,1-11,13.53,14.3,14.3,0,0,0-1.21.95,1.63,1.63,0,0,0-.38,2.35c0.71,0.93,1.5.52,2.3,0a38.48,38.48,0,0,0,14.37-18.74c3.25-8.79,4.27-17.92,4.46-27.21,0-.88-0.27-2.27.77-2.38s0.88,1.35,1.12,2.13c1.43,4.78,3.16,9.45,4.89,14.13a91.41,91.41,0,0,1,5.59,23,20.84,20.84,0,0,0,.66,3.22c0.49,1.9-.17,3.18-1.64,4.41A51.62,51.62,0,0,1,482,293.63a63.79,63.79,0,0,1-9.67,3,4.74,4.74,0,0,0-1.24.44,1.45,1.45,0,0,0-.9,1.6,1.31,1.31,0,0,0,1.44,1.09,6.44,6.44,0,0,0,2.18-.22c8-2.27,15.76-5.08,22.63-9.94,2-1.38,2.19-1.27,2.48,1.12,0.92,7.63.43,15.25-.14,22.88-0.27,3.67-1,7.27-1.49,10.89-1.28,3.74-1.85,7.68-3.28,11.4-1.16,3-2.57,5.93-4,8.81q-3.37,6.9-7,13.66c-3.14,5.8-6.48,11.46-9.89,17.1-6.34,10.5-13.23,20.62-20.42,30.55a5.44,5.44,0,0,1-.66.88c-0.37.34-.61,1-1.17,0.89a1.54,1.54,0,0,1-.94-1.39c-0.82-3.88-1.14-7.83-1.78-11.74a54.34,54.34,0,0,0-1.43-6.88,137.86,137.86,0,0,0-5.55-15.93,94.56,94.56,0,0,0-14.09-22.2c-4.44-5.37-9.32-10.4-14.16-15.43-2-2.06-1.89-2.52.22-4.37a31.66,31.66,0,0,1,9.2-5.89c4.25-1.68,8.63-1.59,13-1.52,2.28,0,4.54.32,6.81,0.5,0.79,0.07,1.92.38,2.09-1s-0.7-1.69-1.72-1.89c-5.5-1.09-11-1.59-16.59-.43a28.51,28.51,0,0,0-12.82,6c-0.28.24-.59,0.43-0.89,0.65a2,2,0,0,1-3-.32c-0.94-1-.3-1.86.44-2.67A34.39,34.39,0,0,1,428,312.39a42.61,42.61,0,0,1,10.28-.92c0.81,0,1.62,0,2.43,0,1.06,0,2-.25,2-1.52s-0.95-1.57-2-1.58a69.06,69.06,0,0,0-8.17,0c-6.86.8-13.36,2.74-18.91,7.11a11.62,11.62,0,0,0-1.58,1.54c-1.67,1.45-3.24,3-4.79,4.55-1,1-1.88,1.27-2.86-.11-0.76-1.07-1.72-2-2.51-3.07-1.34-1.79-1.34-2.36.36-4.12,4.29-4.45,8.88-8.6,13.41-12.81s8.83-8.85,13.6-12.91c4.25-3.62,8.25-7.52,12.48-11.16,0.5-.43,1-0.92,1.41-1.4a1.15,1.15,0,0,0,.24-1.74,1.17,1.17,0,0,0-1.77,0c-2.35,1.78-4.43,3.86-6.6,5.83-2.82,2.57-5.57,5.23-8.56,7.62-0.63.5-1.34,1.15-2.16,0.64s-0.6-1.43-.55-2.24a47,47,0,0,1,3.77-14.62c2.22-5.5,4-11.17,5.69-16.86,2.34-7.73,3.92-15.63,5.61-23.49,0.71-3.32,1.32-6.74,1.74-10.17s1.14-6.94,1.49-10.45c0.54-5.47,2-10.83,2-16.36,0-2.29.68-4.5,0.9-6.77,0.9-9,1.47-18.13,2.54-27.16a41.51,41.51,0,0,0,.07-5.52c0-.72.06-1.6-1-1.62a1.24,1.24,0,0,0-1.28,1.46c0,1.11-.45,2.19-0.4,3.28,0.27,7.08-1,14.07-1.56,21.08-0.47,5.46-1,11-1.63,16.42-0.57,5-1.54,10-1.86,15.06a92.6,92.6,0,0,1-1.52,9.78c-0.65,3.76-1.19,7.54-2,11.26-1,4.59-1.95,9.17-3,13.74-1.16,4.92-2.61,9.76-4,14.61a93.51,93.51,0,0,1-5.22,14c-1.45,3-4.39,5.13-6.94,7.34s-4.57,4.59-7.24,6.46c-3.6,2.52-7.14,2.13-9.9-1.29-3-3.74-4.48-8.24-6.11-12.66a2,2,0,0,1-.13-1.09c1.27-5.87,1.42-11.91,2.57-17.8a3.88,3.88,0,0,0,1.18-4.76,6.3,6.3,0,0,1-.29-2.4q0-10.27,0-20.53a5.14,5.14,0,0,1,1.08-3.46c1.07-1.36,1-3.19,1.08-4.87,0.08-2.72.12-5.45,0-8.17a3.68,3.68,0,0,1,1.45-3.24,63.16,63.16,0,0,0,7.82-7.77A121.73,121.73,0,0,0,418,186.39a4.49,4.49,0,0,0,.54-1.21c0.36-1.38,1.27-2.94-.32-4-1.19-.8-4.1.26-4.89,1.56-3.19,5.21-6.39,10.41-10.92,14.62-0.94.87-1.86,2.4-3.26,1.74s-0.71-2.25-.72-3.45c0-4.56,0-9.13,0-13.69a4.66,4.66,0,0,1,1-3.49,2.77,2.77,0,0,0,.67-2.05,110.35,110.35,0,0,1,.5-12.33c0.28-3.5-.9-6.84-0.9-10.31,0-1.49,0-2.93,1.05-4.17a2.15,2.15,0,0,0,.45-1.88c-1.2-4.72-.36-9.53-0.61-14.28a4,4,0,0,1,.32-1.76c1.43-1.3,2.1-2.78,1.23-4.7a3.36,3.36,0,0,1-.15-1.3c0-1.09.93-2.68-1.39-2.58-3.27.14-3.93,1.11-3.61,3.16,0.58,3.82.17,7.62,0.39,11.42-0.06,1.15.19,2.34-.48,3.4a3.67,3.67,0,0,0-1.43,3.73c1,4.37.42,8.79,0.59,13.18,0.06,1.47,0,2.94,0,4.41a3.57,3.57,0,0,1-.25,1.95c-2.78,4.17-2,8.74-1.45,13.23a54.17,54.17,0,0,1,.38,6.81c0,5.74,0,11.47,0,17.21a6,6,0,0,1-.89,3.57,5.82,5.82,0,0,0-.81,3.6c0.32,10.22-.63,20.42-0.44,30.64a46.22,46.22,0,0,1-.36,8.47c-0.39,2.38.33,5.07,0.29,7.64,0,2.06.1,4.12-.09,6.17a2.39,2.39,0,0,1-.24.7,3.32,3.32,0,0,0-1.2,3.87,4,4,0,0,1-1.08,4.25,8.54,8.54,0,0,0-2,4.34,17,17,0,0,1-2,5.35c-1.45,2.2-.54,4.91-2.15,6.91a1.51,1.51,0,0,0,0,1.49,7.43,7.43,0,0,1,.32,4.36,11.65,11.65,0,0,0,.87,7.35c1.29,3.19,2.36,6.48,4.41,9.45,4.31,6.24,9.87,11.5,13.74,18.05,1.7,2.87,1.72,3.46-.77,5.68a52.4,52.4,0,0,0-10.48,13,2.62,2.62,0,0,1-3,1.3c-6.43-1.12-12.91-.73-19.37-0.79a13.09,13.09,0,0,0-2.2.09c-2.57.41-3.52,1.83-2.46,4.21,1.31,2.93,2.09,6.11,4.13,8.71,0.71,0.89.35,2.14,0.81,3.17q3.3,7.34,6.9,14.54c2.11,4.2,4.53,8.22,6.84,12.31,4.08,7.21,8.29,14.34,12.79,21.31,2.55,3.94,5.08,7.92,7.44,12,0.78,1.34,1.78,2.52,2.64,3.8,1.07,1.59,2.2,1.64,3.69.46,5.81-4.61,11.32-9.56,17-14.29,0.57-.48,1.21-1.11,1.94-0.87,1.94,0.61,3.77,0,5.65-.22a4.84,4.84,0,0,1,4.29,1.2,3.79,3.79,0,0,0,3.1.85c1.36-.08,2,0.86,1.22,1.77-2,2.41-1.4,5.07-1.28,7.76s0,5.15.07,7.73c-0.25,7.1.25,14.23-.49,21.29-0.61,5.85-.13,11.7-0.58,17.54a7.54,7.54,0,0,1-.08,1.24c-0.73,2.46-.22,5-0.35,7.46-0.07,1.4.06,2.8,0,4.2-0.17,2.34-.91,3.14-3.2,3.79-9,2.59-18.28,4.25-27.46,6.18-8.27,1.73-16.61,3.08-25,4.23s-16.43,2.16-24.69,2.92c-6.87.63-13.76,1-20.61,1.86-4.74.57-9.53,0.62-14.3,0.82-10.5.44-21,1.06-31.5,1.1-10.3,0-20.59-.41-30.89-0.36-1.61,0-2.15-.59-2.23-2.2-0.64-12.33-.78-24.68-1.4-37-0.63-12.55-.92-25.11-1.71-37.65-0.71-11.29-1.08-22.59-1.43-33.89-0.36-11.83-1.18-23.63-1.44-35.46-0.35-16-1.47-32-1.35-48.06,0.07-8.89-.49-17.8-0.31-26.7,0.19-9.35.13-18.7,0.13-28,0-13.31,1.12-26.59,1.35-39.89,0.14-8,1.26-16,1.51-23.95,0-1.21.38-1.89,1.65-2.15a6,6,0,0,0,3.26-2.16c1.68-2,2.11-4,.26-5.88-1.51-1.5-2.33-3.26-.77-5.3a1.57,1.57,0,0,0,.22-1.49c-1.47-3.31.22-6.22,1.34-9,1.37-3.43,2.64-6.91,4-10.33,1.72-4.22,3.95-8.16,6-12.2C273.57,139.29,275.41,136.47,277.19,133.61Z"/>
      <path class="cls-1" d="M305.7,96.63l-1.24,1a209.33,209.33,0,0,0-17.08,17.17c-3.77,4.41-7.12,9.14-10.68,13.71-0.34.44-.47,1.54-1.38,0.89-0.67-.48-0.23-1.21.07-1.79a149,149,0,0,1,17.16-27c1.77-2.17,3.66-4.21,5.49-6.32a124.83,124.83,0,0,1,18.51-15.91A181.81,181.81,0,0,1,339,65.46c6.09-3,12.31-5.8,18.26-9.12,2.1-1.17,4.24-2.3,6.4-3.38,6.27-3.79,11.86-8.33,15.93-14.54a9.67,9.67,0,0,1,.76-1.08c1-1.18,1.83-1.17,2.48.23,1.83,3.89,3.81,7.75,4.54,12,0.35,2.09,1.33,4,1.39,6.19,0,1.46-.14,2.17-1.83,2.55-6.27,1.43-12.58,2.8-18.69,4.79-4.44,1.44-8.94,2.77-13.24,4.63A183.31,183.31,0,0,0,329,80.2a191.65,191.65,0,0,0-21.33,14.64A9.73,9.73,0,0,0,305.7,96.63Z"/>
      <path class="cls-1" d="M203.2,74.4a2.41,2.41,0,0,1-1.94,0,256.24,256.24,0,0,0-30.09-5.47c-6.47-.85-12.95-1.68-19.36-3-5.68-1.16-11.3-2.49-16.85-4.16-0.77-.23-1.76-0.31-1.82-1.29s1-.93,1.61-1.2c7.55-3.23,14.8-7,21-12.46a2.91,2.91,0,0,1,3.46-.39c12.92,5.9,25.29,12.74,36.51,21.52A59,59,0,0,1,203.2,74.4Z"/>
      <path class="cls-1" d="M401.16,131.62q0,0.82,0,1.65c-0.34,4.46-.31,8.94-0.61,13.4-0.71,10.33-.31,20.71-1.42,31-0.6,5.59-.21,11.17-0.34,16.75,0,1.61-.48,3.22-0.15,4.84,0.11,0.54,0,1.32.66,1.51a1.56,1.56,0,0,0,1.28-.74,63,63,0,0,0,8.7-10.24,54,54,0,0,0,4.62-7.26c0.76-1.57,2.52-2.22,3.66-1.47,1.4,0.92,1.17,2.36.56,3.56a66.81,66.81,0,0,1-8.05,12.1,75.23,75.23,0,0,1-9.74,9.91,4.52,4.52,0,0,0-2,3.75c0.54,8.23-1.31,16.37-.92,24.59,0.29,6-.32,11.9-0.46,17.86a2.84,2.84,0,0,1-.64,2.05,83.15,83.15,0,0,1-2.21,17c-0.4,1.57.5,3,1.06,4.2,1.43,3.17,2.54,6.5,4.67,9.36,2.76,3.7,6.26,4.42,9.78,1.48,4.35-3.63,8.46-7.52,12.49-11.51,2.29-2.27,2.64-5.46,3.8-8.25a70.09,70.09,0,0,0,3.06-8.87c1-3.67,2.17-7.28,3.09-11,1.18-4.68,2.21-9.39,3.24-14.11,0.58-2.65,1.11-5.32,1.48-8,0.91-6.68,2.16-13.31,2.91-20,0.79-7.15,1.55-14.31,2.32-21.46q1.58-14.47,2.46-29c0.09-1.44.56-2.47,2.21-2.39s1.49,1.4,1.42,2.45c-0.47,8.14-1.07,16.27-2,24.37-0.56,4.74-1,9.5-1.4,14.26-0.83,8.92-2.18,17.76-3.52,26.61-0.83,5.51-1.7,11-2.91,16.45-1.27,5.69-2.37,11.42-4.2,17-1.39,4.23-2.34,8.59-4,12.76-1.52,3.86-2.66,7.87-4.52,11.59-0.65,1.31-.42,2.75-0.6,4.12a31.13,31.13,0,0,0-.7,6.25c1.65-.21,2.57-1.44,3.6-2.36,4-3.57,7.94-7.23,11.91-10.84,0.54-.49,1.17-0.89,1.71-1.38,0.95-.87,1.71-0.54,2.46.28a1.44,1.44,0,0,1-.19,2.3c-2.31,2.16-4.54,4.42-7,6.45-7.78,6.54-14.86,13.82-22.3,20.71-4.16,3.85-8.16,7.87-12.29,11.75-1.18,1.11-1.29,2-.11,3.09a13.27,13.27,0,0,1,2.23,2.72c1,1.74,1.9,1.33,3,.1,1.39-1.51,2.92-2.9,4.39-4.34a0.81,0.81,0,0,1,.93.06c-1.93,2-3.84,3.95-5.81,5.87a1.42,1.42,0,0,1-2.29-.16c-1.34-2-3.64-3.39-4.26-5.95-0.28-1.18-1.65-.3-2.18-1.07-1.71-.7-2.78-2.45-4.67-2.87-1.06-.34-1.59-1.39-2.54-1.88-6.43-7.07-7.93-15.43-6.46-24.58,0.66-4.11,2.41-7.83,4.13-11.55a25.59,25.59,0,0,0,2.68-9.66,3.12,3.12,0,0,1,.72-2.47h0c0.35-4.38.37-8.77,0.55-13.16,0.48-11.88.34-23.78,1-35.64,0.53-8.87.78-17.73,0.85-26.61,0.05-6.16-.25-12.39.5-18.47,1.05-8.55.65-17.1,1.21-25.64a3.1,3.1,0,0,1,.7-2v-3.42c0.3-3.79.26-7.6,0.62-11.39,0.21-2.23,1.06-3.12,2.75-2.82,0.88,0.15,1.74.69,1.7,1.49C401.76,127,402.45,129.45,401.16,131.62Z"/>
      <path class="cls-1" d="M497,324.6A160.59,160.59,0,0,0,498.91,300c0-3.24-.34-6.46-0.43-9.69,0-1.51-.51-1.36-1.55-0.62A64.78,64.78,0,0,1,477.07,299c-1.84.54-3.6,1.24-5.56,1.11-0.85-.06-1.66-0.15-1.86-1.18a1.68,1.68,0,0,1,.94-2,7,7,0,0,1,2-.89c5.51-.94,10.57-3.17,15.59-5.51a43.08,43.08,0,0,0,8.45-5.48,2.76,2.76,0,0,0,1.12-3.26,16,16,0,0,1-.56-3.92c-0.11-3.47-1.37-6.7-1.94-10.06-0.6-3.56-1.93-6.85-2.84-10.29-0.63-2.41-1.72-4.62-2.57-6.93-1.39-3.81-2.43-7.73-3.78-11.55-0.46,0-.4.34-0.39,0.59a79.46,79.46,0,0,1-1.33,16.21c-1.14,7.23-3.1,14.17-7.12,20.45a38.16,38.16,0,0,1-10.38,10.91c-1.07.74-2.17,1.43-3.06,0.27s-0.41-2.6.87-3.41a36.53,36.53,0,0,0,4.92-4.41,31.56,31.56,0,0,0,8.24-13.5,71.92,71.92,0,0,0,3.77-22.58c0-5.08,0-10.16.1-15.24,0.1-3.54-1-6.71-2.17-10s-1.86-6.42-2.85-9.61c-1.33-4.31-2.73-8.59-4.11-12.89-1-3.18-2.08-6.34-3.11-9.52-1.5-4.62-3-9.24-4.45-13.88-1-3.26-1.86-6.58-2.86-9.84-0.91-3-1.93-5.94-2.9-8.91q-1.58-4.86-3.14-9.73t-3.16-10c-0.9-2.84-1.84-5.66-2.69-8.51-1.45-4.87-3.36-9.62-4.58-14.52-1.53-6.16-5.33-10.81-8.83-15.73-1.13-1.58-2.55-3-4.14-4.77,0,4.32-.17,8.18,0,12,0.31,5.8.74,11.59,0.73,17.39,0,7.81.58,15.67-.2,23.4-0.75,7.44-.28,14.95-1.7,22.38-0.73,3.83-1,7.86-1.71,11.73a92.66,92.66,0,0,1-3.07,12.45,75,75,0,0,1-7.49,16.69,26.48,26.48,0,0,1-3.35,4.32c-0.82.85-1.82,1.26-2.73,0.5a2.05,2.05,0,0,1-.09-3,52,52,0,0,0,7.09-11.76,65.14,65.14,0,0,0,3-7.93,116.56,116.56,0,0,0,3.74-17.1c0.8-5.65,1.17-11.37,1.71-17.06,1.49-15.88.71-31.76,0.72-47.65,0-6.39-.92-12.75-0.82-19.16a3.76,3.76,0,0,0-1.33-2.88,119,119,0,0,0-25.93-18.68c-2.55-1.39-5.21-2.61-7.89-3.75-3-1.28-6.13-.61-9.12.06-3.91.87-7.71,2.2-11.6,3.16a144.23,144.23,0,0,0-16.24,5.26,161.51,161.51,0,0,0-20.05,9.24c-4.16,2.25-8.15,4.81-12.25,7.17a3,3,0,0,0-1.59,2.88c0,7.58-.41,15.2.2,22.74,0.35,4.32,1,8.7,1.69,13,0.55,3.46,1.15,6.93,1.81,10.36a72.19,72.19,0,0,0,1.88,9c0.79,2.4,1,5,1.57,7.47,0.82,3.7,1.72,7.38,2.58,11.06-1.84-2.1-2.07-4.85-2.59-7.36-1.38-6.66-2.88-13.3-4.26-20-1.33-6.41-2-12.89-3.07-19.32-0.68-4.11-.46-8.36-0.71-12.55-0.31-5.07.13-10.12,0.32-15.17,0.08-2.07,1.4-2.83,2.71-3.62a181.8,181.8,0,0,1,21.8-11.7c5.74-2.46,11.57-4.76,17.54-6.75,7.94-2.64,16.05-4.5,24.11-6.66,2.38-.64,4.25.35,6.1,1.17a114,114,0,0,1,30.21,19.29,12.18,12.18,0,0,0,1.19,1,9.67,9.67,0,0,1,4.27,8.66c0,7.66-.09,15.32.17,23,0.4,11.63.19,23.26-.16,34.88a200.15,200.15,0,0,1-2,21,127.65,127.65,0,0,1-3,15.74c-2.22,8.28-5.35,16.22-10.76,23.05-0.5.64-1.54,1.27-.39,2.17s1.65-.27,2.11-0.86a60.92,60.92,0,0,0,9-16.7,117.63,117.63,0,0,0,4.45-16.92c1-4.88,1.28-9.89,1.88-14.85,1.33-10.91,1.21-21.9,1.23-32.84,0-12-.29-24-0.38-36,0-1-.49-2.44.53-2.84s1.48,1.12,2.09,1.81c4,4.51,7.82,9.16,10.25,14.72a94.18,94.18,0,0,1,3.14,9.28c1.44,4.52,2.81,9.05,4.23,13.57,1,3.13,2,6.24,3,9.36,1.94,6,3.91,12.06,5.81,18.11,1.36,4.31,2.59,8.66,4,13,1.42,4.51,3,9,4.39,13.5,1,3.34,1.84,6.76,3,10.06,1.41,4.07,2.6,8.2,3.89,12.3q2.1,6.67,4.36,13.29a43.75,43.75,0,0,1,2.19,18.22c-0.69,7.53-.44,15.16-2.2,22.57-2.38,10-6.48,19-15.37,25-0.69.47-1.9,1.12-1,2.26s1.64,0,2.28-.44a37.1,37.1,0,0,0,12.86-16,66.09,66.09,0,0,0,4.92-23.92c0.09-2.71.49-5.41,0.78-8.11,0.06-.57.13-1.31,0.93-1.23,0.61,0.06.59,0.75,0.74,1.22,1.7,5.56,3.4,11.11,5.59,16.53A93.57,93.57,0,0,1,496.56,269c0.85,3.72,1,7.56,2,11.23a5.07,5.07,0,0,1-2,5.95,58.22,58.22,0,0,1-17.25,8.88c-2.35.81-4.74,1.51-7.13,2.21-0.79.23-1.8,0.3-1.51,1.42s1.43,0.92,2.23.68c3-.9,6-1.85,9-2.89a57.83,57.83,0,0,0,15.64-8.21c1.32-1,1.64.2,1.77,1.14a74.48,74.48,0,0,1,.75,11.43c-0.08,5.89-.75,11.73-1.29,17.58A24.58,24.58,0,0,1,496.7,327C496,326.11,496.81,325.4,497,324.6Z"/>
      <path class="cls-1" d="M440.52,471.43v-0.88a3.88,3.88,0,0,0,.22-2.16c0.17-13.44,1.18-26.86,1.18-40.32,0-2.56.14-5.14,0.2-7.71-0.12-1.87,1.13-3.11,2.1-4.48,1.09-1.54,1-1.71-.71-2.16-4.57-1.19-9.3-1.32-13.93-2.07a3.37,3.37,0,0,0-2.81,1c-4.42,3.77-8.92,7.45-13.28,11.29-0.88.78-1.74,1.58-2.67,2.3-2.24,1.73-3.42,1.62-5-.83-2.11-3.28-4.25-6.53-6.29-9.86-4.72-7.72-9.72-15.27-14.13-23.18-4.18-7.52-8.43-15-12.11-22.8-2.8-5.91-5.37-11.91-7.82-18-0.87-2.14-.09-3.59,2.26-3.55,6.84,0.12,13.66-1,20.5-.38a7.82,7.82,0,0,0,4.8-1.12,0.82,0.82,0,0,1,.63.23c0.09,0.67-.54,1-0.71,1.56s0.39,0.72.77,0.86c1,0.36,1.34-.41,1.66-1a42.9,42.9,0,0,1,9.25-11.67l0.32-.3c3.11-2.85,3.45-2.88,6.34.13,7.16,7.47,14.39,14.89,20.27,23.44A77.27,77.27,0,0,1,441.78,380c1.86,5.85,3.76,11.76,4.23,18,0.26,3.39,1.1,6.77,1.2,10.23,0.06,2-.83,2.3-2.59,2.15-4.75-.41-9.38-1.72-14.17-1.76a2.52,2.52,0,0,1-2.34-1.27c-0.7,1,0,2.16-1.06,2.83,5.93,0,11.48,1.46,17.15,2,3.39,0.34,3.79,1.34,1.58,3.92-2,2.34-2.53,4.85-2.62,7.85-0.43,13.88-1,27.75-1.44,41.63-0.21,6.08-.78,12.16-0.76,18.26,0,1.11-.18,2.05-1.33,2.53C441,481.5,439.83,476.41,440.52,471.43Z"/>
      <path class="cls-1" d="M440.52,471.43c0,4.12-.06,8.23,0,12.35,0,1.06-.87,1.69-0.9,2.66-1,1.13-2.52,1.26-3.8,1.55-8.08,1.83-16.18,3.61-24.3,5.27q-12.53,2.55-25.17,4.35c-8.43,1.2-16.9,2.2-25.38,3.09-20.51,2.15-41.06,3.17-61.67,3.56-12.29.24-24.58-.27-36.87-0.06-1.79,0-2.17-.77-2.29-2.39-0.84-10.87-.52-21.78-1.19-32.65s-0.66-21.63-1.47-32.41c-0.68-9-.45-18.1-1.21-27.12s-0.35-18.11-1-27.14c-0.81-11.1-.55-22.22-1.33-33.31-0.63-8.9-.64-17.8-0.78-26.7-0.2-12.81-.77-25.61-0.72-38.41,0.06-17.67.42-35.34,0.89-53,0.28-10.44,1-20.87,1.61-31.3,0.17-3.08.53-6.16,0.72-9.24,0.07-1.15.3-1.84,1.62-2.17a6.63,6.63,0,0,0,3.76-2.56c1-1.41,1.34-2.94.1-4.45-1.56-1.9-2.84-3.82-1-6.3a1.73,1.73,0,0,0,0-1.48c-1.37-2.75.09-5,1.06-7.4,1.34-3.36,2.63-6.75,3.85-10.15a102.29,102.29,0,0,1,7-14.59c1.37-2.5,2.88-4.91,4.33-7.36a0.73,0.73,0,0,1,.87-0.47c-0.29,2.5-2.34,4.07-3.34,6.22-1.76,3.79-4,7.36-5.8,11.13-1.66,3.44-3,7-4.4,10.53-0.91,2.22-1.84,4.51-2.54,6.85a8,8,0,0,0-.17,4.56,3,3,0,0,1-.22,2.78c-1.54,1.75-.58,3.07.5,4.43A5.46,5.46,0,0,1,258,189c-1.45.32-1.82,0.95-1.76,2.22a56.13,56.13,0,0,1-.55,12.32c-1.57,8.84-.27,17.74-1.17,26.58-1.92,19-.61,38.09-0.91,57.14-0.19,12.22-.26,24.46.12,36.67,0.42,13.51.83,27,1.46,40.53,0.48,10.27.37,20.58,1.24,30.8,0.81,9.62.1,19.28,1.25,28.83,0.94,7.79.14,15.61,0.93,23.33,1.09,10.71.6,21.46,1.41,32.13,0.56,7.34.26,14.68,1,22,0.13,1.29.42,1.79,1.78,1.8,11.85,0.07,23.7.33,35.54,0.26s23.79-.86,35.67-1.49c8.3-.44,16.66-1.1,25-2.15,5.06-.64,10.25-0.84,15.28-1.67,4.25-.7,8.56-0.9,12.81-1.7,3.7-.7,7.52-1.2,11.24-1.85,3.29-.57,6.64-0.79,9.91-1.7,2.57-.71,5.27-1.13,7.92-1.67,3.06-.62,6.09-1.46,9.15-1.95,2.6-.41,5-1.45,7.67-1.65,1.92-.14,3.66-1,5.47-1.56,1.4-.4,1.54-2.37,1.58-3.83,0.09-2.94.06-5.89,0.11-8.84C440.15,472.82,439.92,472,440.52,471.43Z"/>
      <path class="cls-1" d="M344.2,537.74c-6.81,1.84-13.59,3.67-20.75,3.67-17,0-34,.27-51,0.1-5.61-.06-11.21-0.06-16.82-0.08-8.83,0-17.66.1-26.49,0.27-6.23.12-12.26-1-18.31-2.35-8.39-1.82-16.62-4.28-25-6.23-9.29-2.17-18.66-3.88-28.12-5.26-4.59-.67-9.25-1.22-13.66-3.14a9.1,9.1,0,0,1-5.48-6.62c-1.09-4.36-.51-8.74.58-13.05,0.05-.21.16-0.41,0.22-0.62,1.22-4.35,1.23-4.48,5.67-4.19,8.66,0.57,17.3,1.34,26,2,2.79,0.2,5.59.17,8.39,0.34,8.15,0.5,16.3,1,24.44,1.58,17,1.25,33.93,2,50.93,2.31,2.49,0.05,3.16.75,3.2,3.16q0.2,11.59.37,23.19c0,0.29,0,.59,0,0.88-0.1,3.05-.1,3.05,3.51,2.49-1.42-1.27-1.14-2.86-1.16-4.4q-0.16-10.82-.32-21.64c0-3.37,0-3.37,3.22-3.36,12.67,0,25.34.25,38-.07,8.68-.22,17.37-0.27,26-0.81,5.06-.31,10.1-1.08,15.19-0.89,4.64,0.18,9.17-1.42,13.84-.85-0.09.88-.83,1-1.46,1.07a30.19,30.19,0,0,1-5.22.87c-10.3,0-20.56,1.07-30.82,1.63-18.18,1-36.35.28-54.51,0.67-2.54.05-2.74,0.27-2.81,2.79-0.21,7.07,1,14.09.92,21.16a1.76,1.76,0,0,0,2,2c0.59,0,1.18,0,1.77.05,2.38,0.15,2.89.63,3.25,3s0.61,2.69,3.11,2.69c17.45,0,34.89.06,52.34,0a40.93,40.93,0,0,0,8.9-1.51,62.53,62.53,0,0,0,7.31-1.67A3.1,3.1,0,0,1,344,537,0.52,0.52,0,0,1,344.2,537.74Z"/>
      <path class="cls-1" d="M147.56,497.94c-7.1,1.35-11.61-2.47-15.54-7.65-3.56-4.68-4.89-9.84-4.82-15.74,0.22-16.77.09-33.54,0.06-50.31,0-1.87.28-3.27,2.47-3.75,1.31-.29,1.26-1.39.64-2.42-0.9-.82-0.63-1.89-0.58-2.89a1.13,1.13,0,0,1,.92-1.31c0.74,0,.88.65,1,1.23a4.32,4.32,0,0,1,.07,1.54c-0.55,3.35,1.19,5.4,3.86,6.94,5,3.71,9.5,8.12,14.31,12.12,7.15,5.94,14.52,11.57,22.78,15.87a33.11,33.11,0,0,0,15.42,4.1,3.1,3.1,0,0,1,2.85,2.1,63.55,63.55,0,0,1,5,13.65,49.29,49.29,0,0,1,1.42,8.69c0.13,2.53-1.06,3.48-3.36,2.33a201.34,201.34,0,0,1-20.31-11.15c-3.95-2.58-7.77-5.34-11.54-8.15a117,117,0,0,1-14.93-13.71,133.37,133.37,0,0,1-18.58-25.27c0,17.67,0,35.17,0,52.67a20.08,20.08,0,0,0,5.39,13.62c1.21,1.39,2.59,2.61,3.88,3.92,2,2,4.65,2,7.16,2.5a6,6,0,0,1,2.36.47A0.44,0.44,0,0,1,147.56,497.94Z"/>
      <path class="cls-1" d="M112.09,70.14a49.36,49.36,0,0,1,10.42-6c0.6-.27,1.19-0.52,1.79-0.81a7.09,7.09,0,0,1,6.09-.52c7.8,3,16,4.72,24.19,6.23s16.29,2.21,24.4,3.49c6.66,1.05,13.26,2.51,19.87,3.86,1.72,0.35,2.26,1.64,2.13,3.33-0.61,8-.41,16-0.53,24.06-0.18,12.07,0,24.16-.44,36.22-0.85,25.09-.93,50.19-1.2,75.28a3.33,3.33,0,0,1-2.27,3.38c-5,1.91-4.91,9.38-.34,11.66a2.79,2.79,0,0,1,1.66,3c-0.06,5.3-.07,10.6,0,15.9,0,0.78-.37,2,1.06,2s1.12-1.18,1.13-2q0.08-7.84.07-15.68a2.9,2.9,0,0,1,1.83-3.06c2.16-1.09,4-2.92,4-5.64a6,6,0,0,0-3.48-5.85c-1.37-.66-1.37-1.78-1.36-3,0.16-15.09,0-30.19.55-45.27,0.55-16.63.65-33.26,0.85-49.89,0.16-13.39.54-26.78,0.83-40.17,0.05-2.36.47-2.74,2.8-2.06,1.72,0.5,3.57.93,4.65,2.63a1.37,1.37,0,0,1-1.15.33,16,16,0,0,1-2.5-.85c-2-.75-2.26-0.63-2.28,1.58,0,5,.11,10,0,15-0.36,12.42-.56,24.85-1.23,37.26-0.29,5.36-.06,10.75-0.07,16.12,0,9.28.21,18.56-.06,27.83-0.33,11.62-1,23.22-.87,34.85a6.84,6.84,0,0,0,2.42,5.75c3.5,3,3.26,8.33-.65,11.37-2.45,1.91-3,4.17-3,6.9,0,4.12.08,8.25-.07,12.37-0.05,1.39-.62,2.44-2.19,2.55a2.52,2.52,0,0,1-2.74-2.06A4.69,4.69,0,0,1,196,249a66.27,66.27,0,0,1,.13-9.48c0.1-.88.17-1.76,0.24-2.64a7.17,7.17,0,0,0-2.6-6.76c-4-3.47-3.43-9.06,1-12.06a4.33,4.33,0,0,0,2.07-3.82c0.58-15.29.68-30.59,1-45.89,0.25-12-.38-24,0.42-36,1.12-16.7.52-33.4,0.75-50.09,0.06-4.2-.14-4.27-4.29-5.15-5.53-1.18-11.1-2.17-16.68-3.07-4.78-.77-9.62-1.21-14.43-1.83-5.54-.71-11-1.9-16.47-2.95a102.53,102.53,0,0,1-17.56-5.07,4.85,4.85,0,0,0-3.65.24,59.09,59.09,0,0,0-9.9,4.85,7.59,7.59,0,0,1-2.81,1.24A1.28,1.28,0,0,1,112.09,70.14Z"/>
      <path class="cls-1" d="M265.37,55.27c-2.94,0-5.89-.06-8.83,0-1.57,0-2.09-.63-2.08-2.09,0-4.56,0-9.13,0-13.69,0-1.45.54-1.92,2-1.9q8.94,0.08,17.89,0c1.45,0,2.17.37,2.15,2-0.07,4.42,0,8.83,0,13.25,0,1.71-.53,2.56-2.44,2.47C271.12,55.17,268.24,55.27,265.37,55.27Z"/>
      <path class="cls-1" d="M265.5,57.8c3.53,0,7.08-.13,10.6,0,2.21,0.11,2.75-.73,2.7-2.79-0.13-4.71,0-9.43,0-14.14,0-2.76.74-3.34,3.39-3.05,3.57,0.38,7.17.56,10.74,1s7,0.87,10.42,1.52a37.83,37.83,0,0,0,5,.72c3,0.15,3.72,1.43,2.13,3.8-3.49,5.23-7.1,10.37-10.2,15.86-3.33,5.89-6.31,11.94-9.33,18-3.48,7-6,14.28-9.21,21.33-1.64,3.62-2.58,7.55-3.91,11.32-1.44,4.1-3.07,8.13-4.42,12.26a112.89,112.89,0,0,1-3.94,10.79c-2.2,5-3.84,10.16-5.71,15.25-1.45,3.94-3,7.86-4.06,11.94a43.91,43.91,0,0,1-2.68,7.29c-0.57,1.23-1.86,1-2.81.18a3.14,3.14,0,0,1-1-2.82c0.61-5.56-.74-11-1.62-16.37-0.8-4.88-1.8-9.82-3-14.68-1-4.07-2.17-8.14-3-12.29a87.43,87.43,0,0,0-2.9-9.57c-0.9-2.83-2-5.61-2.69-8.49-1-4.27-2.94-8.19-4.29-12.33-1.53-4.67-3.65-9.15-5.53-13.71a212.39,212.39,0,0,0-10.72-22.35c-1.69-3-3.32-6.12-4.82-9.26a18,18,0,0,1-1.1-3.94c-0.3-1.39,1.11-2,2.3-2.15,7.64-.81,15.16-2.56,22.89-2.83,3.42-.12,6.82-0.9,10.3-0.82,3,0.07,3.24.29,3.24,3.33,0,5,.06,10,0,15,0,1.54.46,2.05,2,2C258,57.73,261.75,57.8,265.5,57.8Z"/>
      <path class="cls-1" d="M209.81,81.27l0.93,0a115.78,115.78,0,0,1,13.69,16.34,138.33,138.33,0,0,1,12.88,22.14,156,156,0,0,1,7.83,20.21c1.75,5.67,3.44,11.35,4.67,17.16,1,4.67,1.79,9.36,1.22,14.18-0.22,1.85-.81,3.64.13,5.58,0.63,1.32-.82,2.39-1.56,3.44-1.92,2.74-1.66,5.16,1.15,6.84a4.45,4.45,0,0,1,2.44,4.82c-1.4,15.1-1.85,30.24-2.39,45.39-0.82,23-1.07,46.07-.56,69.11q0.34,15.45.77,30.9,0.7,24.16,1.84,48.31c0.29,6.1.51,12.2,0.64,18.31,0.18,8.39,1.28,16.73,1.12,25.14,0,0.81,0,1.61-.07,2.42,0.21,4.23.34,8.47,0.2,12.7-0.28.43-.59,0.34-0.85,0a2.62,2.62,0,0,1-.46-1.67c0-7.5-.24-15-0.82-22.48-0.69-9-.36-18.08-1.3-27.1-0.52-5-.21-10-0.1-15,0.12-5.91-.83-11.74-1.19-17.61-0.08-1.32-.18-2.64-0.16-4,0.25-14.79-1-29.54-1.3-44.32q0-1.44,0-2.87c0-17.82.07-35.65,0-53.47a165.61,165.61,0,0,1,.65-20.51c0.9-7.59.43-15.14,0.72-22.69a40.76,40.76,0,0,1,.61-6.15c0.92-4.76.62-9.54,0.72-14.32a4.65,4.65,0,0,0-1.77-4.07,10.74,10.74,0,0,1-2-2.37,3.79,3.79,0,0,1,.09-5.06c1.33-1.63,2.53-3.27,1.29-5.54a2.34,2.34,0,0,1,.12-1.73c1.35-4.2.86-8.27,0-12.56-0.86-4.09-1.83-8.17-2.78-12.23a103.7,103.7,0,0,0-3.58-11.58,183.49,183.49,0,0,0-7.2-17.77,142.36,142.36,0,0,0-23.7-35C210.87,83.33,209.84,82.6,209.81,81.27Z"/>
      <path class="cls-1" d="M114.41,143.11c1.2,13.32,1.88,26.68,2.8,40,0.66,9.59,1.22,19.2,2.06,28.79a2,2,0,0,0,1.6,2c7.44,2.81,13.62,7.2,17.86,14.17,1.83,3,1.34,5.79.44,8.82-1,3.21-1.77,6.47-3,9.6-1.47,3.81-2.82,7.71-6.21,10.36a3.94,3.94,0,0,1-4.89.11,21.45,21.45,0,0,1-6.23-6.45c-5.17-7.64-9.23-15.89-13.38-24.1-2.59-5.14-5.24-10.25-8-15.32-2.53-4.68-4.93-9.43-7.65-14-0.34-.57-0.7-1.12-1.06-1.67s-1-1.58-1.85-1-0.4,1.49,0,2.21c1.71,3,3.55,5.88,5.16,8.91,4,7.46,7.83,15,11.66,22.54,4.42,8.72,8.63,17.57,14.52,25.45a18.23,18.23,0,0,0,5.18,5c5.47,3.22,8.7.3,11-3.37,3.07-4.86,4.75-10.29,6.24-15.79,0.18-.65-0.08-1.8.87-1.76a2,2,0,0,1,1.55,1.9c0.4,2.69,1,5.36,1.16,8.06a97.47,97.47,0,0,1-.51,16.07c-0.52,4.44-1.23,8.88-1.55,13.34-0.17,2.44-1.12,4.71-1.33,7.14a0.44,0.44,0,0,1-.63,0,4.3,4.3,0,0,1-.22-3.44c1.36-5,1.56-10.18,2.16-15.25,0.88-7.35.58-14.81,0.18-22.23a4.47,4.47,0,0,0-.65-2A73,73,0,0,1,138,251.47a22.46,22.46,0,0,1-5,7.49,8.06,8.06,0,0,1-9.37,1.36,16.65,16.65,0,0,1-5.81-5,128.57,128.57,0,0,1-10.24-16.73c-4-7.54-7.78-15.2-11.68-22.79q-4.85-9.43-10.27-18.53a3.7,3.7,0,0,1-.69-1.85,2.6,2.6,0,0,1,1.73-2.58c1.21-.44,2.14.24,2.8,1.22a87.12,87.12,0,0,1,5.27,8.68c5.24,10,10.41,20.13,15.59,30.21,3.22,6.27,6.35,12.64,10.76,18.23a16.24,16.24,0,0,0,4.44,4.25c2,1.18,3,1.06,4.61-.74a22.65,22.65,0,0,0,3.66-6.26,114.74,114.74,0,0,0,4.72-14.91,4.6,4.6,0,0,0-.43-3.4c-3-6-7.67-10.15-13.56-13.11a7.05,7.05,0,0,0-1.6-.74c-4.55-1-5.53-4.34-5.61-8.27s-0.17-8.13-.61-12.11c-0.87-7.83-.49-15.73-1.79-23.51a16.92,16.92,0,0,1-.29-3.74c0.32-5.77-.72-11.44-1.18-17.15-0.22-2.77-.53-5.56.26-8.31A0.44,0.44,0,0,1,114.41,143.11Z"/>
      <path class="cls-1" d="M497,324.6L496.7,327c-0.38,5.84-3,11-5.39,16.1a257.12,257.12,0,0,1-13.21,25c-6.59,10.88-13.08,21.84-20.74,32-2,2.63-3.83,5.37-5.69,8.08a1.93,1.93,0,0,1-1.77,1.11c-0.86-.16-0.47-1.09-0.54-1.69a155.39,155.39,0,0,0-3.73-21.85c-3.93-15.21-11.72-28.09-22.21-39.53-3.78-4.12-7.62-8.18-11.41-12.28-1.9-2.06-1.79-2.29.36-4.08,3-2.48,5.89-4.93,9.69-6.28a33.31,33.31,0,0,1,16.9-1.37,20.51,20.51,0,0,0,3.07.28c0.67,0,1.68.34,1.86-.65s-0.8-1.33-1.58-1.45a70.16,70.16,0,0,0-7.43-.93c-8-.33-15.43,1.35-21.75,6.66-0.75.63-1.5,1.69-2.88,1.12-2.43-1-2.69-2.3-.87-4.32,7.92-8.78,17.93-12.33,29.56-12,1.1,0,3,.81,3.09-0.95,0-1.55-1.88-1.24-3.07-1.27-9.66-.26-18.64,1.76-26.33,8l-0.93-.06c3.11-3.14,7-5,11-6.51a43.23,43.23,0,0,1,17.06-2.27c1.58,0.07,3.4-.09,3.36,2.13s-1.79,2-3.29,1.93c-4.79-.15-9.57-0.07-14.18,1.38a32.94,32.94,0,0,0-12,6.65c-1.27,1.11-2.44,2.35-3.62,3.56-0.61.62-1.43,1.3-.49,2.22a1.78,1.78,0,0,0,2.58.07,35.56,35.56,0,0,1,5.24-3.59,31.47,31.47,0,0,1,18.41-3.51c2.31,0.2,4.66,0,6.95.93,1.36,0.56,2,1.1,1.75,2.49s-1.46,1.41-2.44,1.23c-4.17-.75-8.36-0.41-12.55-0.43-5.55,0-10.27,2.2-14.37,5.74-3.76,3.25-3.72,3.36-.27,7.06,6.35,6.82,13,13.42,18.23,21.15a78.87,78.87,0,0,1,8.09,14.19c1.41,3.41,3.16,6.73,4.11,10.27,1.14,4.26,2.55,8.44,3.21,12.87s0.78,8.9,2.29,13.36a74.38,74.38,0,0,0,5.56-7.54c2.95-4.18,6-8.33,8.72-12.63,4.45-6.93,9-13.85,13-21,3.79-6.76,7.66-13.49,10.85-20.59,1.84-4.1,4-8.07,5.48-12.32a55,55,0,0,0,1.69-6.77C496.29,325.94,496.26,325.12,497,324.6Z"/>
      <path class="cls-1" d="M135.67,424.14c-3.16-1.28-4.47-3.16-4.47-6.4a17.89,17.89,0,0,0-.22-3.45c-1.06,1.16-.51,2.52-0.6,3.79,0.06,1.43-.81,1.74-2,1.67a1.83,1.83,0,0,1-2-1.9c-0.06-2.2-.13-4.4-0.39-6.6-0.19-1.58.14-3.19-1.18-4.53-0.76-.78.16-2-0.15-3.37-0.89,1.65-1.51,1.59-2.4.33-2.24-3.2-5.21-5.76-8-8.43a77.34,77.34,0,0,1-16-21c-1.13-2.2-2.06-4.49-3.24-6.65a2.42,2.42,0,0,1-.14-1.7c1.39-.21,1.43,1,1.75,1.79a77.55,77.55,0,0,0,16.72,24.7c2.77,2.73,5.44,5.57,8.5,8.27,0.26-1.6-.5-2.83-0.81-4.13-1.83-7.64-3.45-15.34-4.66-23.09-0.85-5.48-1.4-11.18-.08-16.68,1.23-5.14,4.36-9.27,8.39-12.69a54.08,54.08,0,0,1,8.52-5.88c2.29-1.29,2.55-1.84,2.19-4.46-0.17-1.23-.59-2.46.11-3.66a0.42,0.42,0,0,1,.61,0,35.72,35.72,0,0,0,1,5.76c0.51,1.6,1.28,1.49,2.4.87,0.69-.5,0-1.27.37-1.85,1.93-1.19,3.55-3.08,6.16-2.81a13.91,13.91,0,0,0,.72,1.94c-1.66,1.9-4.06,2.58-6.17,3.69a80.54,80.54,0,0,0-13.92,8.88,21.16,21.16,0,0,0-8,19.32,196.47,196.47,0,0,0,5.83,31.09A128,128,0,0,1,128.33,417a0.78,0.78,0,0,0,.47.65,2.74,2.74,0,0,0,.45-2.34c-0.26-2.91.66-5.68,1-8.52a1.06,1.06,0,0,1,1-1.24c1,1,.08,2.28.58,3.34,0.06,0.29.5-.08,0.22,0-0.09,0-.14,0-0.15,0-0.18-.81-0.59-1.73.78-1.91a4.34,4.34,0,0,1,.43,3.38c-0.42,2.38-.21,4.8-0.68,7.17a4,4,0,0,0,1.43,3.9C134.64,422.12,135.76,422.74,135.67,424.14Z"/>
      <path class="cls-1" d="M112.09,70.14l1,0c0.15,0.84-.52,1.17-1,1.54a50.59,50.59,0,0,0-16.73,21A94.84,94.84,0,0,0,91,105a99,99,0,0,0-3.08,13.48c-0.53,3.84-1.48,7.6-1.76,11.51a41.6,41.6,0,0,1-5.85,18.76c-2.74,4.54-6.18,8.61-8.92,13.15-1.89,3.15-3.39,6.37-3.32,10.3,0.19,11.11.06,22.23,0.07,33.34,0,2.71.17,2.92,2.75,2.24,4.65-1.22,9.37-.59,14.06-0.69a2.11,2.11,0,0,1,2.39,1.53,2.49,2.49,0,0,1-1.27,2.8,3.82,3.82,0,0,1-2.27.76c-2.58-.07-5.14.53-7.7,0.44s-5.07.84-7.62,1.07a2.45,2.45,0,0,0-1.76,1.22,33.67,33.67,0,0,1-7.12,7.19,28.84,28.84,0,0,0-3,2.91,11.4,11.4,0,0,0-3.53,8.92c0.25,4,.05,8.09.06,12.14a8.88,8.88,0,0,0,.37,3.36c2.65-3.92,6.38-6.53,10.06-9.22a90.49,90.49,0,0,0,9.94-7.7c1.57-1.52,2.57-1.2,3.39.76a0.48,0.48,0,0,1-.65.06,2.35,2.35,0,0,0-2.22.58c-3.83,3.78-8.52,6.47-12.73,9.77a40.53,40.53,0,0,0-7.61,7.63c-0.4.54-.91,1.41-1.7,1.12s-0.37-1.18-.38-1.8c-0.11-5.89,0-11.78-.34-17.66-0.16-3.2,1.41-5.42,3.19-7.69A43.33,43.33,0,0,1,61,219a14.79,14.79,0,0,0,3.78-4c1.53-2.79,4.14-3.34,6.86-3.48,4.41-.23,8.72-1.47,13.16-1.27,0.66,0,1.39-.06,1.37-1s-0.76-1.16-1.53-1.19a43.43,43.43,0,0,0-8.36.45c-2.54.41-5.11,0.61-7.65,1a1.17,1.17,0,0,1-1.56-1.26c0-.37,0-0.74,0-1.1-0.11-11.56-.13-23.12-0.38-34.67a20.77,20.77,0,0,1,3.44-11.37c2.82-4.72,6.48-8.87,9.2-13.66A39.24,39.24,0,0,0,84.05,134c1.14-7.47,2-15,3.67-22.36,2.69-11.66,6.36-23,14.24-32.45C104.88,75.65,108,72.36,112.09,70.14Z"/>
      <path class="cls-1" d="M263.73,8.31c5.82,0,11.63.08,17.45,0,10.08-.17,20.06,1.67,30.14,1.45,3-.06,4.59,2.16,5.06,6A54.8,54.8,0,0,1,316.28,31a37.89,37.89,0,0,1-2.48,7.87c-0.51,1.29-1.75,1.45-3.19,1.13-3.56-.77-7.18-1.32-10.77-2-7.14-1.33-14.48-.94-21.6-2.48a10.64,10.64,0,0,0-2.19-.15c-6.55,0-13.11-.24-19.65,0a263.77,263.77,0,0,0-28.9,2.41c-4.41.65-8.79,1.55-13.25,1.91a1.77,1.77,0,0,1-2.14-1.92c-0.07-5-.64-10.1.89-15a5.6,5.6,0,0,1,1.27-2c3.51-4,6.12-9.06,11.66-10.74,1.93-.59,4.07-0.4,6.1-0.72C242.56,7.54,253.17,8.74,263.73,8.31Z"/>
      <path class="cls-1" d="M76.27,233.32l0.6-.07c1,1.43.19,2.49-.74,3.5-2.77,3-6.16,5.23-9.41,7.61-3.51,2.57-6.9,5.21-9.52,8.78a16.86,16.86,0,0,0-3.69,11c0.22,5.93,0,5.92,5.73,4.07a194,194,0,0,0,19.05-7.53c1.21-.54,2.44-1,3.68-1.48,2-.71,3.4-0.26,4,1.14s-0.07,2.76-2,3.64c-4,1.85-8.14,3.4-12.2,5.12a102.09,102.09,0,0,1-17.95,6,1.89,1.89,0,0,0-1.6,1.81c-0.64,4.14-1.17,8.19-.14,12.43,1.2,4.94,3.62,9.23,6,13.84a127.57,127.57,0,0,1,13.46-14.62c2.84-2.55,5.34-5.49,8.57-7.61,1.29-.85,2.54-1.2,3.78,0,0.83,0.82,1.15,1.83.34,2.76a64.74,64.74,0,0,1-7.3,6.68,0.9,0.9,0,0,1-.85,0c-0.65-.91.57-1,0.69-1.62,1.63-1.47,3.29-2.92,4.89-4.43,0.7-.66,2-1.33,1-2.46-0.87-1-1.71.09-2.41,0.67A137.61,137.61,0,0,0,62.4,300.2c-0.89,1.07-1.76,2.17-2.64,3.25-1.63,2-1.87,2.08-3.13-.12-4.24-7.37-7.68-15-6.36-23.87,0.18-1.24.54-2.44,0.74-3.66a2.57,2.57,0,0,1,2.48-2.34c7.45-1.15,14.22-4.31,21.1-7.15l7.29-3c0.54-.22,1.07-0.47,1.58-0.74,0.78-.4,1.87-0.79,1.25-1.9s-1.52-.49-2.35-0.15c-7,2.88-14.05,5.81-21.13,8.58a38,38,0,0,1-6.78,1.78c-2.23.42-2.55-.11-2.76-2.43-1-11.12,4.71-18.57,13.23-24.6,3.34-2.36,6.93-4.42,9.84-7.36C75.62,235.64,76.73,234.83,76.27,233.32Z"/>
      <path class="cls-1" d="M235,109.54A192.33,192.33,0,0,0,223.18,91.6a143.16,143.16,0,0,0-34.85-32.37,5.91,5.91,0,0,1-2.91-4.79c-0.79-8.17,3.17-14,9-18.78,4.3-3.53,8.9-6.7,13.4-10,0.48-.35,1-1.16,1.67-0.78s0.37,1.19.37,1.82c0,1.62-.07,3.24-0.11,4.85a42.46,42.46,0,0,0,6.54,23.59c3,5,5.34,10.24,7.84,15.44,3.13,6.5,5.74,13.26,8.56,19.91a4,4,0,0,1,.16.87c0.18,1.21,1.37,2.13,1,3.49-1.34.38-1.66-.6-1.9-1.52-1.28-4.78-3.67-9.11-5.42-13.7-2.59-6.81-6.14-13.18-9.24-19.76-1.69-3.59-4.18-6.76-5.58-10.5a41.79,41.79,0,0,1-3-11.39c-0.2-2.6-1-5.16-.8-7.83a9.7,9.7,0,0,1,.4-2.9C202.23,32,195.3,35.68,190.5,42a17.74,17.74,0,0,0-3.93,12.29A4.75,4.75,0,0,0,189,58a143.59,143.59,0,0,1,24.78,20.49,139.6,139.6,0,0,1,21.49,29,1.93,1.93,0,0,1,.33,2.05A0.42,0.42,0,0,1,235,109.54Z"/>
      <path class="cls-1" d="M356.61,504.19c-3.77-.29-7.39,1.26-11.17.87-0.88-.09-1.76-0.05-2.65-0.08,3.12-.41,6.23-1,9.36-1.19,10.26-.71,20.43-2.15,30.64-3.41,6.56-.81,13-2,19.57-3a144.06,144.06,0,0,0,15.31-3c4.18-1.1,8.44-1.88,12.7-2.63,2.1-.37,4-1.36,6.21-1.44,1.77-.07,1.83.74,1.59,2-3.09,16.08-12.71,27.09-26.82,34.66a117.92,117.92,0,0,1-22.43,8.73c-6.58,2-13.38,2.64-20,4.32a19.29,19.29,0,0,1-4.83.43c-2.07.41-4.19,0.42-6.24,0.89l-0.18,0-0.18,0a78.05,78.05,0,0,1-12,0h0c-1.52-1.65.76-.79,0.89-1.34a0.5,0.5,0,0,1,.36,0c0.8,0,1.46-.9,2.35-0.42,0.28,0.22-1,1.06.67,0.91,3.72-.33,7.46-0.75,11.17-0.89a80.48,80.48,0,0,0,12-1.8c5.18-1,10.43-1.73,15.5-3.31,6.74-2.1,13.51-4.11,19.8-7.39,8-4.16,15.27-9.14,20.72-16.48a42.08,42.08,0,0,0,7.17-16c0.57-2.51.28-2.71-2.16-2.15-9.45,2.16-18.91,4.33-28.45,6-5,.88-10,1.89-15,2.52-4.65.58-9.25,1.72-14,1.65a15.51,15.51,0,0,0-4.44.66,7.13,7.13,0,0,1-1.39.19,19.2,19.2,0,0,0-4.14.2,4.58,4.58,0,0,1-.69.16c-2.37.32-4.76,0.47-7.13,0.81A2.34,2.34,0,0,1,356.61,504.19Z"/>
      <path class="cls-1" d="M76.78,288.79L76,290.32c0.12,1.14-.77,1.7-1.43,2.34A173,173,0,0,0,62.7,305.42c-1.41,1.68-2.45,3.26-1.39,5.54a4.08,4.08,0,0,1-.05,2.83,20.65,20.65,0,0,0-.62,6.67c5.32-12.24,13.22-22,25.28-28,12.32-6.17,24.8-5.74,37.41-1.25-0.78-1.74-2.93-3.82-6-5.83a60.92,60.92,0,0,0-14-6.86,9.74,9.74,0,0,1-2.4-1.11c-1.06-.71-1.84-1.63-1.21-3a2.4,2.4,0,0,1,3-1.23,24.49,24.49,0,0,1,3.2.83c7.15,2.84,13.93,6.32,19.59,11.66a13.31,13.31,0,0,1,3.39,4.57,1,1,0,0,1-.3.93,45.3,45.3,0,0,0-10.88-9.84,74.41,74.41,0,0,0-14.26-6.63c-0.8-.28-1.84-0.73-2.2.54s0.72,1.14,1.47,1.42c7.1,2.6,13.94,5.68,19.63,10.85a25.37,25.37,0,0,1,3.6,4.14c0.4,0.56.82,1.16,0.28,1.78s-1,0-1.56-.19c-7.52-2.92-15.25-4.86-23.38-3.92a43.75,43.75,0,0,0-23.32,9.81,54.47,54.47,0,0,0-15.45,20.77c-1,2.38-2,4.77-3.27,7.15a14.31,14.31,0,0,1-.29-6.81c0.53-3.77,1.49-7.49.69-11.34-0.25-1.19.44-2,1.12-3a123.32,123.32,0,0,1,15.15-16.59A5.53,5.53,0,0,1,76.78,288.79Z"/>
      <path class="cls-1" d="M114.41,143.11H114a2.75,2.75,0,0,1-.69-2.21,36.85,36.85,0,0,0-.76-8.39,6.45,6.45,0,0,1-.47-2.15c0.27-5.25-1-10.4-1-15.62,0-3.55-.4-7-0.65-10.57a11.39,11.39,0,0,1-.13-1.32,2.76,2.76,0,0,1,2.43-3c1.69-.22,2.43,1,2.55,2.44,0.29,3.45,1.16,6.85,1,10.32-0.22,5.4.64,10.72,1.08,16.07a35.37,35.37,0,0,1,.27,4.84c-0.31,5.62,1.14,11.12,1.12,16.71s1.11,10.83,1.08,16.28a93.78,93.78,0,0,0,.8,11.66,48.25,48.25,0,0,1,.54,8.58c-0.28,4.59.84,9.08,1.09,13.63,0.13,2.35.31,4.71,0.21,7.05a4,4,0,0,0,2.73,4.24,35.88,35.88,0,0,1,12.37,8.72,39.11,39.11,0,0,1,8.55,15.77,2.79,2.79,0,0,1-.15,2.15,0.47,0.47,0,0,1-.67.19c-1-2.28-1.46-4.71-2.33-7a31.18,31.18,0,0,0-5.92-9.41A35.16,35.16,0,0,0,124,212.79a4,4,0,0,1-2.69-4c-0.58-10.34-1.7-20.64-2.19-31-0.36-7.56-1.06-15.1-1.56-22.65q-1-14.73-2-29.45c-0.51-7.18-1.18-14.35-1.48-21.55,0-.37,0-0.74,0-1.1,0-.73.06-1.59-1.07-1.51-0.94.07-.89,0.83-0.89,1.49a72.94,72.94,0,0,0,.68,12.54,59.59,59.59,0,0,1,.5,9C113.42,130.81,114.82,136.91,114.41,143.11Z"/>
      <path class="cls-1" d="M221.83,9c-2.27,2.41-5.15,3.7-6.79,6.27-5.15,8.09-14,11.81-21,17.74-4.35,3.7-8.36,7.58-10.21,13.19-0.78,2.37-.55,4.81-0.55,7.22,0,1.87-.42,2.43-2.25,1.4-4.88-2.76-9.77-5.49-14.87-7.82a26.11,26.11,0,0,0-3.72-1.78c-5.55-1.51-6.82-6-7.3-10.74-0.65-6.42,3-10.68,8-13.82,6.44-4,13.66-5.92,21-7.63,6.32-1.47,12.76-1.82,19.08-3,3.84-.74,7.78-0.08,11.64-0.76A16.68,16.68,0,0,1,221.83,9Z"/>
      <path class="cls-1" d="M254.47,444.53q0-6.5.07-13c0.28,3.88.64,7.75,0.83,11.63,0.33,6.91.43,13.83,0.86,20.73,0.7,11,.88,22.06,1,33.09,0,1.69.18,3.38,0.31,5.06,0.12,1.53-.55,2.13-2.07,2.07-8.53-.35-17.06-0.64-25.58-1-5.51-.22-11-0.38-16.53-0.74-14.74-1-29.48-2-44.23-3-5.43-.35-10.88-0.38-16.29-1.08-1.46-.42-3,0.16-4.46-0.34l-0.86,0q0-.22,0-0.43c0.83-.82,1.91-0.63,2.92-0.69,5.54-.36,11,0.63,16.49,1.08a11,11,0,0,0,1.53.17c7-.42,13.91,1.26,20.91,1a35,35,0,0,1,6.15.49c8.76,1.17,17.65.43,26.37,2a5.91,5.91,0,0,0,1.1.11q14.78-.15,29.53.89c3.39,0.24,3.45,0,3.46-3.4,0-3.68,0-7.36,0-11a31.25,31.25,0,0,0-.14-6.62,4.1,4.1,0,0,1-.16-0.78c0-4.9-.78-9.77-0.52-14.68a6.53,6.53,0,0,0-.32-2.16c-0.37-3.27-.12-6.55-0.18-9.82,0.31-2.83-.46-5.6-0.52-8.41A1.29,1.29,0,0,1,254.47,444.53Z"/>
      <path class="cls-1" d="M323.76,10.93c6.66,1.22,13.46,1,20.15,2.06a80.54,80.54,0,0,1,15.26,3.93A48,48,0,0,1,378.58,30.5a3.31,3.31,0,0,1,.31,4.28,49.89,49.89,0,0,1-18,16.76,1.9,1.9,0,0,1-2.7-.34q-18.54-18.93-37.1-37.83c-0.15-.16-0.32-0.31-0.46-0.48-0.36-.43-1-0.78-0.69-1.47s1-.45,1.58-0.48C322.28,10.91,323,10.93,323.76,10.93Z"/>
      <path class="cls-1" d="M102.46,322.94c-0.92.89-2.33,1.07-3.15,2.12-1.42.42-1.95,2.19-3.53,2.37a1.22,1.22,0,0,1-.28-0.91,3.23,3.23,0,0,1,1.85-2.13c1.65-.52,2.91-1.73,4.4-2.52a4.88,4.88,0,0,1,.55-0.26,21.48,21.48,0,0,1,4.05-1.33,9.61,9.61,0,0,1,2.44-.89c2.39-.29,4.9.32,7.15-1a4.55,4.55,0,0,1,.59-0.19,11.13,11.13,0,0,0,3.29-1.24l0.53-.28a47.16,47.16,0,0,0,4.77-2.65c1.89-1.34,1.92-1.35,0-2.86-4.48-3.89-9.93-5.28-15.62-5.63-3.21-.19-6.42-0.55-9.66-0.6-2.21,0-3.26-1.22-3.21-3.1s1.11-2.84,3.37-2.91c2.49-.09,5-0.15,7.48,0a51.31,51.31,0,0,0,13.73-1.46c1-.21,1.93-0.44,1.5-1.81,0.9-.77,1.54.26,2.33,0.32a1.08,1.08,0,0,1,1.07.62c0.21,0.64-.39.67-0.76,0.84a28.85,28.85,0,0,1-8.61,2.47,98,98,0,0,1-17.13.93c-0.82,0-1.9-.29-2,1.07s1.09,1.45,2,1.43a75,75,0,0,1,12.93,1c5.1,0.82,10,2.15,13.84,6a6.55,6.55,0,0,1,1.79,2.89c0.39,1.27,2.28,1.68,2.74,3.28,0.19,0.66.56,1.33,0.74,2a13.28,13.28,0,0,1,2,5.18c-1.25.47-1.5-.57-1.78-1.31-0.55-1.44-1.16-2.85-1.67-4.3-0.73-2.1-1.63-2.42-3.45-1.16a34.37,34.37,0,0,1-6.91,3.74c0.72,0.76,2.57.17,2.51,2-2.19.68-3.9-.84-5.8-1.37-1-.27-0.33-1-0.12-1.17A60.78,60.78,0,0,0,102.46,322.94Z"/>
      <path class="cls-1" d="M133.4,323.85l-1.79-5.29c1.73,1,1.53,3,2.25,4.57s2.1,2.89.77,4.87c-0.38.57,1.15,1.17,1.44,2l-0.5,0c-3.42-.86-6.5-2.64-9.86-3.68-7-2.19-14.12-3.2-21.15-.39-6.2,2.48-9.51,7.59-11.21,13.86-2.2,8.06-.62,15.87,1.51,23.64,0.21,0.75.76,1.48,0.13,2.28l0,1.82a47.77,47.77,0,0,1-3.85-24.51,24.66,24.66,0,0,1,2.29-7.86,20.09,20.09,0,0,1,9-9.84,25.64,25.64,0,0,1,13.78-2.81c1.32,0.09,2.52,1.18,3.9.71-4.72-3.39-9.75-2.67-14.79-.68a6.84,6.84,0,0,1-2.79.34c3.61-1.48,7.29-2.73,11.25-2.62,1.72,0.05,3-1.69,4.88-1.1-0.21,1.35-1.63.68-2.43,1.67,2.07,0.82,4,1.71,6.18,1.63,2.12-.84,3.69.9,5.57,1.22a9.16,9.16,0,0,1,2.84,1.15C132.16,325.68,132.94,325.23,133.4,323.85Z"/>
      <path class="cls-1" d="M282.31,104.2c3.17-7.65,6-15.45,9.55-22.94A233.16,233.16,0,0,1,307,53.48c2.86-4.39,6.35-8.4,8.34-13.35a40,40,0,0,0,3.2-12,97.62,97.62,0,0,0-.07-11.41c0-.64-0.22-1.47.47-1.81s1.11,0.53,1.52.95c3.69,3.79,7.64,7.32,11,11.44a0.84,0.84,0,0,1-.59.28A4.13,4.13,0,0,1,328.58,26c-2.82-2.79-5.61-5.6-8.5-8.49,1.08,7.28-.17,14.16-2.44,20.94-1.65,4.91-4.84,8.9-7.66,13.09a214.07,214.07,0,0,0-16.22,29c-3.64,7.8-6.91,15.73-9.88,23.8-0.55,1.5-.65,1.59-1.73,1.93A4.2,4.2,0,0,1,282.31,104.2Z"/>
      <path class="cls-1" d="M125,296l-2.31-.36a1.94,1.94,0,0,1-2.09,0c-7.59-3.18-15.53-3.25-23.43-2-7.06,1.1-13.06,4.72-18.42,9.44-8.34,7.34-13.34,16.71-16.52,27.17-0.57,1.88-.81,3.87-1.46,5.76a6,6,0,0,0,.13,3.48c1.3,5,3,9.84,6,14.1a2.64,2.64,0,0,1,.49,1.22,1.1,1.1,0,0,1-.39,1,17.48,17.48,0,0,1-4.51-6.92c-1.73-4.14-3.43-8.38-3-13.13a33.16,33.16,0,0,1,1.61-6.59A61.38,61.38,0,0,1,68,313.64c4.45-7,9.92-12.89,17.17-17a49,49,0,0,1,13.06-4.75c7.43-1.76,14.44-.1,21.44,1.7C121.48,294.06,123.59,294.48,125,296Z"/>
      <path class="cls-1" d="M330.83,27.38l0.65-.09c7.59,7.37,14.93,15,22.34,22.53,4.08,4.15,3.1,4-1.18,6.13-11.1,5.5-22.46,10.51-32.94,17.16A111.46,111.46,0,0,0,298.38,90.3c-1.21,1.27-2.45,2.51-3.67,3.76-0.56.53-.76,1.6-1.9,1.26a1.54,1.54,0,0,1,.57-1.76A138.93,138.93,0,0,1,311.25,77.2,168,168,0,0,1,331,65.06c6.71-3.67,13.77-6.63,20.6-10,3.78-1.89,3.81-1.84.76-4.89q-9.83-9.83-19.65-19.67C331.81,29.61,330.68,28.86,330.83,27.38Z"/>
      <path class="cls-1" d="M67.07,355.73l0.07-1c1.3-.15,1.77.89,2.34,1.69,4.75,6.66,10.89,11.91,17.2,17,3.66,2.93,7.59,5.52,11.4,8.31A80.34,80.34,0,0,1,90,364c-2.46-8.49-3.5-17.05-1.12-25.79A19.72,19.72,0,0,1,90.72,333c0.46-.51.85-1.19,1.72-0.75,0.33,1-.54,1.63-0.9,2.32-1.23,2.33-1.16,5-2.3,7.35a58.9,58.9,0,0,0,.07,13,58.09,58.09,0,0,0,3.82,13.67,80,80,0,0,0,8.35,15.34c0.32,0.46,1,.92.39,1.49s-1.13,0-1.56-.35c-5.55-4.07-11.17-8-16.58-12.28A78.49,78.49,0,0,1,67.07,355.73Z"/>
      <path class="cls-1" d="M145.37,238.55h0.46a12.63,12.63,0,0,1,1.89,6.91c0.15,5.59.49,11.23-.07,16.78-0.71,7.16-1.62,14.31-2.85,21.42-0.7,4-1.52,8.08-2,12.17-0.37,3.28-1,6.54-1.51,9.81-0.8,4.8-.89,9.65-1.49,14.47a43.66,43.66,0,0,0,.38,12.08,5.59,5.59,0,0,1-.13,2.63c-0.13.64,0.24,1.43-.57,1.86-2.16-5.74-1.26-11.72-1.14-17.58A101.21,101.21,0,0,1,140.31,303c0.55-3,.92-6.07,1.32-9.1,0.7-5.37,1.92-10.65,2.57-16,1.11-9.22,2.66-18.41,2.42-27.76C146.53,246.21,145.2,242.46,145.37,238.55Z"/>
      <path class="cls-1" d="M298.25,94.53a116,116,0,0,0-12.46,15.9c-3.37,5.34-7.13,10.52-9.37,16.52-0.26.69-1.12,1-1,1.88a2.65,2.65,0,0,0,.26.56c4-5.32,7.8-10.66,12.1-15.61a196.18,196.18,0,0,1,15.39-15.44,5.74,5.74,0,0,1,1.32-.69c-0.31,1.51-1.62,2.24-2.64,3.11a141.53,141.53,0,0,0-16.72,17.46,135.17,135.17,0,0,0-11.21,15.64c-0.19.3-.36,0.75-0.8,0.52a1.12,1.12,0,0,1-.38-1.56c0.79-1.94,1.57-3.9,2.49-5.78A153.79,153.79,0,0,1,293.26,98.9c1.5-1.88,3.32-3.5,5-5.24A0.59,0.59,0,0,1,298.25,94.53Z"/>
      <path class="cls-1" d="M344.2,537.74v-0.47c1.55-2.06,4.09-1.88,6.19-2.53A120.28,120.28,0,0,0,374,524.46a103.34,103.34,0,0,0,21.79-16.79c2-2,3.35-2.28,4.51-1.06s0.91,2.37-1,4.37a99.84,99.84,0,0,1-14.8,12.88c-0.69.49-1.38,1.2-2.38,0.66a0.52,0.52,0,0,1,0-.62A138.51,138.51,0,0,0,395,513.4l3.63-3.52c0.68-.66,1.25-1.55.5-2.3s-1.61,0-2.19.69a87.76,87.76,0,0,1-17.19,14.3A107.76,107.76,0,0,1,359,533.16c-4.17,1.56-8.4,2.88-12.61,4.32A10.41,10.41,0,0,1,344.2,537.74Z"/>
      <path class="cls-1" d="M128.52,291.22l0-.88c2.11,1,4.16,5.3,3.5,7.36a3.35,3.35,0,0,1-2,1.91,49.63,49.63,0,0,1-8.73,3.16,21.67,21.67,0,0,1,9,6.35,28.59,28.59,0,0,1,5,9.5c0.09,0.28.46-.07,0.2,0.07,0,0-.1,0-0.13-0.18-0.78-3.32.18-6.56,0.49-9.83,0.43-4.53,1.44-9,1.91-13.51,0.32-3.06,1.29-6,1.51-9.12a2.39,2.39,0,0,1,1.26-2H141c0.11,3-1,5.91-1.36,8.88-0.85,6.32-1.81,12.62-2.68,18.94-0.38,2.78-.32,5.58-0.76,8.33-0.09.57,0,1.39-.64,1.51-0.84.14-.64-0.77-0.84-1.26-2-4.94-4-9.9-8.48-13.32a34.36,34.36,0,0,0-6.75-3.56c-0.6-.28-1.76.11-1.71-0.9,0-.82,1.16-0.67,1.81-0.91,3.22-1.16,6.57-1.88,9.74-3.31,2.06-.93,1.74-2,1.19-3.4S128.72,292.73,128.52,291.22Z"/>
      <path class="cls-1" d="M354.8,67.53a126.64,126.64,0,0,1,18.57-6.17c4.72-1.18,9.44-2.39,14.17-3.53,0.93-.23.8-0.86,0.87-1.51,0.26-2.56-1.05-4.81-1.52-7.23-0.75-3.81-2.47-7.35-4.18-10.87-0.88-1.81-1.41-1.56-2.28-.19-4,6.31-9.67,10.89-15.8,15a5,5,0,0,1-1,.39c-0.26-.81.55-0.9,0.89-1.31,2.25-2,4.91-3.4,7.18-5.4A53.09,53.09,0,0,0,380,37.05c1.23-1.76,2-1.82,3,.06,1.94,3.82,3.84,7.66,4.65,12,0.45,2.37,1.31,4.64,1.49,7.08,0.11,1.4-.24,2.21-1.72,2.55-4.56,1-9.14,2-13.65,3.3s-8.77,2.83-13.18,4.15c-2,.59-3.75,1.65-5.81,1.89a0.31,0.31,0,0,1-.12-0.33A0.2,0.2,0,0,1,354.8,67.53Z"/>
      <path class="cls-1" d="M364.52,52.07l-0.89,1.31c-8.82,5-18.07,9.1-27.08,13.68C326,72.43,315.79,78.39,306.88,86.37c-3,2.65-5.61,5.59-8.63,8.16q0-.43,0-0.87a89.91,89.91,0,0,1,17-14.9,184,184,0,0,1,29.13-16.32A192.92,192.92,0,0,0,363.89,52.2,2,2,0,0,1,364.52,52.07Z"/>
      <path class="cls-1" d="M255.15,186c-1.62,0-2.72-.92-3.74-2a1.21,1.21,0,0,1,.09-1.76c0.71-.93,1.4-1.88,2-2.87,0.85-1.37,1.26-2.73.21-4.29a1.79,1.79,0,0,1,.4-2.72,2.18,2.18,0,0,1,2.11-.3,1.66,1.66,0,0,1,.68,2.13c-1.28,3.2-.07,5.79,1.68,8.38C259.62,184.07,257.64,186,255.15,186Z"/>
      <path class="cls-1" d="M354.8,67.53l0,0.5c-2.22,1.61-4.91,2.19-7.37,3.28-6.26,2.78-12.34,5.88-18.3,9.27a190.64,190.64,0,0,0-22.52,15.57,5.43,5.43,0,0,1-.93.47c1.08-2.55,3.66-3.49,5.6-5A160,160,0,0,1,339.43,74,109.61,109.61,0,0,1,354.8,67.53Z"/>
      <path class="cls-1" d="M393.67,346.82l-0.58-.07c-0.45-.79,0-1.39.39-2a32.52,32.52,0,0,1,6-7.83c1.46-1.35,2.79-2.84,4.24-4.2,1.27-1.19,1.37-2.34.57-3.92-2.29-4.54-5.8-8.13-9-12-1.13-1.36-2.18-2.78-3.24-4.19a2.08,2.08,0,0,1-.66-2c1.17,0,1.22,1.47,2.19,1.76a20.07,20.07,0,0,1,4,4.92c1.29,1.21,2,2.91,3.47,4a17.6,17.6,0,0,1,2.29,3.09L406,329.2c1.17,1.13,2,2.26.11,3.48A50.06,50.06,0,0,0,393.67,346.82Z"/>
      <path class="cls-1" d="M233.7,94.95c0.24-1.31-1.35-2.19-.84-3.56,1.6,1.34,1.62,3.43,2.22,5.16,1.89,5.41,3.89,10.78,5.43,16.32,0.91,3.27,2.1,6.51,3,9.8,0.57,2.2,1.56,4.49.95,7-1.59-3.44-3.6-6.64-4.64-10.29l0.22-.23a0.82,0.82,0,0,1,.59.16,5.26,5.26,0,0,1,1.32,2.73c-0.29-2.24-1.18-3.77-1.39-5.48-0.07-.19-0.13-0.39-0.19-0.58-0.81-2-1.1-4.13-2-6.08a4.19,4.19,0,0,1-.17-0.59c0-1.44-1-2.62-1.21-4a5,5,0,0,1-.15-0.57c-0.18-1.16-.92-2.12-1.15-3.26-0.09-.18-0.16-0.36-0.24-0.54-0.8-1.74-1.15-3.63-1.9-5.39A0.75,0.75,0,0,1,233.7,94.95Z"/>
      <path class="cls-1" d="M382.13,523.9l0.08,0.61c-0.37,1.42-1.73,1.72-2.73,2.4-8.38,5.64-17.7,9.24-27.17,12.51-1,.34-2.1.83-3.18,0.12l-2.36.35c1.51-1.55,3.68-1.35,5.52-2a123.21,123.21,0,0,0,29-13.7A4.47,4.47,0,0,1,382.13,523.9Z"/>
      <path class="cls-1" d="M292.88,95.34l1.83-1.28c-1.15,2.42-3.38,4-4.87,6.13-3.3,4.82-6.8,9.5-10.22,14.23a4,4,0,0,1-.79.45,101.54,101.54,0,0,1,3.49-10.67l0,2.23c0.6,0.67-.07,1.22-0.18,1.92,2.78-3.92,5.73-7.62,8.48-11.48C291.18,96.13,291.72,95.25,292.88,95.34Z"/>
      <path class="cls-1" d="M89.23,342a34.13,34.13,0,0,1,3.06-9.74,5.76,5.76,0,0,1,3.53-4.87c1.32-.53,1.82-2.29,3.48-2.29a28.05,28.05,0,0,0-8.4,11.87C90.31,338.6,90.87,340.65,89.23,342Z"/>
      <path class="cls-1" d="M407.47,326.56a34.18,34.18,0,0,1,4,2.3c0.57,0.42-.25,1-0.63,1.4a1.53,1.53,0,0,1-2.16.36c-1.12-.8-1.44-2.17-2.1-3.29C406.36,326.89,406.8,326.54,407.47,326.56Z"/>
      <path class="cls-1" d="M397.61,317.29a16,16,0,0,1-4-4.92c1.48-.84,1.67,1,2.59,1.3a3.7,3.7,0,0,1,1.89,1.77C396.56,315.68,398,316.72,397.61,317.29Z"/>
      <path class="cls-1" d="M235,109.54a1.4,1.4,0,0,1,.44,0c1.34,0.31,1.28,1.57,1.72,2.49,0.71,1.39,1.4,2.79,2.24,4.1,0.47,1,1.37,1.84.55,3l-0.2.18C238,116.16,236.07,113.07,235,109.54Z"/>
      <path class="cls-1" d="M345.51,541.27l12,0A43.44,43.44,0,0,1,345.51,541.27Z"/>
      <path class="cls-1" d="M357.89,541.3a13.33,13.33,0,0,1,6.24-.89A14.06,14.06,0,0,1,357.89,541.3Z"/>
      <path class="cls-1" d="M346.41,539.93c-0.15.54-1.52,0.28-.89,1.34-0.58-.07-1.68.2-1.5-0.6C344.27,539.56,345.53,540,346.41,539.93Z"/>
      <path class="cls-1" d="M406.07,332.69c1.32-1.2.53-2.34-.11-3.48C407.9,330.58,407.94,331.68,406.07,332.69Z"/>
      <path class="cls-1" d="M403.37,324.34a7.91,7.91,0,0,1-2.29-3.09A4.25,4.25,0,0,1,403.37,324.34Z"/>
      <path class="cls-1" d="M148.42,498c1.49,0,3-.39,4.46.34C151.38,498.41,149.86,498.66,148.42,498Z"/>
      <path class="cls-1" d="M391.44,310.6c2.56,4.13,5.91,7.63,9,11.33a49.64,49.64,0,0,1,4.77,7.31,2.55,2.55,0,0,1-.68,3.51c-4.07,3.7-8,7.53-10.78,12.39a6.82,6.82,0,0,0-.67,1.6,4.1,4.1,0,0,1-3.5,1.37c-7.28.12-14.56,0.34-21.84,0.55-2.27.06-2.65,0.9-1.75,2.94,2,4.44,3.69,9,5.66,13.42,1.27,2.85,2.86,5.56,4.19,8.39,4.13,8.78,9.2,17,14,25.47,2.62,4.64,5.59,9.08,8.44,13.59,2.73,4.32,5.49,8.61,8.24,12.91,1.32,2.06,1.88,2.15,3.71.6,5.55-4.7,11.11-9.38,16.62-14.12a3.26,3.26,0,0,1,2.84-.79c5,0.76,10,1.58,15,2.26,1.76,0.24,1.68.71,0.78,2s-2.56,2.48-2.75,4.4c-0.78,3.07-.18,6.23-0.66,9.32-0.09.61,0.53,1.53-.62,1.78-0.19-3.66.37-7.35-.45-11-0.39-1.72,1.1-2.61,1.77-3.86a1,1,0,0,0,.23-1.19c-0.27-.38-0.66-0.1-1,0a3.4,3.4,0,0,1-3.3-.78c-1.93-2.14-4.06-1.42-6.23-.81a1.75,1.75,0,0,1-1.47.2c-2.19-1.35-3.27.31-4.85,1.42-4.93,3.47-8.7,8.32-13.93,11.41a11.53,11.53,0,0,0-1.86,1.84c-1.64,1.59-3.12,1.23-4.47-.57a141.16,141.16,0,0,1-7.93-12.3c-2.23-3.71-5.05-7.09-6.68-11.18-0.28-.71-1.12-1.19-1.5-1.88-2.65-4.93-5.58-9.7-8.24-14.63-1.67-3.1-3.36-6.26-5.26-9.26a15.49,15.49,0,0,1-1.79-3.24c-1.35-4.11-4-7.64-5.3-11.75s-3.53-7.71-5-11.71c-1.08-2.95-.15-5,2.92-5.06,5.8,0,11.61-.54,17.4.28,1.59,0.23,3.2.34,4.8,0.51a1.91,1.91,0,0,0,2.1-1.16,40.68,40.68,0,0,1,9.12-11.64c3.76-3.16,3.94-4.33.6-8.82-1.92-2.58-4.2-4.89-6.19-7.42-1.71-2.17-3.18-4.53-4.86-6.72a28.36,28.36,0,0,1-4-6.17c-0.28-.65-0.9-1.09-0.51-1.9a0.92,0.92,0,0,0-.42-1.31,1.47,1.47,0,0,1-.64-0.56c0.63-2.3-2.07-3.83-1.2-6.42a9.18,9.18,0,0,0-.24-6.46,2.46,2.46,0,0,1-.31-1c2.36-1.69-.08-5.17,2.52-6.75a0.73,0.73,0,0,0,.21-1,1.6,1.6,0,0,1-.1-1.06c2.51-2.73,1.87-7,4.78-9.58,1-.9.68-2.55,0.16-3.74-0.85-1.92,0-2.68,1.67-3.15a35.31,35.31,0,0,1-4.06,14.84,31.15,31.15,0,0,0-2.85,21.56A25.49,25.49,0,0,0,391.44,310.6Z"/>
      <path class="cls-1" d="M396.32,254.91c-0.35-4.36.79-8.62,0.87-12.95,0.21-10.44.4-20.88,0.49-31.33a5.43,5.43,0,0,1,2.22-4.51,74.16,74.16,0,0,0,17.62-21.44c0.61-1.07,1.1-2.56-.29-3.34-1.61-.9-2.41.6-3,1.72a70.13,70.13,0,0,1-13.88,18c-0.46.43-.83,1.25-1.57,1-0.89-.31-0.63-1.23-0.6-1.93,0.57-14.39.59-28.79,1.46-43.18q0.64-10.55,1.19-21.12a5.36,5.36,0,0,1,.34-2.59c0,3.6,0,7.21,0,10.81a4.5,4.5,0,0,0,.2,1.95c0.95,1.81.57,3.17-.66,4.79-1.09,1.42-.68,3.5-0.33,5.13a39.05,39.05,0,0,1,.39,13.31,48.17,48.17,0,0,0,0,6.17c0,1.53.29,3.13-1.43,4.09a1.24,1.24,0,0,0-.34,1.22q0,9,0,18.06c1.11,0.23,1.57-.53,2.15-1.06,5-4.57,8.64-10.22,12-16,0.58-1,1.1-1.72,2.39-1.2a2.89,2.89,0,0,0,1.3.14c2.72-.24,3.52.66,2.77,3.35a9.62,9.62,0,0,1-1.85,3.93,89.64,89.64,0,0,0-5.87,8.07c-3.29,4.81-7.46,8.55-11.63,12.41a1.75,1.75,0,0,0-.44,1.56c0,4.1.44,8.22-.37,12.3a2.68,2.68,0,0,1-.37,1.44c-2,1.25-1.37,3.17-1.38,4.9,0,6.18,0,12.36,0,18.54a6.8,6.8,0,0,0,.65,3.6C399.12,252.15,398,254.14,396.32,254.91Z"/>
      <path class="cls-1" d="M387,454.18c1.87-1.35,4.13-1.78,6.21-2.64,1.28-.53,1.85,0,1.86,1.23,0,4.49,0,9,0,13.46,0,2.16-2.09,2-3.19,2.41-5.43,1.84-10.78,3.88-16.28,5.55-6.7,2-13.47,3.78-20.26,5.44-4.39,1.07-8.87,1.84-13.31,2.76-7.1,1.46-14.3,2.35-21.47,3.29-5.14.67-10.25,1.88-15.51,1.67a15.52,15.52,0,0,0-4.56.65,7.91,7.91,0,0,1-4.61-.22c3.15-2.83,7-3.11,10.33-4.43a3.13,3.13,0,0,0,1.33,1.32,4.38,4.38,0,0,0,3.56-.09c1.31-.44,2.71-0.33,4-0.75a4,4,0,0,1,.71-0.13c7.69-.87,15.39-1.58,22.94-3.36,7-1.77,14.24-2.9,21.3-4.64,10-2.47,19.79-5.54,29.49-9,1.12-.4,2.15-1.45,3.51-0.75,0.32,0.28.67,1.08,1,0a6.42,6.42,0,0,0,.08-2c0-3.56,0-7.12,0-10.68,0.12,3.8,0,7.59,0,11.39,0,0.6.16,1.41-.9,1.37-1-1.61-.46-3.4-0.57-5.1-0.09-1.45-.06-2.91,0-4.36,0.05-1.61-.67-1.88-2-1.35a4.71,4.71,0,0,1-2.08.57C387.6,455.69,387.51,454.75,387,454.18Z"/>
      <path class="cls-1" d="M387,454.18c1.08,0,1.53.33,1,1.41-0.1,1-1,1-1.61,1.28-8,3.08-16,6.26-24.15,9.1-8.39,2.94-16.71,6.07-25.07,9.09s-16.41,6.07-24.73,8.77a6.53,6.53,0,0,0-2.65.87,2.22,2.22,0,0,1-2.64,0c-1.06.05-1.54-.29-0.92-1.37,5.56-2.1,11.18-4,16.8-6,7.36-2.51,14.59-5.36,22-7.81,6.05-2,11.89-4.67,17.95-6.68,7.78-2.58,15.37-5.66,23-8.63A3.76,3.76,0,0,1,387,454.18Z"/>
      <path class="cls-1" d="M396.8,140.9c0.28,6.34-.94,12.59-1,18.92-0.28,17-1.21,33.95-1.42,50.94-0.15,12-.62,24-1.11,35.93-0.21,5.26-.84,10.51-1.28,15.76q0-5.08,0-10.16a6.1,6.1,0,0,0-.58-3.43,2.39,2.39,0,0,1,.4-2.68,4.47,4.47,0,0,0,.58-3.17,102.9,102.9,0,0,1-.06-17.78c0.35-5.65.11-11.33,0.07-17a4.73,4.73,0,0,1,1.24-3.85,2.5,2.5,0,0,0,.54-2.06c0-7.21.12-14.43-.06-21.64-0.08-3.12-1.14-6.2-.83-9.38,0.23-2.41-.33-5,2-6.87a2.7,2.7,0,0,0,.23-1.69c0-4.71,0-9.42,0-14.14a7.23,7.23,0,0,0-.59-2.76C394,143.72,395,141.44,396.8,140.9Z"/>
      <path class="cls-1" d="M401.16,131.62a24.31,24.31,0,0,1,.28-5.71,1.7,1.7,0,0,0-1.49-2.24c-1.37-.27-1.75.6-1.87,1.8-0.39,4-.84,8-1.27,12,0-3,0-6,0-9.05,0-1.44-1.36-2.8,0-4.36,0.78-.91,4.56-2.16,5.59-1.53a1,1,0,0,1,.58,1.09c-0.62,1.78,0,3.38.33,5.12A2.34,2.34,0,0,1,401.16,131.62Z"/>
      <path class="cls-1" d="M441.43,430.82c0.8-2.49.24-5.05,0.42-7.58,0.09-1.24,0-2.48.86-3.52,0.24,5.94-.73,11.84-0.78,17.76-0.06,7.26-.06,14.53-0.65,21.76-0.31,3.77.2,7.6-.75,11.31,0.09-6.58,0-13.13.65-19.73S441.39,437.5,441.43,430.82Z"/>
      <path class="cls-1" d="M391.51,275.72c2.72-.33,2.35,2.23,2.92,3.52a38.48,38.48,0,0,0,4.71,8.33,8,8,0,0,0,11.83.7c3.23-3,6.52-5.94,9.8-8.89,0.46-.41.83-1.23,1.61-0.9s0.49,1.18.41,1.77a93.13,93.13,0,0,0-.44,11.24,4.15,4.15,0,0,1-1.43,3.09q-10.1,9.69-20.22,19.37c-1,1-1.77,1.07-3,.08a28.83,28.83,0,0,1-9.49-12.93,24.26,24.26,0,0,1-1.07-13.34c0.94-4.29,3.2-7.93,4.35-12h0Z"/>
      <path class="cls-1" d="M399.45,139.59l0,1.3c-0.5,3-.08,6.1-0.23,9.15a7.88,7.88,0,0,1-.18,2.81l0,0.85c-0.79,3.08-.63,6.23-0.67,9.37a6.88,6.88,0,0,1-.16,2.61c0,8.23.17,16.48-.58,24.68-0.35,3.82-.28,7.63-0.39,11.44,0,0.64-.22,1.49.43,1.83s1.39-.33,1.88-0.77a68.11,68.11,0,0,0,11.36-12.8c1.48-2.25,2.87-4.56,4.31-6.83,0.41-.65.74-1.72,1.77-1.06s0.33,1.3-.09,2.07a72.14,72.14,0,0,1-18.77,22.37c-1.25,1-1.21,2.44-1.22,3.84,0,7.36.25,14.73-.19,22.06-0.62,10.24-.77,20.51-1.91,30.74-0.4,3.57-1.62,7-1.53,10.63a4.14,4.14,0,0,0-2.66,2.59l-0.86.95c-1.1-.13-0.56-0.82-0.46-1.36a17.77,17.77,0,0,0,2.28-5.7c1.43-1.88.87-4.16,1.24-6.25l0.08-1.71c1-2,.33-4.17.83-6.21a1.81,1.81,0,0,1,0-.42c0.52-2.89.09-5.81,0.24-8.71a10.53,10.53,0,0,1,.18-3.25l0-.85c0.87-3.45.59-7,.67-10.48a50.24,50.24,0,0,1,.17-7.23l0.1-20.29c0.34-2,0-4,.18-5.93,0.79-8.33.85-16.7,1-25.05l0.11-13.2a71.21,71.21,0,0,0,1.07-13.57,29.32,29.32,0,0,1,.15-5.93l0.07-3c0.79-2,.39-4.16.83-6.21l0-.86c0.64-2-.18-4.14.46-6.16h1.3a14.84,14.84,0,0,1,.06,5.33l-0.09,2.59C399.34,135.08,399.94,137.4,399.45,139.59Z"/>
      <path class="cls-1" d="M424.38,279.41c-0.33-1.07-.2-2.12-1.12-2.73a0.66,0.66,0,0,1-.18-1c1.92-2.89,2.79-6.22,4-9.4a127.58,127.58,0,0,0,4.23-13.51c1-3.73,2.19-7.4,2.86-11.22a82.54,82.54,0,0,1,2-9c1-3.32,1-6.78,1.91-10.1a40.69,40.69,0,0,0,1.31-8c0.3-4.49,1.11-8.9,1.74-13.31,0.82-5.66.69-11.41,1.89-17,0.52-2.42.19-5,.58-7.46,0.92-5.75.76-11.57,1.36-17.34,0.15-1.46.3-2.92,0.49-4.37,0.09-.71.12-1.66,1.09-1.65,1.18,0,1.12,1.05,1,1.82a84.5,84.5,0,0,0-.94,9.41c-0.38,6.29-1,12.58-1.62,18.86-0.71,7.3-1.21,14.63-2.35,21.87-1,6.21-1.61,12.47-2.93,18.63-0.7,3.28-1.07,6.65-1.77,9.94-0.59,2.77-1.3,5.52-1.87,8.3a69.23,69.23,0,0,1-1.62,6.82c-1.15,3.67-2.21,7.37-3.13,11.1-1,4.18-3.11,8-4.24,12.12C426.43,274.59,425,276.67,424.38,279.41Z"/>
      <path class="cls-1" d="M422.94,294.13v-6.8c0.85,3,2,2.24,3.14,1.21L440,276a11.69,11.69,0,0,1,1.12-1.06c0.61-.42,1.24-1.33,2-0.39s-0.19,1.41-.64,1.83c-4.37,4-8.79,8-13.19,12Z"/>
      <path class="cls-1" d="M389.24,276.08a1.53,1.53,0,0,0,.46,1.36c0.33,1.33-.7,2.18-1.14,3.23a30,30,0,0,0-2.42,14.09,22.86,22.86,0,0,0,3.23,10.41,1.08,1.08,0,0,1,.2,1.06c-1.56-.71-1.73-2.36-2.27-3.64-0.94-2.25-2-4.47-2-7.06,0-4.53-.33-9.09,1.38-13.44C387.46,280.05,388.38,278.08,389.24,276.08Z"/>
      <path class="cls-1" d="M396.29,174c-0.1,7.58.56,15.19-.78,22.74-0.48,2.7.38,5.53-.43,8.24-0.44-7.95.8-15.84,0.86-23.77C396,178.8,395.57,176.36,396.29,174Z"/>
      <path class="cls-1" d="M397.62,141.29a164.08,164.08,0,0,1-.4,17.52,3,3,0,0,1-.82,2Z"/>
      <path class="cls-1" d="M395,225.26q0,7.44,0,14.87a4.29,4.29,0,0,1-.87,2.84c0.54-5.56.41-11.13,0.51-16.7A3.64,3.64,0,0,1,395,225.26Z"/>
      <path class="cls-1" d="M398.15,165.69c0-3,0-6.1,0-9.15a4.24,4.24,0,0,1,.87-2.83Z"/>
      <path class="cls-1" d="M394.11,243.83q0,5.17,0,10.34a1.74,1.74,0,0,1-.44,1.62C393.84,251.81,393.34,247.8,394.11,243.83Z"/>
      <path class="cls-1" d="M399,152.86q0-5.17,0-10.33a1.81,1.81,0,0,1,.42-1.63C399.28,144.89,399.8,148.9,399,152.86Z"/>
      <path class="cls-1" d="M399.45,139.59c0-1.53,0-3.05,0-4.58,0-.81,0-1.63.85-2.07A28.09,28.09,0,0,1,399.45,139.59Z"/>
      <path class="cls-1" d="M398.53,132c-0.23,2.08.74,4.32-.83,6.21A19.42,19.42,0,0,1,398.53,132Z"/>
      <path class="cls-1" d="M393.67,256.21c0,1.38,0,2.76,0,4.14,0,0.82,0,1.62-.85,2.07A31.23,31.23,0,0,1,393.67,256.21Z"/>
      <path class="cls-1" d="M392.76,264.13c-0.21,2.12.9,4.51-1.24,6.25Z"/>
      <path class="cls-1" d="M399,125c-0.24,2,.46,4.16-0.46,6.16C398.72,129.12,398.11,127,399,125Z"/>
      <path class="cls-1" d="M400.36,130.35L400.3,125A8.15,8.15,0,0,1,400.36,130.35Z"/>
      <path class="cls-1" d="M390.41,307.43c0.45,0.76,1.72,1,1.38,2.63C391.23,309,390.25,308.62,390.41,307.43Z"/>
      <path class="cls-1" d="M390.56,276.49a2.54,2.54,0,0,1,2.66-2.59c-0.46.71-1.57,0.81-1.72,1.82h0Z"/>
      <path class="cls-1" d="M383.44,350.31c2.36,0,4.73.18,7.06-.05a4.62,4.62,0,0,1,5.08,2.71q8.52,15.37,17.25,30.63,6.69,11.78,13.54,23.46a2,2,0,0,1-.5,3c-5.37,4.57-10.76,9.12-16.07,13.75-1.37,1.19-2,.22-2.57-0.67-3.21-5-6.41-10.1-9.53-15.21-3.53-5.78-7.22-11.47-10.45-17.43-4.05-7.48-8.35-14.82-11.91-22.57-2.22-4.82-4.27-9.71-6.56-14.5-0.94-2-.5-2.71,1.64-2.72,4.34,0,8.68,0,13,0v-0.4Z"/>
      <path class="cls-1" d="M444.28,409.58c-4.42-1-9-1.27-13.48-1.86-2.5-.33-3.22-2.41-4.2-4.09-5.17-8.88-10.22-17.83-15.32-26.74Q403.9,364,396.5,351.09a3.13,3.13,0,0,1,0-3.35,48.74,48.74,0,0,1,10.41-12.13c1-.83,1.7-0.89,2.62.09C416.64,343.23,424,350.54,430,359a82.42,82.42,0,0,1,9.32,17.05,89.18,89.18,0,0,1,6.22,24.78c0.2,2.09.86,4.16,1.05,6.28C446.74,408.87,446.37,410,444.28,409.58Z"/>
      <path class="cls-1" d="M349.12,539.53a106.86,106.86,0,0,0,33.09-15c5.71-3.26,10.44-7.74,15.13-12.25,0.9-.86,1.69-1.83,2.54-2.74a1.71,1.71,0,0,0-.12-2.8c-1-.87-1.91-0.38-2.69.43a96.83,96.83,0,0,1-9.9,9.05,106,106,0,0,1-21,12.92,115.68,115.68,0,0,1-20,7.32,13.86,13.86,0,0,0-2,.85c-3.24.12-6.23,1.38-9.37,2s-6.47,1.46-9.71,1.49c-17.74.15-35.48,0-53.22,0.16-2.3,0-2.73-1-2.78-2.84-0.08-3-.12-3-3.16-3-4.48,0-4,.34-4-4.08,0-7-1-13.91-.93-20.9,0-1.8.46-2.38,2.33-2.37,14,0.07,28,.2,42,0,10.49-.17,21-0.42,31.44-1.46,6.27-.63,12.64-0.08,18.81-1.62,0.35-.09.68-0.24,1-0.36l2.16-.05c2.49-.4,5.07-0.1,7.52-0.88h0c1.44-.59,3,0.13,4.46-0.41l1.28,0a31.36,31.36,0,0,0,4.44-.86c5.78-.36,11.47-1.41,17.19-2.23,3.69-.53,7.29-1.58,11-1.81a42,42,0,0,0,7.34-1.32c7.86-1.93,15.9-3.11,23.67-5.45,1.31-.4,1.27.44,1.28,1.32a22.08,22.08,0,0,1-1.71,7.42,42.08,42.08,0,0,1-11.86,17.61A70.41,70.41,0,0,1,405.2,529,87.93,87.93,0,0,1,394,533.29a124.25,124.25,0,0,1-16.95,4.17,51.7,51.7,0,0,0-9.22,1.84,4.78,4.78,0,0,1-1.29.25c-5.63.27-11.19,1.57-16.87,1.26C348.18,540.74,348.5,540.31,349.12,539.53Z"/>
      <path class="cls-1" d="M255.77,534.67c-1.79.19-3.8-.56-5.22,1.21,0.54,4.14.46,4.24-3.68,4.24-6.26,0-12.52-.17-18.76.07-3.49.14-6.79-1.37-10.28-.8a2.6,2.6,0,0,1-1.22-.47,4.81,4.81,0,0,0-2-.77c-5.38.61-9.78-3.36-14.89-3.27-3,.05-5.15-2.43-8.08-1.65-3.6-2.23-7.83-2.25-11.74-3.39a2.44,2.44,0,0,0-1.72-.12,3.17,3.17,0,0,1-3.46-.67,4.44,4.44,0,0,0-4.2-.6,2.62,2.62,0,0,1-2.67-.51,5.07,5.07,0,0,0-3.29-1.06A85,85,0,0,1,153,525.21c-1.22-.21-2.41-0.73-3.67-0.22a0.93,0.93,0,0,1-.86,0c-3.24-2.11-7.35-3.16-8.42-7.79-0.37-1.6-1.64-3.2-1-4.8,1.06-2.66,1.13-5.56,2.31-8.14a3,3,0,0,1,3-1.85c5.13,0,10.27-.07,15.34,1a13,13,0,0,0,4.61-.06,27,27,0,0,1,7.66,0h3.5c2.75,2.28,6,1.66,9.1,1.38s5.87-.18,8.8-0.26a1.58,1.58,0,0,1,.87.09c4.78,2.89,10,1.43,15.07,1.51,2,0,4.05-.56,6,0.69a3.84,3.84,0,0,0,2.16.32c7-.09,13.95.35,20.92,0.47,2.87,0.05,5.61,1.13,8.52.9,2.19-.17,4.39,0,6.59-0.38s2.59,0.09,2.64,2.35c0.06,2.87,0,5.73,0,8.6,0,4.48-.18,9,0.49,13.43C256.66,533.15,257.25,534.32,255.77,534.67Z"/>
      <path class="cls-1" d="M171.89,503.24c-3.2.08-6.39,0.47-9.56,0.71-4.37.34-8.86-.5-13.26-1.07a36.49,36.49,0,0,0-5.84.16c-1.51,0-2,2.23-2.22,3.68-0.3,1.75.23,3.63-1.64,4.95a2.4,2.4,0,0,0-.14,2.29c1.81,2.76,1.82,6.69,5.43,8.28,1.35,0.6,3.07.65,3.79,2.32a0.67,0.67,0,0,0,.59.16c4.12-1.12,7.9.86,11.84,1.33,1.33,0.16,2.63.08,3.95,0.17s2.79,0.12,3.65,1.54c0.49,0.81,1.1.59,1.88,0.24,1.86-.83,3.71-0.92,5.09,1a1.24,1.24,0,0,0,1.46.71c2.9-1.7,5.49.36,8.21,0.66,1.25,0.14,2.46.87,3.82,0.75a2.39,2.39,0,0,1,1.83.66c0.8,0.74,1.46,1.57,2.67.69a0.89,0.89,0,0,1,.85,0c3.24,2.84,7.72,1.12,11.27,3.14,1.58,0.9,3.88.38,5.16,2.35,0.3,0.47,1.11.15,1.59-.26a1.86,1.86,0,0,1,2.07-.37c2.74,2.18,6.26.6,9.14,2a4.77,4.77,0,0,0,2,.13h21.41c3.6,0,3.6,0,3.69-3.61,0.75,1.23.33,2.58,0.3,3.87,0,1-.82,1.08-1.61,1.08-8.91,0-17.82.23-26.71-.18a44,44,0,0,1-9-1.72c-2.49-.66-5.13-0.88-7.66-1.62-4.1-1.2-8.34-1.88-12.41-3.24a43.47,43.47,0,0,0-5.71-1.44c-6.57-1.24-13-3-19.66-3.95-5.33-.73-10.64-1.78-16-2.53a31.28,31.28,0,0,1-8.29-2.39c-3.31-1.47-4.46-4.74-5-8a13.54,13.54,0,0,1,.7-7.6c0.84-1.89-.06-4.11,1.37-5.92A2.21,2.21,0,0,1,143,501c9.43,0.65,18.86,1.28,28.29,1.92A1.72,1.72,0,0,1,171.89,503.24Z"/>
      <path class="cls-1" d="M255.77,534.67c1-1.09.09-2.28,0-3.31-0.72-5.87-.17-11.75-0.35-17.62,0-1.4,0-2.8,0-4.2,0-1.24-.6-1.63-1.65-1.35-4.64,1.22-9.19.7-13.91,0.11a79.28,79.28,0,0,0-13.84-.64c-2.79.14-5.59,0-8.39,0-1.62,0-3.21.14-4.39-1.43-0.54-.71-1.48-0.2-2.27,0a44.32,44.32,0,0,1-14.44.19,1.76,1.76,0,0,1-.85-0.17c-3.51-3-7.36-1.57-11.18-.92a25.19,25.19,0,0,1-6.82,0,2.32,2.32,0,0,1-2.24-2.09c8.14,1,16.39.58,24.52,1.7a59.91,59.91,0,0,0,6.57.48c12.61,0.34,25.17,1.66,37.81,1.48,3.62-.05,7.26.89,10.94,0.77a1.21,1.21,0,0,1,1.48,1.39c0.07,8.07,1.27,16.09.9,24.17C257.55,534.55,257.46,535.58,255.77,534.67Z"/>
      <path class="cls-1" d="M260,540.81c-1.69,0-3.38,0-5.07,0-1.13,0-1.35-.56-1.33-1.51s0.1-1.6,1.27-1.59c3.38,0,6.76,0,10.14,0,1.2,0,1.38.81,1.4,1.8,0,1.16-.64,1.3-1.56,1.29C263.24,540.79,261.62,540.81,260,540.81Z"/>
      <path class="cls-1" d="M140.5,284.08c-1.51,3.18-1.58,6.76-2,10.08-1,8.5-3.2,16.9-3,25.67-3-7.68-7-14.31-15.95-17,2.94-1,5.42-1.88,7.89-2.78a18.81,18.81,0,0,0,3.21-1.36c1.68-1,1.21-2.64.6-3.91a16.75,16.75,0,0,0-2.69-4.46,39.08,39.08,0,0,0-16.19-12.69c-3.05-1.38-6-3-9.28-3.81-1.38-.32-2.61-0.42-3.13,1s0.66,2,1.74,2.36a80.61,80.61,0,0,1,11,4.73c4.69,2.56,9.16,5.43,12.64,10.63-13.57-5.22-26.43-6-39.24.36-12.57,6.27-20.33,16.65-25.83,29.2-0.27-2.84-.47-5.64.42-8.37,0.31-.94.63-2,0.15-2.79-1.56-2.49-.06-4.06,1.34-5.82,4.22-5.31,9.07-10,13.79-14.85,2.86-1.94,5.19-4.49,7.76-6.77a1.31,1.31,0,0,0,0-2.11c-0.71-.73-1.41-1.32-2.48-0.61a35.43,35.43,0,0,0-4.5,3.53c-6.63,6.14-13.1,12.42-18.6,19.72a41.93,41.93,0,0,1-6-12.11c-1.14-3.92-2.41-8.08-.81-12.29,0.05-.14.08-0.29,0.14-0.42,0.7-1.45-1.05-3.7,1.37-4.53,1.65-.56,3.41-0.8,5.1-1.28a105.91,105.91,0,0,0,11.51-4c3.55-1.47,7.11-2.91,10.66-4.39,1.4-.59,2.78-1.25,4.16-1.88a1.94,1.94,0,0,0,1.19-2.69c-0.53-1.33-1.75-1.3-2.82-.91-2.32.85-4.58,1.85-6.86,2.79-3.62,1.49-7.28,2.91-10.85,4.52-3.2,1.44-6.7,1.92-9.92,3.28-1.42.6-2.21,0.2-2.15-1.54,0.1-2.72-.14-5.47.13-8.17a14.83,14.83,0,0,1,2.72-6.34c3.29-5.15,8.29-8.41,13-12a48.16,48.16,0,0,0,6.83-5.52,3.68,3.68,0,0,0,1.23-3.34c-0.7-1.21-1.54-1.88-2.75-.61-4.2,4.38-9.53,7.3-14.24,11a38.79,38.79,0,0,0-6.72,7,13.11,13.11,0,0,1-.59-4.28c0-3.61.36-7.26-.12-10.81-0.84-6.26,2.45-10.28,6.69-13.92,2.72-2.33,5.62-4.45,7.34-7.72a2.15,2.15,0,0,1,1.68-.93A88,88,0,0,1,83,211.6a4.76,4.76,0,0,0,2.74-.57,2.06,2.06,0,0,0,1.2-2.33c-0.24-1.18-1.19-1.16-2.08-1.15-5.06,0-10.16-.36-15.11,1.08-1.66.48-2.21,0.09-2.2-1.69,0-12.44,0-24.88,0-37.31,0-2.77,1.52-5.07,2.81-7.22,3-5,6.72-9.57,9.75-14.55a44.25,44.25,0,0,0,4.42-11.49c1.28-4.63.92-9.39,2.08-14s1.38-9.68,2.81-14.28c1.36-4.38,2.65-8.81,4.39-13.12a59,59,0,0,1,9.89-16.52,52,52,0,0,1,9.38-8.25,92.83,92.83,0,0,1,12.58-6.48,5.06,5.06,0,0,1,4.28-.17c4.08,2,8.51,3.06,12.83,4.19a46.17,46.17,0,0,0,8.59,1.65c2.7,0.17,5.29,1.06,8,1.46,6.16,0.91,12.36,1.5,18.51,2.45,6.5,1,12.95,2.31,19.4,3.59,1.64,0.33,2.62,1.2,2.59,3.33-0.17,12.89.27,25.79-.29,38.66C198.87,134,199,149,198.64,164.09c-0.16,6.84-.22,13.68-0.22,20.52,0,10.37-1,20.71-.88,31.08a2.59,2.59,0,0,1-1.79,2.48c-5.52,2.83-5.06,9.67-.14,12.77a2.57,2.57,0,0,1,1.41,2.63c-0.17,4.7-.29,9.4-0.42,14.1a6.44,6.44,0,0,0,.06,1.76c0.31,1.18.45,2.54,2.25,2.45,2-.1,1.64-1.5,1.68-2.72,0.2-5.14-.29-10.3.38-15.43a3.45,3.45,0,0,1,1.93-2.84c4.9-3,5.15-9.42.45-12.34a2.87,2.87,0,0,1-1.51-2.86c0.07-6.7-.21-13.42.19-20.1,1.15-19,.6-38,0.85-56.93,0.14-10.73.64-21.46,1-32.19,0.25-8.46.08-16.92,0.28-25.38,0.05-2.31.34-2.5,2.34-1.3,1.07,0.64,2.47.48,3.37,1.48A137.7,137.7,0,0,1,231.23,110a117.68,117.68,0,0,1,5.58,10.6c1.44,3.43,3.07,6.8,4.19,10.41,0.81,2.63,2.1,5.17,2.84,7.85,0.58,2.09,1.28,4.16,2,6.19,1.25,3.7,1.72,7.58,3.07,11.23a2.25,2.25,0,0,1,.25.6c0.13,4.44,2.18,8.67,1.41,13.21a7.2,7.2,0,0,1-.51,2.1c-0.5,1-1.27,2.33-.44,3.31,1.46,1.72.5,2.79-.51,4.13-2.73,3.64-2.44,5.38,1.28,8.22a3.62,3.62,0,0,1,1.56,3.16c0,6.7-.64,13.33-1.22,20-0.55,6.36.25,12.84-.31,19.2-2.36,26.45-.75,52.94-1.06,79.41-0.09,7.71-.3,15.5.49,23.15,0.9,8.76,0,17.52.84,26.21,1,11.23.72,22.48,1.38,33.69,0.58,9.83.45,19.7,1.32,29.48,0.63,7,.51,13.94.74,20.91a2,2,0,0,0,.38,1.45q0,0.42,0,.83c0.38,2.83.33,5.7,0.84,8.52l0.1,10.06a22.43,22.43,0,0,1,.15,5c0,4.09.5,8.14,0.67,12.21h0c0.64,2.22-.12,4.52.4,6.75,0,4.34-.05,8.68.07,13,0,1.75-.33,2.55-2.27,2.39-11.92-1-23.93-.43-35.82-1.56-6.29-.6-12.59-0.48-18.86-1.09-10.5-1-21-1.46-31.58-2-6.87-.34-13.69-1.62-20.61-1.17a27,27,0,0,1-6.12-.66c-4-.91-6.31-4.19-8.71-7.08-3.45-4.14-4.74-9-4.68-14.5,0.16-17.29.06-34.59,0.06-52.13,2,1.55,2.89,3.67,4,5.54a131.19,131.19,0,0,0,38.13,39.63,202.45,202.45,0,0,0,24.35,13.8c1.69,0.84,2.42.23,2.28-1.69-0.59-8-3.1-15.38-6.39-22.57a2.63,2.63,0,0,0-2.75-1.63,29.1,29.1,0,0,1-11.87-2.61c-14-6.19-25.14-16.44-36.49-26.35-1.21-1.06-2.46-2.08-3.7-3.11-3.75-2.5-4.55-5.93-3.65-10.22a22.23,22.23,0,0,0,.53-7,1.64,1.64,0,0,1-.29-1.65,121.42,121.42,0,0,1,6.11-24.3,100.63,100.63,0,0,1,16-27.53,82.65,82.65,0,0,1,15.23-14.61,7.64,7.64,0,0,0,3.36-5.89,33.78,33.78,0,0,0-.19-9.45c-0.58-2.65-1-2.77-3.25-1.81-6.74,2.93-13.36,6.12-20,9.22a10.36,10.36,0,0,1-3.26,1.28c-2.4,0-3.91,2.19-6.15,2.61a31.44,31.44,0,0,1-1.16-10A250.52,250.52,0,0,1,142,297c1.08-6.42,2-12.89,3.05-19.32a171,171,0,0,0,2.16-30.92c-0.07-2.85-1.17-5.45-1.34-8.24,0.31-1.4-.54-2.51-0.9-3.75-2.68-9.34-8.45-16.19-16.81-20.94a17.2,17.2,0,0,0-3.14-1.53c-2-.67-3.11-1.92-3.17-4.49-0.29-11.81-1.44-23.57-2.28-35.35-0.4-5.56-.71-11.12-1.13-16.68-0.74-10-.88-20.1-1.91-30.09-0.78-7.53-.39-15.12-1.67-22.6-0.22-1.27,0-3-2-2.74-1.8.26-2.12,1.66-1.81,3.37a25.41,25.41,0,0,1,.54,5.47c-0.26,6.71,1.25,13.31,1.16,20a28.85,28.85,0,0,0,.32,3.28c0.41,2.83.41,5.7,0.87,8.52l0.08,2.1A108.1,108.1,0,0,0,115,160c0.34,2.61,0,5.31.31,7.93,1,8.53.9,17.14,2,25.67,0.52,4.07.41,8.22,0.58,12.33a24.79,24.79,0,0,1,.1,2.87c-0.36,4.9,3.28,6.14,6.77,7.7a29.39,29.39,0,0,1,14.36,13.94,3.49,3.49,0,0,1,.17,2.58c-1.56,5.74-2.9,11.54-5.53,16.95-1.23,2.52-2.44,5-4.88,6.55a2.18,2.18,0,0,1-2.43.08,16.56,16.56,0,0,1-5.85-5.2,91.16,91.16,0,0,1-8.09-13.24c-3.33-6.3-6.67-12.6-9.87-19-3.84-7.66-7.69-15.31-12.13-22.65-0.45-.75-0.9-1.5-1.38-2.23-0.62-1-1.54-1.66-2.54-.9-0.73.56-1.56,1.31-.74,2.76C89,201.63,92.19,207,95,212.61c3,6,6.17,12,9.24,18,4.21,8.23,8.36,16.51,13.85,24a15.41,15.41,0,0,0,6.3,5.4c4.47,1.86,7.76.22,10.71-4.31,3.17-4.86,4.89-10.35,6.48-16a4.69,4.69,0,0,1,1.47,3.7c0.33,9.24.44,18.44-.89,27.67C141.52,275.34,140.3,279.64,140.5,284.08Z"/>
      <path class="cls-1" d="M131.78,423.39a33.6,33.6,0,0,1,5.55,4.57,236,236,0,0,0,26.17,21.13A66.16,66.16,0,0,0,178,456.58a22.77,22.77,0,0,0,7,1.55c3.87,0.09,3.72.18,5.15,3.62a93.77,93.77,0,0,1,4.56,15.91,1.73,1.73,0,0,1-.1,1.69,1.64,1.64,0,0,1-1.84-.18C179.62,472.41,167,464.77,156,454.57a128,128,0,0,1-23.88-29.68,6.38,6.38,0,0,1-.47-1A1.34,1.34,0,0,1,131.78,423.39Z"/>
      <path class="cls-1" d="M265.5,58.36c3.9,0,7.8-.06,11.71,0,1.86,0,2.64-.57,2.59-2.55-0.11-4.93,0-9.87-.07-14.8,0-1.79.64-2.32,2.34-2.21a159.08,159.08,0,0,1,19,2.19c2.59,0.49,5.25.38,7.83,1.18,1.85,0.57,1.65,1.22.77,2.39A162,162,0,0,0,295,68.45a220.23,220.23,0,0,0-10.55,23c-1.72,4.56-3.74,9-5.37,13.61-1.44,4.06-2.81,8.14-4.25,12.19s-2.82,7.95-4.29,11.9c-1.77,4.76-3.62,9.49-5.39,14.26-1.87,5-3.78,10.08-5.5,15.18-1,2.94-1.68,6-2.85,8.89-0.3.76-.5,1.43-1.4,1.37-1.08-.08-0.88-1-0.92-1.7a200.73,200.73,0,0,0-3.68-26.12,185.13,185.13,0,0,0-4.88-20.24c-2.5-8-4.86-16-7.76-23.92-2.46-6.7-5-13.35-7.79-19.92a247,247,0,0,0-11.21-23,78.34,78.34,0,0,1-4-7.79c-1.16-2.85-.42-4.15,2.8-4.6,4.87-.68,9.78-1.14,14.63-1.9,5.25-.83,10.57-0.6,15.82-1.27,1.95-.25,2.61.48,2.57,2.43-0.1,4.78,0,9.57,0,14.36,0,3.13,0,3.14,3.25,3.15H265.5Z"/>
      <path class="cls-1" d="M131.14,405.48c-0.62,3.53-1.51,7-1.27,10.66a7.6,7.6,0,0,1-.16,2,1,1,0,0,1-1.17.78,0.84,0.84,0,0,1-.89-1c0.23-2.4-.79-4.64-0.86-7-0.12-3.78-1.5-7.25-2.26-10.87-0.84-4-2.11-7.86-2.77-11.91-0.89-5.47-2.37-10.86-3.12-16.35-0.65-4.76-1.06-9.57.16-14.42,1.78-7,6.82-11.18,12.39-15,4.94-3.37,10.41-5.79,15.57-8.78,1.63-1.71,3.89-2.31,5.93-3.28,5.18-2.45,10.3-5,15.6-7.23,2.61-1.08,3.67-.48,3.69,2.26a52.33,52.33,0,0,1-.24,9,5.11,5.11,0,0,1-2.08,3.47,92.7,92.7,0,0,0-24.23,26.83,97.54,97.54,0,0,0-10.24,23.57c-1.18,4.09-2,8.27-3.11,12.36C131.61,402.22,132.36,404,131.14,405.48Z"/>
      <path class="cls-1" d="M95,365.77a51.58,51.58,0,0,1-3.24-15.62c-0.33-9.05,1.48-17.43,9.52-23.1,3.67-2.58,7.85-3.27,12.27-3.29,8,0,15.17,2.49,22,6.29,1.62,5.21-.44,8.37-5.23,10.65a28.31,28.31,0,0,0-9.21,7.74c-4.38,5.22-5.19,11.36-4.87,17.93a87,87,0,0,0,1.73,13c0.94,4.64,1.72,9.31,2.91,13.91,0.72,2.78,1.76,5.56,1.85,8.72-1.52-.45-2.06-1.68-2.91-2.47-4.63-4.3-9.33-8.58-13.15-13.61-4.23-5.57-8.15-11.4-10.52-18.09A14.21,14.21,0,0,0,95,365.77Z"/>
      <path class="cls-1" d="M131.14,405.48c-0.14-4,1-7.78,2-11.6,0.5-1.82.86-3.68,1.37-5.52A101.78,101.78,0,0,1,142.32,369a99.27,99.27,0,0,1,14.36-20.36,78,78,0,0,1,11.44-10.31c1.87-1.41,3.25-2.85,3.26-5.29,0-2.79.1-5.59,0-8.38-0.06-1.8-.79-2.07-2.47-1.27Q158,328.5,147.18,333.57a1.22,1.22,0,0,1-.44,0c-0.52-.13-1.31.24-1.53-0.35s0.93-.45,1-1.07c2-1.68,4.45-2.43,6.72-3.53,4.9-2.38,9.88-4.61,14.81-6.94a18.29,18.29,0,0,0,3.21-1.38c0.89-.64,1.5,0,1.77.92a13.06,13.06,0,0,1,.89,4.73c-0.24,3.27.45,6.59-.75,9.84a5.56,5.56,0,0,1-2,2.75A92.38,92.38,0,0,0,148.1,363a94.68,94.68,0,0,0-7.8,14.6,96.84,96.84,0,0,0-4.39,12.77c-1.42,5.47-2.29,11-3.37,16.52-0.89.72-.14,1.84-0.81,3C130.81,408.36,131.43,406.83,131.14,405.48Z"/>
      <path class="cls-1" d="M265.75,8.89c12.44-.55,25.33,1.19,38.28,1.32,2.78,0,5.56.53,8.34,0.8a2.24,2.24,0,0,1,2.21,1.53,36.29,36.29,0,0,1,.76,18.07,54.66,54.66,0,0,1-1.55,6.15c-0.57,1.71-1.33,2.32-3,2.06-4.86-.76-9.7-1.64-14.58-2.24-5-.62-10.14-0.66-15.13-1.49-7.9-1.31-15.83-1.22-23.74-1-7.1.21-14.19,1.11-21.28,1.7a177.94,177.94,0,0,0-20.49,2.86c-1.42.29-2.25-.18-2.54-1.64a34,34,0,0,1,0-10.67c0.69-6.11,5.6-9.12,8.82-13.3,1.47-1.9,4.4-2.74,7-2.88C240.95,9.53,253.06,8.47,265.75,8.89Z"/>
      <path class="cls-1" d="M236.75,112.22c-0.51-.85-0.49-2-1.28-2.68-0.1-2-1.47-3.49-2.42-5a156.91,156.91,0,0,0-9.21-13.42,152.22,152.22,0,0,0-11.44-13.3A139.34,139.34,0,0,0,188.76,58.5c-2.57-1.67-3.78-5.46-2.63-9A25,25,0,0,1,194.27,37c4-3.18,8.18-6.19,12.28-9.27a19.73,19.73,0,0,1,2.83-1.83,10.2,10.2,0,0,0-.79,6.64c0.63,3.5.45,7.09,1.82,10.56,0.88,2.23,1.29,4.67,2.26,7a72.41,72.41,0,0,0,4.09,7.62c1.62,2.84,3,5.78,4.34,8.73,1.46,3.23,3.33,6.24,4.57,9.58a129.48,129.48,0,0,0,5.58,13.51c0.91,1.78.37,4.21,2.44,5.41a1.78,1.78,0,0,1,0,.41c0.89,1.86.86,4.07,2.19,5.76h0a7.28,7.28,0,0,0,1.31,3.55,1.58,1.58,0,0,1,.05.4c0.08,1.58.88,3,1.29,4.45h0c0.81,2.19,1,4.56,2.2,6.64h0c0.07,1.09,1,2.31-.5,3.16a1.65,1.65,0,0,1-.31-0.14c0.28-1.2-.85-1.93-1-3C238.33,114.81,237.88,113.32,236.75,112.22Z"/>
      <path class="cls-1" d="M366.3,503.26c-2.39,1.32-5,.79-7.52.88A32.8,32.8,0,0,1,366.3,503.26Z"/>
      <path class="cls-1" d="M376.47,501.95c-1.34,1-2.89.91-4.44,0.86A10,10,0,0,1,376.47,501.95Z"/>
      <path class="cls-1" d="M370.75,502.85c-1.43.72-3,.27-4.46,0.41C367.72,502.42,369.26,502.95,370.75,502.85Z"/>
      <path class="cls-1" d="M113.93,141a24.67,24.67,0,0,1-.87-8.52A26.49,26.49,0,0,1,113.93,141Z"/>
      <path class="cls-1" d="M219,10.35a31.29,31.29,0,0,0-7.09,7.81c-1.81,2.66-4.8,4-7.28,6-5,3.87-10.35,7.21-14.9,11.63-4.78,4.64-7.58,10.16-7.75,16.9,0,1,0,1.81-1.47,1A185.39,185.39,0,0,0,160,43.28c-1.85-.76-2.52-2.52-3-4.11-2.65-8.55-.3-13.41,7-18,6.76-4.28,14.46-6,22.22-7.62,7.49-1.57,15.08-2.2,22.64-3.11C212.12,10,215.44,10.35,219,10.35Z"/>
      <path class="cls-1" d="M256.24,481.18c-0.9-2.52-.46-5.19-0.75-7.78a86.07,86.07,0,0,1-.08-9.46,2.76,2.76,0,0,1,.37,1C255.49,470.36,256.47,475.75,256.24,481.18Z"/>
      <path class="cls-1" d="M255.31,453.88c-1.1-2.76-.81-5.65-0.84-8.52A28.62,28.62,0,0,1,255.31,453.88Z"/>
      <path class="cls-1" d="M256.64,487.91c-0.74-2.21-.24-4.5-0.4-6.75C257.18,483.37,256.52,485.66,256.64,487.91Z"/>
      <path class="cls-1" d="M323,11.86c7.23,0.64,14.46.84,21.53,2,12.18,2,23.4,6.31,32.1,15.66,2.63,2.82,2.71,3.39.49,6.57a52.12,52.12,0,0,1-15.58,14.26c-1.29.8-2.43,0.51-3.53-.63-4.09-4.22-8.24-8.38-12.37-12.56l-22.31-22.6c-0.36-.37-0.74-0.72-1.08-1.11s-1-.66-0.76-1.22C321.76,11.51,322.51,12,323,11.86Z"/>
      <path class="cls-1" d="M91,333.16a47.67,47.67,0,0,0-2.4,8.51,43.42,43.42,0,0,0,.26,15.72,60.65,60.65,0,0,0,7.48,19.82c0.87,1.43,1.35,3.09,2.56,4.32a0.88,0.88,0,0,1,.32,1.16c-0.47.56-1,0-1.33-.25-5.25-4.24-11-7.78-16.07-12.3S72,361.33,68.27,355.79a6.31,6.31,0,0,0-1.13-1c-3.66-4.62-5.5-10.06-6.86-15.67a8.76,8.76,0,0,1,.38-4.75c1-3.18,1.74-6.44,2.91-9.6a54.08,54.08,0,0,1,17.91-24.67c9.64-7.45,20.68-8.78,32.28-7.11,3.05,0.44,6,1.76,9,2.68,0.27,0.71,1.09.67,1.77,1.32a38,38,0,0,1-11.36,2.51c-4.41.19-8.83,0.11-13.25,0.09-1.61,0-2.72.35-2.82,2.25s1.09,2.52,2.75,2.6c3.3,0.16,6.61.18,9.9,0.5,5.94,0.58,11.69,1.78,16.17,6.2,1,1.42.43,2.34-.86,3.26-1.54,1.11-3.47,1.54-4.86,2.88h0a13.59,13.59,0,0,0-3.55,1.33h0c-2.53,1.22-5.31.95-8,1.33l-2.14.9c-1.55.25-3.2,0.14-4.46,1.33h0a24,24,0,0,0-4.45,2.62,6,6,0,0,0-1.79,1.77C94.22,328.72,92.29,330.71,91,333.16Z"/>
      <path class="cls-1" d="M133.4,323.85c-0.1.73,0.83,1.63-.1,2.17-0.69.4-1.49,0-2.25-.39a47.17,47.17,0,0,0-8.7-3.1A9.49,9.49,0,0,0,117.7,321a56.3,56.3,0,0,0,9.95-5.22c1.42-.9,2.32,0,3.17,2.47C131.5,320.17,131.77,322.34,133.4,323.85Z"/>
      <path class="cls-1" d="M120.17,317.25c0.55-1.73,2.38-1.64,3.58-2.41,1.48-.94,2.51-1.86,2.14-3.74,1.84,1.55,1.79,1.79-.05,3.07A26.82,26.82,0,0,1,120.17,317.25Z"/>
      <path class="cls-1" d="M91,333.16c0.75-2.84,2.68-4.83,4.82-6.66q0,0.43,0,.86c-1.36,1.49-2.85,2.89-3.53,4.87Z"/>
      <path class="cls-1" d="M108.66,319.89a0.43,0.43,0,0,1,.15-0.15l7.83-1.17C114.19,320.26,111.39,319.86,108.66,319.89Z"/>
      <path class="cls-1" d="M97.62,324.73a6.82,6.82,0,0,1,4.45-2.62C100.64,323.08,99.39,324.35,97.62,324.73Z"/>
      <path class="cls-1" d="M102.05,322.12c1.07-1.83,2.86-1.29,4.46-1.33Z"/>
      <path class="cls-1" d="M116.63,318.57a3.64,3.64,0,0,1,3.55-1.33C119,317.77,118,318.76,116.63,318.57Z"/>
      <path class="cls-1" d="M292.88,95.34c-4.1,4.48-7.44,9.55-11.13,14.4-1-1.33.67-2.17,0.59-3.31,2.9-7.14,5.61-14.35,8.75-21.38a248,248,0,0,1,12.48-24.53c3.85-6.56,8.79-12.42,12.19-19.23A34.56,34.56,0,0,0,319,30.94a64.32,64.32,0,0,0,.88-10.28c0-1.54-.82-2.9-0.83-4.4l0.7-.55,11,11.67a14.15,14.15,0,0,0,2.73,3.16l20.84,21c1.64,1.65,1.58,1.73-.53,2.85-6.69,3.52-13.73,6.36-20.37,9.92a182,182,0,0,0-19.68,11.8A140.67,140.67,0,0,0,293.5,94.22,5.1,5.1,0,0,0,292.88,95.34Z"/>
      <path class="cls-1" d="M240.3,119.31c0.95-.93.25-2.12,0.5-3.16,0.6,2.24,2,4.31,1.53,7.16C241.08,122,241.07,120.46,240.3,119.31Z"/>
      <path class="cls-1" d="M240.8,116.15c-1.56-1.94-1.94-4.27-2.2-6.64C239.82,111.56,240.17,113.9,240.8,116.15Z"/>
      <path class="cls-1" d="M235.95,101.12c-1.71-1.55-1.7-3.75-2.19-5.76C234.95,97.1,235.22,99.19,235.95,101.12Z"/>
      <path class="cls-1" d="M238.6,109.51a5.51,5.51,0,0,1-1.29-4.45C237.75,106.54,238.86,107.83,238.6,109.51Z"/>
      <path class="cls-1" d="M237.25,104.67c-1.6-.76-1.34-2.19-1.31-3.55C236.36,102.31,237.2,103.34,237.25,104.67Z"/>
      <path class="cls-1" d="M236.75,112.22c1.57,0.85,2,2.38,2.24,4A15.17,15.17,0,0,1,236.75,112.22Z"/>
      <path class="cls-1" d="M312.4,483.41l9.61-3.52,11.84-4.33q3.89-1.41,7.79-2.79c3.9-1.38,7.82-2.74,11.72-4.14s8-2.9,12-4.38c4.84-1.79,9.68-3.58,14.5-5.42,2.71-1,5.39-2.16,8.08-3.24a26.7,26.7,0,0,0,3.66-1.24c1.59-.8,1.68,0,1.67,1.24,0,3.51-.06,7-0.09,10.53l0,0c-3,1-5.92,2-8.85,3-3.28,1.19-6.55,2.36-9.94,3.23s-6.56,1.94-9.86,2.81c-4,1.06-8.06,2-12.11,3-3.56.83-7.22,1.21-10.74,2.26a16.44,16.44,0,0,1-2.83.35,159.92,159.92,0,0,1-17.43,2.51c-2,.17-4,0.76-6,1l-0.43,0c-0.9.42-1.86,0.12-2.78,0.2-0.36,0-.8,0-0.73-0.51S312.11,483.61,312.4,483.41Z"/>
      <path class="cls-1" d="M393.2,466.12c0.76-.53.47-1.33,0.48-2,0-2.93,0-5.86,0-8.8a2.71,2.71,0,0,0-.42-2.09c-0.22-.23-0.79-0.36-0.48-0.8a1.39,1.39,0,0,1,1-.37,0.76,0.76,0,0,1,.83.82c0,0.29,0,.59,0,0.88,0,3.88,0,7.77,0,11.65,0,1.64-.62,2.33-2.27,2-0.26-.83.83-0.71,0.89-1.3Z"/>
      <path class="cls-1" d="M315.47,484.25a17.76,17.76,0,0,1,4.17-1.1c4-.07,7.82-1.32,11.74-1.41,2.6-.06,4.93-1.4,7.52-1-4.59,1.89-9.53,1.87-14.33,2.47C321.55,483.58,318.6,484.83,315.47,484.25Z"/>
      <path class="cls-1" d="M309.36,486.23c-3.06,1.1-6.12.25-9,.95a0.74,0.74,0,0,1-1-.54c-0.09-.61.59-0.45,0.89-0.68C303.29,483.57,306.23,485.87,309.36,486.23Z"/>
      <path class="cls-1" d="M312.4,483.41a2.74,2.74,0,0,0-.4.49c-0.13.27,0,.33,0.28,0.33l2.77,0c-2.09.43-4.17,0.91-6.27,1.25-0.6.1-1.54,0.35-1.65-.8a3.26,3.26,0,0,0,2.8-.84C310.58,483.18,311.53,483.35,312.4,483.41Z"/>
      <path class="cls-1" d="M388.95,454.15c0.76-1.07,1.47-.74,2.37-0.82C390.69,454.45,389.94,454.17,388.95,454.15Z"/>
      <path class="cls-1" d="M391.92,460.63c0,4.49.21,3.42-4.14,5.24a65.64,65.64,0,0,1-10,3.51c-4.81,1.13-9.43,2.87-14.2,4.08a52.46,52.46,0,0,1-5.89,1.29c-3.36.46-6.63,1.54-10,2.22-2.22.45-4.87,0.44-6.61,1.43-2.18,1.23-4,1.19-6.18,1.1-1.44-.06-2.87,1-4.47.78-0.41-.07-1,0.08-1-0.53a0.94,0.94,0,0,1,.91-0.77c4.3-1.43,8.54-3,12.79-4.59,3.68-1.38,7.56-2.4,11.16-3.93,5-2.11,10.31-3.15,15.13-5.68a32.29,32.29,0,0,1,4.88-1.68c3.73-1.23,7.3-2.87,11-4.22,1.51-.55,3-1,4.54-1.59s2.36-.23,2.13,1.59A14.24,14.24,0,0,0,391.92,460.63Z"/>
    </g>
  </g>
</svg>
